G04 #@! TF.GenerationSoftware,KiCad,Pcbnew,9.0.0*
G04 #@! TF.CreationDate,2025-03-30T00:29:37+00:00*
G04 #@! TF.ProjectId,1MHzAdaptor,314d487a-4164-4617-9074-6f722e6b6963,03b*
G04 #@! TF.SameCoordinates,Original*
G04 #@! TF.FileFunction,AssemblyDrawing,Bot*
%FSLAX46Y46*%
G04 Gerber Fmt 4.6, Leading zero omitted, Abs format (unit mm)*
G04 Created by KiCad (PCBNEW 9.0.0) date 2025-03-30 00:29:37*
%MOMM*%
%LPD*%
G01*
G04 APERTURE LIST*
%ADD10C,0.150000*%
G04 APERTURE END LIST*
D10*
X141229800Y-69287837D02*
X141277419Y-69430694D01*
X141277419Y-69430694D02*
X141277419Y-69668789D01*
X141277419Y-69668789D02*
X141229800Y-69764027D01*
X141229800Y-69764027D02*
X141182180Y-69811646D01*
X141182180Y-69811646D02*
X141086942Y-69859265D01*
X141086942Y-69859265D02*
X140991704Y-69859265D01*
X140991704Y-69859265D02*
X140896466Y-69811646D01*
X140896466Y-69811646D02*
X140848847Y-69764027D01*
X140848847Y-69764027D02*
X140801228Y-69668789D01*
X140801228Y-69668789D02*
X140753609Y-69478313D01*
X140753609Y-69478313D02*
X140705990Y-69383075D01*
X140705990Y-69383075D02*
X140658371Y-69335456D01*
X140658371Y-69335456D02*
X140563133Y-69287837D01*
X140563133Y-69287837D02*
X140467895Y-69287837D01*
X140467895Y-69287837D02*
X140372657Y-69335456D01*
X140372657Y-69335456D02*
X140325038Y-69383075D01*
X140325038Y-69383075D02*
X140277419Y-69478313D01*
X140277419Y-69478313D02*
X140277419Y-69716408D01*
X140277419Y-69716408D02*
X140325038Y-69859265D01*
X141277419Y-70430694D02*
X141229800Y-70335456D01*
X141229800Y-70335456D02*
X141182180Y-70287837D01*
X141182180Y-70287837D02*
X141086942Y-70240218D01*
X141086942Y-70240218D02*
X140801228Y-70240218D01*
X140801228Y-70240218D02*
X140705990Y-70287837D01*
X140705990Y-70287837D02*
X140658371Y-70335456D01*
X140658371Y-70335456D02*
X140610752Y-70430694D01*
X140610752Y-70430694D02*
X140610752Y-70573551D01*
X140610752Y-70573551D02*
X140658371Y-70668789D01*
X140658371Y-70668789D02*
X140705990Y-70716408D01*
X140705990Y-70716408D02*
X140801228Y-70764027D01*
X140801228Y-70764027D02*
X141086942Y-70764027D01*
X141086942Y-70764027D02*
X141182180Y-70716408D01*
X141182180Y-70716408D02*
X141229800Y-70668789D01*
X141229800Y-70668789D02*
X141277419Y-70573551D01*
X141277419Y-70573551D02*
X141277419Y-70430694D01*
X141277419Y-71335456D02*
X141229800Y-71240218D01*
X141229800Y-71240218D02*
X141134561Y-71192599D01*
X141134561Y-71192599D02*
X140277419Y-71192599D01*
X141277419Y-72144980D02*
X140277419Y-72144980D01*
X141229800Y-72144980D02*
X141277419Y-72049742D01*
X141277419Y-72049742D02*
X141277419Y-71859266D01*
X141277419Y-71859266D02*
X141229800Y-71764028D01*
X141229800Y-71764028D02*
X141182180Y-71716409D01*
X141182180Y-71716409D02*
X141086942Y-71668790D01*
X141086942Y-71668790D02*
X140801228Y-71668790D01*
X140801228Y-71668790D02*
X140705990Y-71716409D01*
X140705990Y-71716409D02*
X140658371Y-71764028D01*
X140658371Y-71764028D02*
X140610752Y-71859266D01*
X140610752Y-71859266D02*
X140610752Y-72049742D01*
X140610752Y-72049742D02*
X140658371Y-72144980D01*
X141229800Y-73002123D02*
X141277419Y-72906885D01*
X141277419Y-72906885D02*
X141277419Y-72716409D01*
X141277419Y-72716409D02*
X141229800Y-72621171D01*
X141229800Y-72621171D02*
X141134561Y-72573552D01*
X141134561Y-72573552D02*
X140753609Y-72573552D01*
X140753609Y-72573552D02*
X140658371Y-72621171D01*
X140658371Y-72621171D02*
X140610752Y-72716409D01*
X140610752Y-72716409D02*
X140610752Y-72906885D01*
X140610752Y-72906885D02*
X140658371Y-73002123D01*
X140658371Y-73002123D02*
X140753609Y-73049742D01*
X140753609Y-73049742D02*
X140848847Y-73049742D01*
X140848847Y-73049742D02*
X140944085Y-72573552D01*
X141277419Y-73478314D02*
X140610752Y-73478314D01*
X140801228Y-73478314D02*
X140705990Y-73525933D01*
X140705990Y-73525933D02*
X140658371Y-73573552D01*
X140658371Y-73573552D02*
X140610752Y-73668790D01*
X140610752Y-73668790D02*
X140610752Y-73764028D01*
X140277419Y-74383076D02*
X140991704Y-74383076D01*
X140991704Y-74383076D02*
X141134561Y-74335457D01*
X141134561Y-74335457D02*
X141229800Y-74240219D01*
X141229800Y-74240219D02*
X141277419Y-74097362D01*
X141277419Y-74097362D02*
X141277419Y-74002124D01*
X140610752Y-75287838D02*
X141277419Y-75287838D01*
X140610752Y-74859267D02*
X141134561Y-74859267D01*
X141134561Y-74859267D02*
X141229800Y-74906886D01*
X141229800Y-74906886D02*
X141277419Y-75002124D01*
X141277419Y-75002124D02*
X141277419Y-75144981D01*
X141277419Y-75144981D02*
X141229800Y-75240219D01*
X141229800Y-75240219D02*
X141182180Y-75287838D01*
X141277419Y-75764029D02*
X140610752Y-75764029D01*
X140705990Y-75764029D02*
X140658371Y-75811648D01*
X140658371Y-75811648D02*
X140610752Y-75906886D01*
X140610752Y-75906886D02*
X140610752Y-76049743D01*
X140610752Y-76049743D02*
X140658371Y-76144981D01*
X140658371Y-76144981D02*
X140753609Y-76192600D01*
X140753609Y-76192600D02*
X141277419Y-76192600D01*
X140753609Y-76192600D02*
X140658371Y-76240219D01*
X140658371Y-76240219D02*
X140610752Y-76335457D01*
X140610752Y-76335457D02*
X140610752Y-76478314D01*
X140610752Y-76478314D02*
X140658371Y-76573553D01*
X140658371Y-76573553D02*
X140753609Y-76621172D01*
X140753609Y-76621172D02*
X141277419Y-76621172D01*
X140610752Y-77097362D02*
X141610752Y-77097362D01*
X140658371Y-77097362D02*
X140610752Y-77192600D01*
X140610752Y-77192600D02*
X140610752Y-77383076D01*
X140610752Y-77383076D02*
X140658371Y-77478314D01*
X140658371Y-77478314D02*
X140705990Y-77525933D01*
X140705990Y-77525933D02*
X140801228Y-77573552D01*
X140801228Y-77573552D02*
X141086942Y-77573552D01*
X141086942Y-77573552D02*
X141182180Y-77525933D01*
X141182180Y-77525933D02*
X141229800Y-77478314D01*
X141229800Y-77478314D02*
X141277419Y-77383076D01*
X141277419Y-77383076D02*
X141277419Y-77192600D01*
X141277419Y-77192600D02*
X141229800Y-77097362D01*
X141229800Y-78383076D02*
X141277419Y-78287838D01*
X141277419Y-78287838D02*
X141277419Y-78097362D01*
X141277419Y-78097362D02*
X141229800Y-78002124D01*
X141229800Y-78002124D02*
X141134561Y-77954505D01*
X141134561Y-77954505D02*
X140753609Y-77954505D01*
X140753609Y-77954505D02*
X140658371Y-78002124D01*
X140658371Y-78002124D02*
X140610752Y-78097362D01*
X140610752Y-78097362D02*
X140610752Y-78287838D01*
X140610752Y-78287838D02*
X140658371Y-78383076D01*
X140658371Y-78383076D02*
X140753609Y-78430695D01*
X140753609Y-78430695D02*
X140848847Y-78430695D01*
X140848847Y-78430695D02*
X140944085Y-77954505D01*
X141277419Y-78859267D02*
X140610752Y-78859267D01*
X140801228Y-78859267D02*
X140705990Y-78906886D01*
X140705990Y-78906886D02*
X140658371Y-78954505D01*
X140658371Y-78954505D02*
X140610752Y-79049743D01*
X140610752Y-79049743D02*
X140610752Y-79144981D01*
X141372657Y-79240220D02*
X141372657Y-80002124D01*
X140277419Y-80144982D02*
X140277419Y-80764029D01*
X140277419Y-80764029D02*
X140658371Y-80430696D01*
X140658371Y-80430696D02*
X140658371Y-80573553D01*
X140658371Y-80573553D02*
X140705990Y-80668791D01*
X140705990Y-80668791D02*
X140753609Y-80716410D01*
X140753609Y-80716410D02*
X140848847Y-80764029D01*
X140848847Y-80764029D02*
X141086942Y-80764029D01*
X141086942Y-80764029D02*
X141182180Y-80716410D01*
X141182180Y-80716410D02*
X141229800Y-80668791D01*
X141229800Y-80668791D02*
X141277419Y-80573553D01*
X141277419Y-80573553D02*
X141277419Y-80287839D01*
X141277419Y-80287839D02*
X141229800Y-80192601D01*
X141229800Y-80192601D02*
X141182180Y-80144982D01*
X141372657Y-80954506D02*
X141372657Y-81716410D01*
X140753609Y-82287839D02*
X140801228Y-82430696D01*
X140801228Y-82430696D02*
X140848847Y-82478315D01*
X140848847Y-82478315D02*
X140944085Y-82525934D01*
X140944085Y-82525934D02*
X141086942Y-82525934D01*
X141086942Y-82525934D02*
X141182180Y-82478315D01*
X141182180Y-82478315D02*
X141229800Y-82430696D01*
X141229800Y-82430696D02*
X141277419Y-82335458D01*
X141277419Y-82335458D02*
X141277419Y-81954506D01*
X141277419Y-81954506D02*
X140277419Y-81954506D01*
X140277419Y-81954506D02*
X140277419Y-82287839D01*
X140277419Y-82287839D02*
X140325038Y-82383077D01*
X140325038Y-82383077D02*
X140372657Y-82430696D01*
X140372657Y-82430696D02*
X140467895Y-82478315D01*
X140467895Y-82478315D02*
X140563133Y-82478315D01*
X140563133Y-82478315D02*
X140658371Y-82430696D01*
X140658371Y-82430696D02*
X140705990Y-82383077D01*
X140705990Y-82383077D02*
X140753609Y-82287839D01*
X140753609Y-82287839D02*
X140753609Y-81954506D01*
X141277419Y-82954506D02*
X140610752Y-82954506D01*
X140801228Y-82954506D02*
X140705990Y-83002125D01*
X140705990Y-83002125D02*
X140658371Y-83049744D01*
X140658371Y-83049744D02*
X140610752Y-83144982D01*
X140610752Y-83144982D02*
X140610752Y-83240220D01*
X141277419Y-83573554D02*
X140610752Y-83573554D01*
X140277419Y-83573554D02*
X140325038Y-83525935D01*
X140325038Y-83525935D02*
X140372657Y-83573554D01*
X140372657Y-83573554D02*
X140325038Y-83621173D01*
X140325038Y-83621173D02*
X140277419Y-83573554D01*
X140277419Y-83573554D02*
X140372657Y-83573554D01*
X141277419Y-84478315D02*
X140277419Y-84478315D01*
X141229800Y-84478315D02*
X141277419Y-84383077D01*
X141277419Y-84383077D02*
X141277419Y-84192601D01*
X141277419Y-84192601D02*
X141229800Y-84097363D01*
X141229800Y-84097363D02*
X141182180Y-84049744D01*
X141182180Y-84049744D02*
X141086942Y-84002125D01*
X141086942Y-84002125D02*
X140801228Y-84002125D01*
X140801228Y-84002125D02*
X140705990Y-84049744D01*
X140705990Y-84049744D02*
X140658371Y-84097363D01*
X140658371Y-84097363D02*
X140610752Y-84192601D01*
X140610752Y-84192601D02*
X140610752Y-84383077D01*
X140610752Y-84383077D02*
X140658371Y-84478315D01*
X140610752Y-85383077D02*
X141420276Y-85383077D01*
X141420276Y-85383077D02*
X141515514Y-85335458D01*
X141515514Y-85335458D02*
X141563133Y-85287839D01*
X141563133Y-85287839D02*
X141610752Y-85192601D01*
X141610752Y-85192601D02*
X141610752Y-85049744D01*
X141610752Y-85049744D02*
X141563133Y-84954506D01*
X141229800Y-85383077D02*
X141277419Y-85287839D01*
X141277419Y-85287839D02*
X141277419Y-85097363D01*
X141277419Y-85097363D02*
X141229800Y-85002125D01*
X141229800Y-85002125D02*
X141182180Y-84954506D01*
X141182180Y-84954506D02*
X141086942Y-84906887D01*
X141086942Y-84906887D02*
X140801228Y-84906887D01*
X140801228Y-84906887D02*
X140705990Y-84954506D01*
X140705990Y-84954506D02*
X140658371Y-85002125D01*
X140658371Y-85002125D02*
X140610752Y-85097363D01*
X140610752Y-85097363D02*
X140610752Y-85287839D01*
X140610752Y-85287839D02*
X140658371Y-85383077D01*
X141229800Y-86240220D02*
X141277419Y-86144982D01*
X141277419Y-86144982D02*
X141277419Y-85954506D01*
X141277419Y-85954506D02*
X141229800Y-85859268D01*
X141229800Y-85859268D02*
X141134561Y-85811649D01*
X141134561Y-85811649D02*
X140753609Y-85811649D01*
X140753609Y-85811649D02*
X140658371Y-85859268D01*
X140658371Y-85859268D02*
X140610752Y-85954506D01*
X140610752Y-85954506D02*
X140610752Y-86144982D01*
X140610752Y-86144982D02*
X140658371Y-86240220D01*
X140658371Y-86240220D02*
X140753609Y-86287839D01*
X140753609Y-86287839D02*
X140848847Y-86287839D01*
X140848847Y-86287839D02*
X140944085Y-85811649D01*
X141277419Y-87144982D02*
X140277419Y-87144982D01*
X141229800Y-87144982D02*
X141277419Y-87049744D01*
X141277419Y-87049744D02*
X141277419Y-86859268D01*
X141277419Y-86859268D02*
X141229800Y-86764030D01*
X141229800Y-86764030D02*
X141182180Y-86716411D01*
X141182180Y-86716411D02*
X141086942Y-86668792D01*
X141086942Y-86668792D02*
X140801228Y-86668792D01*
X140801228Y-86668792D02*
X140705990Y-86716411D01*
X140705990Y-86716411D02*
X140658371Y-86764030D01*
X140658371Y-86764030D02*
X140610752Y-86859268D01*
X140610752Y-86859268D02*
X140610752Y-87049744D01*
X140610752Y-87049744D02*
X140658371Y-87144982D01*
X141277419Y-88144982D02*
X141277419Y-87573554D01*
X141277419Y-87859268D02*
X140277419Y-87859268D01*
X140277419Y-87859268D02*
X140420276Y-87764030D01*
X140420276Y-87764030D02*
X140515514Y-87668792D01*
X140515514Y-87668792D02*
X140563133Y-87573554D01*
X140372657Y-88525935D02*
X140325038Y-88573554D01*
X140325038Y-88573554D02*
X140277419Y-88668792D01*
X140277419Y-88668792D02*
X140277419Y-88906887D01*
X140277419Y-88906887D02*
X140325038Y-89002125D01*
X140325038Y-89002125D02*
X140372657Y-89049744D01*
X140372657Y-89049744D02*
X140467895Y-89097363D01*
X140467895Y-89097363D02*
X140563133Y-89097363D01*
X140563133Y-89097363D02*
X140705990Y-89049744D01*
X140705990Y-89049744D02*
X141277419Y-88478316D01*
X141277419Y-88478316D02*
X141277419Y-89097363D01*
M02*
