G04 #@! TF.GenerationSoftware,KiCad,Pcbnew,9.0.0*
G04 #@! TF.CreationDate,2025-03-30T00:29:37+00:00*
G04 #@! TF.ProjectId,1MHzAdaptor,314d487a-4164-4617-9074-6f722e6b6963,03b*
G04 #@! TF.SameCoordinates,Original*
G04 #@! TF.FileFunction,Legend,Top*
G04 #@! TF.FilePolarity,Positive*
%FSLAX46Y46*%
G04 Gerber Fmt 4.6, Leading zero omitted, Abs format (unit mm)*
G04 Created by KiCad (PCBNEW 9.0.0) date 2025-03-30 00:29:37*
%MOMM*%
%LPD*%
G01*
G04 APERTURE LIST*
G04 Aperture macros list*
%AMRoundRect*
0 Rectangle with rounded corners*
0 $1 Rounding radius*
0 $2 $3 $4 $5 $6 $7 $8 $9 X,Y pos of 4 corners*
0 Add a 4 corners polygon primitive as box body*
4,1,4,$2,$3,$4,$5,$6,$7,$8,$9,$2,$3,0*
0 Add four circle primitives for the rounded corners*
1,1,$1+$1,$2,$3*
1,1,$1+$1,$4,$5*
1,1,$1+$1,$6,$7*
1,1,$1+$1,$8,$9*
0 Add four rect primitives between the rounded corners*
20,1,$1+$1,$2,$3,$4,$5,0*
20,1,$1+$1,$4,$5,$6,$7,0*
20,1,$1+$1,$6,$7,$8,$9,0*
20,1,$1+$1,$8,$9,$2,$3,0*%
G04 Aperture macros list end*
%ADD10C,0.120000*%
%ADD11C,0.140000*%
%ADD12C,0.100000*%
%ADD13R,1.700000X1.700000*%
%ADD14O,1.700000X1.700000*%
%ADD15RoundRect,0.100000X-0.225000X-0.100000X0.225000X-0.100000X0.225000X0.100000X-0.225000X0.100000X0*%
%ADD16RoundRect,0.140000X0.140000X0.170000X-0.140000X0.170000X-0.140000X-0.170000X0.140000X-0.170000X0*%
%ADD17RoundRect,0.100000X-0.637500X-0.100000X0.637500X-0.100000X0.637500X0.100000X-0.637500X0.100000X0*%
%ADD18RoundRect,0.112500X-0.112500X0.187500X-0.112500X-0.187500X0.112500X-0.187500X0.112500X0.187500X0*%
%ADD19R,0.500000X0.320000*%
%ADD20RoundRect,0.135000X-0.135000X-0.185000X0.135000X-0.185000X0.135000X0.185000X-0.135000X0.185000X0*%
%ADD21RoundRect,0.135000X0.185000X-0.135000X0.185000X0.135000X-0.185000X0.135000X-0.185000X-0.135000X0*%
%ADD22RoundRect,0.135000X-0.185000X0.135000X-0.185000X-0.135000X0.185000X-0.135000X0.185000X0.135000X0*%
%ADD23RoundRect,0.140000X-0.170000X0.140000X-0.170000X-0.140000X0.170000X-0.140000X0.170000X0.140000X0*%
%ADD24RoundRect,0.250000X-0.325000X-0.650000X0.325000X-0.650000X0.325000X0.650000X-0.325000X0.650000X0*%
%ADD25RoundRect,0.218750X-0.256250X0.218750X-0.256250X-0.218750X0.256250X-0.218750X0.256250X0.218750X0*%
%ADD26RoundRect,0.135000X0.135000X0.185000X-0.135000X0.185000X-0.135000X-0.185000X0.135000X-0.185000X0*%
%ADD27RoundRect,0.218750X0.256250X-0.218750X0.256250X0.218750X-0.256250X0.218750X-0.256250X-0.218750X0*%
%ADD28RoundRect,0.250000X-0.475000X0.250000X-0.475000X-0.250000X0.475000X-0.250000X0.475000X0.250000X0*%
%ADD29RoundRect,0.140000X-0.140000X-0.170000X0.140000X-0.170000X0.140000X0.170000X-0.140000X0.170000X0*%
%ADD30RoundRect,0.140000X0.170000X-0.140000X0.170000X0.140000X-0.170000X0.140000X-0.170000X-0.140000X0*%
%ADD31RoundRect,0.150000X0.512500X0.150000X-0.512500X0.150000X-0.512500X-0.150000X0.512500X-0.150000X0*%
%ADD32RoundRect,0.150000X-0.512500X-0.150000X0.512500X-0.150000X0.512500X0.150000X-0.512500X0.150000X0*%
G04 APERTURE END LIST*
D10*
X136804400Y-92964000D02*
X136804400Y-92710000D01*
X137541000Y-92024200D02*
X136804400Y-92964000D01*
X137083800Y-91567000D02*
X137439400Y-91567000D01*
X136804400Y-92964000D02*
X137058400Y-92964000D01*
X138099800Y-92024200D02*
X137541000Y-92024200D01*
X136804400Y-92710000D02*
X136804400Y-92964000D01*
X137083800Y-91567000D02*
X137236200Y-91719400D01*
X137083800Y-91567000D02*
X137236200Y-91414600D01*
X137795000Y-90957400D02*
X138049000Y-90957400D01*
X137439400Y-91567000D02*
X137795000Y-90957400D01*
X132255695Y-87521228D02*
X132219981Y-87592657D01*
X132219981Y-87592657D02*
X132219981Y-87735514D01*
X132219981Y-87735514D02*
X132255695Y-87806943D01*
X132255695Y-87806943D02*
X132327124Y-87878371D01*
X132327124Y-87878371D02*
X132398552Y-87914085D01*
X132398552Y-87914085D02*
X132541410Y-87914085D01*
X132541410Y-87914085D02*
X132612838Y-87878371D01*
X132612838Y-87878371D02*
X132684267Y-87806943D01*
X132684267Y-87806943D02*
X132719981Y-87735514D01*
X132719981Y-87735514D02*
X132719981Y-87592657D01*
X132719981Y-87592657D02*
X132684267Y-87521228D01*
X131969981Y-87664085D02*
X132005695Y-87842657D01*
X132005695Y-87842657D02*
X132112838Y-88021228D01*
X132112838Y-88021228D02*
X132291410Y-88128371D01*
X132291410Y-88128371D02*
X132469981Y-88164085D01*
X132469981Y-88164085D02*
X132648552Y-88128371D01*
X132648552Y-88128371D02*
X132827124Y-88021228D01*
X132827124Y-88021228D02*
X132934267Y-87842657D01*
X132934267Y-87842657D02*
X132969981Y-87664085D01*
X132969981Y-87664085D02*
X132934267Y-87485514D01*
X132934267Y-87485514D02*
X132827124Y-87306943D01*
X132827124Y-87306943D02*
X132648552Y-87199800D01*
X132648552Y-87199800D02*
X132469981Y-87164085D01*
X132469981Y-87164085D02*
X132291410Y-87199800D01*
X132291410Y-87199800D02*
X132112838Y-87306943D01*
X132112838Y-87306943D02*
X132005695Y-87485514D01*
X132005695Y-87485514D02*
X131969981Y-87664085D01*
X132827124Y-86271228D02*
X132077124Y-86271228D01*
X132827124Y-85842657D02*
X132398552Y-86164085D01*
X132077124Y-85842657D02*
X132505695Y-86271228D01*
X132791410Y-85235514D02*
X132827124Y-85306942D01*
X132827124Y-85306942D02*
X132827124Y-85449800D01*
X132827124Y-85449800D02*
X132791410Y-85521228D01*
X132791410Y-85521228D02*
X132719981Y-85556942D01*
X132719981Y-85556942D02*
X132434267Y-85556942D01*
X132434267Y-85556942D02*
X132362838Y-85521228D01*
X132362838Y-85521228D02*
X132327124Y-85449800D01*
X132327124Y-85449800D02*
X132327124Y-85306942D01*
X132327124Y-85306942D02*
X132362838Y-85235514D01*
X132362838Y-85235514D02*
X132434267Y-85199800D01*
X132434267Y-85199800D02*
X132505695Y-85199800D01*
X132505695Y-85199800D02*
X132577124Y-85556942D01*
X132327124Y-84878371D02*
X132827124Y-84878371D01*
X132398552Y-84878371D02*
X132362838Y-84842657D01*
X132362838Y-84842657D02*
X132327124Y-84771228D01*
X132327124Y-84771228D02*
X132327124Y-84664085D01*
X132327124Y-84664085D02*
X132362838Y-84592657D01*
X132362838Y-84592657D02*
X132434267Y-84556943D01*
X132434267Y-84556943D02*
X132827124Y-84556943D01*
X132827124Y-83271228D02*
X132827124Y-83628371D01*
X132827124Y-83628371D02*
X132077124Y-83628371D01*
X132827124Y-82914085D02*
X132791410Y-82985514D01*
X132791410Y-82985514D02*
X132755695Y-83021228D01*
X132755695Y-83021228D02*
X132684267Y-83056942D01*
X132684267Y-83056942D02*
X132469981Y-83056942D01*
X132469981Y-83056942D02*
X132398552Y-83021228D01*
X132398552Y-83021228D02*
X132362838Y-82985514D01*
X132362838Y-82985514D02*
X132327124Y-82914085D01*
X132327124Y-82914085D02*
X132327124Y-82806942D01*
X132327124Y-82806942D02*
X132362838Y-82735514D01*
X132362838Y-82735514D02*
X132398552Y-82699800D01*
X132398552Y-82699800D02*
X132469981Y-82664085D01*
X132469981Y-82664085D02*
X132684267Y-82664085D01*
X132684267Y-82664085D02*
X132755695Y-82699800D01*
X132755695Y-82699800D02*
X132791410Y-82735514D01*
X132791410Y-82735514D02*
X132827124Y-82806942D01*
X132827124Y-82806942D02*
X132827124Y-82914085D01*
X132327124Y-82414086D02*
X132827124Y-82271229D01*
X132827124Y-82271229D02*
X132469981Y-82128371D01*
X132469981Y-82128371D02*
X132827124Y-81985514D01*
X132827124Y-81985514D02*
X132327124Y-81842657D01*
X132791410Y-81271229D02*
X132827124Y-81342657D01*
X132827124Y-81342657D02*
X132827124Y-81485515D01*
X132827124Y-81485515D02*
X132791410Y-81556943D01*
X132791410Y-81556943D02*
X132719981Y-81592657D01*
X132719981Y-81592657D02*
X132434267Y-81592657D01*
X132434267Y-81592657D02*
X132362838Y-81556943D01*
X132362838Y-81556943D02*
X132327124Y-81485515D01*
X132327124Y-81485515D02*
X132327124Y-81342657D01*
X132327124Y-81342657D02*
X132362838Y-81271229D01*
X132362838Y-81271229D02*
X132434267Y-81235515D01*
X132434267Y-81235515D02*
X132505695Y-81235515D01*
X132505695Y-81235515D02*
X132577124Y-81592657D01*
X132541410Y-80342657D02*
X132541410Y-79771229D01*
X132827124Y-78842657D02*
X132077124Y-78842657D01*
X132077124Y-78842657D02*
X132612838Y-78592657D01*
X132612838Y-78592657D02*
X132077124Y-78342657D01*
X132077124Y-78342657D02*
X132827124Y-78342657D01*
X132827124Y-77664086D02*
X132434267Y-77664086D01*
X132434267Y-77664086D02*
X132362838Y-77699800D01*
X132362838Y-77699800D02*
X132327124Y-77771228D01*
X132327124Y-77771228D02*
X132327124Y-77914086D01*
X132327124Y-77914086D02*
X132362838Y-77985514D01*
X132791410Y-77664086D02*
X132827124Y-77735514D01*
X132827124Y-77735514D02*
X132827124Y-77914086D01*
X132827124Y-77914086D02*
X132791410Y-77985514D01*
X132791410Y-77985514D02*
X132719981Y-78021228D01*
X132719981Y-78021228D02*
X132648552Y-78021228D01*
X132648552Y-78021228D02*
X132577124Y-77985514D01*
X132577124Y-77985514D02*
X132541410Y-77914086D01*
X132541410Y-77914086D02*
X132541410Y-77735514D01*
X132541410Y-77735514D02*
X132505695Y-77664086D01*
X132827124Y-77306943D02*
X132327124Y-77306943D01*
X132469981Y-77306943D02*
X132398552Y-77271229D01*
X132398552Y-77271229D02*
X132362838Y-77235515D01*
X132362838Y-77235515D02*
X132327124Y-77164086D01*
X132327124Y-77164086D02*
X132327124Y-77092657D01*
X132148552Y-76306942D02*
X132112838Y-76271228D01*
X132112838Y-76271228D02*
X132077124Y-76199800D01*
X132077124Y-76199800D02*
X132077124Y-76021228D01*
X132077124Y-76021228D02*
X132112838Y-75949800D01*
X132112838Y-75949800D02*
X132148552Y-75914085D01*
X132148552Y-75914085D02*
X132219981Y-75878371D01*
X132219981Y-75878371D02*
X132291410Y-75878371D01*
X132291410Y-75878371D02*
X132398552Y-75914085D01*
X132398552Y-75914085D02*
X132827124Y-76342657D01*
X132827124Y-76342657D02*
X132827124Y-75878371D01*
X132077124Y-75414085D02*
X132077124Y-75342656D01*
X132077124Y-75342656D02*
X132112838Y-75271228D01*
X132112838Y-75271228D02*
X132148552Y-75235514D01*
X132148552Y-75235514D02*
X132219981Y-75199799D01*
X132219981Y-75199799D02*
X132362838Y-75164085D01*
X132362838Y-75164085D02*
X132541410Y-75164085D01*
X132541410Y-75164085D02*
X132684267Y-75199799D01*
X132684267Y-75199799D02*
X132755695Y-75235514D01*
X132755695Y-75235514D02*
X132791410Y-75271228D01*
X132791410Y-75271228D02*
X132827124Y-75342656D01*
X132827124Y-75342656D02*
X132827124Y-75414085D01*
X132827124Y-75414085D02*
X132791410Y-75485514D01*
X132791410Y-75485514D02*
X132755695Y-75521228D01*
X132755695Y-75521228D02*
X132684267Y-75556942D01*
X132684267Y-75556942D02*
X132541410Y-75592656D01*
X132541410Y-75592656D02*
X132362838Y-75592656D01*
X132362838Y-75592656D02*
X132219981Y-75556942D01*
X132219981Y-75556942D02*
X132148552Y-75521228D01*
X132148552Y-75521228D02*
X132112838Y-75485514D01*
X132112838Y-75485514D02*
X132077124Y-75414085D01*
X132148552Y-74878370D02*
X132112838Y-74842656D01*
X132112838Y-74842656D02*
X132077124Y-74771228D01*
X132077124Y-74771228D02*
X132077124Y-74592656D01*
X132077124Y-74592656D02*
X132112838Y-74521228D01*
X132112838Y-74521228D02*
X132148552Y-74485513D01*
X132148552Y-74485513D02*
X132219981Y-74449799D01*
X132219981Y-74449799D02*
X132291410Y-74449799D01*
X132291410Y-74449799D02*
X132398552Y-74485513D01*
X132398552Y-74485513D02*
X132827124Y-74914085D01*
X132827124Y-74914085D02*
X132827124Y-74449799D01*
X132077124Y-73771227D02*
X132077124Y-74128370D01*
X132077124Y-74128370D02*
X132434267Y-74164084D01*
X132434267Y-74164084D02*
X132398552Y-74128370D01*
X132398552Y-74128370D02*
X132362838Y-74056942D01*
X132362838Y-74056942D02*
X132362838Y-73878370D01*
X132362838Y-73878370D02*
X132398552Y-73806942D01*
X132398552Y-73806942D02*
X132434267Y-73771227D01*
X132434267Y-73771227D02*
X132505695Y-73735513D01*
X132505695Y-73735513D02*
X132684267Y-73735513D01*
X132684267Y-73735513D02*
X132755695Y-73771227D01*
X132755695Y-73771227D02*
X132791410Y-73806942D01*
X132791410Y-73806942D02*
X132827124Y-73878370D01*
X132827124Y-73878370D02*
X132827124Y-74056942D01*
X132827124Y-74056942D02*
X132791410Y-74128370D01*
X132791410Y-74128370D02*
X132755695Y-74164084D01*
D11*
X130985939Y-85128287D02*
X130985939Y-85699715D01*
X130985939Y-85414001D02*
X129985939Y-85414001D01*
X129985939Y-85414001D02*
X130128796Y-85509239D01*
X130128796Y-85509239D02*
X130224034Y-85604477D01*
X130224034Y-85604477D02*
X130271653Y-85699715D01*
X130985939Y-84699715D02*
X129985939Y-84699715D01*
X129985939Y-84699715D02*
X130700224Y-84366382D01*
X130700224Y-84366382D02*
X129985939Y-84033049D01*
X129985939Y-84033049D02*
X130985939Y-84033049D01*
X130985939Y-83556858D02*
X129985939Y-83556858D01*
X130462129Y-83556858D02*
X130462129Y-82985430D01*
X130985939Y-82985430D02*
X129985939Y-82985430D01*
X130319272Y-82604477D02*
X130319272Y-82080668D01*
X130319272Y-82080668D02*
X130985939Y-82604477D01*
X130985939Y-82604477D02*
X130985939Y-82080668D01*
X130319272Y-81080667D02*
X130319272Y-80699715D01*
X129985939Y-80937810D02*
X130843081Y-80937810D01*
X130843081Y-80937810D02*
X130938320Y-80890191D01*
X130938320Y-80890191D02*
X130985939Y-80794953D01*
X130985939Y-80794953D02*
X130985939Y-80699715D01*
X130985939Y-80223524D02*
X130938320Y-80318762D01*
X130938320Y-80318762D02*
X130890700Y-80366381D01*
X130890700Y-80366381D02*
X130795462Y-80414000D01*
X130795462Y-80414000D02*
X130509748Y-80414000D01*
X130509748Y-80414000D02*
X130414510Y-80366381D01*
X130414510Y-80366381D02*
X130366891Y-80318762D01*
X130366891Y-80318762D02*
X130319272Y-80223524D01*
X130319272Y-80223524D02*
X130319272Y-80080667D01*
X130319272Y-80080667D02*
X130366891Y-79985429D01*
X130366891Y-79985429D02*
X130414510Y-79937810D01*
X130414510Y-79937810D02*
X130509748Y-79890191D01*
X130509748Y-79890191D02*
X130795462Y-79890191D01*
X130795462Y-79890191D02*
X130890700Y-79937810D01*
X130890700Y-79937810D02*
X130938320Y-79985429D01*
X130938320Y-79985429D02*
X130985939Y-80080667D01*
X130985939Y-80080667D02*
X130985939Y-80223524D01*
X130985939Y-78128286D02*
X130509748Y-78461619D01*
X130985939Y-78699714D02*
X129985939Y-78699714D01*
X129985939Y-78699714D02*
X129985939Y-78318762D01*
X129985939Y-78318762D02*
X130033558Y-78223524D01*
X130033558Y-78223524D02*
X130081177Y-78175905D01*
X130081177Y-78175905D02*
X130176415Y-78128286D01*
X130176415Y-78128286D02*
X130319272Y-78128286D01*
X130319272Y-78128286D02*
X130414510Y-78175905D01*
X130414510Y-78175905D02*
X130462129Y-78223524D01*
X130462129Y-78223524D02*
X130509748Y-78318762D01*
X130509748Y-78318762D02*
X130509748Y-78699714D01*
X130985939Y-77271143D02*
X130462129Y-77271143D01*
X130462129Y-77271143D02*
X130366891Y-77318762D01*
X130366891Y-77318762D02*
X130319272Y-77414000D01*
X130319272Y-77414000D02*
X130319272Y-77604476D01*
X130319272Y-77604476D02*
X130366891Y-77699714D01*
X130938320Y-77271143D02*
X130985939Y-77366381D01*
X130985939Y-77366381D02*
X130985939Y-77604476D01*
X130985939Y-77604476D02*
X130938320Y-77699714D01*
X130938320Y-77699714D02*
X130843081Y-77747333D01*
X130843081Y-77747333D02*
X130747843Y-77747333D01*
X130747843Y-77747333D02*
X130652605Y-77699714D01*
X130652605Y-77699714D02*
X130604986Y-77604476D01*
X130604986Y-77604476D02*
X130604986Y-77366381D01*
X130604986Y-77366381D02*
X130557367Y-77271143D01*
X130938320Y-76842571D02*
X130985939Y-76747333D01*
X130985939Y-76747333D02*
X130985939Y-76556857D01*
X130985939Y-76556857D02*
X130938320Y-76461619D01*
X130938320Y-76461619D02*
X130843081Y-76414000D01*
X130843081Y-76414000D02*
X130795462Y-76414000D01*
X130795462Y-76414000D02*
X130700224Y-76461619D01*
X130700224Y-76461619D02*
X130652605Y-76556857D01*
X130652605Y-76556857D02*
X130652605Y-76699714D01*
X130652605Y-76699714D02*
X130604986Y-76794952D01*
X130604986Y-76794952D02*
X130509748Y-76842571D01*
X130509748Y-76842571D02*
X130462129Y-76842571D01*
X130462129Y-76842571D02*
X130366891Y-76794952D01*
X130366891Y-76794952D02*
X130319272Y-76699714D01*
X130319272Y-76699714D02*
X130319272Y-76556857D01*
X130319272Y-76556857D02*
X130366891Y-76461619D01*
X130319272Y-75985428D02*
X131319272Y-75985428D01*
X130366891Y-75985428D02*
X130319272Y-75890190D01*
X130319272Y-75890190D02*
X130319272Y-75699714D01*
X130319272Y-75699714D02*
X130366891Y-75604476D01*
X130366891Y-75604476D02*
X130414510Y-75556857D01*
X130414510Y-75556857D02*
X130509748Y-75509238D01*
X130509748Y-75509238D02*
X130795462Y-75509238D01*
X130795462Y-75509238D02*
X130890700Y-75556857D01*
X130890700Y-75556857D02*
X130938320Y-75604476D01*
X130938320Y-75604476D02*
X130985939Y-75699714D01*
X130985939Y-75699714D02*
X130985939Y-75890190D01*
X130985939Y-75890190D02*
X130938320Y-75985428D01*
X130985939Y-75080666D02*
X129985939Y-75080666D01*
X130366891Y-75080666D02*
X130319272Y-74985428D01*
X130319272Y-74985428D02*
X130319272Y-74794952D01*
X130319272Y-74794952D02*
X130366891Y-74699714D01*
X130366891Y-74699714D02*
X130414510Y-74652095D01*
X130414510Y-74652095D02*
X130509748Y-74604476D01*
X130509748Y-74604476D02*
X130795462Y-74604476D01*
X130795462Y-74604476D02*
X130890700Y-74652095D01*
X130890700Y-74652095D02*
X130938320Y-74699714D01*
X130938320Y-74699714D02*
X130985939Y-74794952D01*
X130985939Y-74794952D02*
X130985939Y-74985428D01*
X130985939Y-74985428D02*
X130938320Y-75080666D01*
X130938320Y-73794952D02*
X130985939Y-73890190D01*
X130985939Y-73890190D02*
X130985939Y-74080666D01*
X130985939Y-74080666D02*
X130938320Y-74175904D01*
X130938320Y-74175904D02*
X130843081Y-74223523D01*
X130843081Y-74223523D02*
X130462129Y-74223523D01*
X130462129Y-74223523D02*
X130366891Y-74175904D01*
X130366891Y-74175904D02*
X130319272Y-74080666D01*
X130319272Y-74080666D02*
X130319272Y-73890190D01*
X130319272Y-73890190D02*
X130366891Y-73794952D01*
X130366891Y-73794952D02*
X130462129Y-73747333D01*
X130462129Y-73747333D02*
X130557367Y-73747333D01*
X130557367Y-73747333D02*
X130652605Y-74223523D01*
X130985939Y-73318761D02*
X130319272Y-73318761D01*
X130509748Y-73318761D02*
X130414510Y-73271142D01*
X130414510Y-73271142D02*
X130366891Y-73223523D01*
X130366891Y-73223523D02*
X130319272Y-73128285D01*
X130319272Y-73128285D02*
X130319272Y-73033047D01*
X130985939Y-72699713D02*
X130319272Y-72699713D01*
X130509748Y-72699713D02*
X130414510Y-72652094D01*
X130414510Y-72652094D02*
X130366891Y-72604475D01*
X130366891Y-72604475D02*
X130319272Y-72509237D01*
X130319272Y-72509237D02*
X130319272Y-72413999D01*
X130319272Y-72175903D02*
X130985939Y-71937808D01*
X130319272Y-71699713D02*
X130985939Y-71937808D01*
X130985939Y-71937808D02*
X131224034Y-72033046D01*
X131224034Y-72033046D02*
X131271653Y-72080665D01*
X131271653Y-72080665D02*
X131319272Y-72175903D01*
X130985939Y-70556855D02*
X129985939Y-70556855D01*
X129985939Y-70556855D02*
X129985939Y-70175903D01*
X129985939Y-70175903D02*
X130033558Y-70080665D01*
X130033558Y-70080665D02*
X130081177Y-70033046D01*
X130081177Y-70033046D02*
X130176415Y-69985427D01*
X130176415Y-69985427D02*
X130319272Y-69985427D01*
X130319272Y-69985427D02*
X130414510Y-70033046D01*
X130414510Y-70033046D02*
X130462129Y-70080665D01*
X130462129Y-70080665D02*
X130509748Y-70175903D01*
X130509748Y-70175903D02*
X130509748Y-70556855D01*
X130985939Y-69556855D02*
X129985939Y-69556855D01*
X130985939Y-68318760D02*
X129985939Y-68318760D01*
X130319272Y-67842570D02*
X130985939Y-67842570D01*
X130414510Y-67842570D02*
X130366891Y-67794951D01*
X130366891Y-67794951D02*
X130319272Y-67699713D01*
X130319272Y-67699713D02*
X130319272Y-67556856D01*
X130319272Y-67556856D02*
X130366891Y-67461618D01*
X130366891Y-67461618D02*
X130462129Y-67413999D01*
X130462129Y-67413999D02*
X130985939Y-67413999D01*
X130319272Y-67080665D02*
X130319272Y-66699713D01*
X129985939Y-66937808D02*
X130843081Y-66937808D01*
X130843081Y-66937808D02*
X130938320Y-66890189D01*
X130938320Y-66890189D02*
X130985939Y-66794951D01*
X130985939Y-66794951D02*
X130985939Y-66699713D01*
X130938320Y-65985427D02*
X130985939Y-66080665D01*
X130985939Y-66080665D02*
X130985939Y-66271141D01*
X130985939Y-66271141D02*
X130938320Y-66366379D01*
X130938320Y-66366379D02*
X130843081Y-66413998D01*
X130843081Y-66413998D02*
X130462129Y-66413998D01*
X130462129Y-66413998D02*
X130366891Y-66366379D01*
X130366891Y-66366379D02*
X130319272Y-66271141D01*
X130319272Y-66271141D02*
X130319272Y-66080665D01*
X130319272Y-66080665D02*
X130366891Y-65985427D01*
X130366891Y-65985427D02*
X130462129Y-65937808D01*
X130462129Y-65937808D02*
X130557367Y-65937808D01*
X130557367Y-65937808D02*
X130652605Y-66413998D01*
X130985939Y-65509236D02*
X130319272Y-65509236D01*
X130509748Y-65509236D02*
X130414510Y-65461617D01*
X130414510Y-65461617D02*
X130366891Y-65413998D01*
X130366891Y-65413998D02*
X130319272Y-65318760D01*
X130319272Y-65318760D02*
X130319272Y-65223522D01*
X130319272Y-65033045D02*
X130319272Y-64652093D01*
X130985939Y-64890188D02*
X130128796Y-64890188D01*
X130128796Y-64890188D02*
X130033558Y-64842569D01*
X130033558Y-64842569D02*
X129985939Y-64747331D01*
X129985939Y-64747331D02*
X129985939Y-64652093D01*
X130985939Y-63890188D02*
X130462129Y-63890188D01*
X130462129Y-63890188D02*
X130366891Y-63937807D01*
X130366891Y-63937807D02*
X130319272Y-64033045D01*
X130319272Y-64033045D02*
X130319272Y-64223521D01*
X130319272Y-64223521D02*
X130366891Y-64318759D01*
X130938320Y-63890188D02*
X130985939Y-63985426D01*
X130985939Y-63985426D02*
X130985939Y-64223521D01*
X130985939Y-64223521D02*
X130938320Y-64318759D01*
X130938320Y-64318759D02*
X130843081Y-64366378D01*
X130843081Y-64366378D02*
X130747843Y-64366378D01*
X130747843Y-64366378D02*
X130652605Y-64318759D01*
X130652605Y-64318759D02*
X130604986Y-64223521D01*
X130604986Y-64223521D02*
X130604986Y-63985426D01*
X130604986Y-63985426D02*
X130557367Y-63890188D01*
X130938320Y-62985426D02*
X130985939Y-63080664D01*
X130985939Y-63080664D02*
X130985939Y-63271140D01*
X130985939Y-63271140D02*
X130938320Y-63366378D01*
X130938320Y-63366378D02*
X130890700Y-63413997D01*
X130890700Y-63413997D02*
X130795462Y-63461616D01*
X130795462Y-63461616D02*
X130509748Y-63461616D01*
X130509748Y-63461616D02*
X130414510Y-63413997D01*
X130414510Y-63413997D02*
X130366891Y-63366378D01*
X130366891Y-63366378D02*
X130319272Y-63271140D01*
X130319272Y-63271140D02*
X130319272Y-63080664D01*
X130319272Y-63080664D02*
X130366891Y-62985426D01*
X130938320Y-62175902D02*
X130985939Y-62271140D01*
X130985939Y-62271140D02*
X130985939Y-62461616D01*
X130985939Y-62461616D02*
X130938320Y-62556854D01*
X130938320Y-62556854D02*
X130843081Y-62604473D01*
X130843081Y-62604473D02*
X130462129Y-62604473D01*
X130462129Y-62604473D02*
X130366891Y-62556854D01*
X130366891Y-62556854D02*
X130319272Y-62461616D01*
X130319272Y-62461616D02*
X130319272Y-62271140D01*
X130319272Y-62271140D02*
X130366891Y-62175902D01*
X130366891Y-62175902D02*
X130462129Y-62128283D01*
X130462129Y-62128283D02*
X130557367Y-62128283D01*
X130557367Y-62128283D02*
X130652605Y-62604473D01*
D10*
X132880313Y-104963324D02*
X132630313Y-104606181D01*
X132451742Y-104963324D02*
X132451742Y-104213324D01*
X132451742Y-104213324D02*
X132737456Y-104213324D01*
X132737456Y-104213324D02*
X132808885Y-104249038D01*
X132808885Y-104249038D02*
X132844599Y-104284752D01*
X132844599Y-104284752D02*
X132880313Y-104356181D01*
X132880313Y-104356181D02*
X132880313Y-104463324D01*
X132880313Y-104463324D02*
X132844599Y-104534752D01*
X132844599Y-104534752D02*
X132808885Y-104570467D01*
X132808885Y-104570467D02*
X132737456Y-104606181D01*
X132737456Y-104606181D02*
X132451742Y-104606181D01*
X133487456Y-104927610D02*
X133416028Y-104963324D01*
X133416028Y-104963324D02*
X133273171Y-104963324D01*
X133273171Y-104963324D02*
X133201742Y-104927610D01*
X133201742Y-104927610D02*
X133166028Y-104856181D01*
X133166028Y-104856181D02*
X133166028Y-104570467D01*
X133166028Y-104570467D02*
X133201742Y-104499038D01*
X133201742Y-104499038D02*
X133273171Y-104463324D01*
X133273171Y-104463324D02*
X133416028Y-104463324D01*
X133416028Y-104463324D02*
X133487456Y-104499038D01*
X133487456Y-104499038D02*
X133523171Y-104570467D01*
X133523171Y-104570467D02*
X133523171Y-104641895D01*
X133523171Y-104641895D02*
X133166028Y-104713324D01*
X133773170Y-104463324D02*
X133951742Y-104963324D01*
X133951742Y-104963324D02*
X134130313Y-104463324D01*
X135130314Y-104213324D02*
X135201743Y-104213324D01*
X135201743Y-104213324D02*
X135273171Y-104249038D01*
X135273171Y-104249038D02*
X135308886Y-104284752D01*
X135308886Y-104284752D02*
X135344600Y-104356181D01*
X135344600Y-104356181D02*
X135380314Y-104499038D01*
X135380314Y-104499038D02*
X135380314Y-104677610D01*
X135380314Y-104677610D02*
X135344600Y-104820467D01*
X135344600Y-104820467D02*
X135308886Y-104891895D01*
X135308886Y-104891895D02*
X135273171Y-104927610D01*
X135273171Y-104927610D02*
X135201743Y-104963324D01*
X135201743Y-104963324D02*
X135130314Y-104963324D01*
X135130314Y-104963324D02*
X135058886Y-104927610D01*
X135058886Y-104927610D02*
X135023171Y-104891895D01*
X135023171Y-104891895D02*
X134987457Y-104820467D01*
X134987457Y-104820467D02*
X134951743Y-104677610D01*
X134951743Y-104677610D02*
X134951743Y-104499038D01*
X134951743Y-104499038D02*
X134987457Y-104356181D01*
X134987457Y-104356181D02*
X135023171Y-104284752D01*
X135023171Y-104284752D02*
X135058886Y-104249038D01*
X135058886Y-104249038D02*
X135130314Y-104213324D01*
X135630314Y-104213324D02*
X136094600Y-104213324D01*
X136094600Y-104213324D02*
X135844600Y-104499038D01*
X135844600Y-104499038D02*
X135951743Y-104499038D01*
X135951743Y-104499038D02*
X136023172Y-104534752D01*
X136023172Y-104534752D02*
X136058886Y-104570467D01*
X136058886Y-104570467D02*
X136094600Y-104641895D01*
X136094600Y-104641895D02*
X136094600Y-104820467D01*
X136094600Y-104820467D02*
X136058886Y-104891895D01*
X136058886Y-104891895D02*
X136023172Y-104927610D01*
X136023172Y-104927610D02*
X135951743Y-104963324D01*
X135951743Y-104963324D02*
X135737457Y-104963324D01*
X135737457Y-104963324D02*
X135666029Y-104927610D01*
X135666029Y-104927610D02*
X135630314Y-104891895D01*
X136416029Y-104963324D02*
X136416029Y-104213324D01*
X136416029Y-104499038D02*
X136487458Y-104463324D01*
X136487458Y-104463324D02*
X136630315Y-104463324D01*
X136630315Y-104463324D02*
X136701743Y-104499038D01*
X136701743Y-104499038D02*
X136737458Y-104534752D01*
X136737458Y-104534752D02*
X136773172Y-104606181D01*
X136773172Y-104606181D02*
X136773172Y-104820467D01*
X136773172Y-104820467D02*
X136737458Y-104891895D01*
X136737458Y-104891895D02*
X136701743Y-104927610D01*
X136701743Y-104927610D02*
X136630315Y-104963324D01*
X136630315Y-104963324D02*
X136487458Y-104963324D01*
X136487458Y-104963324D02*
X136416029Y-104927610D01*
D12*
X142190366Y-60666456D02*
X142190366Y-60133123D01*
X142457033Y-60399789D02*
X141923700Y-60399789D01*
X141757033Y-59466456D02*
X141757033Y-59799789D01*
X141757033Y-59799789D02*
X142090366Y-59833122D01*
X142090366Y-59833122D02*
X142057033Y-59799789D01*
X142057033Y-59799789D02*
X142023700Y-59733122D01*
X142023700Y-59733122D02*
X142023700Y-59566456D01*
X142023700Y-59566456D02*
X142057033Y-59499789D01*
X142057033Y-59499789D02*
X142090366Y-59466456D01*
X142090366Y-59466456D02*
X142157033Y-59433122D01*
X142157033Y-59433122D02*
X142323700Y-59433122D01*
X142323700Y-59433122D02*
X142390366Y-59466456D01*
X142390366Y-59466456D02*
X142423700Y-59499789D01*
X142423700Y-59499789D02*
X142457033Y-59566456D01*
X142457033Y-59566456D02*
X142457033Y-59733122D01*
X142457033Y-59733122D02*
X142423700Y-59799789D01*
X142423700Y-59799789D02*
X142390366Y-59833122D01*
X141757033Y-59233122D02*
X142457033Y-58999789D01*
X142457033Y-58999789D02*
X141757033Y-58766455D01*
X140171033Y-60733122D02*
X139471033Y-60733122D01*
X139471033Y-60733122D02*
X139471033Y-60466455D01*
X139471033Y-60466455D02*
X139504366Y-60399789D01*
X139504366Y-60399789D02*
X139537700Y-60366455D01*
X139537700Y-60366455D02*
X139604366Y-60333122D01*
X139604366Y-60333122D02*
X139704366Y-60333122D01*
X139704366Y-60333122D02*
X139771033Y-60366455D01*
X139771033Y-60366455D02*
X139804366Y-60399789D01*
X139804366Y-60399789D02*
X139837700Y-60466455D01*
X139837700Y-60466455D02*
X139837700Y-60733122D01*
X139471033Y-60099789D02*
X140171033Y-59933122D01*
X140171033Y-59933122D02*
X139671033Y-59799789D01*
X139671033Y-59799789D02*
X140171033Y-59666455D01*
X140171033Y-59666455D02*
X139471033Y-59499789D01*
X140171033Y-58833122D02*
X139837700Y-59066455D01*
X140171033Y-59233122D02*
X139471033Y-59233122D01*
X139471033Y-59233122D02*
X139471033Y-58966455D01*
X139471033Y-58966455D02*
X139504366Y-58899789D01*
X139504366Y-58899789D02*
X139537700Y-58866455D01*
X139537700Y-58866455D02*
X139604366Y-58833122D01*
X139604366Y-58833122D02*
X139704366Y-58833122D01*
X139704366Y-58833122D02*
X139771033Y-58866455D01*
X139771033Y-58866455D02*
X139804366Y-58899789D01*
X139804366Y-58899789D02*
X139837700Y-58966455D01*
X139837700Y-58966455D02*
X139837700Y-59233122D01*
X144457366Y-70637332D02*
X144424033Y-70703999D01*
X144424033Y-70703999D02*
X144424033Y-70803999D01*
X144424033Y-70803999D02*
X144457366Y-70903999D01*
X144457366Y-70903999D02*
X144524033Y-70970666D01*
X144524033Y-70970666D02*
X144590700Y-71003999D01*
X144590700Y-71003999D02*
X144724033Y-71037332D01*
X144724033Y-71037332D02*
X144824033Y-71037332D01*
X144824033Y-71037332D02*
X144957366Y-71003999D01*
X144957366Y-71003999D02*
X145024033Y-70970666D01*
X145024033Y-70970666D02*
X145090700Y-70903999D01*
X145090700Y-70903999D02*
X145124033Y-70803999D01*
X145124033Y-70803999D02*
X145124033Y-70737332D01*
X145124033Y-70737332D02*
X145090700Y-70637332D01*
X145090700Y-70637332D02*
X145057366Y-70603999D01*
X145057366Y-70603999D02*
X144824033Y-70603999D01*
X144824033Y-70603999D02*
X144824033Y-70737332D01*
X145124033Y-70303999D02*
X144424033Y-70303999D01*
X144424033Y-70303999D02*
X145124033Y-69903999D01*
X145124033Y-69903999D02*
X144424033Y-69903999D01*
X145124033Y-69570666D02*
X144424033Y-69570666D01*
X144424033Y-69570666D02*
X144424033Y-69403999D01*
X144424033Y-69403999D02*
X144457366Y-69303999D01*
X144457366Y-69303999D02*
X144524033Y-69237333D01*
X144524033Y-69237333D02*
X144590700Y-69203999D01*
X144590700Y-69203999D02*
X144724033Y-69170666D01*
X144724033Y-69170666D02*
X144824033Y-69170666D01*
X144824033Y-69170666D02*
X144957366Y-69203999D01*
X144957366Y-69203999D02*
X145024033Y-69237333D01*
X145024033Y-69237333D02*
X145090700Y-69303999D01*
X145090700Y-69303999D02*
X145124033Y-69403999D01*
X145124033Y-69403999D02*
X145124033Y-69570666D01*
X139777366Y-71004000D02*
X139777366Y-70470667D01*
X140044033Y-70737333D02*
X139510700Y-70737333D01*
X139344033Y-69804000D02*
X139344033Y-70137333D01*
X139344033Y-70137333D02*
X139677366Y-70170666D01*
X139677366Y-70170666D02*
X139644033Y-70137333D01*
X139644033Y-70137333D02*
X139610700Y-70070666D01*
X139610700Y-70070666D02*
X139610700Y-69904000D01*
X139610700Y-69904000D02*
X139644033Y-69837333D01*
X139644033Y-69837333D02*
X139677366Y-69804000D01*
X139677366Y-69804000D02*
X139744033Y-69770666D01*
X139744033Y-69770666D02*
X139910700Y-69770666D01*
X139910700Y-69770666D02*
X139977366Y-69804000D01*
X139977366Y-69804000D02*
X140010700Y-69837333D01*
X140010700Y-69837333D02*
X140044033Y-69904000D01*
X140044033Y-69904000D02*
X140044033Y-70070666D01*
X140044033Y-70070666D02*
X140010700Y-70137333D01*
X140010700Y-70137333D02*
X139977366Y-70170666D01*
X139344033Y-69570666D02*
X140044033Y-69337333D01*
X140044033Y-69337333D02*
X139344033Y-69103999D01*
X130921933Y-89701233D02*
X130688600Y-89367900D01*
X130521933Y-89701233D02*
X130521933Y-89001233D01*
X130521933Y-89001233D02*
X130788600Y-89001233D01*
X130788600Y-89001233D02*
X130855267Y-89034566D01*
X130855267Y-89034566D02*
X130888600Y-89067900D01*
X130888600Y-89067900D02*
X130921933Y-89134566D01*
X130921933Y-89134566D02*
X130921933Y-89234566D01*
X130921933Y-89234566D02*
X130888600Y-89301233D01*
X130888600Y-89301233D02*
X130855267Y-89334566D01*
X130855267Y-89334566D02*
X130788600Y-89367900D01*
X130788600Y-89367900D02*
X130521933Y-89367900D01*
X131155267Y-89001233D02*
X131621933Y-89701233D01*
X131621933Y-89001233D02*
X131155267Y-89701233D01*
X135572567Y-89034566D02*
X135505900Y-89001233D01*
X135505900Y-89001233D02*
X135405900Y-89001233D01*
X135405900Y-89001233D02*
X135305900Y-89034566D01*
X135305900Y-89034566D02*
X135239234Y-89101233D01*
X135239234Y-89101233D02*
X135205900Y-89167900D01*
X135205900Y-89167900D02*
X135172567Y-89301233D01*
X135172567Y-89301233D02*
X135172567Y-89401233D01*
X135172567Y-89401233D02*
X135205900Y-89534566D01*
X135205900Y-89534566D02*
X135239234Y-89601233D01*
X135239234Y-89601233D02*
X135305900Y-89667900D01*
X135305900Y-89667900D02*
X135405900Y-89701233D01*
X135405900Y-89701233D02*
X135472567Y-89701233D01*
X135472567Y-89701233D02*
X135572567Y-89667900D01*
X135572567Y-89667900D02*
X135605900Y-89634566D01*
X135605900Y-89634566D02*
X135605900Y-89401233D01*
X135605900Y-89401233D02*
X135472567Y-89401233D01*
X135905900Y-89701233D02*
X135905900Y-89001233D01*
X135905900Y-89001233D02*
X136305900Y-89701233D01*
X136305900Y-89701233D02*
X136305900Y-89001233D01*
X136639233Y-89701233D02*
X136639233Y-89001233D01*
X136639233Y-89001233D02*
X136805900Y-89001233D01*
X136805900Y-89001233D02*
X136905900Y-89034566D01*
X136905900Y-89034566D02*
X136972567Y-89101233D01*
X136972567Y-89101233D02*
X137005900Y-89167900D01*
X137005900Y-89167900D02*
X137039233Y-89301233D01*
X137039233Y-89301233D02*
X137039233Y-89401233D01*
X137039233Y-89401233D02*
X137005900Y-89534566D01*
X137005900Y-89534566D02*
X136972567Y-89601233D01*
X136972567Y-89601233D02*
X136905900Y-89667900D01*
X136905900Y-89667900D02*
X136805900Y-89701233D01*
X136805900Y-89701233D02*
X136639233Y-89701233D01*
X133045266Y-89001233D02*
X133445266Y-89001233D01*
X133245266Y-89701233D02*
X133245266Y-89001233D01*
X133611933Y-89001233D02*
X134078599Y-89701233D01*
X134078599Y-89001233D02*
X133611933Y-89701233D01*
X132593900Y-103783266D02*
X132627233Y-103683266D01*
X132627233Y-103683266D02*
X132627233Y-103516600D01*
X132627233Y-103516600D02*
X132593900Y-103449933D01*
X132593900Y-103449933D02*
X132560566Y-103416600D01*
X132560566Y-103416600D02*
X132493900Y-103383266D01*
X132493900Y-103383266D02*
X132427233Y-103383266D01*
X132427233Y-103383266D02*
X132360566Y-103416600D01*
X132360566Y-103416600D02*
X132327233Y-103449933D01*
X132327233Y-103449933D02*
X132293900Y-103516600D01*
X132293900Y-103516600D02*
X132260566Y-103649933D01*
X132260566Y-103649933D02*
X132227233Y-103716600D01*
X132227233Y-103716600D02*
X132193900Y-103749933D01*
X132193900Y-103749933D02*
X132127233Y-103783266D01*
X132127233Y-103783266D02*
X132060566Y-103783266D01*
X132060566Y-103783266D02*
X131993900Y-103749933D01*
X131993900Y-103749933D02*
X131960566Y-103716600D01*
X131960566Y-103716600D02*
X131927233Y-103649933D01*
X131927233Y-103649933D02*
X131927233Y-103483266D01*
X131927233Y-103483266D02*
X131960566Y-103383266D01*
X132260566Y-103083266D02*
X132260566Y-102849933D01*
X132627233Y-102749933D02*
X132627233Y-103083266D01*
X132627233Y-103083266D02*
X131927233Y-103083266D01*
X131927233Y-103083266D02*
X131927233Y-102749933D01*
X132627233Y-102049933D02*
X132293900Y-102283266D01*
X132627233Y-102449933D02*
X131927233Y-102449933D01*
X131927233Y-102449933D02*
X131927233Y-102183266D01*
X131927233Y-102183266D02*
X131960566Y-102116600D01*
X131960566Y-102116600D02*
X131993900Y-102083266D01*
X131993900Y-102083266D02*
X132060566Y-102049933D01*
X132060566Y-102049933D02*
X132160566Y-102049933D01*
X132160566Y-102049933D02*
X132227233Y-102083266D01*
X132227233Y-102083266D02*
X132260566Y-102116600D01*
X132260566Y-102116600D02*
X132293900Y-102183266D01*
X132293900Y-102183266D02*
X132293900Y-102449933D01*
X132627233Y-101749933D02*
X131927233Y-101749933D01*
X132427233Y-101449933D02*
X132427233Y-101116600D01*
X132627233Y-101516600D02*
X131927233Y-101283267D01*
X131927233Y-101283267D02*
X132627233Y-101049933D01*
X132627233Y-100483267D02*
X132627233Y-100816600D01*
X132627233Y-100816600D02*
X131927233Y-100816600D01*
X132893900Y-99516600D02*
X132860566Y-99549933D01*
X132860566Y-99549933D02*
X132760566Y-99616600D01*
X132760566Y-99616600D02*
X132693900Y-99649933D01*
X132693900Y-99649933D02*
X132593900Y-99683267D01*
X132593900Y-99683267D02*
X132427233Y-99716600D01*
X132427233Y-99716600D02*
X132293900Y-99716600D01*
X132293900Y-99716600D02*
X132127233Y-99683267D01*
X132127233Y-99683267D02*
X132027233Y-99649933D01*
X132027233Y-99649933D02*
X131960566Y-99616600D01*
X131960566Y-99616600D02*
X131860566Y-99549933D01*
X131860566Y-99549933D02*
X131827233Y-99516600D01*
X131927233Y-99249933D02*
X132493900Y-99249933D01*
X132493900Y-99249933D02*
X132560566Y-99216600D01*
X132560566Y-99216600D02*
X132593900Y-99183266D01*
X132593900Y-99183266D02*
X132627233Y-99116600D01*
X132627233Y-99116600D02*
X132627233Y-98983266D01*
X132627233Y-98983266D02*
X132593900Y-98916600D01*
X132593900Y-98916600D02*
X132560566Y-98883266D01*
X132560566Y-98883266D02*
X132493900Y-98849933D01*
X132493900Y-98849933D02*
X131927233Y-98849933D01*
X132893900Y-98583267D02*
X132860566Y-98549933D01*
X132860566Y-98549933D02*
X132760566Y-98483267D01*
X132760566Y-98483267D02*
X132693900Y-98449933D01*
X132693900Y-98449933D02*
X132593900Y-98416600D01*
X132593900Y-98416600D02*
X132427233Y-98383267D01*
X132427233Y-98383267D02*
X132293900Y-98383267D01*
X132293900Y-98383267D02*
X132127233Y-98416600D01*
X132127233Y-98416600D02*
X132027233Y-98449933D01*
X132027233Y-98449933D02*
X131960566Y-98483267D01*
X131960566Y-98483267D02*
X131860566Y-98549933D01*
X131860566Y-98549933D02*
X131827233Y-98583267D01*
X144330366Y-60299788D02*
X144297033Y-60366455D01*
X144297033Y-60366455D02*
X144297033Y-60466455D01*
X144297033Y-60466455D02*
X144330366Y-60566455D01*
X144330366Y-60566455D02*
X144397033Y-60633122D01*
X144397033Y-60633122D02*
X144463700Y-60666455D01*
X144463700Y-60666455D02*
X144597033Y-60699788D01*
X144597033Y-60699788D02*
X144697033Y-60699788D01*
X144697033Y-60699788D02*
X144830366Y-60666455D01*
X144830366Y-60666455D02*
X144897033Y-60633122D01*
X144897033Y-60633122D02*
X144963700Y-60566455D01*
X144963700Y-60566455D02*
X144997033Y-60466455D01*
X144997033Y-60466455D02*
X144997033Y-60399788D01*
X144997033Y-60399788D02*
X144963700Y-60299788D01*
X144963700Y-60299788D02*
X144930366Y-60266455D01*
X144930366Y-60266455D02*
X144697033Y-60266455D01*
X144697033Y-60266455D02*
X144697033Y-60399788D01*
X144997033Y-59966455D02*
X144297033Y-59966455D01*
X144297033Y-59966455D02*
X144997033Y-59566455D01*
X144997033Y-59566455D02*
X144297033Y-59566455D01*
X144997033Y-59233122D02*
X144297033Y-59233122D01*
X144297033Y-59233122D02*
X144297033Y-59066455D01*
X144297033Y-59066455D02*
X144330366Y-58966455D01*
X144330366Y-58966455D02*
X144397033Y-58899789D01*
X144397033Y-58899789D02*
X144463700Y-58866455D01*
X144463700Y-58866455D02*
X144597033Y-58833122D01*
X144597033Y-58833122D02*
X144697033Y-58833122D01*
X144697033Y-58833122D02*
X144830366Y-58866455D01*
X144830366Y-58866455D02*
X144897033Y-58899789D01*
X144897033Y-58899789D02*
X144963700Y-58966455D01*
X144963700Y-58966455D02*
X144997033Y-59066455D01*
X144997033Y-59066455D02*
X144997033Y-59233122D01*
X134967233Y-103499932D02*
X134967233Y-103166599D01*
X135167233Y-103566599D02*
X134467233Y-103333266D01*
X134467233Y-103333266D02*
X135167233Y-103099932D01*
X134467233Y-102866599D02*
X135033900Y-102866599D01*
X135033900Y-102866599D02*
X135100566Y-102833266D01*
X135100566Y-102833266D02*
X135133900Y-102799932D01*
X135133900Y-102799932D02*
X135167233Y-102733266D01*
X135167233Y-102733266D02*
X135167233Y-102599932D01*
X135167233Y-102599932D02*
X135133900Y-102533266D01*
X135133900Y-102533266D02*
X135100566Y-102499932D01*
X135100566Y-102499932D02*
X135033900Y-102466599D01*
X135033900Y-102466599D02*
X134467233Y-102466599D01*
X135167233Y-102133266D02*
X134467233Y-102133266D01*
X134467233Y-102133266D02*
X134467233Y-101966599D01*
X134467233Y-101966599D02*
X134500566Y-101866599D01*
X134500566Y-101866599D02*
X134567233Y-101799933D01*
X134567233Y-101799933D02*
X134633900Y-101766599D01*
X134633900Y-101766599D02*
X134767233Y-101733266D01*
X134767233Y-101733266D02*
X134867233Y-101733266D01*
X134867233Y-101733266D02*
X135000566Y-101766599D01*
X135000566Y-101766599D02*
X135067233Y-101799933D01*
X135067233Y-101799933D02*
X135133900Y-101866599D01*
X135133900Y-101866599D02*
X135167233Y-101966599D01*
X135167233Y-101966599D02*
X135167233Y-102133266D01*
X135167233Y-101433266D02*
X134467233Y-101433266D01*
X134467233Y-100966600D02*
X134467233Y-100833266D01*
X134467233Y-100833266D02*
X134500566Y-100766600D01*
X134500566Y-100766600D02*
X134567233Y-100699933D01*
X134567233Y-100699933D02*
X134700566Y-100666600D01*
X134700566Y-100666600D02*
X134933900Y-100666600D01*
X134933900Y-100666600D02*
X135067233Y-100699933D01*
X135067233Y-100699933D02*
X135133900Y-100766600D01*
X135133900Y-100766600D02*
X135167233Y-100833266D01*
X135167233Y-100833266D02*
X135167233Y-100966600D01*
X135167233Y-100966600D02*
X135133900Y-101033266D01*
X135133900Y-101033266D02*
X135067233Y-101099933D01*
X135067233Y-101099933D02*
X134933900Y-101133266D01*
X134933900Y-101133266D02*
X134700566Y-101133266D01*
X134700566Y-101133266D02*
X134567233Y-101099933D01*
X134567233Y-101099933D02*
X134500566Y-101033266D01*
X134500566Y-101033266D02*
X134467233Y-100966600D01*
X135433900Y-99633267D02*
X135400566Y-99666600D01*
X135400566Y-99666600D02*
X135300566Y-99733267D01*
X135300566Y-99733267D02*
X135233900Y-99766600D01*
X135233900Y-99766600D02*
X135133900Y-99799934D01*
X135133900Y-99799934D02*
X134967233Y-99833267D01*
X134967233Y-99833267D02*
X134833900Y-99833267D01*
X134833900Y-99833267D02*
X134667233Y-99799934D01*
X134667233Y-99799934D02*
X134567233Y-99766600D01*
X134567233Y-99766600D02*
X134500566Y-99733267D01*
X134500566Y-99733267D02*
X134400566Y-99666600D01*
X134400566Y-99666600D02*
X134367233Y-99633267D01*
X135167233Y-99033267D02*
X135167233Y-99366600D01*
X135167233Y-99366600D02*
X134467233Y-99366600D01*
X135433900Y-98866600D02*
X135400566Y-98833266D01*
X135400566Y-98833266D02*
X135300566Y-98766600D01*
X135300566Y-98766600D02*
X135233900Y-98733266D01*
X135233900Y-98733266D02*
X135133900Y-98699933D01*
X135133900Y-98699933D02*
X134967233Y-98666600D01*
X134967233Y-98666600D02*
X134833900Y-98666600D01*
X134833900Y-98666600D02*
X134667233Y-98699933D01*
X134667233Y-98699933D02*
X134567233Y-98733266D01*
X134567233Y-98733266D02*
X134500566Y-98766600D01*
X134500566Y-98766600D02*
X134400566Y-98833266D01*
X134400566Y-98833266D02*
X134367233Y-98866600D01*
X138330674Y-92175942D02*
X138616389Y-92175942D01*
X138273531Y-92347371D02*
X138473531Y-91747371D01*
X138473531Y-91747371D02*
X138673531Y-92347371D01*
X138873532Y-91747371D02*
X138873532Y-92233085D01*
X138873532Y-92233085D02*
X138902103Y-92290228D01*
X138902103Y-92290228D02*
X138930675Y-92318800D01*
X138930675Y-92318800D02*
X138987817Y-92347371D01*
X138987817Y-92347371D02*
X139102103Y-92347371D01*
X139102103Y-92347371D02*
X139159246Y-92318800D01*
X139159246Y-92318800D02*
X139187817Y-92290228D01*
X139187817Y-92290228D02*
X139216389Y-92233085D01*
X139216389Y-92233085D02*
X139216389Y-91747371D01*
X139502103Y-92347371D02*
X139502103Y-91747371D01*
X139502103Y-91747371D02*
X139644960Y-91747371D01*
X139644960Y-91747371D02*
X139730674Y-91775942D01*
X139730674Y-91775942D02*
X139787817Y-91833085D01*
X139787817Y-91833085D02*
X139816388Y-91890228D01*
X139816388Y-91890228D02*
X139844960Y-92004514D01*
X139844960Y-92004514D02*
X139844960Y-92090228D01*
X139844960Y-92090228D02*
X139816388Y-92204514D01*
X139816388Y-92204514D02*
X139787817Y-92261657D01*
X139787817Y-92261657D02*
X139730674Y-92318800D01*
X139730674Y-92318800D02*
X139644960Y-92347371D01*
X139644960Y-92347371D02*
X139502103Y-92347371D01*
X140102103Y-92347371D02*
X140102103Y-91747371D01*
X140502102Y-91747371D02*
X140616388Y-91747371D01*
X140616388Y-91747371D02*
X140673531Y-91775942D01*
X140673531Y-91775942D02*
X140730674Y-91833085D01*
X140730674Y-91833085D02*
X140759245Y-91947371D01*
X140759245Y-91947371D02*
X140759245Y-92147371D01*
X140759245Y-92147371D02*
X140730674Y-92261657D01*
X140730674Y-92261657D02*
X140673531Y-92318800D01*
X140673531Y-92318800D02*
X140616388Y-92347371D01*
X140616388Y-92347371D02*
X140502102Y-92347371D01*
X140502102Y-92347371D02*
X140444960Y-92318800D01*
X140444960Y-92318800D02*
X140387817Y-92261657D01*
X140387817Y-92261657D02*
X140359245Y-92147371D01*
X140359245Y-92147371D02*
X140359245Y-91947371D01*
X140359245Y-91947371D02*
X140387817Y-91833085D01*
X140387817Y-91833085D02*
X140444960Y-91775942D01*
X140444960Y-91775942D02*
X140502102Y-91747371D01*
X138203674Y-91201200D02*
X138289389Y-91229771D01*
X138289389Y-91229771D02*
X138432246Y-91229771D01*
X138432246Y-91229771D02*
X138489389Y-91201200D01*
X138489389Y-91201200D02*
X138517960Y-91172628D01*
X138517960Y-91172628D02*
X138546531Y-91115485D01*
X138546531Y-91115485D02*
X138546531Y-91058342D01*
X138546531Y-91058342D02*
X138517960Y-91001200D01*
X138517960Y-91001200D02*
X138489389Y-90972628D01*
X138489389Y-90972628D02*
X138432246Y-90944057D01*
X138432246Y-90944057D02*
X138317960Y-90915485D01*
X138317960Y-90915485D02*
X138260817Y-90886914D01*
X138260817Y-90886914D02*
X138232246Y-90858342D01*
X138232246Y-90858342D02*
X138203674Y-90801200D01*
X138203674Y-90801200D02*
X138203674Y-90744057D01*
X138203674Y-90744057D02*
X138232246Y-90686914D01*
X138232246Y-90686914D02*
X138260817Y-90658342D01*
X138260817Y-90658342D02*
X138317960Y-90629771D01*
X138317960Y-90629771D02*
X138460817Y-90629771D01*
X138460817Y-90629771D02*
X138546531Y-90658342D01*
X138803675Y-90915485D02*
X139003675Y-90915485D01*
X139089389Y-91229771D02*
X138803675Y-91229771D01*
X138803675Y-91229771D02*
X138803675Y-90629771D01*
X138803675Y-90629771D02*
X139089389Y-90629771D01*
X139689389Y-91229771D02*
X139489389Y-90944057D01*
X139346532Y-91229771D02*
X139346532Y-90629771D01*
X139346532Y-90629771D02*
X139575103Y-90629771D01*
X139575103Y-90629771D02*
X139632246Y-90658342D01*
X139632246Y-90658342D02*
X139660817Y-90686914D01*
X139660817Y-90686914D02*
X139689389Y-90744057D01*
X139689389Y-90744057D02*
X139689389Y-90829771D01*
X139689389Y-90829771D02*
X139660817Y-90886914D01*
X139660817Y-90886914D02*
X139632246Y-90915485D01*
X139632246Y-90915485D02*
X139575103Y-90944057D01*
X139575103Y-90944057D02*
X139346532Y-90944057D01*
X139946532Y-91229771D02*
X139946532Y-90629771D01*
X140203674Y-91058342D02*
X140489389Y-91058342D01*
X140146531Y-91229771D02*
X140346531Y-90629771D01*
X140346531Y-90629771D02*
X140546531Y-91229771D01*
X141032246Y-91229771D02*
X140746532Y-91229771D01*
X140746532Y-91229771D02*
X140746532Y-90629771D01*
X137261647Y-76154709D02*
X137261647Y-76559471D01*
X137261647Y-76559471D02*
X137285457Y-76607090D01*
X137285457Y-76607090D02*
X137309266Y-76630900D01*
X137309266Y-76630900D02*
X137356885Y-76654709D01*
X137356885Y-76654709D02*
X137452123Y-76654709D01*
X137452123Y-76654709D02*
X137499742Y-76630900D01*
X137499742Y-76630900D02*
X137523552Y-76607090D01*
X137523552Y-76607090D02*
X137547361Y-76559471D01*
X137547361Y-76559471D02*
X137547361Y-76154709D01*
X137761648Y-76202328D02*
X137785457Y-76178519D01*
X137785457Y-76178519D02*
X137833076Y-76154709D01*
X137833076Y-76154709D02*
X137952124Y-76154709D01*
X137952124Y-76154709D02*
X137999743Y-76178519D01*
X137999743Y-76178519D02*
X138023552Y-76202328D01*
X138023552Y-76202328D02*
X138047362Y-76249947D01*
X138047362Y-76249947D02*
X138047362Y-76297566D01*
X138047362Y-76297566D02*
X138023552Y-76368995D01*
X138023552Y-76368995D02*
X137737838Y-76654709D01*
X137737838Y-76654709D02*
X138047362Y-76654709D01*
X139261066Y-79934490D02*
X139237257Y-79958300D01*
X139237257Y-79958300D02*
X139165828Y-79982109D01*
X139165828Y-79982109D02*
X139118209Y-79982109D01*
X139118209Y-79982109D02*
X139046781Y-79958300D01*
X139046781Y-79958300D02*
X138999162Y-79910680D01*
X138999162Y-79910680D02*
X138975352Y-79863061D01*
X138975352Y-79863061D02*
X138951543Y-79767823D01*
X138951543Y-79767823D02*
X138951543Y-79696395D01*
X138951543Y-79696395D02*
X138975352Y-79601157D01*
X138975352Y-79601157D02*
X138999162Y-79553538D01*
X138999162Y-79553538D02*
X139046781Y-79505919D01*
X139046781Y-79505919D02*
X139118209Y-79482109D01*
X139118209Y-79482109D02*
X139165828Y-79482109D01*
X139165828Y-79482109D02*
X139237257Y-79505919D01*
X139237257Y-79505919D02*
X139261066Y-79529728D01*
X139451543Y-79529728D02*
X139475352Y-79505919D01*
X139475352Y-79505919D02*
X139522971Y-79482109D01*
X139522971Y-79482109D02*
X139642019Y-79482109D01*
X139642019Y-79482109D02*
X139689638Y-79505919D01*
X139689638Y-79505919D02*
X139713447Y-79529728D01*
X139713447Y-79529728D02*
X139737257Y-79577347D01*
X139737257Y-79577347D02*
X139737257Y-79624966D01*
X139737257Y-79624966D02*
X139713447Y-79696395D01*
X139713447Y-79696395D02*
X139427733Y-79982109D01*
X139427733Y-79982109D02*
X139737257Y-79982109D01*
X145103066Y-92126490D02*
X145079257Y-92150300D01*
X145079257Y-92150300D02*
X145007828Y-92174109D01*
X145007828Y-92174109D02*
X144960209Y-92174109D01*
X144960209Y-92174109D02*
X144888781Y-92150300D01*
X144888781Y-92150300D02*
X144841162Y-92102680D01*
X144841162Y-92102680D02*
X144817352Y-92055061D01*
X144817352Y-92055061D02*
X144793543Y-91959823D01*
X144793543Y-91959823D02*
X144793543Y-91888395D01*
X144793543Y-91888395D02*
X144817352Y-91793157D01*
X144817352Y-91793157D02*
X144841162Y-91745538D01*
X144841162Y-91745538D02*
X144888781Y-91697919D01*
X144888781Y-91697919D02*
X144960209Y-91674109D01*
X144960209Y-91674109D02*
X145007828Y-91674109D01*
X145007828Y-91674109D02*
X145079257Y-91697919D01*
X145079257Y-91697919D02*
X145103066Y-91721728D01*
X145269733Y-91674109D02*
X145579257Y-91674109D01*
X145579257Y-91674109D02*
X145412590Y-91864585D01*
X145412590Y-91864585D02*
X145484019Y-91864585D01*
X145484019Y-91864585D02*
X145531638Y-91888395D01*
X145531638Y-91888395D02*
X145555447Y-91912204D01*
X145555447Y-91912204D02*
X145579257Y-91959823D01*
X145579257Y-91959823D02*
X145579257Y-92078871D01*
X145579257Y-92078871D02*
X145555447Y-92126490D01*
X145555447Y-92126490D02*
X145531638Y-92150300D01*
X145531638Y-92150300D02*
X145484019Y-92174109D01*
X145484019Y-92174109D02*
X145341162Y-92174109D01*
X145341162Y-92174109D02*
X145293543Y-92150300D01*
X145293543Y-92150300D02*
X145269733Y-92126490D01*
X138524466Y-59614490D02*
X138500657Y-59638300D01*
X138500657Y-59638300D02*
X138429228Y-59662109D01*
X138429228Y-59662109D02*
X138381609Y-59662109D01*
X138381609Y-59662109D02*
X138310181Y-59638300D01*
X138310181Y-59638300D02*
X138262562Y-59590680D01*
X138262562Y-59590680D02*
X138238752Y-59543061D01*
X138238752Y-59543061D02*
X138214943Y-59447823D01*
X138214943Y-59447823D02*
X138214943Y-59376395D01*
X138214943Y-59376395D02*
X138238752Y-59281157D01*
X138238752Y-59281157D02*
X138262562Y-59233538D01*
X138262562Y-59233538D02*
X138310181Y-59185919D01*
X138310181Y-59185919D02*
X138381609Y-59162109D01*
X138381609Y-59162109D02*
X138429228Y-59162109D01*
X138429228Y-59162109D02*
X138500657Y-59185919D01*
X138500657Y-59185919D02*
X138524466Y-59209728D01*
X139000657Y-59662109D02*
X138714943Y-59662109D01*
X138857800Y-59662109D02*
X138857800Y-59162109D01*
X138857800Y-59162109D02*
X138810181Y-59233538D01*
X138810181Y-59233538D02*
X138762562Y-59281157D01*
X138762562Y-59281157D02*
X138714943Y-59304966D01*
X136925905Y-80972709D02*
X136925905Y-80472709D01*
X137449714Y-80925090D02*
X137425905Y-80948900D01*
X137425905Y-80948900D02*
X137354476Y-80972709D01*
X137354476Y-80972709D02*
X137306857Y-80972709D01*
X137306857Y-80972709D02*
X137235429Y-80948900D01*
X137235429Y-80948900D02*
X137187810Y-80901280D01*
X137187810Y-80901280D02*
X137164000Y-80853661D01*
X137164000Y-80853661D02*
X137140191Y-80758423D01*
X137140191Y-80758423D02*
X137140191Y-80686995D01*
X137140191Y-80686995D02*
X137164000Y-80591757D01*
X137164000Y-80591757D02*
X137187810Y-80544138D01*
X137187810Y-80544138D02*
X137235429Y-80496519D01*
X137235429Y-80496519D02*
X137306857Y-80472709D01*
X137306857Y-80472709D02*
X137354476Y-80472709D01*
X137354476Y-80472709D02*
X137425905Y-80496519D01*
X137425905Y-80496519D02*
X137449714Y-80520328D01*
X137640191Y-80520328D02*
X137664000Y-80496519D01*
X137664000Y-80496519D02*
X137711619Y-80472709D01*
X137711619Y-80472709D02*
X137830667Y-80472709D01*
X137830667Y-80472709D02*
X137878286Y-80496519D01*
X137878286Y-80496519D02*
X137902095Y-80520328D01*
X137902095Y-80520328D02*
X137925905Y-80567947D01*
X137925905Y-80567947D02*
X137925905Y-80615566D01*
X137925905Y-80615566D02*
X137902095Y-80686995D01*
X137902095Y-80686995D02*
X137616381Y-80972709D01*
X137616381Y-80972709D02*
X137925905Y-80972709D01*
X137489452Y-71587409D02*
X137489452Y-71087409D01*
X137489452Y-71087409D02*
X137608500Y-71087409D01*
X137608500Y-71087409D02*
X137679928Y-71111219D01*
X137679928Y-71111219D02*
X137727547Y-71158838D01*
X137727547Y-71158838D02*
X137751357Y-71206457D01*
X137751357Y-71206457D02*
X137775166Y-71301695D01*
X137775166Y-71301695D02*
X137775166Y-71373123D01*
X137775166Y-71373123D02*
X137751357Y-71468361D01*
X137751357Y-71468361D02*
X137727547Y-71515980D01*
X137727547Y-71515980D02*
X137679928Y-71563600D01*
X137679928Y-71563600D02*
X137608500Y-71587409D01*
X137608500Y-71587409D02*
X137489452Y-71587409D01*
X137965643Y-71135028D02*
X137989452Y-71111219D01*
X137989452Y-71111219D02*
X138037071Y-71087409D01*
X138037071Y-71087409D02*
X138156119Y-71087409D01*
X138156119Y-71087409D02*
X138203738Y-71111219D01*
X138203738Y-71111219D02*
X138227547Y-71135028D01*
X138227547Y-71135028D02*
X138251357Y-71182647D01*
X138251357Y-71182647D02*
X138251357Y-71230266D01*
X138251357Y-71230266D02*
X138227547Y-71301695D01*
X138227547Y-71301695D02*
X137941833Y-71587409D01*
X137941833Y-71587409D02*
X138251357Y-71587409D01*
X142097961Y-82725309D02*
X141931295Y-82487214D01*
X141812247Y-82725309D02*
X141812247Y-82225309D01*
X141812247Y-82225309D02*
X142002723Y-82225309D01*
X142002723Y-82225309D02*
X142050342Y-82249119D01*
X142050342Y-82249119D02*
X142074152Y-82272928D01*
X142074152Y-82272928D02*
X142097961Y-82320547D01*
X142097961Y-82320547D02*
X142097961Y-82391976D01*
X142097961Y-82391976D02*
X142074152Y-82439595D01*
X142074152Y-82439595D02*
X142050342Y-82463404D01*
X142050342Y-82463404D02*
X142002723Y-82487214D01*
X142002723Y-82487214D02*
X141812247Y-82487214D01*
X142312247Y-82725309D02*
X142312247Y-82225309D01*
X142312247Y-82225309D02*
X142597961Y-82725309D01*
X142597961Y-82725309D02*
X142597961Y-82225309D01*
X143097962Y-82725309D02*
X142812248Y-82725309D01*
X142955105Y-82725309D02*
X142955105Y-82225309D01*
X142955105Y-82225309D02*
X142907486Y-82296738D01*
X142907486Y-82296738D02*
X142859867Y-82344357D01*
X142859867Y-82344357D02*
X142812248Y-82368166D01*
X141523305Y-92428109D02*
X141523305Y-91928109D01*
X142047114Y-92380490D02*
X142023305Y-92404300D01*
X142023305Y-92404300D02*
X141951876Y-92428109D01*
X141951876Y-92428109D02*
X141904257Y-92428109D01*
X141904257Y-92428109D02*
X141832829Y-92404300D01*
X141832829Y-92404300D02*
X141785210Y-92356680D01*
X141785210Y-92356680D02*
X141761400Y-92309061D01*
X141761400Y-92309061D02*
X141737591Y-92213823D01*
X141737591Y-92213823D02*
X141737591Y-92142395D01*
X141737591Y-92142395D02*
X141761400Y-92047157D01*
X141761400Y-92047157D02*
X141785210Y-91999538D01*
X141785210Y-91999538D02*
X141832829Y-91951919D01*
X141832829Y-91951919D02*
X141904257Y-91928109D01*
X141904257Y-91928109D02*
X141951876Y-91928109D01*
X141951876Y-91928109D02*
X142023305Y-91951919D01*
X142023305Y-91951919D02*
X142047114Y-91975728D01*
X142213781Y-91928109D02*
X142523305Y-91928109D01*
X142523305Y-91928109D02*
X142356638Y-92118585D01*
X142356638Y-92118585D02*
X142428067Y-92118585D01*
X142428067Y-92118585D02*
X142475686Y-92142395D01*
X142475686Y-92142395D02*
X142499495Y-92166204D01*
X142499495Y-92166204D02*
X142523305Y-92213823D01*
X142523305Y-92213823D02*
X142523305Y-92332871D01*
X142523305Y-92332871D02*
X142499495Y-92380490D01*
X142499495Y-92380490D02*
X142475686Y-92404300D01*
X142475686Y-92404300D02*
X142428067Y-92428109D01*
X142428067Y-92428109D02*
X142285210Y-92428109D01*
X142285210Y-92428109D02*
X142237591Y-92404300D01*
X142237591Y-92404300D02*
X142213781Y-92380490D01*
X135095466Y-78991509D02*
X134928800Y-78753414D01*
X134809752Y-78991509D02*
X134809752Y-78491509D01*
X134809752Y-78491509D02*
X135000228Y-78491509D01*
X135000228Y-78491509D02*
X135047847Y-78515319D01*
X135047847Y-78515319D02*
X135071657Y-78539128D01*
X135071657Y-78539128D02*
X135095466Y-78586747D01*
X135095466Y-78586747D02*
X135095466Y-78658176D01*
X135095466Y-78658176D02*
X135071657Y-78705795D01*
X135071657Y-78705795D02*
X135047847Y-78729604D01*
X135047847Y-78729604D02*
X135000228Y-78753414D01*
X135000228Y-78753414D02*
X134809752Y-78753414D01*
X135285943Y-78539128D02*
X135309752Y-78515319D01*
X135309752Y-78515319D02*
X135357371Y-78491509D01*
X135357371Y-78491509D02*
X135476419Y-78491509D01*
X135476419Y-78491509D02*
X135524038Y-78515319D01*
X135524038Y-78515319D02*
X135547847Y-78539128D01*
X135547847Y-78539128D02*
X135571657Y-78586747D01*
X135571657Y-78586747D02*
X135571657Y-78634366D01*
X135571657Y-78634366D02*
X135547847Y-78705795D01*
X135547847Y-78705795D02*
X135262133Y-78991509D01*
X135262133Y-78991509D02*
X135571657Y-78991509D01*
X140404066Y-79575709D02*
X140237400Y-79337614D01*
X140118352Y-79575709D02*
X140118352Y-79075709D01*
X140118352Y-79075709D02*
X140308828Y-79075709D01*
X140308828Y-79075709D02*
X140356447Y-79099519D01*
X140356447Y-79099519D02*
X140380257Y-79123328D01*
X140380257Y-79123328D02*
X140404066Y-79170947D01*
X140404066Y-79170947D02*
X140404066Y-79242376D01*
X140404066Y-79242376D02*
X140380257Y-79289995D01*
X140380257Y-79289995D02*
X140356447Y-79313804D01*
X140356447Y-79313804D02*
X140308828Y-79337614D01*
X140308828Y-79337614D02*
X140118352Y-79337614D01*
X140832638Y-79242376D02*
X140832638Y-79575709D01*
X140713590Y-79051900D02*
X140594543Y-79409042D01*
X140594543Y-79409042D02*
X140904066Y-79409042D01*
X143452066Y-81633109D02*
X143285400Y-81395014D01*
X143166352Y-81633109D02*
X143166352Y-81133109D01*
X143166352Y-81133109D02*
X143356828Y-81133109D01*
X143356828Y-81133109D02*
X143404447Y-81156919D01*
X143404447Y-81156919D02*
X143428257Y-81180728D01*
X143428257Y-81180728D02*
X143452066Y-81228347D01*
X143452066Y-81228347D02*
X143452066Y-81299776D01*
X143452066Y-81299776D02*
X143428257Y-81347395D01*
X143428257Y-81347395D02*
X143404447Y-81371204D01*
X143404447Y-81371204D02*
X143356828Y-81395014D01*
X143356828Y-81395014D02*
X143166352Y-81395014D01*
X143904447Y-81133109D02*
X143666352Y-81133109D01*
X143666352Y-81133109D02*
X143642543Y-81371204D01*
X143642543Y-81371204D02*
X143666352Y-81347395D01*
X143666352Y-81347395D02*
X143713971Y-81323585D01*
X143713971Y-81323585D02*
X143833019Y-81323585D01*
X143833019Y-81323585D02*
X143880638Y-81347395D01*
X143880638Y-81347395D02*
X143904447Y-81371204D01*
X143904447Y-81371204D02*
X143928257Y-81418823D01*
X143928257Y-81418823D02*
X143928257Y-81537871D01*
X143928257Y-81537871D02*
X143904447Y-81585490D01*
X143904447Y-81585490D02*
X143880638Y-81609300D01*
X143880638Y-81609300D02*
X143833019Y-81633109D01*
X143833019Y-81633109D02*
X143713971Y-81633109D01*
X143713971Y-81633109D02*
X143666352Y-81609300D01*
X143666352Y-81609300D02*
X143642543Y-81585490D01*
X144841161Y-101016490D02*
X144817352Y-101040300D01*
X144817352Y-101040300D02*
X144745923Y-101064109D01*
X144745923Y-101064109D02*
X144698304Y-101064109D01*
X144698304Y-101064109D02*
X144626876Y-101040300D01*
X144626876Y-101040300D02*
X144579257Y-100992680D01*
X144579257Y-100992680D02*
X144555447Y-100945061D01*
X144555447Y-100945061D02*
X144531638Y-100849823D01*
X144531638Y-100849823D02*
X144531638Y-100778395D01*
X144531638Y-100778395D02*
X144555447Y-100683157D01*
X144555447Y-100683157D02*
X144579257Y-100635538D01*
X144579257Y-100635538D02*
X144626876Y-100587919D01*
X144626876Y-100587919D02*
X144698304Y-100564109D01*
X144698304Y-100564109D02*
X144745923Y-100564109D01*
X144745923Y-100564109D02*
X144817352Y-100587919D01*
X144817352Y-100587919D02*
X144841161Y-100611728D01*
X145055447Y-101064109D02*
X145055447Y-100564109D01*
X145055447Y-100564109D02*
X145341161Y-101064109D01*
X145341161Y-101064109D02*
X145341161Y-100564109D01*
X145841162Y-101064109D02*
X145555448Y-101064109D01*
X145698305Y-101064109D02*
X145698305Y-100564109D01*
X145698305Y-100564109D02*
X145650686Y-100635538D01*
X145650686Y-100635538D02*
X145603067Y-100683157D01*
X145603067Y-100683157D02*
X145555448Y-100706966D01*
X142436066Y-81585490D02*
X142412257Y-81609300D01*
X142412257Y-81609300D02*
X142340828Y-81633109D01*
X142340828Y-81633109D02*
X142293209Y-81633109D01*
X142293209Y-81633109D02*
X142221781Y-81609300D01*
X142221781Y-81609300D02*
X142174162Y-81561680D01*
X142174162Y-81561680D02*
X142150352Y-81514061D01*
X142150352Y-81514061D02*
X142126543Y-81418823D01*
X142126543Y-81418823D02*
X142126543Y-81347395D01*
X142126543Y-81347395D02*
X142150352Y-81252157D01*
X142150352Y-81252157D02*
X142174162Y-81204538D01*
X142174162Y-81204538D02*
X142221781Y-81156919D01*
X142221781Y-81156919D02*
X142293209Y-81133109D01*
X142293209Y-81133109D02*
X142340828Y-81133109D01*
X142340828Y-81133109D02*
X142412257Y-81156919D01*
X142412257Y-81156919D02*
X142436066Y-81180728D01*
X142864638Y-81133109D02*
X142769400Y-81133109D01*
X142769400Y-81133109D02*
X142721781Y-81156919D01*
X142721781Y-81156919D02*
X142697971Y-81180728D01*
X142697971Y-81180728D02*
X142650352Y-81252157D01*
X142650352Y-81252157D02*
X142626543Y-81347395D01*
X142626543Y-81347395D02*
X142626543Y-81537871D01*
X142626543Y-81537871D02*
X142650352Y-81585490D01*
X142650352Y-81585490D02*
X142674162Y-81609300D01*
X142674162Y-81609300D02*
X142721781Y-81633109D01*
X142721781Y-81633109D02*
X142817019Y-81633109D01*
X142817019Y-81633109D02*
X142864638Y-81609300D01*
X142864638Y-81609300D02*
X142888447Y-81585490D01*
X142888447Y-81585490D02*
X142912257Y-81537871D01*
X142912257Y-81537871D02*
X142912257Y-81418823D01*
X142912257Y-81418823D02*
X142888447Y-81371204D01*
X142888447Y-81371204D02*
X142864638Y-81347395D01*
X142864638Y-81347395D02*
X142817019Y-81323585D01*
X142817019Y-81323585D02*
X142721781Y-81323585D01*
X142721781Y-81323585D02*
X142674162Y-81347395D01*
X142674162Y-81347395D02*
X142650352Y-81371204D01*
X142650352Y-81371204D02*
X142626543Y-81418823D01*
X144137866Y-76581690D02*
X144114057Y-76605500D01*
X144114057Y-76605500D02*
X144042628Y-76629309D01*
X144042628Y-76629309D02*
X143995009Y-76629309D01*
X143995009Y-76629309D02*
X143923581Y-76605500D01*
X143923581Y-76605500D02*
X143875962Y-76557880D01*
X143875962Y-76557880D02*
X143852152Y-76510261D01*
X143852152Y-76510261D02*
X143828343Y-76415023D01*
X143828343Y-76415023D02*
X143828343Y-76343595D01*
X143828343Y-76343595D02*
X143852152Y-76248357D01*
X143852152Y-76248357D02*
X143875962Y-76200738D01*
X143875962Y-76200738D02*
X143923581Y-76153119D01*
X143923581Y-76153119D02*
X143995009Y-76129309D01*
X143995009Y-76129309D02*
X144042628Y-76129309D01*
X144042628Y-76129309D02*
X144114057Y-76153119D01*
X144114057Y-76153119D02*
X144137866Y-76176928D01*
X144304533Y-76129309D02*
X144637866Y-76129309D01*
X144637866Y-76129309D02*
X144423581Y-76629309D01*
X131914152Y-67688509D02*
X131914152Y-67188509D01*
X131914152Y-67188509D02*
X132033200Y-67188509D01*
X132033200Y-67188509D02*
X132104628Y-67212319D01*
X132104628Y-67212319D02*
X132152247Y-67259938D01*
X132152247Y-67259938D02*
X132176057Y-67307557D01*
X132176057Y-67307557D02*
X132199866Y-67402795D01*
X132199866Y-67402795D02*
X132199866Y-67474223D01*
X132199866Y-67474223D02*
X132176057Y-67569461D01*
X132176057Y-67569461D02*
X132152247Y-67617080D01*
X132152247Y-67617080D02*
X132104628Y-67664700D01*
X132104628Y-67664700D02*
X132033200Y-67688509D01*
X132033200Y-67688509D02*
X131914152Y-67688509D01*
X132366533Y-67188509D02*
X132676057Y-67188509D01*
X132676057Y-67188509D02*
X132509390Y-67378985D01*
X132509390Y-67378985D02*
X132580819Y-67378985D01*
X132580819Y-67378985D02*
X132628438Y-67402795D01*
X132628438Y-67402795D02*
X132652247Y-67426604D01*
X132652247Y-67426604D02*
X132676057Y-67474223D01*
X132676057Y-67474223D02*
X132676057Y-67593271D01*
X132676057Y-67593271D02*
X132652247Y-67640890D01*
X132652247Y-67640890D02*
X132628438Y-67664700D01*
X132628438Y-67664700D02*
X132580819Y-67688509D01*
X132580819Y-67688509D02*
X132437962Y-67688509D01*
X132437962Y-67688509D02*
X132390343Y-67664700D01*
X132390343Y-67664700D02*
X132366533Y-67640890D01*
X133165066Y-73073309D02*
X132998400Y-72835214D01*
X132879352Y-73073309D02*
X132879352Y-72573309D01*
X132879352Y-72573309D02*
X133069828Y-72573309D01*
X133069828Y-72573309D02*
X133117447Y-72597119D01*
X133117447Y-72597119D02*
X133141257Y-72620928D01*
X133141257Y-72620928D02*
X133165066Y-72668547D01*
X133165066Y-72668547D02*
X133165066Y-72739976D01*
X133165066Y-72739976D02*
X133141257Y-72787595D01*
X133141257Y-72787595D02*
X133117447Y-72811404D01*
X133117447Y-72811404D02*
X133069828Y-72835214D01*
X133069828Y-72835214D02*
X132879352Y-72835214D01*
X133593638Y-72573309D02*
X133498400Y-72573309D01*
X133498400Y-72573309D02*
X133450781Y-72597119D01*
X133450781Y-72597119D02*
X133426971Y-72620928D01*
X133426971Y-72620928D02*
X133379352Y-72692357D01*
X133379352Y-72692357D02*
X133355543Y-72787595D01*
X133355543Y-72787595D02*
X133355543Y-72978071D01*
X133355543Y-72978071D02*
X133379352Y-73025690D01*
X133379352Y-73025690D02*
X133403162Y-73049500D01*
X133403162Y-73049500D02*
X133450781Y-73073309D01*
X133450781Y-73073309D02*
X133546019Y-73073309D01*
X133546019Y-73073309D02*
X133593638Y-73049500D01*
X133593638Y-73049500D02*
X133617447Y-73025690D01*
X133617447Y-73025690D02*
X133641257Y-72978071D01*
X133641257Y-72978071D02*
X133641257Y-72859023D01*
X133641257Y-72859023D02*
X133617447Y-72811404D01*
X133617447Y-72811404D02*
X133593638Y-72787595D01*
X133593638Y-72787595D02*
X133546019Y-72763785D01*
X133546019Y-72763785D02*
X133450781Y-72763785D01*
X133450781Y-72763785D02*
X133403162Y-72787595D01*
X133403162Y-72787595D02*
X133379352Y-72811404D01*
X133379352Y-72811404D02*
X133355543Y-72859023D01*
X141854266Y-89938909D02*
X141687600Y-89700814D01*
X141568552Y-89938909D02*
X141568552Y-89438909D01*
X141568552Y-89438909D02*
X141759028Y-89438909D01*
X141759028Y-89438909D02*
X141806647Y-89462719D01*
X141806647Y-89462719D02*
X141830457Y-89486528D01*
X141830457Y-89486528D02*
X141854266Y-89534147D01*
X141854266Y-89534147D02*
X141854266Y-89605576D01*
X141854266Y-89605576D02*
X141830457Y-89653195D01*
X141830457Y-89653195D02*
X141806647Y-89677004D01*
X141806647Y-89677004D02*
X141759028Y-89700814D01*
X141759028Y-89700814D02*
X141568552Y-89700814D01*
X142020933Y-89438909D02*
X142354266Y-89438909D01*
X142354266Y-89438909D02*
X142139981Y-89938909D01*
X144118852Y-88503809D02*
X144118852Y-88003809D01*
X144118852Y-88003809D02*
X144237900Y-88003809D01*
X144237900Y-88003809D02*
X144309328Y-88027619D01*
X144309328Y-88027619D02*
X144356947Y-88075238D01*
X144356947Y-88075238D02*
X144380757Y-88122857D01*
X144380757Y-88122857D02*
X144404566Y-88218095D01*
X144404566Y-88218095D02*
X144404566Y-88289523D01*
X144404566Y-88289523D02*
X144380757Y-88384761D01*
X144380757Y-88384761D02*
X144356947Y-88432380D01*
X144356947Y-88432380D02*
X144309328Y-88480000D01*
X144309328Y-88480000D02*
X144237900Y-88503809D01*
X144237900Y-88503809D02*
X144118852Y-88503809D01*
X144833138Y-88170476D02*
X144833138Y-88503809D01*
X144714090Y-87980000D02*
X144595043Y-88337142D01*
X144595043Y-88337142D02*
X144904566Y-88337142D01*
X142097961Y-85519309D02*
X141931295Y-85281214D01*
X141812247Y-85519309D02*
X141812247Y-85019309D01*
X141812247Y-85019309D02*
X142002723Y-85019309D01*
X142002723Y-85019309D02*
X142050342Y-85043119D01*
X142050342Y-85043119D02*
X142074152Y-85066928D01*
X142074152Y-85066928D02*
X142097961Y-85114547D01*
X142097961Y-85114547D02*
X142097961Y-85185976D01*
X142097961Y-85185976D02*
X142074152Y-85233595D01*
X142074152Y-85233595D02*
X142050342Y-85257404D01*
X142050342Y-85257404D02*
X142002723Y-85281214D01*
X142002723Y-85281214D02*
X141812247Y-85281214D01*
X142312247Y-85519309D02*
X142312247Y-85019309D01*
X142312247Y-85019309D02*
X142597961Y-85519309D01*
X142597961Y-85519309D02*
X142597961Y-85019309D01*
X142812248Y-85066928D02*
X142836057Y-85043119D01*
X142836057Y-85043119D02*
X142883676Y-85019309D01*
X142883676Y-85019309D02*
X143002724Y-85019309D01*
X143002724Y-85019309D02*
X143050343Y-85043119D01*
X143050343Y-85043119D02*
X143074152Y-85066928D01*
X143074152Y-85066928D02*
X143097962Y-85114547D01*
X143097962Y-85114547D02*
X143097962Y-85162166D01*
X143097962Y-85162166D02*
X143074152Y-85233595D01*
X143074152Y-85233595D02*
X142788438Y-85519309D01*
X142788438Y-85519309D02*
X143097962Y-85519309D01*
X130218666Y-60274890D02*
X130194857Y-60298700D01*
X130194857Y-60298700D02*
X130123428Y-60322509D01*
X130123428Y-60322509D02*
X130075809Y-60322509D01*
X130075809Y-60322509D02*
X130004381Y-60298700D01*
X130004381Y-60298700D02*
X129956762Y-60251080D01*
X129956762Y-60251080D02*
X129932952Y-60203461D01*
X129932952Y-60203461D02*
X129909143Y-60108223D01*
X129909143Y-60108223D02*
X129909143Y-60036795D01*
X129909143Y-60036795D02*
X129932952Y-59941557D01*
X129932952Y-59941557D02*
X129956762Y-59893938D01*
X129956762Y-59893938D02*
X130004381Y-59846319D01*
X130004381Y-59846319D02*
X130075809Y-59822509D01*
X130075809Y-59822509D02*
X130123428Y-59822509D01*
X130123428Y-59822509D02*
X130194857Y-59846319D01*
X130194857Y-59846319D02*
X130218666Y-59870128D01*
X130504381Y-60036795D02*
X130456762Y-60012985D01*
X130456762Y-60012985D02*
X130432952Y-59989176D01*
X130432952Y-59989176D02*
X130409143Y-59941557D01*
X130409143Y-59941557D02*
X130409143Y-59917747D01*
X130409143Y-59917747D02*
X130432952Y-59870128D01*
X130432952Y-59870128D02*
X130456762Y-59846319D01*
X130456762Y-59846319D02*
X130504381Y-59822509D01*
X130504381Y-59822509D02*
X130599619Y-59822509D01*
X130599619Y-59822509D02*
X130647238Y-59846319D01*
X130647238Y-59846319D02*
X130671047Y-59870128D01*
X130671047Y-59870128D02*
X130694857Y-59917747D01*
X130694857Y-59917747D02*
X130694857Y-59941557D01*
X130694857Y-59941557D02*
X130671047Y-59989176D01*
X130671047Y-59989176D02*
X130647238Y-60012985D01*
X130647238Y-60012985D02*
X130599619Y-60036795D01*
X130599619Y-60036795D02*
X130504381Y-60036795D01*
X130504381Y-60036795D02*
X130456762Y-60060604D01*
X130456762Y-60060604D02*
X130432952Y-60084414D01*
X130432952Y-60084414D02*
X130409143Y-60132033D01*
X130409143Y-60132033D02*
X130409143Y-60227271D01*
X130409143Y-60227271D02*
X130432952Y-60274890D01*
X130432952Y-60274890D02*
X130456762Y-60298700D01*
X130456762Y-60298700D02*
X130504381Y-60322509D01*
X130504381Y-60322509D02*
X130599619Y-60322509D01*
X130599619Y-60322509D02*
X130647238Y-60298700D01*
X130647238Y-60298700D02*
X130671047Y-60274890D01*
X130671047Y-60274890D02*
X130694857Y-60227271D01*
X130694857Y-60227271D02*
X130694857Y-60132033D01*
X130694857Y-60132033D02*
X130671047Y-60084414D01*
X130671047Y-60084414D02*
X130647238Y-60060604D01*
X130647238Y-60060604D02*
X130599619Y-60036795D01*
X134755771Y-55271090D02*
X134731962Y-55294900D01*
X134731962Y-55294900D02*
X134660533Y-55318709D01*
X134660533Y-55318709D02*
X134612914Y-55318709D01*
X134612914Y-55318709D02*
X134541486Y-55294900D01*
X134541486Y-55294900D02*
X134493867Y-55247280D01*
X134493867Y-55247280D02*
X134470057Y-55199661D01*
X134470057Y-55199661D02*
X134446248Y-55104423D01*
X134446248Y-55104423D02*
X134446248Y-55032995D01*
X134446248Y-55032995D02*
X134470057Y-54937757D01*
X134470057Y-54937757D02*
X134493867Y-54890138D01*
X134493867Y-54890138D02*
X134541486Y-54842519D01*
X134541486Y-54842519D02*
X134612914Y-54818709D01*
X134612914Y-54818709D02*
X134660533Y-54818709D01*
X134660533Y-54818709D02*
X134731962Y-54842519D01*
X134731962Y-54842519D02*
X134755771Y-54866328D01*
X135231962Y-55318709D02*
X134946248Y-55318709D01*
X135089105Y-55318709D02*
X135089105Y-54818709D01*
X135089105Y-54818709D02*
X135041486Y-54890138D01*
X135041486Y-54890138D02*
X134993867Y-54937757D01*
X134993867Y-54937757D02*
X134946248Y-54961566D01*
X135541485Y-54818709D02*
X135589104Y-54818709D01*
X135589104Y-54818709D02*
X135636723Y-54842519D01*
X135636723Y-54842519D02*
X135660533Y-54866328D01*
X135660533Y-54866328D02*
X135684342Y-54913947D01*
X135684342Y-54913947D02*
X135708152Y-55009185D01*
X135708152Y-55009185D02*
X135708152Y-55128233D01*
X135708152Y-55128233D02*
X135684342Y-55223471D01*
X135684342Y-55223471D02*
X135660533Y-55271090D01*
X135660533Y-55271090D02*
X135636723Y-55294900D01*
X135636723Y-55294900D02*
X135589104Y-55318709D01*
X135589104Y-55318709D02*
X135541485Y-55318709D01*
X135541485Y-55318709D02*
X135493866Y-55294900D01*
X135493866Y-55294900D02*
X135470057Y-55271090D01*
X135470057Y-55271090D02*
X135446247Y-55223471D01*
X135446247Y-55223471D02*
X135422438Y-55128233D01*
X135422438Y-55128233D02*
X135422438Y-55009185D01*
X135422438Y-55009185D02*
X135446247Y-54913947D01*
X135446247Y-54913947D02*
X135470057Y-54866328D01*
X135470057Y-54866328D02*
X135493866Y-54842519D01*
X135493866Y-54842519D02*
X135541485Y-54818709D01*
X132961866Y-55271090D02*
X132938057Y-55294900D01*
X132938057Y-55294900D02*
X132866628Y-55318709D01*
X132866628Y-55318709D02*
X132819009Y-55318709D01*
X132819009Y-55318709D02*
X132747581Y-55294900D01*
X132747581Y-55294900D02*
X132699962Y-55247280D01*
X132699962Y-55247280D02*
X132676152Y-55199661D01*
X132676152Y-55199661D02*
X132652343Y-55104423D01*
X132652343Y-55104423D02*
X132652343Y-55032995D01*
X132652343Y-55032995D02*
X132676152Y-54937757D01*
X132676152Y-54937757D02*
X132699962Y-54890138D01*
X132699962Y-54890138D02*
X132747581Y-54842519D01*
X132747581Y-54842519D02*
X132819009Y-54818709D01*
X132819009Y-54818709D02*
X132866628Y-54818709D01*
X132866628Y-54818709D02*
X132938057Y-54842519D01*
X132938057Y-54842519D02*
X132961866Y-54866328D01*
X133199962Y-55318709D02*
X133295200Y-55318709D01*
X133295200Y-55318709D02*
X133342819Y-55294900D01*
X133342819Y-55294900D02*
X133366628Y-55271090D01*
X133366628Y-55271090D02*
X133414247Y-55199661D01*
X133414247Y-55199661D02*
X133438057Y-55104423D01*
X133438057Y-55104423D02*
X133438057Y-54913947D01*
X133438057Y-54913947D02*
X133414247Y-54866328D01*
X133414247Y-54866328D02*
X133390438Y-54842519D01*
X133390438Y-54842519D02*
X133342819Y-54818709D01*
X133342819Y-54818709D02*
X133247581Y-54818709D01*
X133247581Y-54818709D02*
X133199962Y-54842519D01*
X133199962Y-54842519D02*
X133176152Y-54866328D01*
X133176152Y-54866328D02*
X133152343Y-54913947D01*
X133152343Y-54913947D02*
X133152343Y-55032995D01*
X133152343Y-55032995D02*
X133176152Y-55080614D01*
X133176152Y-55080614D02*
X133199962Y-55104423D01*
X133199962Y-55104423D02*
X133247581Y-55128233D01*
X133247581Y-55128233D02*
X133342819Y-55128233D01*
X133342819Y-55128233D02*
X133390438Y-55104423D01*
X133390438Y-55104423D02*
X133414247Y-55080614D01*
X133414247Y-55080614D02*
X133438057Y-55032995D01*
X144798266Y-73076490D02*
X144774457Y-73100300D01*
X144774457Y-73100300D02*
X144703028Y-73124109D01*
X144703028Y-73124109D02*
X144655409Y-73124109D01*
X144655409Y-73124109D02*
X144583981Y-73100300D01*
X144583981Y-73100300D02*
X144536362Y-73052680D01*
X144536362Y-73052680D02*
X144512552Y-73005061D01*
X144512552Y-73005061D02*
X144488743Y-72909823D01*
X144488743Y-72909823D02*
X144488743Y-72838395D01*
X144488743Y-72838395D02*
X144512552Y-72743157D01*
X144512552Y-72743157D02*
X144536362Y-72695538D01*
X144536362Y-72695538D02*
X144583981Y-72647919D01*
X144583981Y-72647919D02*
X144655409Y-72624109D01*
X144655409Y-72624109D02*
X144703028Y-72624109D01*
X144703028Y-72624109D02*
X144774457Y-72647919D01*
X144774457Y-72647919D02*
X144798266Y-72671728D01*
X145226838Y-72790776D02*
X145226838Y-73124109D01*
X145107790Y-72600300D02*
X144988743Y-72957442D01*
X144988743Y-72957442D02*
X145298266Y-72957442D01*
X130726666Y-55318709D02*
X130560000Y-55080614D01*
X130440952Y-55318709D02*
X130440952Y-54818709D01*
X130440952Y-54818709D02*
X130631428Y-54818709D01*
X130631428Y-54818709D02*
X130679047Y-54842519D01*
X130679047Y-54842519D02*
X130702857Y-54866328D01*
X130702857Y-54866328D02*
X130726666Y-54913947D01*
X130726666Y-54913947D02*
X130726666Y-54985376D01*
X130726666Y-54985376D02*
X130702857Y-55032995D01*
X130702857Y-55032995D02*
X130679047Y-55056804D01*
X130679047Y-55056804D02*
X130631428Y-55080614D01*
X130631428Y-55080614D02*
X130440952Y-55080614D01*
X131202857Y-55318709D02*
X130917143Y-55318709D01*
X131060000Y-55318709D02*
X131060000Y-54818709D01*
X131060000Y-54818709D02*
X131012381Y-54890138D01*
X131012381Y-54890138D02*
X130964762Y-54937757D01*
X130964762Y-54937757D02*
X130917143Y-54961566D01*
X131795105Y-59966909D02*
X131795105Y-59466909D01*
X132318914Y-59919290D02*
X132295105Y-59943100D01*
X132295105Y-59943100D02*
X132223676Y-59966909D01*
X132223676Y-59966909D02*
X132176057Y-59966909D01*
X132176057Y-59966909D02*
X132104629Y-59943100D01*
X132104629Y-59943100D02*
X132057010Y-59895480D01*
X132057010Y-59895480D02*
X132033200Y-59847861D01*
X132033200Y-59847861D02*
X132009391Y-59752623D01*
X132009391Y-59752623D02*
X132009391Y-59681195D01*
X132009391Y-59681195D02*
X132033200Y-59585957D01*
X132033200Y-59585957D02*
X132057010Y-59538338D01*
X132057010Y-59538338D02*
X132104629Y-59490719D01*
X132104629Y-59490719D02*
X132176057Y-59466909D01*
X132176057Y-59466909D02*
X132223676Y-59466909D01*
X132223676Y-59466909D02*
X132295105Y-59490719D01*
X132295105Y-59490719D02*
X132318914Y-59514528D01*
X132795105Y-59966909D02*
X132509391Y-59966909D01*
X132652248Y-59966909D02*
X132652248Y-59466909D01*
X132652248Y-59466909D02*
X132604629Y-59538338D01*
X132604629Y-59538338D02*
X132557010Y-59585957D01*
X132557010Y-59585957D02*
X132509391Y-59609766D01*
X132207047Y-56926909D02*
X132207047Y-57331671D01*
X132207047Y-57331671D02*
X132230857Y-57379290D01*
X132230857Y-57379290D02*
X132254666Y-57403100D01*
X132254666Y-57403100D02*
X132302285Y-57426909D01*
X132302285Y-57426909D02*
X132397523Y-57426909D01*
X132397523Y-57426909D02*
X132445142Y-57403100D01*
X132445142Y-57403100D02*
X132468952Y-57379290D01*
X132468952Y-57379290D02*
X132492761Y-57331671D01*
X132492761Y-57331671D02*
X132492761Y-56926909D01*
X132992762Y-57426909D02*
X132707048Y-57426909D01*
X132849905Y-57426909D02*
X132849905Y-56926909D01*
X132849905Y-56926909D02*
X132802286Y-56998338D01*
X132802286Y-56998338D02*
X132754667Y-57045957D01*
X132754667Y-57045957D02*
X132707048Y-57069766D01*
X139057866Y-75667290D02*
X139034057Y-75691100D01*
X139034057Y-75691100D02*
X138962628Y-75714909D01*
X138962628Y-75714909D02*
X138915009Y-75714909D01*
X138915009Y-75714909D02*
X138843581Y-75691100D01*
X138843581Y-75691100D02*
X138795962Y-75643480D01*
X138795962Y-75643480D02*
X138772152Y-75595861D01*
X138772152Y-75595861D02*
X138748343Y-75500623D01*
X138748343Y-75500623D02*
X138748343Y-75429195D01*
X138748343Y-75429195D02*
X138772152Y-75333957D01*
X138772152Y-75333957D02*
X138795962Y-75286338D01*
X138795962Y-75286338D02*
X138843581Y-75238719D01*
X138843581Y-75238719D02*
X138915009Y-75214909D01*
X138915009Y-75214909D02*
X138962628Y-75214909D01*
X138962628Y-75214909D02*
X139034057Y-75238719D01*
X139034057Y-75238719D02*
X139057866Y-75262528D01*
X139510247Y-75214909D02*
X139272152Y-75214909D01*
X139272152Y-75214909D02*
X139248343Y-75453004D01*
X139248343Y-75453004D02*
X139272152Y-75429195D01*
X139272152Y-75429195D02*
X139319771Y-75405385D01*
X139319771Y-75405385D02*
X139438819Y-75405385D01*
X139438819Y-75405385D02*
X139486438Y-75429195D01*
X139486438Y-75429195D02*
X139510247Y-75453004D01*
X139510247Y-75453004D02*
X139534057Y-75500623D01*
X139534057Y-75500623D02*
X139534057Y-75619671D01*
X139534057Y-75619671D02*
X139510247Y-75667290D01*
X139510247Y-75667290D02*
X139486438Y-75691100D01*
X139486438Y-75691100D02*
X139438819Y-75714909D01*
X139438819Y-75714909D02*
X139319771Y-75714909D01*
X139319771Y-75714909D02*
X139272152Y-75691100D01*
X139272152Y-75691100D02*
X139248343Y-75667290D01*
X139083266Y-89938909D02*
X138916600Y-89700814D01*
X138797552Y-89938909D02*
X138797552Y-89438909D01*
X138797552Y-89438909D02*
X138988028Y-89438909D01*
X138988028Y-89438909D02*
X139035647Y-89462719D01*
X139035647Y-89462719D02*
X139059457Y-89486528D01*
X139059457Y-89486528D02*
X139083266Y-89534147D01*
X139083266Y-89534147D02*
X139083266Y-89605576D01*
X139083266Y-89605576D02*
X139059457Y-89653195D01*
X139059457Y-89653195D02*
X139035647Y-89677004D01*
X139035647Y-89677004D02*
X138988028Y-89700814D01*
X138988028Y-89700814D02*
X138797552Y-89700814D01*
X139249933Y-89438909D02*
X139559457Y-89438909D01*
X139559457Y-89438909D02*
X139392790Y-89629385D01*
X139392790Y-89629385D02*
X139464219Y-89629385D01*
X139464219Y-89629385D02*
X139511838Y-89653195D01*
X139511838Y-89653195D02*
X139535647Y-89677004D01*
X139535647Y-89677004D02*
X139559457Y-89724623D01*
X139559457Y-89724623D02*
X139559457Y-89843671D01*
X139559457Y-89843671D02*
X139535647Y-89891290D01*
X139535647Y-89891290D02*
X139511838Y-89915100D01*
X139511838Y-89915100D02*
X139464219Y-89938909D01*
X139464219Y-89938909D02*
X139321362Y-89938909D01*
X139321362Y-89938909D02*
X139273743Y-89915100D01*
X139273743Y-89915100D02*
X139249933Y-89891290D01*
X139491305Y-73378109D02*
X139491305Y-72878109D01*
X140015114Y-73330490D02*
X139991305Y-73354300D01*
X139991305Y-73354300D02*
X139919876Y-73378109D01*
X139919876Y-73378109D02*
X139872257Y-73378109D01*
X139872257Y-73378109D02*
X139800829Y-73354300D01*
X139800829Y-73354300D02*
X139753210Y-73306680D01*
X139753210Y-73306680D02*
X139729400Y-73259061D01*
X139729400Y-73259061D02*
X139705591Y-73163823D01*
X139705591Y-73163823D02*
X139705591Y-73092395D01*
X139705591Y-73092395D02*
X139729400Y-72997157D01*
X139729400Y-72997157D02*
X139753210Y-72949538D01*
X139753210Y-72949538D02*
X139800829Y-72901919D01*
X139800829Y-72901919D02*
X139872257Y-72878109D01*
X139872257Y-72878109D02*
X139919876Y-72878109D01*
X139919876Y-72878109D02*
X139991305Y-72901919D01*
X139991305Y-72901919D02*
X140015114Y-72925728D01*
X140443686Y-73044776D02*
X140443686Y-73378109D01*
X140324638Y-72854300D02*
X140205591Y-73211442D01*
X140205591Y-73211442D02*
X140515114Y-73211442D01*
X129929161Y-104953490D02*
X129905352Y-104977300D01*
X129905352Y-104977300D02*
X129833923Y-105001109D01*
X129833923Y-105001109D02*
X129786304Y-105001109D01*
X129786304Y-105001109D02*
X129714876Y-104977300D01*
X129714876Y-104977300D02*
X129667257Y-104929680D01*
X129667257Y-104929680D02*
X129643447Y-104882061D01*
X129643447Y-104882061D02*
X129619638Y-104786823D01*
X129619638Y-104786823D02*
X129619638Y-104715395D01*
X129619638Y-104715395D02*
X129643447Y-104620157D01*
X129643447Y-104620157D02*
X129667257Y-104572538D01*
X129667257Y-104572538D02*
X129714876Y-104524919D01*
X129714876Y-104524919D02*
X129786304Y-104501109D01*
X129786304Y-104501109D02*
X129833923Y-104501109D01*
X129833923Y-104501109D02*
X129905352Y-104524919D01*
X129905352Y-104524919D02*
X129929161Y-104548728D01*
X130143447Y-105001109D02*
X130143447Y-104501109D01*
X130143447Y-104501109D02*
X130429161Y-105001109D01*
X130429161Y-105001109D02*
X130429161Y-104501109D01*
X130643448Y-104548728D02*
X130667257Y-104524919D01*
X130667257Y-104524919D02*
X130714876Y-104501109D01*
X130714876Y-104501109D02*
X130833924Y-104501109D01*
X130833924Y-104501109D02*
X130881543Y-104524919D01*
X130881543Y-104524919D02*
X130905352Y-104548728D01*
X130905352Y-104548728D02*
X130929162Y-104596347D01*
X130929162Y-104596347D02*
X130929162Y-104643966D01*
X130929162Y-104643966D02*
X130905352Y-104715395D01*
X130905352Y-104715395D02*
X130619638Y-105001109D01*
X130619638Y-105001109D02*
X130929162Y-105001109D01*
X133933452Y-71587409D02*
X133933452Y-71087409D01*
X133933452Y-71087409D02*
X134052500Y-71087409D01*
X134052500Y-71087409D02*
X134123928Y-71111219D01*
X134123928Y-71111219D02*
X134171547Y-71158838D01*
X134171547Y-71158838D02*
X134195357Y-71206457D01*
X134195357Y-71206457D02*
X134219166Y-71301695D01*
X134219166Y-71301695D02*
X134219166Y-71373123D01*
X134219166Y-71373123D02*
X134195357Y-71468361D01*
X134195357Y-71468361D02*
X134171547Y-71515980D01*
X134171547Y-71515980D02*
X134123928Y-71563600D01*
X134123928Y-71563600D02*
X134052500Y-71587409D01*
X134052500Y-71587409D02*
X133933452Y-71587409D01*
X134695357Y-71587409D02*
X134409643Y-71587409D01*
X134552500Y-71587409D02*
X134552500Y-71087409D01*
X134552500Y-71087409D02*
X134504881Y-71158838D01*
X134504881Y-71158838D02*
X134457262Y-71206457D01*
X134457262Y-71206457D02*
X134409643Y-71230266D01*
D10*
X139725400Y-72644000D02*
X139725400Y-71374000D01*
X140995400Y-72644000D02*
X139725400Y-72644000D01*
X143155400Y-70331071D02*
X143155400Y-69876929D01*
X143915400Y-70331071D02*
X143915400Y-69876929D01*
X140615400Y-70264000D02*
X140615400Y-69876929D01*
X141375400Y-70264000D02*
X141375400Y-69876929D01*
X140615400Y-67791071D02*
X140615400Y-67394000D01*
X141375400Y-67791071D02*
X141375400Y-67394000D01*
X143155400Y-67791071D02*
X143155400Y-67394000D01*
X143915400Y-67791071D02*
X143915400Y-67394000D01*
X139217400Y-67394000D02*
X145313400Y-67394000D01*
X139217400Y-67394000D02*
X139217400Y-61214000D01*
X142265400Y-67394000D02*
X142265400Y-64734000D01*
X144865400Y-67394000D02*
X144865400Y-64734000D01*
X145313400Y-67394000D02*
X145313400Y-61214000D01*
X139665400Y-64734000D02*
X139665400Y-67394000D01*
X140615400Y-64734000D02*
X140615400Y-58734000D01*
X140675400Y-64734000D02*
X140675400Y-58734000D01*
X140795400Y-64734000D02*
X140795400Y-58734000D01*
X140915400Y-64734000D02*
X140915400Y-58734000D01*
X141035400Y-64734000D02*
X141035400Y-58734000D01*
X141155400Y-64734000D02*
X141155400Y-58734000D01*
X141275400Y-64734000D02*
X141275400Y-58734000D01*
X143155400Y-64734000D02*
X143155400Y-58734000D01*
X144865400Y-64734000D02*
X139665400Y-64734000D01*
X139217400Y-61214000D02*
X140487400Y-61214000D01*
X143027400Y-61214000D02*
X141503400Y-61214000D01*
X145313400Y-61214000D02*
X144043400Y-61214000D01*
X140615400Y-58734000D02*
X141375400Y-58734000D01*
X141375400Y-58734000D02*
X141375400Y-64734000D01*
X143155400Y-58734000D02*
X143915400Y-58734000D01*
X143915400Y-58734000D02*
X143915400Y-64734000D01*
X137262800Y-77046600D02*
X138672800Y-77046600D01*
X137272800Y-79366600D02*
X138672800Y-79366600D01*
X136892800Y-77096600D02*
X136652800Y-76766600D01*
X137132800Y-76766600D01*
X136892800Y-77096600D01*
G36*
X136892800Y-77096600D02*
G01*
X136652800Y-76766600D01*
X137132800Y-76766600D01*
X136892800Y-77096600D01*
G37*
X139299836Y-80158000D02*
X139084164Y-80158000D01*
X139299836Y-80878000D02*
X139084164Y-80878000D01*
X143922636Y-91588000D02*
X143706964Y-91588000D01*
X143922636Y-92308000D02*
X143706964Y-92308000D01*
X137318636Y-59076000D02*
X137102964Y-59076000D01*
X137318636Y-59796000D02*
X137102964Y-59796000D01*
X137820400Y-81324000D02*
X135620400Y-81324000D01*
X137820400Y-81324000D02*
X140020400Y-81324000D01*
X137820400Y-88094000D02*
X135620400Y-88094000D01*
X137820400Y-88094000D02*
X140020400Y-88094000D01*
X133960400Y-81784000D02*
X133630400Y-82024000D01*
X133630400Y-81544000D01*
X133960400Y-81784000D01*
G36*
X133960400Y-81784000D02*
G01*
X133630400Y-82024000D01*
X133630400Y-81544000D01*
X133960400Y-81784000D01*
G37*
X136970400Y-67719300D02*
X136970400Y-70379300D01*
X138670400Y-67719300D02*
X136970400Y-67719300D01*
X138670400Y-67719300D02*
X138670400Y-70379300D01*
X143975900Y-82680000D02*
X143475900Y-82680000D01*
X143975900Y-84960000D02*
X143475900Y-84960000D01*
X141376400Y-92881000D02*
X139176400Y-92881000D01*
X141376400Y-92881000D02*
X143576400Y-92881000D01*
X141376400Y-99651000D02*
X139176400Y-99651000D01*
X141376400Y-99651000D02*
X143576400Y-99651000D01*
X137516400Y-93341000D02*
X137186400Y-93581000D01*
X137186400Y-93101000D01*
X137516400Y-93341000D01*
G36*
X137516400Y-93341000D02*
G01*
X137186400Y-93581000D01*
X137186400Y-93101000D01*
X137516400Y-93341000D01*
G37*
X135025159Y-79223600D02*
X135332441Y-79223600D01*
X135025159Y-79983600D02*
X135332441Y-79983600D01*
X140996400Y-80163641D02*
X140996400Y-79856359D01*
X141756400Y-80163641D02*
X141756400Y-79856359D01*
X143155400Y-79856359D02*
X143155400Y-80163641D01*
X143915400Y-79856359D02*
X143915400Y-80163641D01*
X148708400Y-59290000D02*
X148328400Y-59290000D01*
X148708400Y-60010000D02*
X148328400Y-60010000D01*
X148708400Y-61830000D02*
X148268400Y-61830000D01*
X148708400Y-62550000D02*
X148268400Y-62550000D01*
X148708400Y-64370000D02*
X148268400Y-64370000D01*
X148708400Y-65090000D02*
X148268400Y-65090000D01*
X148708400Y-66910000D02*
X148268400Y-66910000D01*
X148708400Y-67630000D02*
X148268400Y-67630000D01*
X148708400Y-69450000D02*
X148268400Y-69450000D01*
X148708400Y-70170000D02*
X148268400Y-70170000D01*
X148708400Y-71990000D02*
X148268400Y-71990000D01*
X148708400Y-72710000D02*
X148268400Y-72710000D01*
X148708400Y-74530000D02*
X148268400Y-74530000D01*
X148708400Y-75250000D02*
X148268400Y-75250000D01*
X148708400Y-77070000D02*
X148268400Y-77070000D01*
X148708400Y-77790000D02*
X148268400Y-77790000D01*
X148708400Y-79610000D02*
X148268400Y-79610000D01*
X148708400Y-80330000D02*
X148268400Y-80330000D01*
X148708400Y-82150000D02*
X148268400Y-82150000D01*
X148708400Y-82870000D02*
X148268400Y-82870000D01*
X148708400Y-84690000D02*
X148268400Y-84690000D01*
X148708400Y-85410000D02*
X148268400Y-85410000D01*
X148708400Y-87230000D02*
X148268400Y-87230000D01*
X148708400Y-87950000D02*
X148268400Y-87950000D01*
X148708400Y-89770000D02*
X148268400Y-89770000D01*
X148708400Y-90490000D02*
X148268400Y-90490000D01*
X148708400Y-92310000D02*
X148268400Y-92310000D01*
X148708400Y-93030000D02*
X148268400Y-93030000D01*
X148708400Y-94850000D02*
X148268400Y-94850000D01*
X148708400Y-95570000D02*
X148268400Y-95570000D01*
X148708400Y-97390000D02*
X148268400Y-97390000D01*
X148708400Y-98110000D02*
X148268400Y-98110000D01*
X148708400Y-99930000D02*
X148268400Y-99930000D01*
X148708400Y-100650000D02*
X148268400Y-100650000D01*
X150964900Y-58380000D02*
X149854900Y-58380000D01*
X151028400Y-58380000D02*
X151028400Y-59710000D01*
X151218400Y-58320000D02*
X151218400Y-101620000D01*
X151218400Y-59290000D02*
X150808400Y-59290000D01*
X151218400Y-60010000D02*
X150808400Y-60010000D01*
X151218400Y-61830000D02*
X150808400Y-61830000D01*
X151218400Y-62550000D02*
X150808400Y-62550000D01*
X151218400Y-64370000D02*
X150808400Y-64370000D01*
X151218400Y-65090000D02*
X150808400Y-65090000D01*
X151218400Y-66910000D02*
X150808400Y-66910000D01*
X151218400Y-67630000D02*
X150808400Y-67630000D01*
X151218400Y-69450000D02*
X150808400Y-69450000D01*
X151218400Y-70170000D02*
X150808400Y-70170000D01*
X151218400Y-71990000D02*
X150808400Y-71990000D01*
X151218400Y-72710000D02*
X150808400Y-72710000D01*
X151218400Y-74530000D02*
X150808400Y-74530000D01*
X151218400Y-75250000D02*
X150808400Y-75250000D01*
X151218400Y-77070000D02*
X150808400Y-77070000D01*
X151218400Y-77790000D02*
X150808400Y-77790000D01*
X151218400Y-79610000D02*
X150808400Y-79610000D01*
X151218400Y-80330000D02*
X150808400Y-80330000D01*
X151218400Y-82150000D02*
X150808400Y-82150000D01*
X151218400Y-82870000D02*
X150808400Y-82870000D01*
X151218400Y-84690000D02*
X150808400Y-84690000D01*
X151218400Y-85410000D02*
X150808400Y-85410000D01*
X151218400Y-87230000D02*
X150808400Y-87230000D01*
X151218400Y-87950000D02*
X150808400Y-87950000D01*
X151218400Y-89770000D02*
X150808400Y-89770000D01*
X151218400Y-90490000D02*
X150808400Y-90490000D01*
X151218400Y-92310000D02*
X150808400Y-92310000D01*
X151218400Y-93030000D02*
X150808400Y-93030000D01*
X151218400Y-94850000D02*
X150808400Y-94850000D01*
X151218400Y-95570000D02*
X150808400Y-95570000D01*
X151218400Y-97390000D02*
X150808400Y-97390000D01*
X151218400Y-98110000D02*
X150808400Y-98110000D01*
X151218400Y-99930000D02*
X150808400Y-99930000D01*
X151218400Y-100650000D02*
X150808400Y-100650000D01*
X159848400Y-58320000D02*
X151218400Y-58320000D01*
X159848400Y-58320000D02*
X159848400Y-101620000D01*
X159848400Y-58440000D02*
X151218400Y-58440000D01*
X159848400Y-58558095D02*
X151218400Y-58558095D01*
X159848400Y-58676190D02*
X151218400Y-58676190D01*
X159848400Y-58794285D02*
X151218400Y-58794285D01*
X159848400Y-58912380D02*
X151218400Y-58912380D01*
X159848400Y-59030475D02*
X151218400Y-59030475D01*
X159848400Y-59148570D02*
X151218400Y-59148570D01*
X159848400Y-59266665D02*
X151218400Y-59266665D01*
X159848400Y-59384760D02*
X151218400Y-59384760D01*
X159848400Y-59502855D02*
X151218400Y-59502855D01*
X159848400Y-59620950D02*
X151218400Y-59620950D01*
X159848400Y-59739045D02*
X151218400Y-59739045D01*
X159848400Y-59857140D02*
X151218400Y-59857140D01*
X159848400Y-59975235D02*
X151218400Y-59975235D01*
X159848400Y-60093330D02*
X151218400Y-60093330D01*
X159848400Y-60211425D02*
X151218400Y-60211425D01*
X159848400Y-60329520D02*
X151218400Y-60329520D01*
X159848400Y-60447615D02*
X151218400Y-60447615D01*
X159848400Y-60565710D02*
X151218400Y-60565710D01*
X159848400Y-60683805D02*
X151218400Y-60683805D01*
X159848400Y-60801900D02*
X151218400Y-60801900D01*
X159848400Y-60920000D02*
X151218400Y-60920000D01*
X159848400Y-63460000D02*
X151218400Y-63460000D01*
X159848400Y-66000000D02*
X151218400Y-66000000D01*
X159848400Y-68540000D02*
X151218400Y-68540000D01*
X159848400Y-71080000D02*
X151218400Y-71080000D01*
X159848400Y-73620000D02*
X151218400Y-73620000D01*
X159848400Y-76160000D02*
X151218400Y-76160000D01*
X159848400Y-78700000D02*
X151218400Y-78700000D01*
X159848400Y-81240000D02*
X151218400Y-81240000D01*
X159848400Y-83780000D02*
X151218400Y-83780000D01*
X159848400Y-86320000D02*
X151218400Y-86320000D01*
X159848400Y-88860000D02*
X151218400Y-88860000D01*
X159848400Y-91400000D02*
X151218400Y-91400000D01*
X159848400Y-93940000D02*
X151218400Y-93940000D01*
X159848400Y-96480000D02*
X151218400Y-96480000D01*
X159848400Y-99020000D02*
X151218400Y-99020000D01*
X159848400Y-101620000D02*
X151218400Y-101620000D01*
X142108600Y-79902164D02*
X142108600Y-80117836D01*
X142828600Y-79902164D02*
X142828600Y-80117836D01*
X142354248Y-76852100D02*
X143776752Y-76852100D01*
X142354248Y-78672100D02*
X143776752Y-78672100D01*
X131535500Y-67844300D02*
X131535500Y-70129300D01*
X133005500Y-67844300D02*
X131535500Y-67844300D01*
X133005500Y-70129300D02*
X133005500Y-67844300D01*
X131852400Y-71751359D02*
X131852400Y-72058641D01*
X132612400Y-71751359D02*
X132612400Y-72058641D01*
X142091241Y-88494600D02*
X141783959Y-88494600D01*
X142091241Y-89254600D02*
X141783959Y-89254600D01*
X143765600Y-89090600D02*
X143765600Y-91375600D01*
X143765600Y-91375600D02*
X145235600Y-91375600D01*
X145235600Y-91375600D02*
X145235600Y-89090600D01*
X143975900Y-85462000D02*
X143475900Y-85462000D01*
X143975900Y-87742000D02*
X143475900Y-87742000D01*
X130075000Y-57853948D02*
X130075000Y-58376452D01*
X131545000Y-57853948D02*
X131545000Y-58376452D01*
X135185036Y-55469200D02*
X134969364Y-55469200D01*
X135185036Y-56189200D02*
X134969364Y-56189200D01*
X132937364Y-55469200D02*
X133153036Y-55469200D01*
X132937364Y-56189200D02*
X133153036Y-56189200D01*
X144521600Y-74301236D02*
X144521600Y-74085564D01*
X145241600Y-74301236D02*
X145241600Y-74085564D01*
X130656359Y-55449200D02*
X130963641Y-55449200D01*
X130656359Y-56209200D02*
X130963641Y-56209200D01*
X135153400Y-60115000D02*
X132953400Y-60115000D01*
X135153400Y-60115000D02*
X137353400Y-60115000D01*
X135153400Y-66885000D02*
X132953400Y-66885000D01*
X135153400Y-66885000D02*
X137353400Y-66885000D01*
X131293400Y-60575000D02*
X130963400Y-60815000D01*
X130963400Y-60335000D01*
X131293400Y-60575000D01*
G36*
X131293400Y-60575000D02*
G01*
X130963400Y-60815000D01*
X130963400Y-60335000D01*
X131293400Y-60575000D01*
G37*
X134061200Y-56555200D02*
X133261200Y-56555200D01*
X134061200Y-56555200D02*
X134861200Y-56555200D01*
X134061200Y-59675200D02*
X133261200Y-59675200D01*
X134061200Y-59675200D02*
X134861200Y-59675200D01*
X135601200Y-59955200D02*
X135121200Y-59955200D01*
X135361200Y-59625200D01*
X135601200Y-59955200D01*
G36*
X135601200Y-59955200D02*
G01*
X135121200Y-59955200D01*
X135361200Y-59625200D01*
X135601200Y-59955200D01*
G37*
X139249036Y-75840000D02*
X139033364Y-75840000D01*
X139249036Y-76560000D02*
X139033364Y-76560000D01*
X139012959Y-88494600D02*
X139320241Y-88494600D01*
X139012959Y-89254600D02*
X139320241Y-89254600D01*
X142265400Y-73116000D02*
X141465400Y-73116000D01*
X142265400Y-73116000D02*
X143065400Y-73116000D01*
X142265400Y-76236000D02*
X141465400Y-76236000D01*
X142265400Y-76236000D02*
X143065400Y-76236000D01*
X140965400Y-73166000D02*
X140725400Y-72836000D01*
X141205400Y-72836000D01*
X140965400Y-73166000D01*
G36*
X140965400Y-73166000D02*
G01*
X140725400Y-72836000D01*
X141205400Y-72836000D01*
X140965400Y-73166000D01*
G37*
X124118400Y-54550000D02*
X124118400Y-105470000D01*
X124118400Y-54550000D02*
X126718400Y-54550000D01*
X124118400Y-105470000D02*
X129318400Y-105470000D01*
X126718400Y-54550000D02*
X126718400Y-57150000D01*
X126718400Y-57150000D02*
X129318400Y-57150000D01*
X127988400Y-54550000D02*
X129318400Y-54550000D01*
X129318400Y-54550000D02*
X129318400Y-55880000D01*
X129318400Y-57150000D02*
X129318400Y-105470000D01*
X129708600Y-95140600D02*
X129708600Y-97800600D01*
X129708600Y-97800600D02*
X137448600Y-97800600D01*
X130658600Y-92203529D02*
X130658600Y-92657671D01*
X130658600Y-94743529D02*
X130658600Y-95140600D01*
X130658600Y-103800600D02*
X130658600Y-97800600D01*
X131418600Y-92203529D02*
X131418600Y-92657671D01*
X131418600Y-94743529D02*
X131418600Y-95140600D01*
X131418600Y-97800600D02*
X131418600Y-103800600D01*
X131418600Y-103800600D02*
X130658600Y-103800600D01*
X132308600Y-95140600D02*
X132308600Y-97800600D01*
X133198600Y-92203529D02*
X133198600Y-92657671D01*
X133198600Y-94743529D02*
X133198600Y-95140600D01*
X133198600Y-103800600D02*
X133198600Y-97800600D01*
X133958600Y-92203529D02*
X133958600Y-92657671D01*
X133958600Y-94743529D02*
X133958600Y-95140600D01*
X133958600Y-97800600D02*
X133958600Y-103800600D01*
X133958600Y-103800600D02*
X133198600Y-103800600D01*
X134848600Y-95140600D02*
X134848600Y-97800600D01*
X135738600Y-92270600D02*
X135738600Y-92657671D01*
X135738600Y-94743529D02*
X135738600Y-95140600D01*
X135738600Y-103800600D02*
X135738600Y-97800600D01*
X135838600Y-97800600D02*
X135838600Y-103800600D01*
X135958600Y-97800600D02*
X135958600Y-103800600D01*
X136078600Y-97800600D02*
X136078600Y-103800600D01*
X136118600Y-89890600D02*
X137388600Y-89890600D01*
X136198600Y-97800600D02*
X136198600Y-103800600D01*
X136318600Y-97800600D02*
X136318600Y-103800600D01*
X136438600Y-97800600D02*
X136438600Y-103800600D01*
X136498600Y-92270600D02*
X136498600Y-92657671D01*
X136498600Y-94743529D02*
X136498600Y-95140600D01*
X136498600Y-97800600D02*
X136498600Y-103800600D01*
X136498600Y-103800600D02*
X135738600Y-103800600D01*
X137388600Y-89890600D02*
X137388600Y-91160600D01*
X137448600Y-95140600D02*
X129708600Y-95140600D01*
X137448600Y-97800600D02*
X137448600Y-95140600D01*
X133438400Y-67719300D02*
X133438400Y-70379300D01*
X135138400Y-67719300D02*
X133438400Y-67719300D01*
X135138400Y-67719300D02*
X135138400Y-70379300D01*
%LPC*%
D13*
X140995400Y-71374000D03*
D14*
X140995400Y-68834000D03*
X143535400Y-71374000D03*
X143535400Y-68834000D03*
D15*
X137022800Y-77556600D03*
X137022800Y-78206600D03*
X137022800Y-78856600D03*
X138922800Y-78856600D03*
X138922800Y-78206600D03*
X138922800Y-77556600D03*
D16*
X139672000Y-80518000D03*
X138712000Y-80518000D03*
X144294800Y-91948000D03*
X143334800Y-91948000D03*
X137690800Y-59436000D03*
X136730800Y-59436000D03*
D17*
X134957900Y-81784000D03*
X134957900Y-82434000D03*
X134957900Y-83084000D03*
X134957900Y-83734000D03*
X134957900Y-84384000D03*
X134957900Y-85034000D03*
X134957900Y-85684000D03*
X134957900Y-86334000D03*
X134957900Y-86984000D03*
X134957900Y-87634000D03*
X140682900Y-87634000D03*
X140682900Y-86984000D03*
X140682900Y-86334000D03*
X140682900Y-85684000D03*
X140682900Y-85034000D03*
X140682900Y-84384000D03*
X140682900Y-83734000D03*
X140682900Y-83084000D03*
X140682900Y-82434000D03*
X140682900Y-81784000D03*
D18*
X137820400Y-68279300D03*
X137820400Y-70379300D03*
D19*
X143225900Y-83070000D03*
X143225900Y-83570000D03*
X143225900Y-84070000D03*
X143225900Y-84570000D03*
X144225900Y-84570000D03*
X144225900Y-84070000D03*
X144225900Y-83570000D03*
X144225900Y-83070000D03*
D17*
X138513900Y-93341000D03*
X138513900Y-93991000D03*
X138513900Y-94641000D03*
X138513900Y-95291000D03*
X138513900Y-95941000D03*
X138513900Y-96591000D03*
X138513900Y-97241000D03*
X138513900Y-97891000D03*
X138513900Y-98541000D03*
X138513900Y-99191000D03*
X144238900Y-99191000D03*
X144238900Y-98541000D03*
X144238900Y-97891000D03*
X144238900Y-97241000D03*
X144238900Y-96591000D03*
X144238900Y-95941000D03*
X144238900Y-95291000D03*
X144238900Y-94641000D03*
X144238900Y-93991000D03*
X144238900Y-93341000D03*
D20*
X134668800Y-79603600D03*
X135688800Y-79603600D03*
D21*
X141376400Y-80520000D03*
X141376400Y-79500000D03*
D22*
X143535400Y-79500000D03*
X143535400Y-80520000D03*
D13*
X149758400Y-59650000D03*
D14*
X147218400Y-59650000D03*
X149758400Y-62190000D03*
X147218400Y-62190000D03*
X149758400Y-64730000D03*
X147218400Y-64730000D03*
X149758400Y-67270000D03*
X147218400Y-67270000D03*
X149758400Y-69810000D03*
X147218400Y-69810000D03*
X149758400Y-72350000D03*
X147218400Y-72350000D03*
X149758400Y-74890000D03*
X147218400Y-74890000D03*
X149758400Y-77430000D03*
X147218400Y-77430000D03*
X149758400Y-79970000D03*
X147218400Y-79970000D03*
X149758400Y-82510000D03*
X147218400Y-82510000D03*
X149758400Y-85050000D03*
X147218400Y-85050000D03*
X149758400Y-87590000D03*
X147218400Y-87590000D03*
X149758400Y-90130000D03*
X147218400Y-90130000D03*
X149758400Y-92670000D03*
X147218400Y-92670000D03*
X149758400Y-95210000D03*
X147218400Y-95210000D03*
X149758400Y-97750000D03*
X147218400Y-97750000D03*
X149758400Y-100290000D03*
X147218400Y-100290000D03*
D23*
X142468600Y-79530000D03*
X142468600Y-80490000D03*
D24*
X141590500Y-77762100D03*
X144540500Y-77762100D03*
D25*
X132270500Y-68541800D03*
X132270500Y-70116800D03*
D22*
X132232400Y-71395000D03*
X132232400Y-72415000D03*
D26*
X142447600Y-88874600D03*
X141427600Y-88874600D03*
D27*
X144500600Y-90678100D03*
X144500600Y-89103100D03*
D19*
X143225900Y-85852000D03*
X143225900Y-86352000D03*
X143225900Y-86852000D03*
X143225900Y-87352000D03*
X144225900Y-87352000D03*
X144225900Y-86852000D03*
X144225900Y-86352000D03*
X144225900Y-85852000D03*
D28*
X130810000Y-57165200D03*
X130810000Y-59065200D03*
D16*
X135557200Y-55829200D03*
X134597200Y-55829200D03*
D29*
X132565200Y-55829200D03*
X133525200Y-55829200D03*
D30*
X144881600Y-74673400D03*
X144881600Y-73713400D03*
D20*
X130300000Y-55829200D03*
X131320000Y-55829200D03*
D17*
X132290900Y-60575000D03*
X132290900Y-61225000D03*
X132290900Y-61875000D03*
X132290900Y-62525000D03*
X132290900Y-63175000D03*
X132290900Y-63825000D03*
X132290900Y-64475000D03*
X132290900Y-65125000D03*
X132290900Y-65775000D03*
X132290900Y-66425000D03*
X138015900Y-66425000D03*
X138015900Y-65775000D03*
X138015900Y-65125000D03*
X138015900Y-64475000D03*
X138015900Y-63825000D03*
X138015900Y-63175000D03*
X138015900Y-62525000D03*
X138015900Y-61875000D03*
X138015900Y-61225000D03*
X138015900Y-60575000D03*
D31*
X135198700Y-59065200D03*
X135198700Y-57165200D03*
X132923700Y-58115200D03*
D16*
X139621200Y-76200000D03*
X138661200Y-76200000D03*
D20*
X138656600Y-88874600D03*
X139676600Y-88874600D03*
D32*
X141127900Y-73726000D03*
X141127900Y-74676000D03*
X141127900Y-75626000D03*
X143402900Y-75626000D03*
X143402900Y-73726000D03*
D13*
X127988400Y-55880000D03*
D14*
X125448400Y-55880000D03*
X127988400Y-58420000D03*
X125448400Y-58420000D03*
X127988400Y-60960000D03*
X125448400Y-60960000D03*
X127988400Y-63500000D03*
X125448400Y-63500000D03*
X127988400Y-66040000D03*
X125448400Y-66040000D03*
X127988400Y-68580000D03*
X125448400Y-68580000D03*
X127988400Y-71120000D03*
X125448400Y-71120000D03*
X127988400Y-73660000D03*
X125448400Y-73660000D03*
X127988400Y-76200000D03*
X125448400Y-76200000D03*
X127988400Y-78740000D03*
X125448400Y-78740000D03*
X127988400Y-81280000D03*
X125448400Y-81280000D03*
X127988400Y-83820000D03*
X125448400Y-83820000D03*
X127988400Y-86360000D03*
X125448400Y-86360000D03*
X127988400Y-88900000D03*
X125448400Y-88900000D03*
X127988400Y-91440000D03*
X125448400Y-91440000D03*
X127988400Y-93980000D03*
X125448400Y-93980000D03*
X127988400Y-96520000D03*
X125448400Y-96520000D03*
X127988400Y-99060000D03*
X125448400Y-99060000D03*
X127988400Y-101600000D03*
X125448400Y-101600000D03*
X127988400Y-104140000D03*
X125448400Y-104140000D03*
D13*
X136118600Y-91160600D03*
D14*
X136118600Y-93700600D03*
X133578600Y-91160600D03*
X133578600Y-93700600D03*
X131038600Y-91160600D03*
X131038600Y-93700600D03*
D18*
X134288400Y-68279300D03*
X134288400Y-70379300D03*
%LPD*%
M02*
