G04 #@! TF.GenerationSoftware,KiCad,Pcbnew,9.0.0*
G04 #@! TF.CreationDate,2025-03-30T00:29:37+00:00*
G04 #@! TF.ProjectId,1MHzAdaptor,314d487a-4164-4617-9074-6f722e6b6963,03b*
G04 #@! TF.SameCoordinates,Original*
G04 #@! TF.FileFunction,Copper,L2,Bot*
G04 #@! TF.FilePolarity,Positive*
%FSLAX46Y46*%
G04 Gerber Fmt 4.6, Leading zero omitted, Abs format (unit mm)*
G04 Created by KiCad (PCBNEW 9.0.0) date 2025-03-30 00:29:37*
%MOMM*%
%LPD*%
G01*
G04 APERTURE LIST*
G04 Aperture macros list*
%AMFreePoly0*
4,1,23,0.550000,-0.750000,0.000000,-0.750000,0.000000,-0.745722,-0.065263,-0.745722,-0.191342,-0.711940,-0.304381,-0.646677,-0.396677,-0.554381,-0.461940,-0.441342,-0.495722,-0.315263,-0.495722,-0.250000,-0.500000,-0.250000,-0.500000,0.250000,-0.495722,0.250000,-0.495722,0.315263,-0.461940,0.441342,-0.396677,0.554381,-0.304381,0.646677,-0.191342,0.711940,-0.065263,0.745722,0.000000,0.745722,
0.000000,0.750000,0.550000,0.750000,0.550000,-0.750000,0.550000,-0.750000,$1*%
%AMFreePoly1*
4,1,23,0.000000,0.745722,0.065263,0.745722,0.191342,0.711940,0.304381,0.646677,0.396677,0.554381,0.461940,0.441342,0.495722,0.315263,0.495722,0.250000,0.500000,0.250000,0.500000,-0.250000,0.495722,-0.250000,0.495722,-0.315263,0.461940,-0.441342,0.396677,-0.554381,0.304381,-0.646677,0.191342,-0.711940,0.065263,-0.745722,0.000000,-0.745722,0.000000,-0.750000,-0.550000,-0.750000,
-0.550000,0.750000,0.000000,0.750000,0.000000,0.745722,0.000000,0.745722,$1*%
G04 Aperture macros list end*
G04 #@! TA.AperFunction,EtchedComponent*
%ADD10C,0.000000*%
G04 #@! TD*
G04 #@! TA.AperFunction,ComponentPad*
%ADD11R,1.700000X1.700000*%
G04 #@! TD*
G04 #@! TA.AperFunction,ComponentPad*
%ADD12O,1.700000X1.700000*%
G04 #@! TD*
G04 #@! TA.AperFunction,SMDPad,CuDef*
%ADD13FreePoly0,90.000000*%
G04 #@! TD*
G04 #@! TA.AperFunction,SMDPad,CuDef*
%ADD14R,1.500000X1.000000*%
G04 #@! TD*
G04 #@! TA.AperFunction,SMDPad,CuDef*
%ADD15FreePoly1,90.000000*%
G04 #@! TD*
G04 #@! TA.AperFunction,ViaPad*
%ADD16C,0.600000*%
G04 #@! TD*
G04 #@! TA.AperFunction,ViaPad*
%ADD17C,0.800000*%
G04 #@! TD*
G04 #@! TA.AperFunction,Conductor*
%ADD18C,0.250000*%
G04 #@! TD*
G04 #@! TA.AperFunction,Conductor*
%ADD19C,0.350000*%
G04 #@! TD*
G04 #@! TA.AperFunction,Conductor*
%ADD20C,0.500000*%
G04 #@! TD*
G04 APERTURE END LIST*
D10*
G04 #@! TA.AperFunction,EtchedComponent*
G36*
X143022600Y-80092600D02*
G01*
X142422600Y-80092600D01*
X142422600Y-79592600D01*
X143022600Y-79592600D01*
X143022600Y-80092600D01*
G37*
G04 #@! TD.AperFunction*
D11*
X140995400Y-71374000D03*
D12*
X140995400Y-68834000D03*
X143535400Y-71374000D03*
X143535400Y-68834000D03*
D11*
X149758400Y-59650000D03*
D12*
X147218400Y-59650000D03*
X149758400Y-62190000D03*
X147218400Y-62190000D03*
X149758400Y-64730000D03*
X147218400Y-64730000D03*
X149758400Y-67270000D03*
X147218400Y-67270000D03*
X149758400Y-69810000D03*
X147218400Y-69810000D03*
X149758400Y-72350000D03*
X147218400Y-72350000D03*
X149758400Y-74890000D03*
X147218400Y-74890000D03*
X149758400Y-77430000D03*
X147218400Y-77430000D03*
X149758400Y-79970000D03*
X147218400Y-79970000D03*
X149758400Y-82510000D03*
X147218400Y-82510000D03*
X149758400Y-85050000D03*
X147218400Y-85050000D03*
X149758400Y-87590000D03*
X147218400Y-87590000D03*
X149758400Y-90130000D03*
X147218400Y-90130000D03*
X149758400Y-92670000D03*
X147218400Y-92670000D03*
X149758400Y-95210000D03*
X147218400Y-95210000D03*
X149758400Y-97750000D03*
X147218400Y-97750000D03*
X149758400Y-100290000D03*
X147218400Y-100290000D03*
D11*
X127988400Y-55880000D03*
D12*
X125448400Y-55880000D03*
X127988400Y-58420000D03*
X125448400Y-58420000D03*
X127988400Y-60960000D03*
X125448400Y-60960000D03*
X127988400Y-63500000D03*
X125448400Y-63500000D03*
X127988400Y-66040000D03*
X125448400Y-66040000D03*
X127988400Y-68580000D03*
X125448400Y-68580000D03*
X127988400Y-71120000D03*
X125448400Y-71120000D03*
X127988400Y-73660000D03*
X125448400Y-73660000D03*
X127988400Y-76200000D03*
X125448400Y-76200000D03*
X127988400Y-78740000D03*
X125448400Y-78740000D03*
X127988400Y-81280000D03*
X125448400Y-81280000D03*
X127988400Y-83820000D03*
X125448400Y-83820000D03*
X127988400Y-86360000D03*
X125448400Y-86360000D03*
X127988400Y-88900000D03*
X125448400Y-88900000D03*
X127988400Y-91440000D03*
X125448400Y-91440000D03*
X127988400Y-93980000D03*
X125448400Y-93980000D03*
X127988400Y-96520000D03*
X125448400Y-96520000D03*
X127988400Y-99060000D03*
X125448400Y-99060000D03*
X127988400Y-101600000D03*
X125448400Y-101600000D03*
X127988400Y-104140000D03*
X125448400Y-104140000D03*
D11*
X136118600Y-91160600D03*
D12*
X136118600Y-93700600D03*
X133578600Y-91160600D03*
X133578600Y-93700600D03*
X131038600Y-91160600D03*
X131038600Y-93700600D03*
D13*
X142722600Y-80492600D03*
D14*
X142722600Y-79192600D03*
D15*
X142722600Y-77892600D03*
D16*
X143027400Y-94640400D03*
D17*
X136105900Y-99187000D03*
D16*
X131704400Y-67210000D03*
D17*
X130420973Y-60868122D03*
D16*
X133756400Y-60452000D03*
X126718400Y-82550000D03*
X145059400Y-61468000D03*
X145694400Y-59182000D03*
X132740400Y-76454000D03*
X129514600Y-78028800D03*
X129540000Y-79400400D03*
D17*
X139979400Y-60960000D03*
X143281400Y-74676000D03*
X130200400Y-88011000D03*
X144437100Y-81953100D03*
D16*
X136804400Y-60510000D03*
D17*
X134061200Y-56591200D03*
D16*
X129540000Y-73863200D03*
D17*
X129512400Y-84328000D03*
X129391903Y-80915739D03*
D16*
X132308600Y-100812600D03*
D17*
X144678400Y-63460000D03*
X129540000Y-57607200D03*
X142468600Y-93446600D03*
X138004179Y-73811901D03*
D16*
X133121400Y-80518000D03*
D17*
X139217400Y-71882000D03*
X134398941Y-73015459D03*
X138074400Y-76860400D03*
X131572000Y-83972400D03*
X129479256Y-75850443D03*
D16*
X134829399Y-100675100D03*
X141495400Y-93374000D03*
X139304400Y-70710000D03*
X136169400Y-70231000D03*
X144805400Y-60579000D03*
X136855200Y-67297300D03*
X135004609Y-65299791D03*
X137130692Y-75328818D03*
X137304400Y-82710000D03*
X138912600Y-92430600D03*
X137245400Y-89124000D03*
X139598400Y-67026500D03*
X135864600Y-88874600D03*
X139928600Y-63923500D03*
X136956800Y-76225400D03*
X137055922Y-85572600D03*
X135608400Y-89662000D03*
X133004400Y-84810000D03*
X129504400Y-86810000D03*
X130179390Y-86110002D03*
X139534900Y-63182500D03*
X135812667Y-71797751D03*
X130546224Y-81668174D03*
X133096000Y-79248000D03*
X139979400Y-74152317D03*
X135342145Y-72520066D03*
X133096000Y-78333600D03*
X134518400Y-61214000D03*
X130810000Y-86969600D03*
X131775200Y-78740000D03*
X135229357Y-74510000D03*
X133429410Y-63809996D03*
X132740400Y-77368400D03*
X142265400Y-74588500D03*
X137204400Y-81153000D03*
X132179301Y-75468805D03*
X139928600Y-98526600D03*
X133767485Y-98436085D03*
X131179368Y-71610000D03*
X132308600Y-96984500D03*
X131798400Y-96266000D03*
D17*
X136042400Y-68783200D03*
X132029200Y-56642000D03*
X139304401Y-82344314D03*
X137310593Y-80110000D03*
D16*
X133033100Y-100050600D03*
X140595600Y-93374000D03*
X133502400Y-62484000D03*
X134302500Y-67297300D03*
X137820400Y-67335400D03*
X134504400Y-63010000D03*
D17*
X135509000Y-58064400D03*
X142227300Y-67297300D03*
D16*
X144551400Y-75692000D03*
D17*
X142468600Y-82016600D03*
D16*
X140426600Y-79375000D03*
X138904400Y-79510000D03*
D18*
X148488400Y-93940000D02*
X146710400Y-93940000D01*
X149758400Y-92670000D02*
X148488400Y-93940000D01*
X146710400Y-93940000D02*
X146010000Y-94640400D01*
X146010000Y-94640400D02*
X143027400Y-94640400D01*
D19*
X149758400Y-72350000D02*
X149758400Y-74890000D01*
X149758400Y-79970000D02*
X148488400Y-81240000D01*
X133756400Y-60452000D02*
X130837095Y-60452000D01*
X145694400Y-59182000D02*
X145351043Y-59182000D01*
X144203400Y-60329643D02*
X144203400Y-60960000D01*
X143535400Y-65873000D02*
X144678400Y-64730000D01*
X144678400Y-64730000D02*
X144678400Y-63460000D01*
X148488400Y-88860000D02*
X147218400Y-90130000D01*
X142383400Y-72526000D02*
X139861400Y-72526000D01*
X148488400Y-81240000D02*
X148488400Y-88860000D01*
X143535400Y-71374000D02*
X142383400Y-72526000D01*
X126718400Y-102870000D02*
X127988400Y-104140000D01*
X136118600Y-93700600D02*
X136118600Y-91160600D01*
X148488400Y-63460000D02*
X144678400Y-63460000D01*
X130082813Y-76454000D02*
X132740400Y-76454000D01*
X149758400Y-67270000D02*
X149758400Y-69810000D01*
X145694400Y-73620000D02*
X144638400Y-74676000D01*
X145059400Y-61468000D02*
X145059400Y-63079000D01*
X129540000Y-73863200D02*
X131239600Y-73863200D01*
X145059400Y-63079000D02*
X144678400Y-63460000D01*
X133121400Y-82423000D02*
X133121400Y-80518000D01*
X149758400Y-74890000D02*
X149758400Y-77430000D01*
X131572000Y-83972400D02*
X133121400Y-82423000D01*
X126718400Y-97790000D02*
X126718400Y-102870000D01*
X139979400Y-60960000D02*
X144203400Y-60960000D01*
X126718400Y-95250000D02*
X125448400Y-96520000D01*
X129479256Y-75850443D02*
X130082813Y-76454000D01*
X144215800Y-62997400D02*
X144678400Y-63460000D01*
X144203400Y-62997400D02*
X144215800Y-62997400D01*
X145150200Y-81240000D02*
X144437100Y-81953100D01*
X149758400Y-69810000D02*
X149758400Y-72350000D01*
X149758400Y-72350000D02*
X148742400Y-71334000D01*
X149758400Y-77430000D02*
X149758400Y-79970000D01*
X145694400Y-73620000D02*
X148488400Y-73620000D01*
X144203400Y-60960000D02*
X144203400Y-62997400D01*
X147218400Y-90130000D02*
X145785200Y-90130000D01*
X149758400Y-62190000D02*
X149758400Y-64730000D01*
X149758400Y-64730000D02*
X149758400Y-67270000D01*
X131290400Y-73914000D02*
X131239600Y-73863200D01*
X143535400Y-68834000D02*
X143535400Y-65873000D01*
X139861400Y-72526000D02*
X139217400Y-71882000D01*
X149758400Y-62190000D02*
X148488400Y-63460000D01*
X134398941Y-73015459D02*
X135195383Y-73811901D01*
X136118600Y-99174300D02*
X136105900Y-99187000D01*
X149758400Y-59650000D02*
X149758400Y-62190000D01*
X125448400Y-96520000D02*
X126718400Y-97790000D01*
X130837095Y-60452000D02*
X130420973Y-60868122D01*
X145785200Y-90130000D02*
X142468600Y-93446600D01*
X148488400Y-81240000D02*
X145150200Y-81240000D01*
X145351043Y-59182000D02*
X144203400Y-60329643D01*
X143281400Y-74676000D02*
X141097000Y-76860400D01*
X144638400Y-74676000D02*
X143281400Y-74676000D01*
X126718400Y-92710000D02*
X126718400Y-95250000D01*
X135195383Y-73811901D02*
X138004179Y-73811901D01*
X125448400Y-91440000D02*
X126718400Y-92710000D01*
X148488400Y-73620000D02*
X149758400Y-74890000D01*
X136118600Y-93700600D02*
X136118600Y-99174300D01*
X138074400Y-76860400D02*
X141097000Y-76860400D01*
D18*
X141495400Y-92712884D02*
X141495400Y-93374000D01*
X143785100Y-90423184D02*
X143785100Y-80863300D01*
X143785100Y-80863300D02*
X147218400Y-77430000D01*
X141495400Y-92712884D02*
X143785100Y-90423184D01*
X135003899Y-95125899D02*
X135003899Y-100500600D01*
X133578600Y-93700600D02*
X135003899Y-95125899D01*
X135003899Y-100500600D02*
X134829399Y-100675100D01*
X145955001Y-68533399D02*
X145955001Y-69497490D01*
X145955001Y-69497490D02*
X145448147Y-70004344D01*
X145448147Y-70004344D02*
X140010056Y-70004344D01*
X147218400Y-67270000D02*
X145955001Y-68533399D01*
X140010056Y-70004344D02*
X139304400Y-70710000D01*
X145313400Y-71618000D02*
X145313400Y-72521000D01*
X136169400Y-70696324D02*
X136169400Y-70231000D01*
X148504400Y-70510000D02*
X147904400Y-71110000D01*
X145313400Y-72521000D02*
X144641400Y-73193000D01*
X148504400Y-66016000D02*
X148504400Y-70510000D01*
X145821400Y-71110000D02*
X145313400Y-71618000D01*
X137105076Y-71632000D02*
X136169400Y-70696324D01*
X147904400Y-71110000D02*
X145821400Y-71110000D01*
X144641400Y-73193000D02*
X139449806Y-73193000D01*
X137888806Y-71632000D02*
X137105076Y-71632000D01*
X139449806Y-73193000D02*
X137888806Y-71632000D01*
X147218400Y-64730000D02*
X148504400Y-66016000D01*
X146289400Y-60579000D02*
X147218400Y-59650000D01*
X144805400Y-60579000D02*
X146289400Y-60579000D01*
X137130692Y-75328818D02*
X136405582Y-75328818D01*
X135380899Y-100904246D02*
X134685145Y-101600000D01*
X134685145Y-101600000D02*
X127988400Y-101600000D01*
X136054411Y-87859990D02*
X134775361Y-89139039D01*
X135380899Y-94814138D02*
X135380899Y-100904246D01*
X136855200Y-67297300D02*
X136855200Y-66903600D01*
X134775361Y-89139039D02*
X134775361Y-94208600D01*
X135251391Y-65299791D02*
X135004609Y-65299791D01*
X136855200Y-66903600D02*
X135251391Y-65299791D01*
X136054411Y-75679989D02*
X136054411Y-87859990D01*
X134775361Y-94208600D02*
X135380899Y-94814138D01*
X136405582Y-75328818D02*
X136054411Y-75679989D01*
X139297600Y-85038620D02*
X139297600Y-92045600D01*
X137304400Y-83045420D02*
X139297600Y-85038620D01*
X139297600Y-92045600D02*
X138912600Y-92430600D01*
X137304400Y-82710000D02*
X137304400Y-83045420D01*
X136504422Y-88234778D02*
X135864600Y-88874600D01*
X137745400Y-88624000D02*
X137245400Y-89124000D01*
X136504422Y-84624000D02*
X136504422Y-88234778D01*
X137745400Y-85481432D02*
X137745400Y-88624000D01*
X136887968Y-84624000D02*
X137745400Y-85481432D01*
X136504422Y-84624000D02*
X136887968Y-84624000D01*
X139598400Y-64253700D02*
X139928600Y-63923500D01*
X136504422Y-76677778D02*
X136956800Y-76225400D01*
X136504422Y-76677778D02*
X136504422Y-84624000D01*
X139598400Y-67026500D02*
X139598400Y-64253700D01*
X135857846Y-89662000D02*
X137055922Y-88463924D01*
X137055922Y-88463924D02*
X137055922Y-85572600D01*
X135608400Y-89662000D02*
X135857846Y-89662000D01*
X130071849Y-89069731D02*
X130835439Y-89069731D01*
X133004400Y-86900770D02*
X133004400Y-84810000D01*
X130835439Y-89069731D02*
X133004400Y-86900770D01*
X127988400Y-91153180D02*
X130071849Y-89069731D01*
X125448400Y-86360000D02*
X126718400Y-87630000D01*
X128684400Y-87630000D02*
X129504400Y-86810000D01*
X126718400Y-87630000D02*
X128684400Y-87630000D01*
X126718400Y-85090000D02*
X125448400Y-83820000D01*
X130179390Y-86110002D02*
X129159388Y-85090000D01*
X129159388Y-85090000D02*
X126718400Y-85090000D01*
X134666918Y-69836108D02*
X132804400Y-67973590D01*
X134666918Y-70260158D02*
X134666918Y-69836108D01*
X133066727Y-61858999D02*
X134274399Y-61858999D01*
X132804400Y-62121326D02*
X133066727Y-61858999D01*
X135597900Y-63182500D02*
X139534900Y-63182500D01*
X135812667Y-71405907D02*
X134666918Y-70260158D01*
X130675826Y-81668174D02*
X133096000Y-79248000D01*
X134274399Y-61858999D02*
X135597900Y-63182500D01*
X132804400Y-67973590D02*
X132804400Y-62121326D01*
X130546224Y-81668174D02*
X130675826Y-81668174D01*
X135812667Y-71797751D02*
X135812667Y-71405907D01*
X135260667Y-71387065D02*
X135260667Y-72438588D01*
X132354391Y-61934925D02*
X132354391Y-68159991D01*
X134518400Y-61214000D02*
X133075316Y-61214000D01*
X126718400Y-80010000D02*
X125448400Y-81280000D01*
X139979400Y-74152317D02*
X139342806Y-74152317D01*
X134289918Y-70095518D02*
X134289918Y-70416316D01*
X133075316Y-61214000D02*
X132354391Y-61934925D01*
X131419600Y-80010000D02*
X126718400Y-80010000D01*
X137710555Y-72520066D02*
X135342145Y-72520066D01*
X133096000Y-78333600D02*
X131419600Y-80010000D01*
X135260667Y-72438588D02*
X135342145Y-72520066D01*
X134289918Y-70416316D02*
X135260667Y-71387065D01*
X139342806Y-74152317D02*
X137710555Y-72520066D01*
X132354391Y-68159991D02*
X134289918Y-70095518D01*
X130810000Y-84101600D02*
X127988400Y-81280000D01*
X130810000Y-86969600D02*
X130810000Y-84101600D01*
X131775200Y-78740000D02*
X127988400Y-78740000D01*
X135423174Y-74703817D02*
X142150083Y-74703817D01*
X135043918Y-70104000D02*
X135043918Y-69576696D01*
X135043918Y-69576696D02*
X133429411Y-67962189D01*
X139323965Y-73600317D02*
X137732647Y-72009000D01*
X133429411Y-67962189D02*
X133429410Y-63809996D01*
X136948918Y-72009000D02*
X135043918Y-70104000D01*
X137732647Y-72009000D02*
X136948918Y-72009000D01*
X141277217Y-73600317D02*
X139323965Y-73600317D01*
X142150083Y-74703817D02*
X142265400Y-74588500D01*
X135423174Y-74703817D02*
X135229357Y-74510000D01*
X142265400Y-74588500D02*
X141277217Y-73600317D01*
X125448400Y-76200000D02*
X126718400Y-77470000D01*
X132638800Y-77470000D02*
X132740400Y-77368400D01*
X126718400Y-77470000D02*
X132638800Y-77470000D01*
X137856400Y-81805000D02*
X137204400Y-81153000D01*
X137856400Y-83064262D02*
X137856400Y-81805000D01*
X125448400Y-73660000D02*
X126798401Y-75010001D01*
X126798401Y-75010001D02*
X131720497Y-75010001D01*
X139928600Y-98526600D02*
X139674600Y-98272600D01*
X139674600Y-98272600D02*
X139674600Y-84882462D01*
X139674600Y-84882462D02*
X137856400Y-83064262D01*
X132179301Y-75468805D02*
X131720497Y-75010001D01*
X133799451Y-76550741D02*
X133799451Y-86742129D01*
X132804311Y-75555602D02*
X133799451Y-76550741D01*
X130570442Y-97510600D02*
X132054600Y-97510600D01*
X127988400Y-73660000D02*
X128838399Y-74509999D01*
X132980085Y-98436085D02*
X133767485Y-98436085D01*
X132804311Y-74991778D02*
X132804311Y-75555602D01*
X128838399Y-74509999D02*
X132322532Y-74509999D01*
X129559600Y-96499758D02*
X130570442Y-97510600D01*
X131021839Y-89519741D02*
X130258249Y-89519741D01*
X132054600Y-97510600D02*
X132980085Y-98436085D01*
X130258249Y-89519741D02*
X129559600Y-90218390D01*
X129559600Y-90218390D02*
X129559600Y-96499758D01*
X132322532Y-74509999D02*
X132804311Y-74991778D01*
X133799451Y-86742129D02*
X131021839Y-89519741D01*
X127988400Y-71120000D02*
X130689368Y-71120000D01*
X130689368Y-71120000D02*
X131179368Y-71610000D01*
X129936600Y-90477800D02*
X129936600Y-96343600D01*
X126718400Y-71648000D02*
X127480400Y-72410000D01*
X130577500Y-96984500D02*
X132308600Y-96984500D01*
X134249462Y-76364342D02*
X134249462Y-86928528D01*
X133254322Y-75369202D02*
X134249462Y-76364342D01*
X129936600Y-96343600D02*
X130577500Y-96984500D01*
X127480400Y-72410000D02*
X130858944Y-72410000D01*
X133254322Y-74805379D02*
X133254322Y-75369202D01*
X130444650Y-89969750D02*
X129936600Y-90477800D01*
X134249462Y-86928528D02*
X131208240Y-89969750D01*
X125448400Y-68580000D02*
X126718400Y-69850000D01*
X130858944Y-72410000D02*
X133254322Y-74805379D01*
X126718400Y-69850000D02*
X126718400Y-71648000D01*
X131208240Y-89969750D02*
X130444650Y-89969750D01*
X127988400Y-68580000D02*
X129735815Y-68580000D01*
X132252800Y-90278010D02*
X132252800Y-95811600D01*
X134154344Y-74996402D02*
X135149483Y-75991542D01*
X135149483Y-75991542D02*
X135149484Y-87381326D01*
X134154344Y-74432578D02*
X134154344Y-74996402D01*
X132254389Y-71098574D02*
X132254389Y-72532623D01*
X132254389Y-72532623D02*
X134154344Y-74432578D01*
X135149484Y-87381326D02*
X132252800Y-90278010D01*
X129735815Y-68580000D02*
X132254389Y-71098574D01*
X131798400Y-96266000D02*
X132252800Y-95811600D01*
X133704333Y-74618978D02*
X133704333Y-75182802D01*
X126718400Y-69224000D02*
X127404400Y-69910000D01*
X130429404Y-69910000D02*
X131804378Y-71284974D01*
X134699473Y-76177942D02*
X134699473Y-87114927D01*
X131804378Y-72719023D02*
X133704333Y-74618978D01*
X125448400Y-66040000D02*
X126718400Y-67310000D01*
X127404400Y-69910000D02*
X130429404Y-69910000D01*
X131804378Y-71284974D02*
X131804378Y-72719023D01*
X134699473Y-87114927D02*
X131038600Y-90775800D01*
X133704333Y-75182802D02*
X134699473Y-76177942D01*
X126718400Y-67310000D02*
X126718400Y-69224000D01*
X132704400Y-72346223D02*
X132704400Y-70912174D01*
X135604400Y-75810049D02*
X134604355Y-74810002D01*
X135604400Y-87673590D02*
X135604400Y-75810049D01*
X133578600Y-89699390D02*
X135604400Y-87673590D01*
X134604355Y-74246178D02*
X132704400Y-72346223D01*
X134604355Y-74810002D02*
X134604355Y-74246178D01*
X126704400Y-64756000D02*
X126704400Y-66473590D01*
X129102226Y-67310000D02*
X127540810Y-67310000D01*
X125448400Y-63500000D02*
X126704400Y-64756000D01*
X132704400Y-70912174D02*
X129102226Y-67310000D01*
X133578600Y-91160600D02*
X133578600Y-89699390D01*
X126704400Y-66473590D02*
X127540810Y-67310000D01*
D20*
X132029200Y-59690000D02*
X135026977Y-59690000D01*
X140995400Y-63361600D02*
X140995400Y-68834000D01*
X135026977Y-59690000D02*
X137842477Y-62505500D01*
X125448400Y-55880000D02*
X125448400Y-58420000D01*
X136093200Y-68834000D02*
X136042400Y-68783200D01*
X125448400Y-58420000D02*
X126718400Y-59690000D01*
X137842477Y-62505500D02*
X140139300Y-62505500D01*
X140995400Y-68834000D02*
X136093200Y-68834000D01*
X132029200Y-56642000D02*
X132029200Y-59690000D01*
X126718400Y-59690000D02*
X132029200Y-59690000D01*
X140139300Y-62505500D02*
X140995400Y-63361600D01*
X139304401Y-82103808D02*
X139304401Y-82344314D01*
X137310593Y-80110000D02*
X139304401Y-82103808D01*
D18*
X126718400Y-90170000D02*
X126718400Y-91948000D01*
X129182600Y-96655916D02*
X130414284Y-97887600D01*
X128496400Y-92710000D02*
X129182600Y-93396200D01*
X127988400Y-88900000D02*
X126718400Y-90170000D01*
X131898442Y-97887600D02*
X133033100Y-99022259D01*
X143335100Y-81105100D02*
X143335100Y-89989300D01*
X126718400Y-91948000D02*
X127480400Y-92710000D01*
X129182600Y-93396200D02*
X129182600Y-96655916D01*
X142722600Y-80492600D02*
X143335100Y-81105100D01*
X133033100Y-99022259D02*
X133033100Y-100050600D01*
X130414284Y-97887600D02*
X131898442Y-97887600D01*
X127480400Y-92710000D02*
X128496400Y-92710000D01*
X143335100Y-89989300D02*
X140595600Y-92728800D01*
X140595600Y-92728800D02*
X140595600Y-93374000D01*
X134302500Y-67297300D02*
X133981410Y-66976210D01*
X133981410Y-66976210D02*
X133981410Y-63436992D01*
X133981410Y-63436992D02*
X133502400Y-62957982D01*
X133502400Y-62957982D02*
X133502400Y-62484000D01*
X137820400Y-67335400D02*
X137820159Y-67335400D01*
X137820159Y-67335400D02*
X134504400Y-64019642D01*
X134504400Y-64019642D02*
X134504400Y-63010000D01*
D20*
X139323100Y-61878500D02*
X135509000Y-58064400D01*
X141622400Y-63101888D02*
X140399012Y-61878500D01*
X141622400Y-66692400D02*
X141622400Y-63101888D01*
X142227300Y-67297300D02*
X141622400Y-66692400D01*
X140399012Y-61878500D02*
X139323100Y-61878500D01*
D18*
X144551400Y-76063800D02*
X144551400Y-75692000D01*
X142722600Y-77892600D02*
X144551400Y-76063800D01*
X141722600Y-79192600D02*
X142722600Y-79192600D01*
X141452600Y-79462600D02*
X141722600Y-79192600D01*
X142468600Y-82016600D02*
X141960600Y-82016600D01*
X141452600Y-81508600D02*
X141452600Y-79462600D01*
X141960600Y-82016600D02*
X141452600Y-81508600D01*
X139039400Y-79375000D02*
X138904400Y-79510000D01*
X140426600Y-79375000D02*
X139039400Y-79375000D01*
G04 #@! TA.AperFunction,Conductor*
G36*
X148381018Y-77792401D02*
G01*
X148403372Y-77794966D01*
X148413967Y-77803629D01*
X148426922Y-77808044D01*
X148440914Y-77825663D01*
X148458334Y-77839907D01*
X148468262Y-77860100D01*
X148471075Y-77863642D01*
X148474158Y-77872091D01*
X148499892Y-77951289D01*
X148499893Y-77951292D01*
X148596936Y-78141750D01*
X148722577Y-78314679D01*
X148873720Y-78465822D01*
X149046656Y-78591468D01*
X149048452Y-78592569D01*
X149048991Y-78593164D01*
X149050658Y-78594376D01*
X149050403Y-78594726D01*
X149096082Y-78645217D01*
X149107688Y-78715259D01*
X149079583Y-78780456D01*
X149050611Y-78805559D01*
X149050658Y-78805624D01*
X149049911Y-78806166D01*
X149048452Y-78807431D01*
X149046656Y-78808531D01*
X148873720Y-78934177D01*
X148722577Y-79085320D01*
X148596936Y-79258249D01*
X148499893Y-79448707D01*
X148474158Y-79527909D01*
X148434083Y-79586514D01*
X148368686Y-79614150D01*
X148298730Y-79602042D01*
X148246424Y-79554036D01*
X148242058Y-79546174D01*
X148241981Y-79546023D01*
X148241980Y-79546019D01*
X148163053Y-79391116D01*
X148110573Y-79318884D01*
X148060863Y-79250464D01*
X147937935Y-79127536D01*
X147797287Y-79025349D01*
X147797286Y-79025348D01*
X147797284Y-79025347D01*
X147642381Y-78946420D01*
X147642378Y-78946419D01*
X147642376Y-78946418D01*
X147477042Y-78892698D01*
X147477040Y-78892697D01*
X147477038Y-78892697D01*
X147305326Y-78865500D01*
X147131474Y-78865500D01*
X146959762Y-78892697D01*
X146959760Y-78892697D01*
X146959757Y-78892698D01*
X146794423Y-78946418D01*
X146794417Y-78946421D01*
X146639512Y-79025349D01*
X146498864Y-79127536D01*
X146375936Y-79250464D01*
X146273749Y-79391112D01*
X146194821Y-79546017D01*
X146194818Y-79546023D01*
X146141098Y-79711357D01*
X146141097Y-79711360D01*
X146141097Y-79711362D01*
X146113900Y-79883074D01*
X146113900Y-80056926D01*
X146141097Y-80228638D01*
X146141098Y-80228642D01*
X146194769Y-80393826D01*
X146194820Y-80393981D01*
X146273747Y-80548884D01*
X146273749Y-80548887D01*
X146375936Y-80689535D01*
X146498864Y-80812463D01*
X146498867Y-80812465D01*
X146639516Y-80914653D01*
X146794419Y-80993580D01*
X146959762Y-81047303D01*
X147131474Y-81074500D01*
X147131477Y-81074500D01*
X147305323Y-81074500D01*
X147305326Y-81074500D01*
X147477038Y-81047303D01*
X147642381Y-80993580D01*
X147797284Y-80914653D01*
X147937933Y-80812465D01*
X148060865Y-80689533D01*
X148163053Y-80548884D01*
X148241980Y-80393981D01*
X148241981Y-80393975D01*
X148242058Y-80393826D01*
X148290806Y-80342210D01*
X148359721Y-80325144D01*
X148426922Y-80348044D01*
X148471075Y-80403642D01*
X148474158Y-80412091D01*
X148499892Y-80491289D01*
X148499893Y-80491292D01*
X148596936Y-80681750D01*
X148722577Y-80854679D01*
X148873720Y-81005822D01*
X149046649Y-81131463D01*
X149237107Y-81228506D01*
X149237109Y-81228507D01*
X149316308Y-81254241D01*
X149374913Y-81294315D01*
X149402550Y-81359711D01*
X149390443Y-81429668D01*
X149342437Y-81481974D01*
X149334574Y-81486341D01*
X149179513Y-81565348D01*
X149038864Y-81667536D01*
X148915936Y-81790464D01*
X148813749Y-81931112D01*
X148734821Y-82086017D01*
X148734818Y-82086023D01*
X148681098Y-82251357D01*
X148681097Y-82251360D01*
X148681097Y-82251362D01*
X148653900Y-82423074D01*
X148653900Y-82596926D01*
X148679972Y-82761533D01*
X148681098Y-82768642D01*
X148731682Y-82924325D01*
X148734820Y-82933981D01*
X148813747Y-83088884D01*
X148813749Y-83088887D01*
X148915936Y-83229535D01*
X149038864Y-83352463D01*
X149038867Y-83352465D01*
X149179516Y-83454653D01*
X149334419Y-83533580D01*
X149499762Y-83587303D01*
X149671474Y-83614500D01*
X149671477Y-83614500D01*
X149845323Y-83614500D01*
X149845326Y-83614500D01*
X150017038Y-83587303D01*
X150182381Y-83533580D01*
X150337284Y-83454653D01*
X150477933Y-83352465D01*
X150489290Y-83341108D01*
X150512805Y-83317594D01*
X150575117Y-83283568D01*
X150645932Y-83288633D01*
X150702768Y-83331180D01*
X150727579Y-83397700D01*
X150727900Y-83406689D01*
X150727900Y-84153311D01*
X150707898Y-84221432D01*
X150654242Y-84267925D01*
X150583968Y-84278029D01*
X150519388Y-84248535D01*
X150512805Y-84242406D01*
X150477935Y-84207536D01*
X150337287Y-84105349D01*
X150337286Y-84105348D01*
X150337284Y-84105347D01*
X150182381Y-84026420D01*
X150182378Y-84026419D01*
X150182376Y-84026418D01*
X150017042Y-83972698D01*
X150017040Y-83972697D01*
X150017038Y-83972697D01*
X149845326Y-83945500D01*
X149671474Y-83945500D01*
X149499762Y-83972697D01*
X149499760Y-83972697D01*
X149499757Y-83972698D01*
X149334423Y-84026418D01*
X149334417Y-84026421D01*
X149179512Y-84105349D01*
X149038864Y-84207536D01*
X148915936Y-84330464D01*
X148813749Y-84471112D01*
X148734821Y-84626017D01*
X148734818Y-84626023D01*
X148681098Y-84791357D01*
X148681097Y-84791360D01*
X148681097Y-84791362D01*
X148653900Y-84963074D01*
X148653900Y-85136926D01*
X148681097Y-85308638D01*
X148681098Y-85308642D01*
X148715768Y-85415347D01*
X148734820Y-85473981D01*
X148813747Y-85628884D01*
X148813749Y-85628887D01*
X148915936Y-85769535D01*
X149038864Y-85892463D01*
X149038867Y-85892465D01*
X149179516Y-85994653D01*
X149334419Y-86073580D01*
X149499762Y-86127303D01*
X149671474Y-86154500D01*
X149671477Y-86154500D01*
X149845323Y-86154500D01*
X149845326Y-86154500D01*
X150017038Y-86127303D01*
X150182381Y-86073580D01*
X150337284Y-85994653D01*
X150477933Y-85892465D01*
X150477938Y-85892460D01*
X150512805Y-85857594D01*
X150575117Y-85823568D01*
X150645932Y-85828633D01*
X150702768Y-85871180D01*
X150727579Y-85937700D01*
X150727900Y-85946689D01*
X150727900Y-86693311D01*
X150707898Y-86761432D01*
X150654242Y-86807925D01*
X150583968Y-86818029D01*
X150519388Y-86788535D01*
X150512805Y-86782406D01*
X150477935Y-86747536D01*
X150337287Y-86645349D01*
X150337286Y-86645348D01*
X150337284Y-86645347D01*
X150182381Y-86566420D01*
X150182378Y-86566419D01*
X150182376Y-86566418D01*
X150017042Y-86512698D01*
X150017040Y-86512697D01*
X150017038Y-86512697D01*
X149845326Y-86485500D01*
X149671474Y-86485500D01*
X149499762Y-86512697D01*
X149499760Y-86512697D01*
X149499757Y-86512698D01*
X149334423Y-86566418D01*
X149334417Y-86566421D01*
X149179512Y-86645349D01*
X149038864Y-86747536D01*
X148915936Y-86870464D01*
X148813749Y-87011112D01*
X148734821Y-87166017D01*
X148734818Y-87166023D01*
X148681098Y-87331357D01*
X148681097Y-87331360D01*
X148681097Y-87331362D01*
X148653900Y-87503074D01*
X148653900Y-87676926D01*
X148680948Y-87847698D01*
X148681098Y-87848642D01*
X148726736Y-87989103D01*
X148734820Y-88013981D01*
X148813747Y-88168884D01*
X148813749Y-88168887D01*
X148915936Y-88309535D01*
X149038864Y-88432463D01*
X149038867Y-88432465D01*
X149179516Y-88534653D01*
X149334419Y-88613580D01*
X149499762Y-88667303D01*
X149671474Y-88694500D01*
X149671477Y-88694500D01*
X149845323Y-88694500D01*
X149845326Y-88694500D01*
X150017038Y-88667303D01*
X150182381Y-88613580D01*
X150337284Y-88534653D01*
X150477933Y-88432465D01*
X150477938Y-88432460D01*
X150512805Y-88397594D01*
X150575117Y-88363568D01*
X150645932Y-88368633D01*
X150702768Y-88411180D01*
X150727579Y-88477700D01*
X150727900Y-88486689D01*
X150727900Y-89233311D01*
X150707898Y-89301432D01*
X150654242Y-89347925D01*
X150583968Y-89358029D01*
X150519388Y-89328535D01*
X150512805Y-89322406D01*
X150477935Y-89287536D01*
X150337287Y-89185349D01*
X150337286Y-89185348D01*
X150337284Y-89185347D01*
X150182381Y-89106420D01*
X150182378Y-89106419D01*
X150182376Y-89106418D01*
X150017042Y-89052698D01*
X150017040Y-89052697D01*
X150017038Y-89052697D01*
X149845326Y-89025500D01*
X149671474Y-89025500D01*
X149499762Y-89052697D01*
X149499760Y-89052697D01*
X149499757Y-89052698D01*
X149334423Y-89106418D01*
X149334417Y-89106421D01*
X149179512Y-89185349D01*
X149038864Y-89287536D01*
X148915936Y-89410464D01*
X148813748Y-89551113D01*
X148734741Y-89706174D01*
X148685992Y-89757789D01*
X148617078Y-89774855D01*
X148549876Y-89751954D01*
X148505724Y-89696356D01*
X148502641Y-89687908D01*
X148476907Y-89608709D01*
X148476906Y-89608707D01*
X148379863Y-89418249D01*
X148254222Y-89245320D01*
X148103079Y-89094177D01*
X147930150Y-88968536D01*
X147739692Y-88871493D01*
X147739689Y-88871492D01*
X147660491Y-88845758D01*
X147601885Y-88805684D01*
X147574249Y-88740287D01*
X147586356Y-88670330D01*
X147634363Y-88618024D01*
X147642226Y-88613658D01*
X147642375Y-88613581D01*
X147642381Y-88613580D01*
X147797284Y-88534653D01*
X147937933Y-88432465D01*
X148060865Y-88309533D01*
X148163053Y-88168884D01*
X148241980Y-88013981D01*
X148295703Y-87848638D01*
X148322900Y-87676926D01*
X148322900Y-87503074D01*
X148295703Y-87331362D01*
X148241980Y-87166019D01*
X148163053Y-87011116D01*
X148060865Y-86870467D01*
X148060863Y-86870464D01*
X147937935Y-86747536D01*
X147797287Y-86645349D01*
X147797286Y-86645348D01*
X147797284Y-86645347D01*
X147642381Y-86566420D01*
X147642378Y-86566419D01*
X147642376Y-86566418D01*
X147477042Y-86512698D01*
X147477040Y-86512697D01*
X147477038Y-86512697D01*
X147305326Y-86485500D01*
X147131474Y-86485500D01*
X146959762Y-86512697D01*
X146959760Y-86512697D01*
X146959757Y-86512698D01*
X146794423Y-86566418D01*
X146794417Y-86566421D01*
X146639512Y-86645349D01*
X146498864Y-86747536D01*
X146375936Y-86870464D01*
X146273749Y-87011112D01*
X146194821Y-87166017D01*
X146194818Y-87166023D01*
X146141098Y-87331357D01*
X146141097Y-87331360D01*
X146141097Y-87331362D01*
X146113900Y-87503074D01*
X146113900Y-87676926D01*
X146140948Y-87847698D01*
X146141098Y-87848642D01*
X146186736Y-87989103D01*
X146194820Y-88013981D01*
X146273747Y-88168884D01*
X146273749Y-88168887D01*
X146375936Y-88309535D01*
X146498864Y-88432463D01*
X146498867Y-88432465D01*
X146639516Y-88534653D01*
X146794419Y-88613580D01*
X146794424Y-88613581D01*
X146794574Y-88613658D01*
X146846189Y-88662406D01*
X146863255Y-88731321D01*
X146840354Y-88798523D01*
X146784757Y-88842675D01*
X146776309Y-88845758D01*
X146697107Y-88871493D01*
X146506649Y-88968536D01*
X146333720Y-89094177D01*
X146182577Y-89245320D01*
X146056936Y-89418249D01*
X145959893Y-89608707D01*
X145959890Y-89608713D01*
X145893840Y-89811995D01*
X145883702Y-89876000D01*
X146787697Y-89876000D01*
X146752475Y-89937007D01*
X146718400Y-90064174D01*
X146718400Y-90195826D01*
X146752475Y-90322993D01*
X146787697Y-90384000D01*
X145883702Y-90384000D01*
X145893840Y-90448004D01*
X145959890Y-90651286D01*
X145959893Y-90651292D01*
X146056936Y-90841750D01*
X146182577Y-91014679D01*
X146333720Y-91165822D01*
X146506649Y-91291463D01*
X146697107Y-91388506D01*
X146697109Y-91388507D01*
X146776308Y-91414241D01*
X146834913Y-91454315D01*
X146862550Y-91519711D01*
X146850443Y-91589668D01*
X146802437Y-91641974D01*
X146794574Y-91646341D01*
X146639513Y-91725348D01*
X146498864Y-91827536D01*
X146375936Y-91950464D01*
X146273749Y-92091112D01*
X146194821Y-92246017D01*
X146194818Y-92246023D01*
X146141098Y-92411357D01*
X146141097Y-92411360D01*
X146141097Y-92411362D01*
X146113900Y-92583074D01*
X146113900Y-92756926D01*
X146137168Y-92903832D01*
X146141098Y-92928642D01*
X146187292Y-93070814D01*
X146194820Y-93093981D01*
X146273747Y-93248884D01*
X146273749Y-93248887D01*
X146375936Y-93389535D01*
X146460957Y-93474556D01*
X146465364Y-93482627D01*
X146472729Y-93488140D01*
X146482114Y-93513301D01*
X146494983Y-93536868D01*
X146494326Y-93546042D01*
X146497541Y-93554660D01*
X146491833Y-93580898D01*
X146489918Y-93607683D01*
X146484006Y-93616881D01*
X146482451Y-93624034D01*
X146460959Y-93652745D01*
X146441358Y-93672347D01*
X146406724Y-93706981D01*
X145889710Y-94223995D01*
X145827398Y-94258021D01*
X145800615Y-94260900D01*
X143484273Y-94260900D01*
X143416152Y-94240898D01*
X143395178Y-94223995D01*
X143367877Y-94196694D01*
X143367867Y-94196686D01*
X143241433Y-94123689D01*
X143224772Y-94119224D01*
X143100401Y-94085900D01*
X142954399Y-94085900D01*
X142881250Y-94105500D01*
X142813366Y-94123689D01*
X142686932Y-94196686D01*
X142686922Y-94196694D01*
X142583694Y-94299922D01*
X142583686Y-94299932D01*
X142510689Y-94426366D01*
X142507564Y-94438029D01*
X142472900Y-94567399D01*
X142472900Y-94713401D01*
X142502123Y-94822463D01*
X142510689Y-94854433D01*
X142583686Y-94980867D01*
X142583694Y-94980877D01*
X142686922Y-95084105D01*
X142686927Y-95084109D01*
X142686929Y-95084111D01*
X142686930Y-95084112D01*
X142686932Y-95084113D01*
X142813366Y-95157110D01*
X142813368Y-95157110D01*
X142813371Y-95157112D01*
X142954399Y-95194900D01*
X142954401Y-95194900D01*
X143100399Y-95194900D01*
X143100401Y-95194900D01*
X143241429Y-95157112D01*
X143241432Y-95157110D01*
X143241433Y-95157110D01*
X143343471Y-95098198D01*
X143367871Y-95084111D01*
X143367877Y-95084105D01*
X143395178Y-95056805D01*
X143457490Y-95022779D01*
X143484273Y-95019900D01*
X145952308Y-95019900D01*
X145960034Y-95019900D01*
X145960038Y-95019901D01*
X145987904Y-95019901D01*
X146020588Y-95029499D01*
X146056021Y-95039903D01*
X146056022Y-95039904D01*
X146056024Y-95039905D01*
X146070427Y-95056528D01*
X146102514Y-95093559D01*
X146113900Y-95145901D01*
X146113900Y-95296926D01*
X146141097Y-95468638D01*
X146141098Y-95468642D01*
X146179067Y-95585500D01*
X146194820Y-95633981D01*
X146265502Y-95772702D01*
X146273749Y-95788887D01*
X146375935Y-95929533D01*
X146375939Y-95929538D01*
X146498864Y-96052463D01*
X146498867Y-96052465D01*
X146639516Y-96154653D01*
X146794419Y-96233580D01*
X146959762Y-96287303D01*
X147131474Y-96314500D01*
X147131477Y-96314500D01*
X147305323Y-96314500D01*
X147305326Y-96314500D01*
X147477038Y-96287303D01*
X147642381Y-96233580D01*
X147797284Y-96154653D01*
X147937933Y-96052465D01*
X148060865Y-95929533D01*
X148163053Y-95788884D01*
X148241980Y-95633981D01*
X148295703Y-95468638D01*
X148322900Y-95296926D01*
X148322900Y-95123074D01*
X148295703Y-94951362D01*
X148241980Y-94786019D01*
X148163053Y-94631116D01*
X148082002Y-94519560D01*
X148077703Y-94507511D01*
X148069325Y-94497842D01*
X148065998Y-94474704D01*
X148058145Y-94452694D01*
X148061042Y-94440234D01*
X148059221Y-94427568D01*
X148068931Y-94406305D01*
X148074225Y-94383542D01*
X148083400Y-94374624D01*
X148088715Y-94362988D01*
X148108375Y-94350353D01*
X148125138Y-94334062D01*
X148139107Y-94330602D01*
X148148441Y-94324604D01*
X148183939Y-94319500D01*
X148430704Y-94319500D01*
X148430720Y-94319501D01*
X148438438Y-94319501D01*
X148538361Y-94319501D01*
X148538362Y-94319501D01*
X148614480Y-94299104D01*
X148614482Y-94299104D01*
X148621948Y-94297102D01*
X148634882Y-94293638D01*
X148721419Y-94243676D01*
X148792076Y-94173019D01*
X148802443Y-94162652D01*
X148802450Y-94162642D01*
X149232344Y-93732748D01*
X149294654Y-93698724D01*
X149360369Y-93702011D01*
X149499762Y-93747303D01*
X149671474Y-93774500D01*
X149671477Y-93774500D01*
X149845323Y-93774500D01*
X149845326Y-93774500D01*
X150017038Y-93747303D01*
X150182381Y-93693580D01*
X150337284Y-93614653D01*
X150477933Y-93512465D01*
X150494880Y-93495518D01*
X150512805Y-93477594D01*
X150575117Y-93443568D01*
X150645932Y-93448633D01*
X150702768Y-93491180D01*
X150727579Y-93557700D01*
X150727900Y-93566689D01*
X150727900Y-94313311D01*
X150707898Y-94381432D01*
X150654242Y-94427925D01*
X150583968Y-94438029D01*
X150519388Y-94408535D01*
X150512805Y-94402406D01*
X150477935Y-94367536D01*
X150337287Y-94265349D01*
X150337286Y-94265348D01*
X150337284Y-94265347D01*
X150182381Y-94186420D01*
X150182378Y-94186419D01*
X150182376Y-94186418D01*
X150017042Y-94132698D01*
X150017040Y-94132697D01*
X150017038Y-94132697D01*
X149845326Y-94105500D01*
X149671474Y-94105500D01*
X149499762Y-94132697D01*
X149499760Y-94132697D01*
X149499757Y-94132698D01*
X149334423Y-94186418D01*
X149334417Y-94186421D01*
X149179512Y-94265349D01*
X149038864Y-94367536D01*
X148915936Y-94490464D01*
X148813749Y-94631112D01*
X148734821Y-94786017D01*
X148734818Y-94786023D01*
X148681098Y-94951357D01*
X148681097Y-94951360D01*
X148681097Y-94951362D01*
X148653900Y-95123074D01*
X148653900Y-95296926D01*
X148681097Y-95468638D01*
X148681098Y-95468642D01*
X148719067Y-95585500D01*
X148734820Y-95633981D01*
X148805502Y-95772702D01*
X148813749Y-95788887D01*
X148915935Y-95929533D01*
X148915939Y-95929538D01*
X149038864Y-96052463D01*
X149038867Y-96052465D01*
X149179516Y-96154653D01*
X149334419Y-96233580D01*
X149499762Y-96287303D01*
X149671474Y-96314500D01*
X149671477Y-96314500D01*
X149845323Y-96314500D01*
X149845326Y-96314500D01*
X150017038Y-96287303D01*
X150182381Y-96233580D01*
X150337284Y-96154653D01*
X150477933Y-96052465D01*
X150485783Y-96044615D01*
X150512805Y-96017594D01*
X150575117Y-95983568D01*
X150645932Y-95988633D01*
X150702768Y-96031180D01*
X150727579Y-96097700D01*
X150727900Y-96106689D01*
X150727900Y-96853311D01*
X150707898Y-96921432D01*
X150654242Y-96967925D01*
X150583968Y-96978029D01*
X150519388Y-96948535D01*
X150512805Y-96942406D01*
X150477935Y-96907536D01*
X150337287Y-96805349D01*
X150337286Y-96805348D01*
X150337284Y-96805347D01*
X150182381Y-96726420D01*
X150182378Y-96726419D01*
X150182376Y-96726418D01*
X150017042Y-96672698D01*
X150017040Y-96672697D01*
X150017038Y-96672697D01*
X149845326Y-96645500D01*
X149671474Y-96645500D01*
X149499762Y-96672697D01*
X149499760Y-96672697D01*
X149499757Y-96672698D01*
X149334423Y-96726418D01*
X149334417Y-96726421D01*
X149179512Y-96805349D01*
X149038864Y-96907536D01*
X148915936Y-97030464D01*
X148813749Y-97171112D01*
X148734821Y-97326017D01*
X148734818Y-97326023D01*
X148681098Y-97491357D01*
X148681097Y-97491360D01*
X148681097Y-97491362D01*
X148653900Y-97663074D01*
X148653900Y-97836926D01*
X148681097Y-98008638D01*
X148681098Y-98008642D01*
X148717481Y-98120619D01*
X148734820Y-98173981D01*
X148813747Y-98328884D01*
X148813749Y-98328887D01*
X148915936Y-98469535D01*
X149038864Y-98592463D01*
X149038867Y-98592465D01*
X149179516Y-98694653D01*
X149334419Y-98773580D01*
X149499762Y-98827303D01*
X149671474Y-98854500D01*
X149671477Y-98854500D01*
X149845323Y-98854500D01*
X149845326Y-98854500D01*
X150017038Y-98827303D01*
X150182381Y-98773580D01*
X150337284Y-98694653D01*
X150477933Y-98592465D01*
X150477938Y-98592460D01*
X150512805Y-98557594D01*
X150575117Y-98523568D01*
X150645932Y-98528633D01*
X150702768Y-98571180D01*
X150727579Y-98637700D01*
X150727900Y-98646689D01*
X150727900Y-99393311D01*
X150707898Y-99461432D01*
X150654242Y-99507925D01*
X150583968Y-99518029D01*
X150519388Y-99488535D01*
X150512805Y-99482406D01*
X150477935Y-99447536D01*
X150337287Y-99345349D01*
X150337286Y-99345348D01*
X150337284Y-99345347D01*
X150182381Y-99266420D01*
X150182378Y-99266419D01*
X150182376Y-99266418D01*
X150017042Y-99212698D01*
X150017040Y-99212697D01*
X150017038Y-99212697D01*
X149845326Y-99185500D01*
X149671474Y-99185500D01*
X149499762Y-99212697D01*
X149499760Y-99212697D01*
X149499757Y-99212698D01*
X149334423Y-99266418D01*
X149334417Y-99266421D01*
X149179512Y-99345349D01*
X149038864Y-99447536D01*
X148915936Y-99570464D01*
X148813749Y-99711112D01*
X148734821Y-99866017D01*
X148734818Y-99866023D01*
X148681098Y-100031357D01*
X148681097Y-100031360D01*
X148681097Y-100031362D01*
X148653900Y-100203074D01*
X148653900Y-100376926D01*
X148681097Y-100548638D01*
X148681098Y-100548642D01*
X148715768Y-100655347D01*
X148734820Y-100713981D01*
X148813747Y-100868884D01*
X148813749Y-100868887D01*
X148915934Y-101009532D01*
X148915939Y-101009538D01*
X148990806Y-101084405D01*
X149024832Y-101146717D01*
X149019767Y-101217532D01*
X148977220Y-101274368D01*
X148910700Y-101299179D01*
X148901711Y-101299500D01*
X148075089Y-101299500D01*
X148006968Y-101279498D01*
X147960475Y-101225842D01*
X147950371Y-101155568D01*
X147979865Y-101090988D01*
X147985994Y-101084405D01*
X148060860Y-101009538D01*
X148060866Y-101009532D01*
X148101061Y-100954208D01*
X148163053Y-100868884D01*
X148241980Y-100713981D01*
X148295703Y-100548638D01*
X148322900Y-100376926D01*
X148322900Y-100203074D01*
X148295703Y-100031362D01*
X148241980Y-99866019D01*
X148163053Y-99711116D01*
X148097224Y-99620510D01*
X148060863Y-99570464D01*
X147937935Y-99447536D01*
X147797287Y-99345349D01*
X147797286Y-99345348D01*
X147797284Y-99345347D01*
X147642381Y-99266420D01*
X147642378Y-99266419D01*
X147642376Y-99266418D01*
X147477042Y-99212698D01*
X147477040Y-99212697D01*
X147477038Y-99212697D01*
X147305326Y-99185500D01*
X147131474Y-99185500D01*
X146959762Y-99212697D01*
X146959760Y-99212697D01*
X146959757Y-99212698D01*
X146794423Y-99266418D01*
X146794417Y-99266421D01*
X146639512Y-99345349D01*
X146498864Y-99447536D01*
X146375936Y-99570464D01*
X146273749Y-99711112D01*
X146194821Y-99866017D01*
X146194818Y-99866023D01*
X146141098Y-100031357D01*
X146141097Y-100031360D01*
X146141097Y-100031362D01*
X146113900Y-100203074D01*
X146113900Y-100376926D01*
X146141097Y-100548638D01*
X146141098Y-100548642D01*
X146175768Y-100655347D01*
X146194820Y-100713981D01*
X146273747Y-100868884D01*
X146273749Y-100868887D01*
X146375934Y-101009532D01*
X146375939Y-101009538D01*
X146450806Y-101084405D01*
X146484832Y-101146717D01*
X146479767Y-101217532D01*
X146437220Y-101274368D01*
X146370700Y-101299179D01*
X146361711Y-101299500D01*
X137486767Y-101299500D01*
X137369619Y-101322802D01*
X137330569Y-101330570D01*
X137183432Y-101391517D01*
X137051009Y-101479998D01*
X137051003Y-101480003D01*
X136938403Y-101592603D01*
X136938398Y-101592609D01*
X136875381Y-101686922D01*
X136849917Y-101725032D01*
X136802105Y-101840460D01*
X136788971Y-101872167D01*
X136788970Y-101872170D01*
X136757900Y-102028367D01*
X136757900Y-104892081D01*
X136756348Y-104911795D01*
X136750864Y-104946413D01*
X136738683Y-104983901D01*
X136727329Y-105006185D01*
X136704157Y-105038078D01*
X136686478Y-105055757D01*
X136654585Y-105078929D01*
X136632301Y-105090283D01*
X136594813Y-105102464D01*
X136560195Y-105107948D01*
X136540481Y-105109500D01*
X129209886Y-105109500D01*
X129141765Y-105089498D01*
X129095272Y-105035842D01*
X129085168Y-104965568D01*
X129107950Y-104909439D01*
X129149863Y-104851750D01*
X129246906Y-104661292D01*
X129246909Y-104661286D01*
X129312959Y-104458004D01*
X129323098Y-104394000D01*
X128419103Y-104394000D01*
X128454325Y-104332993D01*
X128488400Y-104205826D01*
X128488400Y-104074174D01*
X128454325Y-103947007D01*
X128419103Y-103886000D01*
X129323097Y-103886000D01*
X129312959Y-103821995D01*
X129246909Y-103618713D01*
X129246906Y-103618707D01*
X129149863Y-103428249D01*
X129024222Y-103255320D01*
X128873079Y-103104177D01*
X128700150Y-102978536D01*
X128509692Y-102881493D01*
X128509689Y-102881492D01*
X128430491Y-102855758D01*
X128371885Y-102815684D01*
X128344249Y-102750287D01*
X128356356Y-102680330D01*
X128404363Y-102628024D01*
X128412226Y-102623658D01*
X128412375Y-102623581D01*
X128412381Y-102623580D01*
X128567284Y-102544653D01*
X128707933Y-102442465D01*
X128830865Y-102319533D01*
X128933053Y-102178884D01*
X128999590Y-102048296D01*
X129048338Y-101996682D01*
X129111857Y-101979500D01*
X134635179Y-101979500D01*
X134635183Y-101979501D01*
X134735107Y-101979501D01*
X134817624Y-101957390D01*
X134831627Y-101953638D01*
X134918164Y-101903676D01*
X134988821Y-101833019D01*
X134999188Y-101822652D01*
X134999195Y-101822642D01*
X135603541Y-101218296D01*
X135603551Y-101218289D01*
X135684569Y-101137271D01*
X135684575Y-101137265D01*
X135734537Y-101050728D01*
X135745575Y-101009533D01*
X135760400Y-100954208D01*
X135760400Y-100854284D01*
X135760399Y-100854280D01*
X135760399Y-95166319D01*
X135780401Y-95098198D01*
X135834057Y-95051705D01*
X135847682Y-95049745D01*
X135864600Y-95035297D01*
X135864600Y-94131302D01*
X135925607Y-94166525D01*
X136052774Y-94200600D01*
X136184426Y-94200600D01*
X136311593Y-94166525D01*
X136372600Y-94131302D01*
X136372600Y-95035296D01*
X136436601Y-95025160D01*
X136639886Y-94959109D01*
X136639892Y-94959106D01*
X136830350Y-94862063D01*
X137003279Y-94736422D01*
X137154422Y-94585279D01*
X137280063Y-94412350D01*
X137377106Y-94221892D01*
X137377109Y-94221886D01*
X137443159Y-94018604D01*
X137453298Y-93954600D01*
X136549303Y-93954600D01*
X136584525Y-93893593D01*
X136618600Y-93766426D01*
X136618600Y-93634774D01*
X136584525Y-93507607D01*
X136549303Y-93446600D01*
X137453297Y-93446600D01*
X137443159Y-93382595D01*
X137377109Y-93179313D01*
X137377106Y-93179307D01*
X137280063Y-92988849D01*
X137154422Y-92815920D01*
X137050924Y-92712422D01*
X137016898Y-92650110D01*
X137021963Y-92579295D01*
X137064510Y-92522459D01*
X137095987Y-92505271D01*
X137214565Y-92461044D01*
X137331504Y-92373504D01*
X137419044Y-92256565D01*
X137419044Y-92256564D01*
X137470094Y-92119693D01*
X137476599Y-92059197D01*
X137476600Y-92059185D01*
X137476600Y-91414600D01*
X136549303Y-91414600D01*
X136584525Y-91353593D01*
X136618600Y-91226426D01*
X136618600Y-91094774D01*
X136584525Y-90967607D01*
X136549303Y-90906600D01*
X137476600Y-90906600D01*
X137476600Y-90262014D01*
X137476599Y-90262002D01*
X137470094Y-90201506D01*
X137419044Y-90064635D01*
X137419044Y-90064634D01*
X137331504Y-89947695D01*
X137270880Y-89902313D01*
X137228333Y-89845477D01*
X137223269Y-89774662D01*
X137257294Y-89712349D01*
X137313778Y-89679738D01*
X137318398Y-89678500D01*
X137318401Y-89678500D01*
X137459429Y-89640712D01*
X137459432Y-89640710D01*
X137459433Y-89640710D01*
X137540184Y-89594088D01*
X137585871Y-89567711D01*
X137689111Y-89464471D01*
X137744235Y-89368993D01*
X137762110Y-89338033D01*
X137762110Y-89338032D01*
X137762112Y-89338029D01*
X137799900Y-89197001D01*
X137799900Y-89158384D01*
X137808683Y-89128468D01*
X137815312Y-89097999D01*
X137819126Y-89092902D01*
X137819902Y-89090263D01*
X137836800Y-89069293D01*
X137968043Y-88938049D01*
X137968053Y-88938042D01*
X138049070Y-88857025D01*
X138049076Y-88857019D01*
X138099038Y-88770482D01*
X138110389Y-88728119D01*
X138124901Y-88673962D01*
X138124901Y-88574038D01*
X138124900Y-88574034D01*
X138124900Y-85541557D01*
X138124901Y-85541544D01*
X138124901Y-85431470D01*
X138124900Y-85431466D01*
X138103332Y-85350974D01*
X138099038Y-85334951D01*
X138099038Y-85334950D01*
X138049076Y-85248413D01*
X137978419Y-85177756D01*
X137978418Y-85177755D01*
X137586984Y-84786321D01*
X137198829Y-84398166D01*
X137198827Y-84398163D01*
X137120993Y-84320329D01*
X137120983Y-84320321D01*
X137034448Y-84270361D01*
X137024251Y-84267629D01*
X137014052Y-84264896D01*
X136991279Y-84258794D01*
X136977308Y-84255050D01*
X136916686Y-84218097D01*
X136885666Y-84154235D01*
X136883922Y-84133344D01*
X136883922Y-83465826D01*
X136903924Y-83397705D01*
X136957580Y-83351212D01*
X137027854Y-83341108D01*
X137092434Y-83370602D01*
X137099017Y-83376731D01*
X138881195Y-85158909D01*
X138915221Y-85221221D01*
X138918100Y-85248004D01*
X138918100Y-91758382D01*
X138898098Y-91826503D01*
X138844442Y-91872996D01*
X138824712Y-91880088D01*
X138698571Y-91913888D01*
X138698569Y-91913888D01*
X138698565Y-91913890D01*
X138572132Y-91986886D01*
X138572122Y-91986894D01*
X138468894Y-92090122D01*
X138468886Y-92090132D01*
X138395889Y-92216566D01*
X138387996Y-92246023D01*
X138358100Y-92357599D01*
X138358100Y-92503601D01*
X138382885Y-92596100D01*
X138395889Y-92644633D01*
X138468886Y-92771067D01*
X138468894Y-92771077D01*
X138572122Y-92874305D01*
X138572127Y-92874309D01*
X138572129Y-92874311D01*
X138572130Y-92874312D01*
X138572132Y-92874313D01*
X138698566Y-92947310D01*
X138698568Y-92947310D01*
X138698571Y-92947312D01*
X138839599Y-92985100D01*
X138839601Y-92985100D01*
X138985599Y-92985100D01*
X138985601Y-92985100D01*
X139126629Y-92947312D01*
X139126630Y-92947310D01*
X139134606Y-92945174D01*
X139135398Y-92948131D01*
X139191470Y-92942103D01*
X139254957Y-92973881D01*
X139291186Y-93034938D01*
X139295100Y-93066101D01*
X139295100Y-98222634D01*
X139295099Y-98222638D01*
X139295099Y-98322562D01*
X139307936Y-98370469D01*
X139310729Y-98380893D01*
X139310730Y-98380902D01*
X139320961Y-98419080D01*
X139357219Y-98481881D01*
X139374100Y-98544881D01*
X139374100Y-98599601D01*
X139384309Y-98637700D01*
X139411889Y-98740633D01*
X139484886Y-98867067D01*
X139484894Y-98867077D01*
X139588122Y-98970305D01*
X139588127Y-98970309D01*
X139588129Y-98970311D01*
X139588130Y-98970312D01*
X139588132Y-98970313D01*
X139714566Y-99043310D01*
X139714568Y-99043310D01*
X139714571Y-99043312D01*
X139855599Y-99081100D01*
X139855601Y-99081100D01*
X140001599Y-99081100D01*
X140001601Y-99081100D01*
X140142629Y-99043312D01*
X140142632Y-99043310D01*
X140142633Y-99043310D01*
X140265631Y-98972297D01*
X140269071Y-98970311D01*
X140372311Y-98867071D01*
X140445312Y-98740629D01*
X140483100Y-98599601D01*
X140483100Y-98453599D01*
X140445312Y-98312571D01*
X140445310Y-98312568D01*
X140445310Y-98312566D01*
X140372313Y-98186132D01*
X140372305Y-98186122D01*
X140269077Y-98082894D01*
X140269067Y-98082886D01*
X140142625Y-98009885D01*
X140134997Y-98006726D01*
X140136037Y-98004213D01*
X140123319Y-97996458D01*
X140097588Y-97984707D01*
X140093426Y-97978230D01*
X140086853Y-97974223D01*
X140074496Y-97948775D01*
X140059204Y-97924981D01*
X140057631Y-97914045D01*
X140055841Y-97910358D01*
X140054100Y-97889483D01*
X140054100Y-97663074D01*
X146113900Y-97663074D01*
X146113900Y-97836926D01*
X146141097Y-98008638D01*
X146141098Y-98008642D01*
X146177481Y-98120619D01*
X146194820Y-98173981D01*
X146273747Y-98328884D01*
X146273749Y-98328887D01*
X146375936Y-98469535D01*
X146498864Y-98592463D01*
X146498867Y-98592465D01*
X146639516Y-98694653D01*
X146794419Y-98773580D01*
X146959762Y-98827303D01*
X147131474Y-98854500D01*
X147131477Y-98854500D01*
X147305323Y-98854500D01*
X147305326Y-98854500D01*
X147477038Y-98827303D01*
X147642381Y-98773580D01*
X147797284Y-98694653D01*
X147937933Y-98592465D01*
X148060865Y-98469533D01*
X148163053Y-98328884D01*
X148241980Y-98173981D01*
X148295703Y-98008638D01*
X148322900Y-97836926D01*
X148322900Y-97663074D01*
X148295703Y-97491362D01*
X148241980Y-97326019D01*
X148163053Y-97171116D01*
X148100217Y-97084630D01*
X148060863Y-97030464D01*
X147937935Y-96907536D01*
X147797287Y-96805349D01*
X147797286Y-96805348D01*
X147797284Y-96805347D01*
X147642381Y-96726420D01*
X147642378Y-96726419D01*
X147642376Y-96726418D01*
X147477042Y-96672698D01*
X147477040Y-96672697D01*
X147477038Y-96672697D01*
X147305326Y-96645500D01*
X147131474Y-96645500D01*
X146959762Y-96672697D01*
X146959760Y-96672697D01*
X146959757Y-96672698D01*
X146794423Y-96726418D01*
X146794417Y-96726421D01*
X146639512Y-96805349D01*
X146498864Y-96907536D01*
X146375936Y-97030464D01*
X146273749Y-97171112D01*
X146194821Y-97326017D01*
X146194818Y-97326023D01*
X146141098Y-97491357D01*
X146141097Y-97491360D01*
X146141097Y-97491362D01*
X146113900Y-97663074D01*
X140054100Y-97663074D01*
X140054100Y-93918958D01*
X140074102Y-93850837D01*
X140127758Y-93804344D01*
X140198032Y-93794240D01*
X140247188Y-93814948D01*
X140247977Y-93813582D01*
X140381566Y-93890710D01*
X140381568Y-93890710D01*
X140381571Y-93890712D01*
X140522599Y-93928500D01*
X140522601Y-93928500D01*
X140668599Y-93928500D01*
X140668601Y-93928500D01*
X140809629Y-93890712D01*
X140809632Y-93890710D01*
X140809633Y-93890710D01*
X140878695Y-93850837D01*
X140936071Y-93817711D01*
X140940200Y-93813582D01*
X140956405Y-93797378D01*
X141018717Y-93763352D01*
X141089532Y-93768417D01*
X141134595Y-93797378D01*
X141154922Y-93817705D01*
X141154927Y-93817709D01*
X141154929Y-93817711D01*
X141154930Y-93817712D01*
X141154932Y-93817713D01*
X141281366Y-93890710D01*
X141281368Y-93890710D01*
X141281371Y-93890712D01*
X141422399Y-93928500D01*
X141422401Y-93928500D01*
X141568399Y-93928500D01*
X141568401Y-93928500D01*
X141709429Y-93890712D01*
X141709432Y-93890710D01*
X141709433Y-93890710D01*
X141778495Y-93850837D01*
X141835871Y-93817711D01*
X141939111Y-93714471D01*
X141991325Y-93624034D01*
X142012110Y-93588033D01*
X142012110Y-93588032D01*
X142012112Y-93588029D01*
X142049900Y-93447001D01*
X142049900Y-93300999D01*
X142012112Y-93159971D01*
X142012110Y-93159968D01*
X142012110Y-93159966D01*
X141939113Y-93033532D01*
X141939105Y-93033522D01*
X141914375Y-93008792D01*
X141880349Y-92946480D01*
X141885414Y-92875665D01*
X141914373Y-92830604D01*
X144007742Y-90737234D01*
X144007752Y-90737227D01*
X144088770Y-90656209D01*
X144088776Y-90656203D01*
X144138738Y-90569666D01*
X144151071Y-90523638D01*
X144164601Y-90473146D01*
X144164601Y-90373222D01*
X144164600Y-90373218D01*
X144164600Y-84963074D01*
X146113900Y-84963074D01*
X146113900Y-85136926D01*
X146141097Y-85308638D01*
X146141098Y-85308642D01*
X146175768Y-85415347D01*
X146194820Y-85473981D01*
X146273747Y-85628884D01*
X146273749Y-85628887D01*
X146375936Y-85769535D01*
X146498864Y-85892463D01*
X146498867Y-85892465D01*
X146639516Y-85994653D01*
X146794419Y-86073580D01*
X146959762Y-86127303D01*
X147131474Y-86154500D01*
X147131477Y-86154500D01*
X147305323Y-86154500D01*
X147305326Y-86154500D01*
X147477038Y-86127303D01*
X147642381Y-86073580D01*
X147797284Y-85994653D01*
X147937933Y-85892465D01*
X148060865Y-85769533D01*
X148163053Y-85628884D01*
X148241980Y-85473981D01*
X148295703Y-85308638D01*
X148322900Y-85136926D01*
X148322900Y-84963074D01*
X148295703Y-84791362D01*
X148241980Y-84626019D01*
X148163053Y-84471116D01*
X148110573Y-84398884D01*
X148060863Y-84330464D01*
X147937935Y-84207536D01*
X147797287Y-84105349D01*
X147797286Y-84105348D01*
X147797284Y-84105347D01*
X147642381Y-84026420D01*
X147642378Y-84026419D01*
X147642376Y-84026418D01*
X147477042Y-83972698D01*
X147477040Y-83972697D01*
X147477038Y-83972697D01*
X147305326Y-83945500D01*
X147131474Y-83945500D01*
X146959762Y-83972697D01*
X146959760Y-83972697D01*
X146959757Y-83972698D01*
X146794423Y-84026418D01*
X146794417Y-84026421D01*
X146639512Y-84105349D01*
X146498864Y-84207536D01*
X146375936Y-84330464D01*
X146273749Y-84471112D01*
X146194821Y-84626017D01*
X146194818Y-84626023D01*
X146141098Y-84791357D01*
X146141097Y-84791360D01*
X146141097Y-84791362D01*
X146113900Y-84963074D01*
X144164600Y-84963074D01*
X144164600Y-82423074D01*
X146113900Y-82423074D01*
X146113900Y-82596926D01*
X146139972Y-82761533D01*
X146141098Y-82768642D01*
X146191682Y-82924325D01*
X146194820Y-82933981D01*
X146273747Y-83088884D01*
X146273749Y-83088887D01*
X146375936Y-83229535D01*
X146498864Y-83352463D01*
X146498867Y-83352465D01*
X146639516Y-83454653D01*
X146794419Y-83533580D01*
X146959762Y-83587303D01*
X147131474Y-83614500D01*
X147131477Y-83614500D01*
X147305323Y-83614500D01*
X147305326Y-83614500D01*
X147477038Y-83587303D01*
X147642381Y-83533580D01*
X147797284Y-83454653D01*
X147937933Y-83352465D01*
X148060865Y-83229533D01*
X148163053Y-83088884D01*
X148241980Y-82933981D01*
X148295703Y-82768638D01*
X148322900Y-82596926D01*
X148322900Y-82423074D01*
X148295703Y-82251362D01*
X148241980Y-82086019D01*
X148163053Y-81931116D01*
X148063555Y-81794169D01*
X148060863Y-81790464D01*
X147937935Y-81667536D01*
X147797287Y-81565349D01*
X147797286Y-81565348D01*
X147797284Y-81565347D01*
X147642381Y-81486420D01*
X147642378Y-81486419D01*
X147642376Y-81486418D01*
X147477042Y-81432698D01*
X147477040Y-81432697D01*
X147477038Y-81432697D01*
X147305326Y-81405500D01*
X147131474Y-81405500D01*
X146959762Y-81432697D01*
X146959760Y-81432697D01*
X146959757Y-81432698D01*
X146794423Y-81486418D01*
X146794417Y-81486421D01*
X146639512Y-81565349D01*
X146498864Y-81667536D01*
X146375936Y-81790464D01*
X146273749Y-81931112D01*
X146194821Y-82086017D01*
X146194818Y-82086023D01*
X146141098Y-82251357D01*
X146141097Y-82251360D01*
X146141097Y-82251362D01*
X146113900Y-82423074D01*
X144164600Y-82423074D01*
X144164600Y-81072683D01*
X144184602Y-81004562D01*
X144201500Y-80983593D01*
X146692344Y-78492748D01*
X146754654Y-78458725D01*
X146820369Y-78462011D01*
X146959762Y-78507303D01*
X147131474Y-78534500D01*
X147131477Y-78534500D01*
X147305323Y-78534500D01*
X147305326Y-78534500D01*
X147477038Y-78507303D01*
X147642381Y-78453580D01*
X147797284Y-78374653D01*
X147937933Y-78272465D01*
X148060865Y-78149533D01*
X148163053Y-78008884D01*
X148241980Y-77853981D01*
X148241981Y-77853975D01*
X148242058Y-77853826D01*
X148257507Y-77837467D01*
X148269126Y-77818200D01*
X148281407Y-77812161D01*
X148290806Y-77802210D01*
X148312647Y-77796801D01*
X148332838Y-77786874D01*
X148346435Y-77788433D01*
X148359721Y-77785144D01*
X148381018Y-77792401D01*
G37*
G04 #@! TD.AperFunction*
G04 #@! TA.AperFunction,Conductor*
G36*
X132840812Y-94525265D02*
G01*
X132847395Y-94531394D01*
X132859064Y-94543063D01*
X132917169Y-94585279D01*
X132999716Y-94645253D01*
X133154619Y-94724180D01*
X133319962Y-94777903D01*
X133491674Y-94805100D01*
X133491677Y-94805100D01*
X133665523Y-94805100D01*
X133665526Y-94805100D01*
X133837238Y-94777903D01*
X133976626Y-94732612D01*
X134047593Y-94730585D01*
X134104657Y-94763351D01*
X134587494Y-95246188D01*
X134621520Y-95308500D01*
X134624399Y-95335283D01*
X134624399Y-100080428D01*
X134604397Y-100148549D01*
X134561400Y-100189547D01*
X134488928Y-100231388D01*
X134488921Y-100231394D01*
X134385693Y-100334622D01*
X134385685Y-100334632D01*
X134312688Y-100461066D01*
X134296174Y-100522698D01*
X134274899Y-100602099D01*
X134274899Y-100748101D01*
X134294196Y-100820119D01*
X134312688Y-100889133D01*
X134385685Y-101015567D01*
X134387395Y-101017795D01*
X134388252Y-101020013D01*
X134389817Y-101022723D01*
X134389394Y-101022966D01*
X134412996Y-101084015D01*
X134398732Y-101153564D01*
X134349131Y-101204360D01*
X134287433Y-101220500D01*
X129111857Y-101220500D01*
X129043736Y-101200498D01*
X128999590Y-101151703D01*
X128933053Y-101021116D01*
X128884441Y-100954208D01*
X128830863Y-100880464D01*
X128707935Y-100757536D01*
X128567287Y-100655349D01*
X128567286Y-100655348D01*
X128567284Y-100655347D01*
X128412381Y-100576420D01*
X128412378Y-100576419D01*
X128412376Y-100576418D01*
X128247042Y-100522698D01*
X128247040Y-100522697D01*
X128247038Y-100522697D01*
X128075326Y-100495500D01*
X127901474Y-100495500D01*
X127729762Y-100522697D01*
X127729760Y-100522697D01*
X127729757Y-100522698D01*
X127564423Y-100576418D01*
X127564417Y-100576421D01*
X127409512Y-100655349D01*
X127268864Y-100757536D01*
X127145936Y-100880464D01*
X127043749Y-101021112D01*
X126964821Y-101176017D01*
X126964818Y-101176023D01*
X126911098Y-101341357D01*
X126911097Y-101341360D01*
X126911097Y-101341362D01*
X126883900Y-101513074D01*
X126883900Y-101686926D01*
X126908218Y-101840460D01*
X126911098Y-101858642D01*
X126952490Y-101986035D01*
X126964820Y-102023981D01*
X126974959Y-102043879D01*
X127043749Y-102178887D01*
X127145936Y-102319535D01*
X127268864Y-102442463D01*
X127268867Y-102442465D01*
X127409516Y-102544653D01*
X127564419Y-102623580D01*
X127564424Y-102623581D01*
X127564574Y-102623658D01*
X127616189Y-102672406D01*
X127633255Y-102741321D01*
X127610354Y-102808523D01*
X127554757Y-102852675D01*
X127546309Y-102855758D01*
X127467107Y-102881493D01*
X127276649Y-102978536D01*
X127103720Y-103104177D01*
X126952577Y-103255320D01*
X126826936Y-103428249D01*
X126729893Y-103618707D01*
X126704158Y-103697909D01*
X126664083Y-103756514D01*
X126598686Y-103784150D01*
X126528730Y-103772042D01*
X126476424Y-103724036D01*
X126472058Y-103716174D01*
X126471981Y-103716024D01*
X126471980Y-103716019D01*
X126393053Y-103561116D01*
X126357992Y-103512859D01*
X126290863Y-103420464D01*
X126167935Y-103297536D01*
X126027287Y-103195349D01*
X126027286Y-103195348D01*
X126027284Y-103195347D01*
X125872381Y-103116420D01*
X125872378Y-103116419D01*
X125872376Y-103116418D01*
X125707042Y-103062698D01*
X125707040Y-103062697D01*
X125707038Y-103062697D01*
X125535326Y-103035500D01*
X125361474Y-103035500D01*
X125189762Y-103062697D01*
X125189760Y-103062697D01*
X125189757Y-103062698D01*
X125024423Y-103116418D01*
X125024417Y-103116421D01*
X124869512Y-103195349D01*
X124728864Y-103297536D01*
X124728861Y-103297539D01*
X124619995Y-103406406D01*
X124557683Y-103440432D01*
X124486868Y-103435367D01*
X124430032Y-103392820D01*
X124405221Y-103326300D01*
X124404900Y-103317311D01*
X124404900Y-102422689D01*
X124424902Y-102354568D01*
X124478558Y-102308075D01*
X124548832Y-102297971D01*
X124613412Y-102327465D01*
X124619995Y-102333594D01*
X124728864Y-102442463D01*
X124728867Y-102442465D01*
X124869516Y-102544653D01*
X125024419Y-102623580D01*
X125189762Y-102677303D01*
X125361474Y-102704500D01*
X125361477Y-102704500D01*
X125535323Y-102704500D01*
X125535326Y-102704500D01*
X125707038Y-102677303D01*
X125872381Y-102623580D01*
X126027284Y-102544653D01*
X126167933Y-102442465D01*
X126290865Y-102319533D01*
X126393053Y-102178884D01*
X126471980Y-102023981D01*
X126525703Y-101858638D01*
X126552900Y-101686926D01*
X126552900Y-101513074D01*
X126525703Y-101341362D01*
X126471980Y-101176019D01*
X126393053Y-101021116D01*
X126344441Y-100954208D01*
X126290863Y-100880464D01*
X126167935Y-100757536D01*
X126027287Y-100655349D01*
X126027286Y-100655348D01*
X126027284Y-100655347D01*
X125872381Y-100576420D01*
X125872378Y-100576419D01*
X125872376Y-100576418D01*
X125707042Y-100522698D01*
X125707040Y-100522697D01*
X125707038Y-100522697D01*
X125535326Y-100495500D01*
X125361474Y-100495500D01*
X125189762Y-100522697D01*
X125189760Y-100522697D01*
X125189757Y-100522698D01*
X125024423Y-100576418D01*
X125024417Y-100576421D01*
X124869512Y-100655349D01*
X124728864Y-100757536D01*
X124728861Y-100757539D01*
X124619995Y-100866406D01*
X124557683Y-100900432D01*
X124486868Y-100895367D01*
X124430032Y-100852820D01*
X124405221Y-100786300D01*
X124404900Y-100777311D01*
X124404900Y-99882689D01*
X124424902Y-99814568D01*
X124478558Y-99768075D01*
X124548832Y-99757971D01*
X124613412Y-99787465D01*
X124619995Y-99793594D01*
X124728864Y-99902463D01*
X124728867Y-99902465D01*
X124869516Y-100004653D01*
X125024419Y-100083580D01*
X125189762Y-100137303D01*
X125361474Y-100164500D01*
X125361477Y-100164500D01*
X125535323Y-100164500D01*
X125535326Y-100164500D01*
X125707038Y-100137303D01*
X125872381Y-100083580D01*
X126027284Y-100004653D01*
X126167933Y-99902465D01*
X126290865Y-99779533D01*
X126393053Y-99638884D01*
X126471980Y-99483981D01*
X126525703Y-99318638D01*
X126552900Y-99146926D01*
X126552900Y-98973074D01*
X126883900Y-98973074D01*
X126883900Y-99146926D01*
X126911097Y-99318638D01*
X126911098Y-99318642D01*
X126935359Y-99393311D01*
X126964820Y-99483981D01*
X127034385Y-99620510D01*
X127043749Y-99638887D01*
X127145936Y-99779535D01*
X127268864Y-99902463D01*
X127268867Y-99902465D01*
X127409516Y-100004653D01*
X127564419Y-100083580D01*
X127729762Y-100137303D01*
X127901474Y-100164500D01*
X127901477Y-100164500D01*
X128075323Y-100164500D01*
X128075326Y-100164500D01*
X128247038Y-100137303D01*
X128412381Y-100083580D01*
X128567284Y-100004653D01*
X128707933Y-99902465D01*
X128830865Y-99779533D01*
X128933053Y-99638884D01*
X129011980Y-99483981D01*
X129065703Y-99318638D01*
X129092900Y-99146926D01*
X129092900Y-98973074D01*
X129065703Y-98801362D01*
X129011980Y-98636019D01*
X128933053Y-98481116D01*
X128847297Y-98363084D01*
X128830863Y-98340464D01*
X128707935Y-98217536D01*
X128567287Y-98115349D01*
X128567286Y-98115348D01*
X128567284Y-98115347D01*
X128412381Y-98036420D01*
X128412378Y-98036419D01*
X128412376Y-98036418D01*
X128247042Y-97982698D01*
X128247040Y-97982697D01*
X128247038Y-97982697D01*
X128075326Y-97955500D01*
X127901474Y-97955500D01*
X127729762Y-97982697D01*
X127729760Y-97982697D01*
X127729757Y-97982698D01*
X127564423Y-98036418D01*
X127564417Y-98036421D01*
X127409512Y-98115349D01*
X127268864Y-98217536D01*
X127145936Y-98340464D01*
X127043749Y-98481112D01*
X126964821Y-98636017D01*
X126964818Y-98636023D01*
X126911098Y-98801357D01*
X126911097Y-98801360D01*
X126911097Y-98801362D01*
X126883900Y-98973074D01*
X126552900Y-98973074D01*
X126525703Y-98801362D01*
X126471980Y-98636019D01*
X126393053Y-98481116D01*
X126307297Y-98363084D01*
X126290863Y-98340464D01*
X126167935Y-98217536D01*
X126027287Y-98115349D01*
X126027286Y-98115348D01*
X126027284Y-98115347D01*
X125872381Y-98036420D01*
X125872378Y-98036419D01*
X125872225Y-98036341D01*
X125820610Y-97987593D01*
X125803544Y-97918678D01*
X125826445Y-97851476D01*
X125882042Y-97807324D01*
X125890492Y-97804241D01*
X125969686Y-97778509D01*
X125969692Y-97778506D01*
X126160150Y-97681463D01*
X126333079Y-97555822D01*
X126484222Y-97404679D01*
X126609863Y-97231750D01*
X126706906Y-97041292D01*
X126706909Y-97041286D01*
X126732641Y-96962092D01*
X126772714Y-96903486D01*
X126838111Y-96875849D01*
X126908068Y-96887956D01*
X126960374Y-96935962D01*
X126964741Y-96943825D01*
X126964819Y-96943978D01*
X126964820Y-96943981D01*
X127043747Y-97098884D01*
X127043749Y-97098887D01*
X127145936Y-97239535D01*
X127268864Y-97362463D01*
X127268867Y-97362465D01*
X127409516Y-97464653D01*
X127564419Y-97543580D01*
X127729762Y-97597303D01*
X127901474Y-97624500D01*
X127901477Y-97624500D01*
X128075323Y-97624500D01*
X128075326Y-97624500D01*
X128247038Y-97597303D01*
X128412381Y-97543580D01*
X128567284Y-97464653D01*
X128707933Y-97362465D01*
X128830865Y-97239533D01*
X128911912Y-97127981D01*
X128968131Y-97084630D01*
X129038867Y-97078554D01*
X129101659Y-97111686D01*
X129102940Y-97112950D01*
X130106197Y-98116207D01*
X130106218Y-98116230D01*
X130181258Y-98191270D01*
X130181263Y-98191274D01*
X130181265Y-98191276D01*
X130181266Y-98191277D01*
X130181268Y-98191278D01*
X130267804Y-98241239D01*
X130364318Y-98267100D01*
X130364322Y-98267101D01*
X130471964Y-98267101D01*
X130471980Y-98267100D01*
X131689058Y-98267100D01*
X131757179Y-98287102D01*
X131778153Y-98304005D01*
X132616695Y-99142547D01*
X132650721Y-99204859D01*
X132653600Y-99231642D01*
X132653600Y-99593727D01*
X132633598Y-99661848D01*
X132616695Y-99682822D01*
X132589394Y-99710122D01*
X132589386Y-99710132D01*
X132516389Y-99836566D01*
X132508496Y-99866023D01*
X132478600Y-99977599D01*
X132478600Y-100123601D01*
X132507483Y-100231394D01*
X132516389Y-100264633D01*
X132589386Y-100391067D01*
X132589394Y-100391077D01*
X132692622Y-100494305D01*
X132692627Y-100494309D01*
X132692629Y-100494311D01*
X132692630Y-100494312D01*
X132692632Y-100494313D01*
X132819066Y-100567310D01*
X132819068Y-100567310D01*
X132819071Y-100567312D01*
X132960099Y-100605100D01*
X132960101Y-100605100D01*
X133106099Y-100605100D01*
X133106101Y-100605100D01*
X133247129Y-100567312D01*
X133247132Y-100567310D01*
X133247133Y-100567310D01*
X133324405Y-100522697D01*
X133373571Y-100494311D01*
X133476811Y-100391071D01*
X133549812Y-100264629D01*
X133587600Y-100123601D01*
X133587600Y-99977599D01*
X133549812Y-99836571D01*
X133549810Y-99836568D01*
X133549810Y-99836566D01*
X133476813Y-99710132D01*
X133476805Y-99710122D01*
X133449505Y-99682822D01*
X133415479Y-99620510D01*
X133412600Y-99593727D01*
X133412600Y-99079260D01*
X133432602Y-99011139D01*
X133486258Y-98964646D01*
X133556532Y-98954542D01*
X133571201Y-98957551D01*
X133694484Y-98990585D01*
X133694485Y-98990585D01*
X133840484Y-98990585D01*
X133840486Y-98990585D01*
X133981514Y-98952797D01*
X133981517Y-98952795D01*
X133981518Y-98952795D01*
X134044735Y-98916296D01*
X134107956Y-98879796D01*
X134211196Y-98776556D01*
X134284197Y-98650114D01*
X134321985Y-98509086D01*
X134321985Y-98363084D01*
X134284197Y-98222056D01*
X134284195Y-98222053D01*
X134284195Y-98222051D01*
X134211198Y-98095617D01*
X134211190Y-98095607D01*
X134107962Y-97992379D01*
X134107952Y-97992371D01*
X133981518Y-97919374D01*
X133947869Y-97910358D01*
X133840486Y-97881585D01*
X133694484Y-97881585D01*
X133608171Y-97904712D01*
X133553451Y-97919374D01*
X133427017Y-97992371D01*
X133427007Y-97992379D01*
X133399707Y-98019680D01*
X133372338Y-98034624D01*
X133346110Y-98051481D01*
X133339811Y-98052386D01*
X133337395Y-98053706D01*
X133310612Y-98056585D01*
X133189469Y-98056585D01*
X133121348Y-98036583D01*
X133100374Y-98019680D01*
X132668083Y-97587389D01*
X132634057Y-97525077D01*
X132639122Y-97454262D01*
X132668081Y-97409200D01*
X132752311Y-97324971D01*
X132801637Y-97239535D01*
X132825310Y-97198533D01*
X132825310Y-97198532D01*
X132825312Y-97198529D01*
X132863100Y-97057501D01*
X132863100Y-96911499D01*
X132825312Y-96770471D01*
X132825310Y-96770468D01*
X132825310Y-96770466D01*
X132752313Y-96644032D01*
X132752305Y-96644022D01*
X132649077Y-96540794D01*
X132649067Y-96540786D01*
X132522634Y-96467790D01*
X132522631Y-96467789D01*
X132522629Y-96467788D01*
X132446287Y-96447332D01*
X132422123Y-96432603D01*
X132396388Y-96420850D01*
X132392232Y-96414383D01*
X132385666Y-96410381D01*
X132373300Y-96384924D01*
X132358004Y-96361124D01*
X132356434Y-96350204D01*
X132354644Y-96346520D01*
X132352900Y-96325626D01*
X132352900Y-96300384D01*
X132372902Y-96232263D01*
X132389801Y-96211292D01*
X132475444Y-96125649D01*
X132475453Y-96125642D01*
X132556470Y-96044625D01*
X132556476Y-96044619D01*
X132606438Y-95958082D01*
X132614088Y-95929533D01*
X132632301Y-95861562D01*
X132632301Y-95761638D01*
X132632300Y-95761634D01*
X132632300Y-94620489D01*
X132652302Y-94552368D01*
X132705958Y-94505875D01*
X132776232Y-94495771D01*
X132840812Y-94525265D01*
G37*
G04 #@! TD.AperFunction*
G04 #@! TA.AperFunction,Conductor*
G36*
X131292600Y-95035296D02*
G01*
X131356601Y-95025160D01*
X131559886Y-94959109D01*
X131559892Y-94959106D01*
X131690097Y-94892764D01*
X131759874Y-94879660D01*
X131825658Y-94906360D01*
X131866565Y-94964388D01*
X131873300Y-95005031D01*
X131873300Y-95585500D01*
X131853298Y-95653621D01*
X131799642Y-95700114D01*
X131747300Y-95711500D01*
X131725399Y-95711500D01*
X131639086Y-95734627D01*
X131584366Y-95749289D01*
X131457932Y-95822286D01*
X131457922Y-95822294D01*
X131354694Y-95925522D01*
X131354686Y-95925532D01*
X131281689Y-96051966D01*
X131269885Y-96096019D01*
X131243900Y-96192999D01*
X131243900Y-96339001D01*
X131272674Y-96446391D01*
X131270985Y-96517365D01*
X131231191Y-96576161D01*
X131165927Y-96604109D01*
X131150968Y-96605000D01*
X130786884Y-96605000D01*
X130718763Y-96584998D01*
X130697789Y-96568095D01*
X130353005Y-96223311D01*
X130318979Y-96160999D01*
X130316100Y-96134216D01*
X130316100Y-95062200D01*
X130336102Y-94994079D01*
X130389758Y-94947586D01*
X130460032Y-94937482D01*
X130499303Y-94949933D01*
X130517307Y-94959106D01*
X130517313Y-94959109D01*
X130720598Y-95025160D01*
X130784600Y-95035296D01*
X130784600Y-94131302D01*
X130845607Y-94166525D01*
X130972774Y-94200600D01*
X131104426Y-94200600D01*
X131231593Y-94166525D01*
X131292600Y-94131302D01*
X131292600Y-95035296D01*
G37*
G04 #@! TD.AperFunction*
G04 #@! TA.AperFunction,Conductor*
G36*
X126565334Y-92347731D02*
G01*
X126610398Y-92376692D01*
X127176722Y-92943016D01*
X127176724Y-92943019D01*
X127218805Y-92985100D01*
X127230959Y-92997254D01*
X127250170Y-93032437D01*
X127264983Y-93059565D01*
X127259918Y-93130380D01*
X127259917Y-93130381D01*
X127259917Y-93130382D01*
X127230958Y-93175443D01*
X127145935Y-93260466D01*
X127043749Y-93401112D01*
X126964821Y-93556017D01*
X126964818Y-93556023D01*
X126911098Y-93721357D01*
X126911097Y-93721360D01*
X126911097Y-93721362D01*
X126883900Y-93893074D01*
X126883900Y-94066926D01*
X126908444Y-94221886D01*
X126911098Y-94238642D01*
X126951500Y-94362988D01*
X126964820Y-94403981D01*
X127035686Y-94543063D01*
X127043749Y-94558887D01*
X127145936Y-94699535D01*
X127268864Y-94822463D01*
X127268867Y-94822465D01*
X127409516Y-94924653D01*
X127564419Y-95003580D01*
X127729762Y-95057303D01*
X127901474Y-95084500D01*
X127901477Y-95084500D01*
X128075323Y-95084500D01*
X128075326Y-95084500D01*
X128247038Y-95057303D01*
X128412381Y-95003580D01*
X128567284Y-94924653D01*
X128603038Y-94898675D01*
X128669905Y-94874817D01*
X128739057Y-94890896D01*
X128788538Y-94941810D01*
X128803100Y-95000611D01*
X128803100Y-95499388D01*
X128783098Y-95567509D01*
X128729442Y-95614002D01*
X128659168Y-95624106D01*
X128603040Y-95601325D01*
X128567286Y-95575348D01*
X128551901Y-95567509D01*
X128412381Y-95496420D01*
X128412378Y-95496419D01*
X128412376Y-95496418D01*
X128247042Y-95442698D01*
X128247040Y-95442697D01*
X128247038Y-95442697D01*
X128075326Y-95415500D01*
X127901474Y-95415500D01*
X127729762Y-95442697D01*
X127729760Y-95442697D01*
X127729757Y-95442698D01*
X127564423Y-95496418D01*
X127564417Y-95496421D01*
X127409512Y-95575349D01*
X127268864Y-95677536D01*
X127145936Y-95800464D01*
X127043748Y-95941113D01*
X126964741Y-96096174D01*
X126915992Y-96147789D01*
X126847078Y-96164855D01*
X126779876Y-96141954D01*
X126735724Y-96086356D01*
X126732641Y-96077908D01*
X126706907Y-95998709D01*
X126706906Y-95998707D01*
X126609863Y-95808249D01*
X126484222Y-95635320D01*
X126333079Y-95484177D01*
X126160150Y-95358536D01*
X125969692Y-95261493D01*
X125969689Y-95261492D01*
X125890491Y-95235758D01*
X125831885Y-95195684D01*
X125804249Y-95130287D01*
X125816356Y-95060330D01*
X125864363Y-95008024D01*
X125872226Y-95003658D01*
X125872375Y-95003581D01*
X125872381Y-95003580D01*
X126027284Y-94924653D01*
X126167933Y-94822465D01*
X126290865Y-94699533D01*
X126393053Y-94558884D01*
X126471980Y-94403981D01*
X126525703Y-94238638D01*
X126552900Y-94066926D01*
X126552900Y-93893074D01*
X126525703Y-93721362D01*
X126471980Y-93556019D01*
X126393053Y-93401116D01*
X126319952Y-93300501D01*
X126290863Y-93260464D01*
X126167935Y-93137536D01*
X126027287Y-93035349D01*
X126027286Y-93035348D01*
X126027284Y-93035347D01*
X125872381Y-92956420D01*
X125872378Y-92956419D01*
X125872225Y-92956341D01*
X125820610Y-92907593D01*
X125803544Y-92838678D01*
X125826445Y-92771476D01*
X125882042Y-92727324D01*
X125890492Y-92724241D01*
X125969686Y-92698509D01*
X125969692Y-92698506D01*
X126160150Y-92601463D01*
X126333077Y-92475823D01*
X126432207Y-92376692D01*
X126494519Y-92342667D01*
X126565334Y-92347731D01*
G37*
G04 #@! TD.AperFunction*
G04 #@! TA.AperFunction,Conductor*
G36*
X136372600Y-93269897D02*
G01*
X136311593Y-93234675D01*
X136184426Y-93200600D01*
X136052774Y-93200600D01*
X135925607Y-93234675D01*
X135864600Y-93269897D01*
X135864600Y-91591302D01*
X135925607Y-91626525D01*
X136052774Y-91660600D01*
X136184426Y-91660600D01*
X136311593Y-91626525D01*
X136372600Y-91591302D01*
X136372600Y-93269897D01*
G37*
G04 #@! TD.AperFunction*
G04 #@! TA.AperFunction,Conductor*
G36*
X146243341Y-71493104D02*
G01*
X146256088Y-71492010D01*
X146276758Y-71502916D01*
X146299186Y-71509502D01*
X146307564Y-71519171D01*
X146318880Y-71525142D01*
X146330373Y-71545494D01*
X146345679Y-71563158D01*
X146347499Y-71575821D01*
X146353791Y-71586962D01*
X146352456Y-71610295D01*
X146355783Y-71633432D01*
X146350370Y-71646767D01*
X146349737Y-71657843D01*
X146333004Y-71689555D01*
X146282359Y-71759263D01*
X146273747Y-71771116D01*
X146194821Y-71926017D01*
X146194818Y-71926023D01*
X146141098Y-72091357D01*
X146141097Y-72091360D01*
X146141097Y-72091362D01*
X146113900Y-72263074D01*
X146113900Y-72436926D01*
X146138631Y-72593067D01*
X146141098Y-72608642D01*
X146194769Y-72773826D01*
X146194820Y-72773981D01*
X146273747Y-72928884D01*
X146273749Y-72928887D01*
X146375936Y-73069535D01*
X146498864Y-73192463D01*
X146498867Y-73192465D01*
X146639516Y-73294653D01*
X146794419Y-73373580D01*
X146959762Y-73427303D01*
X147131474Y-73454500D01*
X147131477Y-73454500D01*
X147305323Y-73454500D01*
X147305326Y-73454500D01*
X147477038Y-73427303D01*
X147642381Y-73373580D01*
X147797284Y-73294653D01*
X147937933Y-73192465D01*
X148060865Y-73069533D01*
X148163053Y-72928884D01*
X148241980Y-72773981D01*
X148241981Y-72773975D01*
X148242058Y-72773826D01*
X148290806Y-72722210D01*
X148359721Y-72705144D01*
X148426922Y-72728044D01*
X148471075Y-72783642D01*
X148474158Y-72792091D01*
X148499892Y-72871289D01*
X148499893Y-72871292D01*
X148596936Y-73061750D01*
X148722577Y-73234679D01*
X148873720Y-73385822D01*
X149046656Y-73511468D01*
X149048452Y-73512569D01*
X149048991Y-73513164D01*
X149050658Y-73514376D01*
X149050403Y-73514726D01*
X149096082Y-73565217D01*
X149107688Y-73635259D01*
X149079583Y-73700456D01*
X149050611Y-73725559D01*
X149050658Y-73725624D01*
X149049911Y-73726166D01*
X149048452Y-73727431D01*
X149046656Y-73728531D01*
X148873720Y-73854177D01*
X148722577Y-74005320D01*
X148596936Y-74178249D01*
X148499893Y-74368707D01*
X148474158Y-74447909D01*
X148434083Y-74506514D01*
X148368686Y-74534150D01*
X148298730Y-74522042D01*
X148246424Y-74474036D01*
X148242058Y-74466174D01*
X148241981Y-74466023D01*
X148241980Y-74466019D01*
X148163053Y-74311116D01*
X148060865Y-74170467D01*
X148060863Y-74170464D01*
X147937935Y-74047536D01*
X147797287Y-73945349D01*
X147797286Y-73945348D01*
X147797284Y-73945347D01*
X147642381Y-73866420D01*
X147642378Y-73866419D01*
X147642376Y-73866418D01*
X147477042Y-73812698D01*
X147477040Y-73812697D01*
X147477038Y-73812697D01*
X147305326Y-73785500D01*
X147131474Y-73785500D01*
X146959762Y-73812697D01*
X146959760Y-73812697D01*
X146959757Y-73812698D01*
X146794423Y-73866418D01*
X146794417Y-73866421D01*
X146639512Y-73945349D01*
X146498864Y-74047536D01*
X146375936Y-74170464D01*
X146273749Y-74311112D01*
X146194821Y-74466017D01*
X146194818Y-74466023D01*
X146141098Y-74631357D01*
X146141097Y-74631360D01*
X146141097Y-74631362D01*
X146113900Y-74803074D01*
X146113900Y-74976926D01*
X146139333Y-75137500D01*
X146141098Y-75148642D01*
X146194769Y-75313826D01*
X146194820Y-75313981D01*
X146273747Y-75468884D01*
X146273749Y-75468887D01*
X146375936Y-75609535D01*
X146498864Y-75732463D01*
X146498867Y-75732465D01*
X146639516Y-75834653D01*
X146794419Y-75913580D01*
X146959762Y-75967303D01*
X147131474Y-75994500D01*
X147131477Y-75994500D01*
X147305323Y-75994500D01*
X147305326Y-75994500D01*
X147477038Y-75967303D01*
X147642381Y-75913580D01*
X147797284Y-75834653D01*
X147937933Y-75732465D01*
X148060865Y-75609533D01*
X148163053Y-75468884D01*
X148241980Y-75313981D01*
X148241981Y-75313975D01*
X148242058Y-75313826D01*
X148290806Y-75262210D01*
X148359721Y-75245144D01*
X148426922Y-75268044D01*
X148471075Y-75323642D01*
X148474158Y-75332091D01*
X148499892Y-75411289D01*
X148499893Y-75411292D01*
X148596936Y-75601750D01*
X148722577Y-75774679D01*
X148873720Y-75925822D01*
X149046656Y-76051468D01*
X149048452Y-76052569D01*
X149048991Y-76053164D01*
X149050658Y-76054376D01*
X149050403Y-76054726D01*
X149096082Y-76105217D01*
X149107688Y-76175259D01*
X149079583Y-76240456D01*
X149050611Y-76265559D01*
X149050658Y-76265624D01*
X149049911Y-76266166D01*
X149048452Y-76267431D01*
X149046656Y-76268531D01*
X148873720Y-76394177D01*
X148722577Y-76545320D01*
X148596936Y-76718249D01*
X148499893Y-76908707D01*
X148474158Y-76987909D01*
X148434083Y-77046514D01*
X148368686Y-77074150D01*
X148298730Y-77062042D01*
X148246424Y-77014036D01*
X148242058Y-77006174D01*
X148241981Y-77006023D01*
X148241980Y-77006019D01*
X148163053Y-76851116D01*
X148083855Y-76742110D01*
X148060863Y-76710464D01*
X147937935Y-76587536D01*
X147797287Y-76485349D01*
X147797286Y-76485348D01*
X147797284Y-76485347D01*
X147642381Y-76406420D01*
X147642378Y-76406419D01*
X147642376Y-76406418D01*
X147477042Y-76352698D01*
X147477040Y-76352697D01*
X147477038Y-76352697D01*
X147305326Y-76325500D01*
X147131474Y-76325500D01*
X146959762Y-76352697D01*
X146959760Y-76352697D01*
X146959757Y-76352698D01*
X146794423Y-76406418D01*
X146794417Y-76406421D01*
X146639512Y-76485349D01*
X146498864Y-76587536D01*
X146375936Y-76710464D01*
X146273749Y-76851112D01*
X146194821Y-77006017D01*
X146194818Y-77006023D01*
X146141098Y-77171357D01*
X146141097Y-77171360D01*
X146141097Y-77171362D01*
X146113900Y-77343074D01*
X146113900Y-77516926D01*
X146141097Y-77688638D01*
X146141098Y-77688642D01*
X146186386Y-77828025D01*
X146188413Y-77898993D01*
X146155648Y-77956056D01*
X143947195Y-80164510D01*
X143884883Y-80198535D01*
X143814068Y-80193471D01*
X143757232Y-80150924D01*
X143732421Y-80084404D01*
X143732100Y-80075415D01*
X143732100Y-79942601D01*
X143732099Y-79942597D01*
X143725162Y-79907721D01*
X143712347Y-79843294D01*
X143712345Y-79843292D01*
X143712118Y-79842147D01*
X143712118Y-79792982D01*
X143712332Y-79791903D01*
X143712334Y-79791901D01*
X143727100Y-79717667D01*
X143727099Y-78667534D01*
X143712334Y-78593299D01*
X143712333Y-78593297D01*
X143712118Y-78592216D01*
X143712118Y-78543053D01*
X143712345Y-78541907D01*
X143712347Y-78541906D01*
X143732100Y-78442600D01*
X143732100Y-77826774D01*
X143723257Y-77759609D01*
X143689182Y-77632442D01*
X143671687Y-77590204D01*
X143664098Y-77519614D01*
X143695877Y-77456127D01*
X143698973Y-77452919D01*
X144774042Y-76377850D01*
X144774052Y-76377843D01*
X144855070Y-76296825D01*
X144855076Y-76296819D01*
X144905038Y-76210282D01*
X144917523Y-76163687D01*
X144928416Y-76123034D01*
X144961025Y-76066556D01*
X144995111Y-76032471D01*
X145047713Y-75941362D01*
X145068110Y-75906033D01*
X145068111Y-75906031D01*
X145068112Y-75906029D01*
X145105900Y-75765001D01*
X145105900Y-75618999D01*
X145068112Y-75477971D01*
X145068110Y-75477968D01*
X145068110Y-75477966D01*
X144995113Y-75351532D01*
X144995105Y-75351522D01*
X144891877Y-75248294D01*
X144891867Y-75248286D01*
X144765433Y-75175289D01*
X144748772Y-75170824D01*
X144624401Y-75137500D01*
X144478399Y-75137500D01*
X144392086Y-75160627D01*
X144337366Y-75175289D01*
X144210932Y-75248286D01*
X144210922Y-75248294D01*
X144107694Y-75351522D01*
X144107686Y-75351532D01*
X144034689Y-75477966D01*
X144019827Y-75533433D01*
X143996900Y-75618999D01*
X143996900Y-75765001D01*
X144008765Y-75809282D01*
X144034687Y-75906026D01*
X144034689Y-75906031D01*
X144036783Y-75909657D01*
X144037618Y-75913101D01*
X144037849Y-75913658D01*
X144037762Y-75913693D01*
X144053518Y-75978653D01*
X144030295Y-76045744D01*
X144016756Y-76061748D01*
X142982309Y-77096196D01*
X142919999Y-77130220D01*
X142893216Y-77133100D01*
X142406771Y-77133100D01*
X142339610Y-77141942D01*
X142339609Y-77141942D01*
X142212442Y-77176017D01*
X142149859Y-77201940D01*
X142149848Y-77201945D01*
X142035847Y-77267764D01*
X141982101Y-77309005D01*
X141982086Y-77309018D01*
X141889018Y-77402086D01*
X141889005Y-77402101D01*
X141847764Y-77455847D01*
X141781945Y-77569848D01*
X141781940Y-77569859D01*
X141756017Y-77632442D01*
X141721942Y-77759609D01*
X141721942Y-77759610D01*
X141713100Y-77826771D01*
X141713100Y-78442605D01*
X141733081Y-78543054D01*
X141733189Y-78546176D01*
X141733915Y-78547699D01*
X141733679Y-78560246D01*
X141734492Y-78583558D01*
X141733341Y-78592586D01*
X141732866Y-78593299D01*
X141718100Y-78667533D01*
X141718100Y-78712228D01*
X141717090Y-78720157D01*
X141705938Y-78745652D01*
X141698098Y-78772355D01*
X141691916Y-78777711D01*
X141688639Y-78785204D01*
X141665475Y-78800622D01*
X141644442Y-78818848D01*
X141630642Y-78823808D01*
X141629539Y-78824543D01*
X141628555Y-78824558D01*
X141624713Y-78825940D01*
X141596516Y-78833495D01*
X141596515Y-78833496D01*
X141576118Y-78838962D01*
X141576117Y-78838962D01*
X141576115Y-78838963D01*
X141576114Y-78838963D01*
X141489584Y-78888921D01*
X141489579Y-78888925D01*
X141454252Y-78924253D01*
X141418924Y-78959581D01*
X141219583Y-79158921D01*
X141219583Y-79158922D01*
X141219581Y-79158924D01*
X141176436Y-79202069D01*
X141155579Y-79222926D01*
X141093266Y-79256951D01*
X141022451Y-79251885D01*
X140965615Y-79209338D01*
X140944777Y-79166440D01*
X140943312Y-79160971D01*
X140942128Y-79158921D01*
X140870313Y-79034532D01*
X140870305Y-79034522D01*
X140767077Y-78931294D01*
X140767067Y-78931286D01*
X140640633Y-78858289D01*
X140568506Y-78838963D01*
X140499601Y-78820500D01*
X140353599Y-78820500D01*
X140284694Y-78838963D01*
X140212566Y-78858289D01*
X140086132Y-78931286D01*
X140086122Y-78931294D01*
X140058822Y-78958595D01*
X139996510Y-78992621D01*
X139969727Y-78995500D01*
X139143272Y-78995500D01*
X139110664Y-78991207D01*
X138977401Y-78955500D01*
X138831399Y-78955500D01*
X138745086Y-78978627D01*
X138690366Y-78993289D01*
X138563932Y-79066286D01*
X138563922Y-79066294D01*
X138460694Y-79169522D01*
X138460686Y-79169532D01*
X138387689Y-79295966D01*
X138380401Y-79323165D01*
X138349900Y-79436999D01*
X138349900Y-79583001D01*
X138368522Y-79652500D01*
X138387689Y-79724033D01*
X138460686Y-79850467D01*
X138460694Y-79850477D01*
X138563922Y-79953705D01*
X138563927Y-79953709D01*
X138563929Y-79953711D01*
X138563930Y-79953712D01*
X138563932Y-79953713D01*
X138690366Y-80026710D01*
X138690368Y-80026710D01*
X138690371Y-80026712D01*
X138831399Y-80064500D01*
X138831401Y-80064500D01*
X138977399Y-80064500D01*
X138977401Y-80064500D01*
X139118429Y-80026712D01*
X139118432Y-80026710D01*
X139118433Y-80026710D01*
X139216657Y-79970000D01*
X139244871Y-79953711D01*
X139348111Y-79850471D01*
X139367147Y-79817500D01*
X139418529Y-79768507D01*
X139476266Y-79754500D01*
X139969727Y-79754500D01*
X140037848Y-79774502D01*
X140058822Y-79791405D01*
X140086122Y-79818705D01*
X140086127Y-79818709D01*
X140086129Y-79818711D01*
X140086130Y-79818712D01*
X140086132Y-79818713D01*
X140212566Y-79891710D01*
X140212568Y-79891710D01*
X140212571Y-79891712D01*
X140353599Y-79929500D01*
X140353601Y-79929500D01*
X140499599Y-79929500D01*
X140499601Y-79929500D01*
X140640629Y-79891712D01*
X140640632Y-79891710D01*
X140640633Y-79891710D01*
X140730890Y-79839600D01*
X140767071Y-79818711D01*
X140811280Y-79774502D01*
X140858005Y-79727778D01*
X140920317Y-79693752D01*
X140991132Y-79698817D01*
X141047968Y-79741364D01*
X141072779Y-79807884D01*
X141073100Y-79816873D01*
X141073100Y-81458634D01*
X141073099Y-81458638D01*
X141073099Y-81558562D01*
X141088201Y-81614921D01*
X141090872Y-81624890D01*
X141090873Y-81624897D01*
X141098962Y-81655083D01*
X141148921Y-81741615D01*
X141148929Y-81741625D01*
X141226756Y-81819452D01*
X141226770Y-81819464D01*
X141656922Y-82249616D01*
X141656924Y-82249619D01*
X141727581Y-82320276D01*
X141790084Y-82356362D01*
X141808107Y-82366767D01*
X141814114Y-82370236D01*
X141814118Y-82370238D01*
X141895406Y-82392018D01*
X141956028Y-82428970D01*
X141960191Y-82433788D01*
X141960223Y-82433827D01*
X142051374Y-82524978D01*
X142051380Y-82524983D01*
X142158578Y-82596611D01*
X142277689Y-82645948D01*
X142404137Y-82671100D01*
X142404138Y-82671100D01*
X142533062Y-82671100D01*
X142533063Y-82671100D01*
X142659511Y-82645948D01*
X142778622Y-82596611D01*
X142778625Y-82596608D01*
X142781382Y-82595467D01*
X142851971Y-82587878D01*
X142915458Y-82619657D01*
X142951686Y-82680715D01*
X142955600Y-82711876D01*
X142955600Y-89779915D01*
X142935598Y-89848036D01*
X142918695Y-89869010D01*
X140364432Y-92423272D01*
X140364420Y-92423284D01*
X140362583Y-92425122D01*
X140362581Y-92425124D01*
X140291924Y-92495781D01*
X140282246Y-92512542D01*
X140272798Y-92522806D01*
X140253839Y-92534198D01*
X140237833Y-92549460D01*
X140224009Y-92552123D01*
X140211943Y-92559375D01*
X140189835Y-92558709D01*
X140168119Y-92562894D01*
X140155050Y-92557661D01*
X140140979Y-92557238D01*
X140122740Y-92544725D01*
X140102209Y-92536505D01*
X140094044Y-92525038D01*
X140082435Y-92517074D01*
X140073856Y-92496686D01*
X140061029Y-92478672D01*
X140057536Y-92457903D01*
X140054899Y-92451635D01*
X140055705Y-92447015D01*
X140054100Y-92437465D01*
X140054100Y-84942587D01*
X140054101Y-84942574D01*
X140054101Y-84832500D01*
X140054100Y-84832498D01*
X140043077Y-84791362D01*
X140028238Y-84735981D01*
X140028238Y-84735980D01*
X140013527Y-84710499D01*
X139978278Y-84649446D01*
X139978270Y-84649436D01*
X139903230Y-84574396D01*
X139903207Y-84574375D01*
X138272805Y-82943973D01*
X138238779Y-82881661D01*
X138235900Y-82854878D01*
X138235900Y-82052968D01*
X138242238Y-82031380D01*
X138243844Y-82008936D01*
X138252045Y-81997979D01*
X138255902Y-81984847D01*
X138272907Y-81970111D01*
X138286391Y-81952100D01*
X138299213Y-81947317D01*
X138309558Y-81938354D01*
X138331830Y-81935151D01*
X138352911Y-81927289D01*
X138366283Y-81930197D01*
X138379832Y-81928250D01*
X138400298Y-81937597D01*
X138422285Y-81942380D01*
X138440298Y-81955865D01*
X138444412Y-81957744D01*
X138450995Y-81963873D01*
X138621701Y-82134579D01*
X138655727Y-82196891D01*
X138656185Y-82248254D01*
X138649901Y-82279843D01*
X138649901Y-82408779D01*
X138673015Y-82524978D01*
X138675053Y-82535225D01*
X138724390Y-82654336D01*
X138742016Y-82680715D01*
X138796017Y-82761533D01*
X138796022Y-82761539D01*
X138887175Y-82852692D01*
X138887181Y-82852697D01*
X138994379Y-82924325D01*
X139113490Y-82973662D01*
X139239938Y-82998814D01*
X139239939Y-82998814D01*
X139368863Y-82998814D01*
X139368864Y-82998814D01*
X139495312Y-82973662D01*
X139614423Y-82924325D01*
X139721621Y-82852697D01*
X139812784Y-82761534D01*
X139884412Y-82654336D01*
X139933749Y-82535225D01*
X139958901Y-82408777D01*
X139958901Y-82279851D01*
X139933749Y-82153403D01*
X139884412Y-82034292D01*
X139812784Y-81927094D01*
X139758579Y-81872889D01*
X139751006Y-81864609D01*
X139744019Y-81856249D01*
X139708101Y-81794038D01*
X139614171Y-81700108D01*
X138816283Y-80902220D01*
X137993484Y-80079420D01*
X137959458Y-80017108D01*
X137959000Y-80014907D01*
X137955738Y-79998506D01*
X137939941Y-79919089D01*
X137890604Y-79799978D01*
X137818976Y-79692780D01*
X137818971Y-79692774D01*
X137727818Y-79601621D01*
X137727812Y-79601616D01*
X137660803Y-79556842D01*
X137620615Y-79529989D01*
X137501504Y-79480652D01*
X137375058Y-79455500D01*
X137375056Y-79455500D01*
X137246130Y-79455500D01*
X137246127Y-79455500D01*
X137119681Y-79480652D01*
X137119672Y-79480655D01*
X137058139Y-79506143D01*
X136987550Y-79513732D01*
X136924063Y-79481952D01*
X136887836Y-79420894D01*
X136883922Y-79389734D01*
X136883922Y-76905900D01*
X136903924Y-76837779D01*
X136957580Y-76791286D01*
X137009922Y-76779900D01*
X137029799Y-76779900D01*
X137029801Y-76779900D01*
X137170829Y-76742112D01*
X137170832Y-76742110D01*
X137170833Y-76742110D01*
X137293947Y-76671030D01*
X137297271Y-76669111D01*
X137400511Y-76565871D01*
X137447001Y-76485347D01*
X137473510Y-76439433D01*
X137473510Y-76439432D01*
X137473512Y-76439429D01*
X137511300Y-76298401D01*
X137511300Y-76152399D01*
X137473512Y-76011371D01*
X137473510Y-76011368D01*
X137473510Y-76011366D01*
X137432480Y-75940300D01*
X137415742Y-75871305D01*
X137438962Y-75804213D01*
X137464901Y-75777333D01*
X137471155Y-75772533D01*
X137471163Y-75772529D01*
X137574403Y-75669289D01*
X137610903Y-75606068D01*
X137647402Y-75542851D01*
X137647402Y-75542850D01*
X137647404Y-75542847D01*
X137685192Y-75401819D01*
X137685192Y-75255817D01*
X137681470Y-75241926D01*
X137683160Y-75170952D01*
X137722954Y-75112156D01*
X137788218Y-75084208D01*
X137803177Y-75083317D01*
X141979687Y-75083317D01*
X142042686Y-75100197D01*
X142051371Y-75105212D01*
X142192399Y-75143000D01*
X142192401Y-75143000D01*
X142338399Y-75143000D01*
X142338401Y-75143000D01*
X142479429Y-75105212D01*
X142479432Y-75105210D01*
X142479433Y-75105210D01*
X142542650Y-75068711D01*
X142605871Y-75032211D01*
X142709111Y-74928971D01*
X142745611Y-74865750D01*
X142782110Y-74802533D01*
X142782110Y-74802532D01*
X142782112Y-74802529D01*
X142819900Y-74661501D01*
X142819900Y-74515499D01*
X142782112Y-74374471D01*
X142782110Y-74374468D01*
X142782110Y-74374466D01*
X142709113Y-74248032D01*
X142709105Y-74248022D01*
X142605877Y-74144794D01*
X142605867Y-74144786D01*
X142479433Y-74071789D01*
X142458895Y-74066286D01*
X142338401Y-74034000D01*
X142338399Y-74034000D01*
X142299784Y-74034000D01*
X142231663Y-74013998D01*
X142210689Y-73997095D01*
X142001189Y-73787595D01*
X141967163Y-73725283D01*
X141972228Y-73654468D01*
X142014775Y-73597632D01*
X142081295Y-73572821D01*
X142090284Y-73572500D01*
X144591434Y-73572500D01*
X144591438Y-73572501D01*
X144691362Y-73572501D01*
X144767484Y-73552103D01*
X144787882Y-73546638D01*
X144874419Y-73496676D01*
X144945076Y-73426019D01*
X144955443Y-73415652D01*
X144955450Y-73415642D01*
X145546416Y-72824677D01*
X145546419Y-72824676D01*
X145617076Y-72754019D01*
X145648344Y-72699861D01*
X145667039Y-72667481D01*
X145692901Y-72570962D01*
X145692901Y-72471038D01*
X145692901Y-72463321D01*
X145692900Y-72463303D01*
X145692900Y-71827384D01*
X145712902Y-71759263D01*
X145729805Y-71738289D01*
X145941689Y-71526405D01*
X146004001Y-71492379D01*
X146030784Y-71489500D01*
X146231065Y-71489500D01*
X146243341Y-71493104D01*
G37*
G04 #@! TD.AperFunction*
G04 #@! TA.AperFunction,Conductor*
G36*
X133302032Y-79778725D02*
G01*
X133332316Y-79779447D01*
X133336942Y-79782578D01*
X133342496Y-79783191D01*
X133366028Y-79802264D01*
X133391112Y-79819241D01*
X133393311Y-79824376D01*
X133397652Y-79827895D01*
X133407136Y-79856661D01*
X133419060Y-79884505D01*
X133419664Y-79894659D01*
X133419883Y-79895321D01*
X133419737Y-79895883D01*
X133419951Y-79899464D01*
X133419951Y-84191397D01*
X133399949Y-84259518D01*
X133346293Y-84306011D01*
X133276019Y-84316115D01*
X133230954Y-84300518D01*
X133218433Y-84293289D01*
X133201772Y-84288824D01*
X133077401Y-84255500D01*
X132931399Y-84255500D01*
X132875933Y-84270362D01*
X132790366Y-84293289D01*
X132663932Y-84366286D01*
X132663922Y-84366294D01*
X132560694Y-84469522D01*
X132560686Y-84469532D01*
X132487689Y-84595966D01*
X132471771Y-84655375D01*
X132449900Y-84736999D01*
X132449900Y-84883001D01*
X132465866Y-84942587D01*
X132487689Y-85024033D01*
X132560686Y-85150467D01*
X132560688Y-85150470D01*
X132560689Y-85150471D01*
X132587995Y-85177777D01*
X132622020Y-85240087D01*
X132624900Y-85266872D01*
X132624900Y-86691386D01*
X132604898Y-86759507D01*
X132587995Y-86780481D01*
X130715150Y-88653326D01*
X130652838Y-88687352D01*
X130626055Y-88690231D01*
X130129545Y-88690231D01*
X130129529Y-88690230D01*
X130121811Y-88690230D01*
X130021887Y-88690230D01*
X129989715Y-88698850D01*
X129945765Y-88710626D01*
X129945764Y-88710627D01*
X129925367Y-88716093D01*
X129925366Y-88716093D01*
X129925364Y-88716094D01*
X129925363Y-88716094D01*
X129838833Y-88766052D01*
X129838828Y-88766056D01*
X129806362Y-88798523D01*
X129768173Y-88836712D01*
X129768171Y-88836714D01*
X129510708Y-89094177D01*
X129253653Y-89351232D01*
X129191341Y-89385257D01*
X129120525Y-89380192D01*
X129063690Y-89337645D01*
X129038879Y-89271125D01*
X129044724Y-89223203D01*
X129065703Y-89158638D01*
X129092900Y-88986926D01*
X129092900Y-88813074D01*
X129065703Y-88641362D01*
X129011980Y-88476019D01*
X128933053Y-88321116D01*
X128852003Y-88209561D01*
X128830863Y-88180464D01*
X128822198Y-88171799D01*
X128788172Y-88109487D01*
X128793237Y-88038672D01*
X128832593Y-87984305D01*
X128840031Y-87978355D01*
X128917419Y-87933676D01*
X128988076Y-87863019D01*
X128988077Y-87863016D01*
X129449690Y-87401404D01*
X129512002Y-87367379D01*
X129538785Y-87364500D01*
X129577399Y-87364500D01*
X129577401Y-87364500D01*
X129718429Y-87326712D01*
X129718432Y-87326710D01*
X129718433Y-87326710D01*
X129781650Y-87290211D01*
X129844871Y-87253711D01*
X129948111Y-87150471D01*
X129980949Y-87093594D01*
X130025242Y-87016877D01*
X130028137Y-87018548D01*
X130062859Y-86975415D01*
X130130210Y-86952959D01*
X130199011Y-86970480D01*
X130247417Y-87022416D01*
X130256481Y-87046262D01*
X130270835Y-87099832D01*
X130293289Y-87183633D01*
X130366286Y-87310067D01*
X130366294Y-87310077D01*
X130469522Y-87413305D01*
X130469527Y-87413309D01*
X130469529Y-87413311D01*
X130469530Y-87413312D01*
X130469532Y-87413313D01*
X130595966Y-87486310D01*
X130595968Y-87486310D01*
X130595971Y-87486312D01*
X130736999Y-87524100D01*
X130737001Y-87524100D01*
X130882999Y-87524100D01*
X130883001Y-87524100D01*
X131024029Y-87486312D01*
X131024032Y-87486310D01*
X131024033Y-87486310D01*
X131134120Y-87422751D01*
X131150471Y-87413311D01*
X131253711Y-87310071D01*
X131326712Y-87183629D01*
X131364500Y-87042601D01*
X131364500Y-86896599D01*
X131326712Y-86755571D01*
X131326710Y-86755568D01*
X131326710Y-86755566D01*
X131253713Y-86629132D01*
X131253705Y-86629122D01*
X131226405Y-86601822D01*
X131192379Y-86539510D01*
X131189500Y-86512727D01*
X131189500Y-84169638D01*
X131189500Y-84151565D01*
X131189501Y-84151562D01*
X131189501Y-84051638D01*
X131163638Y-83955119D01*
X131163638Y-83955118D01*
X131113676Y-83868581D01*
X131043019Y-83797924D01*
X131043018Y-83797923D01*
X129051151Y-81806056D01*
X129017125Y-81743744D01*
X129020412Y-81678027D01*
X129065703Y-81538638D01*
X129092900Y-81366926D01*
X129092900Y-81193074D01*
X129065703Y-81021362D01*
X129011980Y-80856019D01*
X128933053Y-80701116D01*
X128852002Y-80589560D01*
X128828145Y-80522694D01*
X128844225Y-80453542D01*
X128895138Y-80404062D01*
X128953939Y-80389500D01*
X131113615Y-80389500D01*
X131181736Y-80409502D01*
X131228229Y-80463158D01*
X131238333Y-80533432D01*
X131208839Y-80598012D01*
X131202710Y-80604596D01*
X130728911Y-81078393D01*
X130666599Y-81112418D01*
X130623376Y-81114220D01*
X130619227Y-81113674D01*
X130619225Y-81113674D01*
X130473223Y-81113674D01*
X130386910Y-81136801D01*
X130332190Y-81151463D01*
X130205756Y-81224460D01*
X130205746Y-81224468D01*
X130102518Y-81327696D01*
X130102510Y-81327706D01*
X130029513Y-81454140D01*
X130008386Y-81532987D01*
X129991724Y-81595173D01*
X129991724Y-81741175D01*
X130010776Y-81812277D01*
X130029513Y-81882207D01*
X130102510Y-82008641D01*
X130102518Y-82008651D01*
X130205746Y-82111879D01*
X130205751Y-82111883D01*
X130205753Y-82111885D01*
X130205754Y-82111886D01*
X130205756Y-82111887D01*
X130332190Y-82184884D01*
X130332192Y-82184884D01*
X130332195Y-82184886D01*
X130473223Y-82222674D01*
X130473225Y-82222674D01*
X130619223Y-82222674D01*
X130619225Y-82222674D01*
X130760253Y-82184886D01*
X130760256Y-82184884D01*
X130760257Y-82184884D01*
X130836145Y-82141070D01*
X130886695Y-82111885D01*
X130989935Y-82008645D01*
X131062936Y-81882203D01*
X131077786Y-81826777D01*
X131110395Y-81770297D01*
X133041291Y-79839402D01*
X133103601Y-79805379D01*
X133108361Y-79804440D01*
X133119290Y-79802500D01*
X133169001Y-79802500D01*
X133266587Y-79776352D01*
X133271928Y-79775404D01*
X133302032Y-79778725D01*
G37*
G04 #@! TD.AperFunction*
G04 #@! TA.AperFunction,Conductor*
G36*
X127090982Y-80409502D02*
G01*
X127137475Y-80463158D01*
X127147579Y-80533432D01*
X127124797Y-80589561D01*
X127043749Y-80701112D01*
X126964821Y-80856017D01*
X126964818Y-80856023D01*
X126911098Y-81021357D01*
X126911097Y-81021360D01*
X126911097Y-81021362D01*
X126883900Y-81193074D01*
X126883900Y-81366926D01*
X126906279Y-81508217D01*
X126911098Y-81538642D01*
X126963561Y-81700108D01*
X126964820Y-81703981D01*
X127043747Y-81858884D01*
X127043749Y-81858887D01*
X127145936Y-81999535D01*
X127268864Y-82122463D01*
X127351030Y-82182160D01*
X127409516Y-82224653D01*
X127564419Y-82303580D01*
X127729762Y-82357303D01*
X127901474Y-82384500D01*
X127901477Y-82384500D01*
X128075323Y-82384500D01*
X128075326Y-82384500D01*
X128247038Y-82357303D01*
X128386427Y-82312012D01*
X128457392Y-82309985D01*
X128514456Y-82342751D01*
X130393595Y-84221889D01*
X130427620Y-84284201D01*
X130430500Y-84310984D01*
X130430500Y-85439019D01*
X130410498Y-85507140D01*
X130356842Y-85553633D01*
X130291355Y-85564331D01*
X130281472Y-85563294D01*
X130252391Y-85555502D01*
X130207188Y-85555502D01*
X130200629Y-85554814D01*
X130173648Y-85543720D01*
X130145653Y-85535500D01*
X130137315Y-85528780D01*
X130134967Y-85527815D01*
X130133487Y-85525695D01*
X130124679Y-85518597D01*
X129470252Y-84864170D01*
X129470240Y-84864156D01*
X129392413Y-84786329D01*
X129392403Y-84786321D01*
X129305868Y-84736361D01*
X129294509Y-84733317D01*
X129294504Y-84733316D01*
X129285472Y-84730896D01*
X129209350Y-84710499D01*
X129109426Y-84710499D01*
X129109422Y-84710500D01*
X128953939Y-84710500D01*
X128885818Y-84690498D01*
X128839325Y-84636842D01*
X128829221Y-84566568D01*
X128852003Y-84510439D01*
X128881731Y-84469522D01*
X128933053Y-84398884D01*
X129011980Y-84243981D01*
X129065703Y-84078638D01*
X129092900Y-83906926D01*
X129092900Y-83733074D01*
X129065703Y-83561362D01*
X129011980Y-83396019D01*
X128933053Y-83241116D01*
X128867849Y-83151371D01*
X128830863Y-83100464D01*
X128707935Y-82977536D01*
X128567287Y-82875349D01*
X128567286Y-82875348D01*
X128567284Y-82875347D01*
X128412381Y-82796420D01*
X128412378Y-82796419D01*
X128412376Y-82796418D01*
X128247042Y-82742698D01*
X128247040Y-82742697D01*
X128247038Y-82742697D01*
X128075326Y-82715500D01*
X127901474Y-82715500D01*
X127729762Y-82742697D01*
X127729760Y-82742697D01*
X127729757Y-82742698D01*
X127564423Y-82796418D01*
X127564417Y-82796421D01*
X127409512Y-82875349D01*
X127268864Y-82977536D01*
X127145936Y-83100464D01*
X127043749Y-83241112D01*
X126964821Y-83396017D01*
X126964818Y-83396023D01*
X126911098Y-83561357D01*
X126911097Y-83561360D01*
X126911097Y-83561362D01*
X126883900Y-83733074D01*
X126883900Y-83906926D01*
X126906821Y-84051638D01*
X126911098Y-84078642D01*
X126956409Y-84218097D01*
X126964820Y-84243981D01*
X127043747Y-84398884D01*
X127043749Y-84398887D01*
X127124797Y-84510439D01*
X127129096Y-84522488D01*
X127137475Y-84532158D01*
X127140801Y-84555295D01*
X127148655Y-84577306D01*
X127145757Y-84589765D01*
X127147579Y-84602432D01*
X127137868Y-84623694D01*
X127132575Y-84646458D01*
X127123399Y-84655375D01*
X127118085Y-84667012D01*
X127098424Y-84679646D01*
X127081662Y-84695938D01*
X127067692Y-84699397D01*
X127058359Y-84705396D01*
X127022861Y-84710500D01*
X126927784Y-84710500D01*
X126859663Y-84690498D01*
X126838689Y-84673595D01*
X126511151Y-84346057D01*
X126477125Y-84283745D01*
X126480413Y-84218026D01*
X126525703Y-84078638D01*
X126552900Y-83906926D01*
X126552900Y-83733074D01*
X126525703Y-83561362D01*
X126471980Y-83396019D01*
X126393053Y-83241116D01*
X126327849Y-83151371D01*
X126290863Y-83100464D01*
X126167935Y-82977536D01*
X126027287Y-82875349D01*
X126027286Y-82875348D01*
X126027284Y-82875347D01*
X125872381Y-82796420D01*
X125872378Y-82796419D01*
X125872376Y-82796418D01*
X125707042Y-82742698D01*
X125707040Y-82742697D01*
X125707038Y-82742697D01*
X125535326Y-82715500D01*
X125361474Y-82715500D01*
X125189762Y-82742697D01*
X125189760Y-82742697D01*
X125189757Y-82742698D01*
X125024423Y-82796418D01*
X125024417Y-82796421D01*
X124869512Y-82875349D01*
X124728864Y-82977536D01*
X124728861Y-82977539D01*
X124619995Y-83086406D01*
X124557683Y-83120432D01*
X124486868Y-83115367D01*
X124430032Y-83072820D01*
X124405221Y-83006300D01*
X124404900Y-82997311D01*
X124404900Y-82102689D01*
X124424902Y-82034568D01*
X124478558Y-81988075D01*
X124548832Y-81977971D01*
X124613412Y-82007465D01*
X124619995Y-82013594D01*
X124728864Y-82122463D01*
X124811030Y-82182160D01*
X124869516Y-82224653D01*
X125024419Y-82303580D01*
X125189762Y-82357303D01*
X125361474Y-82384500D01*
X125361477Y-82384500D01*
X125535323Y-82384500D01*
X125535326Y-82384500D01*
X125707038Y-82357303D01*
X125872381Y-82303580D01*
X126027284Y-82224653D01*
X126167933Y-82122465D01*
X126290865Y-81999533D01*
X126393053Y-81858884D01*
X126471980Y-81703981D01*
X126525703Y-81538638D01*
X126552900Y-81366926D01*
X126552900Y-81193074D01*
X126525703Y-81021362D01*
X126480412Y-80881973D01*
X126478385Y-80811007D01*
X126511151Y-80753942D01*
X126667082Y-80598012D01*
X126838690Y-80426404D01*
X126866064Y-80411456D01*
X126892287Y-80394604D01*
X126898585Y-80393698D01*
X126901002Y-80392379D01*
X126927785Y-80389500D01*
X127022861Y-80389500D01*
X127090982Y-80409502D01*
G37*
G04 #@! TD.AperFunction*
G04 #@! TA.AperFunction,Conductor*
G36*
X131348242Y-79128283D02*
G01*
X131378712Y-79134912D01*
X131383807Y-79138726D01*
X131386448Y-79139502D01*
X131407422Y-79156405D01*
X131434722Y-79183705D01*
X131434727Y-79183709D01*
X131434729Y-79183711D01*
X131434730Y-79183712D01*
X131434732Y-79183713D01*
X131466526Y-79202069D01*
X131515519Y-79253451D01*
X131528956Y-79323165D01*
X131502569Y-79389076D01*
X131492622Y-79400283D01*
X131299311Y-79593595D01*
X131236999Y-79627620D01*
X131210215Y-79630500D01*
X128953939Y-79630500D01*
X128885818Y-79610498D01*
X128839325Y-79556842D01*
X128829221Y-79486568D01*
X128852003Y-79430439D01*
X128922724Y-79333100D01*
X128933053Y-79318884D01*
X128999590Y-79188296D01*
X129048338Y-79136682D01*
X129111857Y-79119500D01*
X131318327Y-79119500D01*
X131348242Y-79128283D01*
G37*
G04 #@! TD.AperFunction*
G04 #@! TA.AperFunction,Conductor*
G36*
X150012400Y-79539297D02*
G01*
X149951393Y-79504075D01*
X149824226Y-79470000D01*
X149692574Y-79470000D01*
X149565407Y-79504075D01*
X149504400Y-79539297D01*
X149504400Y-77860702D01*
X149565407Y-77895925D01*
X149692574Y-77930000D01*
X149824226Y-77930000D01*
X149951393Y-77895925D01*
X150012400Y-77860702D01*
X150012400Y-79539297D01*
G37*
G04 #@! TD.AperFunction*
G04 #@! TA.AperFunction,Conductor*
G36*
X132441737Y-77852396D02*
G01*
X132451563Y-77851201D01*
X132485746Y-77862050D01*
X132489918Y-77864065D01*
X132526371Y-77885112D01*
X132542313Y-77889383D01*
X132553024Y-77894559D01*
X132605658Y-77942207D01*
X132624175Y-78010746D01*
X132607325Y-78071008D01*
X132579289Y-78119567D01*
X132579288Y-78119571D01*
X132547020Y-78240000D01*
X132541500Y-78260600D01*
X132541500Y-78299214D01*
X132532716Y-78329129D01*
X132526088Y-78359599D01*
X132522273Y-78364694D01*
X132521498Y-78367335D01*
X132504595Y-78388309D01*
X132435483Y-78457421D01*
X132373171Y-78491447D01*
X132302356Y-78486382D01*
X132245520Y-78443835D01*
X132237269Y-78431326D01*
X132218913Y-78399532D01*
X132218905Y-78399522D01*
X132115677Y-78296294D01*
X132115667Y-78296286D01*
X131989233Y-78223289D01*
X131972132Y-78218707D01*
X131848201Y-78185500D01*
X131702199Y-78185500D01*
X131615886Y-78208627D01*
X131561166Y-78223289D01*
X131434732Y-78296286D01*
X131434722Y-78296294D01*
X131407422Y-78323595D01*
X131345110Y-78357621D01*
X131318327Y-78360500D01*
X129111857Y-78360500D01*
X129043736Y-78340498D01*
X128999590Y-78291703D01*
X128989787Y-78272463D01*
X128933053Y-78161116D01*
X128852002Y-78049560D01*
X128828145Y-77982694D01*
X128844225Y-77913542D01*
X128895138Y-77864062D01*
X128953939Y-77849500D01*
X132430927Y-77849500D01*
X132441737Y-77852396D01*
G37*
G04 #@! TD.AperFunction*
G04 #@! TA.AperFunction,Conductor*
G36*
X131507626Y-75392092D02*
G01*
X131516733Y-75390783D01*
X131541158Y-75401938D01*
X131566922Y-75409503D01*
X131572946Y-75416456D01*
X131581313Y-75420277D01*
X131595827Y-75442862D01*
X131613415Y-75463159D01*
X131615739Y-75473845D01*
X131619697Y-75480003D01*
X131624801Y-75515501D01*
X131624801Y-75541806D01*
X131637597Y-75589562D01*
X131662590Y-75682838D01*
X131735587Y-75809272D01*
X131735595Y-75809282D01*
X131838823Y-75912510D01*
X131838828Y-75912514D01*
X131838830Y-75912516D01*
X131838831Y-75912517D01*
X131838833Y-75912518D01*
X131965267Y-75985515D01*
X131965269Y-75985515D01*
X131965272Y-75985517D01*
X132106300Y-76023305D01*
X132106302Y-76023305D01*
X132252300Y-76023305D01*
X132252302Y-76023305D01*
X132393330Y-75985517D01*
X132502457Y-75922512D01*
X132571451Y-75905775D01*
X132638543Y-75928995D01*
X132654551Y-75942536D01*
X133383046Y-76671030D01*
X133417071Y-76733343D01*
X133419951Y-76760126D01*
X133419951Y-76966177D01*
X133399949Y-77034298D01*
X133346293Y-77080791D01*
X133276019Y-77090895D01*
X133211439Y-77061401D01*
X133189182Y-77034447D01*
X133189138Y-77034481D01*
X133188189Y-77033244D01*
X133184833Y-77029180D01*
X133184111Y-77027929D01*
X133184108Y-77027926D01*
X133184105Y-77027922D01*
X133080877Y-76924694D01*
X133080867Y-76924686D01*
X132954433Y-76851689D01*
X132892043Y-76834972D01*
X132813401Y-76813900D01*
X132667399Y-76813900D01*
X132588757Y-76834972D01*
X132526366Y-76851689D01*
X132399932Y-76924686D01*
X132399922Y-76924694D01*
X132296694Y-77027922D01*
X132291662Y-77034481D01*
X132290527Y-77033610D01*
X132245561Y-77076490D01*
X132187818Y-77090500D01*
X128953939Y-77090500D01*
X128885818Y-77070498D01*
X128839325Y-77016842D01*
X128829221Y-76946568D01*
X128852003Y-76890439D01*
X128933053Y-76778884D01*
X129011980Y-76623981D01*
X129065703Y-76458638D01*
X129092900Y-76286926D01*
X129092900Y-76113074D01*
X129065703Y-75941362D01*
X129011980Y-75776019D01*
X128933053Y-75621116D01*
X128924639Y-75609535D01*
X128910128Y-75589562D01*
X128886269Y-75522694D01*
X128902350Y-75453542D01*
X128953264Y-75404062D01*
X129012064Y-75389501D01*
X131498801Y-75389501D01*
X131507626Y-75392092D01*
G37*
G04 #@! TD.AperFunction*
G04 #@! TA.AperFunction,Conductor*
G36*
X150012400Y-76999297D02*
G01*
X149951393Y-76964075D01*
X149824226Y-76930000D01*
X149692574Y-76930000D01*
X149565407Y-76964075D01*
X149504400Y-76999297D01*
X149504400Y-75320702D01*
X149565407Y-75355925D01*
X149692574Y-75390000D01*
X149824226Y-75390000D01*
X149951393Y-75355925D01*
X150012400Y-75320702D01*
X150012400Y-76999297D01*
G37*
G04 #@! TD.AperFunction*
G04 #@! TA.AperFunction,Conductor*
G36*
X150012400Y-74459297D02*
G01*
X149951393Y-74424075D01*
X149824226Y-74390000D01*
X149692574Y-74390000D01*
X149565407Y-74424075D01*
X149504400Y-74459297D01*
X149504400Y-72780702D01*
X149565407Y-72815925D01*
X149692574Y-72850000D01*
X149824226Y-72850000D01*
X149951393Y-72815925D01*
X150012400Y-72780702D01*
X150012400Y-74459297D01*
G37*
G04 #@! TD.AperFunction*
G04 #@! TA.AperFunction,Conductor*
G36*
X134833937Y-60214502D02*
G01*
X134854911Y-60231405D01*
X136104798Y-61481292D01*
X137211412Y-62587905D01*
X137245437Y-62650217D01*
X137240373Y-62721032D01*
X137197826Y-62777868D01*
X137131306Y-62802679D01*
X137122317Y-62803000D01*
X135807284Y-62803000D01*
X135739163Y-62782998D01*
X135718189Y-62766095D01*
X134817080Y-61864986D01*
X134783054Y-61802674D01*
X134788119Y-61731859D01*
X134830666Y-61675023D01*
X134843165Y-61666778D01*
X134858871Y-61657711D01*
X134962111Y-61554471D01*
X135008107Y-61474804D01*
X135035110Y-61428033D01*
X135035110Y-61428032D01*
X135035112Y-61428029D01*
X135072900Y-61287001D01*
X135072900Y-61140999D01*
X135035112Y-60999971D01*
X135035110Y-60999968D01*
X135035110Y-60999966D01*
X134962113Y-60873532D01*
X134962105Y-60873522D01*
X134858877Y-60770294D01*
X134858867Y-60770286D01*
X134732433Y-60697289D01*
X134715772Y-60692824D01*
X134591401Y-60659500D01*
X134445399Y-60659500D01*
X134361382Y-60682012D01*
X134304366Y-60697289D01*
X134177932Y-60770286D01*
X134177922Y-60770294D01*
X134150622Y-60797595D01*
X134088310Y-60831621D01*
X134061527Y-60834500D01*
X133133012Y-60834500D01*
X133132996Y-60834499D01*
X133125278Y-60834499D01*
X133025354Y-60834499D01*
X132993182Y-60843119D01*
X132949232Y-60854895D01*
X132949231Y-60854896D01*
X132928834Y-60860362D01*
X132928833Y-60860362D01*
X132928831Y-60860363D01*
X132928830Y-60860363D01*
X132842300Y-60910321D01*
X132842295Y-60910325D01*
X132819985Y-60932636D01*
X132771640Y-60980981D01*
X132771638Y-60980983D01*
X132121374Y-61631247D01*
X132121372Y-61631249D01*
X132094916Y-61657705D01*
X132050716Y-61701904D01*
X132050712Y-61701909D01*
X132001067Y-61787897D01*
X132001066Y-61787899D01*
X132000753Y-61788443D01*
X132000753Y-61788444D01*
X131974890Y-61884963D01*
X131974890Y-61984887D01*
X131974891Y-61984890D01*
X131974891Y-62002701D01*
X131974891Y-68102294D01*
X131974890Y-68102312D01*
X131974890Y-68209954D01*
X131986991Y-68255113D01*
X131986991Y-68255115D01*
X132000753Y-68306474D01*
X132050712Y-68393006D01*
X132050720Y-68393016D01*
X132128547Y-68470843D01*
X132128561Y-68470855D01*
X133873513Y-70215807D01*
X133888457Y-70243175D01*
X133905314Y-70269404D01*
X133906219Y-70275702D01*
X133907539Y-70278119D01*
X133910418Y-70304902D01*
X133910418Y-70358619D01*
X133910417Y-70358637D01*
X133910417Y-70466279D01*
X133927366Y-70529529D01*
X133927367Y-70529534D01*
X133936278Y-70562795D01*
X133936281Y-70562801D01*
X133986239Y-70649331D01*
X133986247Y-70649341D01*
X134064074Y-70727168D01*
X134064088Y-70727180D01*
X134844262Y-71507354D01*
X134878288Y-71569666D01*
X134881167Y-71596449D01*
X134881167Y-72175740D01*
X134864286Y-72238740D01*
X134825434Y-72306032D01*
X134825433Y-72306037D01*
X134787645Y-72447065D01*
X134787645Y-72593067D01*
X134804778Y-72657007D01*
X134825434Y-72734099D01*
X134898431Y-72860533D01*
X134898439Y-72860543D01*
X135001667Y-72963771D01*
X135001672Y-72963775D01*
X135001674Y-72963777D01*
X135001675Y-72963778D01*
X135001677Y-72963779D01*
X135128111Y-73036776D01*
X135128113Y-73036776D01*
X135128116Y-73036778D01*
X135269144Y-73074566D01*
X135269146Y-73074566D01*
X135415144Y-73074566D01*
X135415146Y-73074566D01*
X135556174Y-73036778D01*
X135556177Y-73036776D01*
X135556178Y-73036776D01*
X135619395Y-73000277D01*
X135682616Y-72963777D01*
X135691026Y-72955367D01*
X135709923Y-72936471D01*
X135772235Y-72902445D01*
X135799018Y-72899566D01*
X137501171Y-72899566D01*
X137569292Y-72919568D01*
X137590266Y-72936471D01*
X138763017Y-74109222D01*
X138797043Y-74171534D01*
X138791978Y-74242349D01*
X138749431Y-74299185D01*
X138682911Y-74323996D01*
X138673922Y-74324317D01*
X135835181Y-74324317D01*
X135767060Y-74304315D01*
X135726062Y-74261317D01*
X135673070Y-74169532D01*
X135673062Y-74169522D01*
X135569834Y-74066294D01*
X135569824Y-74066286D01*
X135443390Y-73993289D01*
X135393111Y-73979817D01*
X135302358Y-73955500D01*
X135156356Y-73955500D01*
X135073444Y-73977716D01*
X135015323Y-73993289D01*
X135007696Y-73996449D01*
X135006813Y-73994317D01*
X134990927Y-73998167D01*
X134964429Y-74008052D01*
X134956898Y-74006413D01*
X134949408Y-74008229D01*
X134922683Y-73998971D01*
X134895054Y-73992962D01*
X134886199Y-73986333D01*
X134882323Y-73984991D01*
X134866343Y-73971471D01*
X134860434Y-73965562D01*
X134837374Y-73942502D01*
X134837371Y-73942500D01*
X133120805Y-72225934D01*
X133086779Y-72163622D01*
X133083900Y-72136839D01*
X133083900Y-70862213D01*
X133083900Y-70862212D01*
X133058038Y-70765692D01*
X133058036Y-70765689D01*
X133058036Y-70765687D01*
X133008078Y-70679158D01*
X133008070Y-70679148D01*
X132933030Y-70604108D01*
X132933007Y-70604087D01*
X129413090Y-67084170D01*
X129413078Y-67084156D01*
X129335251Y-67006329D01*
X129335241Y-67006321D01*
X129249517Y-66956829D01*
X129248708Y-66956362D01*
X129248707Y-66956361D01*
X129248706Y-66956361D01*
X129238024Y-66953499D01*
X129228310Y-66950896D01*
X129218614Y-66948298D01*
X129157995Y-66911345D01*
X129126975Y-66847484D01*
X129135406Y-66776990D01*
X129147326Y-66756000D01*
X129147278Y-66755971D01*
X129148180Y-66754498D01*
X129149304Y-66752520D01*
X129149864Y-66751748D01*
X129246906Y-66561292D01*
X129246909Y-66561286D01*
X129312959Y-66358004D01*
X129323098Y-66294000D01*
X128419103Y-66294000D01*
X128454325Y-66232993D01*
X128488400Y-66105826D01*
X128488400Y-65974174D01*
X128454325Y-65847007D01*
X128419103Y-65786000D01*
X129323097Y-65786000D01*
X129312959Y-65721995D01*
X129246909Y-65518713D01*
X129246906Y-65518707D01*
X129149863Y-65328249D01*
X129024222Y-65155320D01*
X128873079Y-65004177D01*
X128700150Y-64878536D01*
X128509692Y-64781493D01*
X128509689Y-64781492D01*
X128430491Y-64755758D01*
X128371885Y-64715684D01*
X128344249Y-64650287D01*
X128356356Y-64580330D01*
X128404363Y-64528024D01*
X128412226Y-64523658D01*
X128412375Y-64523581D01*
X128412381Y-64523580D01*
X128567284Y-64444653D01*
X128707933Y-64342465D01*
X128830865Y-64219533D01*
X128933053Y-64078884D01*
X129011980Y-63923981D01*
X129065703Y-63758638D01*
X129092900Y-63586926D01*
X129092900Y-63413074D01*
X129065703Y-63241362D01*
X129011980Y-63076019D01*
X128933053Y-62921116D01*
X128884195Y-62853869D01*
X128830863Y-62780464D01*
X128707935Y-62657536D01*
X128567287Y-62555349D01*
X128567286Y-62555348D01*
X128567284Y-62555347D01*
X128412381Y-62476420D01*
X128412378Y-62476419D01*
X128412376Y-62476418D01*
X128247042Y-62422698D01*
X128247040Y-62422697D01*
X128247038Y-62422697D01*
X128075326Y-62395500D01*
X127901474Y-62395500D01*
X127729762Y-62422697D01*
X127729760Y-62422697D01*
X127729757Y-62422698D01*
X127564423Y-62476418D01*
X127564417Y-62476421D01*
X127409512Y-62555349D01*
X127268864Y-62657536D01*
X127145936Y-62780464D01*
X127043749Y-62921112D01*
X126964821Y-63076017D01*
X126964818Y-63076023D01*
X126911098Y-63241357D01*
X126911097Y-63241360D01*
X126911097Y-63241362D01*
X126883900Y-63413074D01*
X126883900Y-63586926D01*
X126911097Y-63758638D01*
X126911098Y-63758642D01*
X126956817Y-63899352D01*
X126964820Y-63923981D01*
X127043747Y-64078884D01*
X127043749Y-64078887D01*
X127145936Y-64219535D01*
X127268864Y-64342463D01*
X127312359Y-64374064D01*
X127409516Y-64444653D01*
X127564419Y-64523580D01*
X127564424Y-64523581D01*
X127564574Y-64523658D01*
X127616189Y-64572406D01*
X127633255Y-64641321D01*
X127610354Y-64708523D01*
X127554757Y-64752675D01*
X127546309Y-64755758D01*
X127467107Y-64781493D01*
X127276644Y-64878538D01*
X127275727Y-64879101D01*
X127275330Y-64879208D01*
X127272242Y-64880782D01*
X127271911Y-64880132D01*
X127207192Y-64897634D01*
X127139517Y-64876172D01*
X127094189Y-64821529D01*
X127083901Y-64771663D01*
X127083901Y-64706038D01*
X127083900Y-64706034D01*
X127058039Y-64609522D01*
X127058038Y-64609518D01*
X127055141Y-64604500D01*
X127041592Y-64581033D01*
X127008078Y-64522984D01*
X127008070Y-64522974D01*
X126933030Y-64447934D01*
X126933007Y-64447913D01*
X126511151Y-64026057D01*
X126477125Y-63963745D01*
X126480413Y-63898026D01*
X126525703Y-63758638D01*
X126552900Y-63586926D01*
X126552900Y-63413074D01*
X126525703Y-63241362D01*
X126471980Y-63076019D01*
X126393053Y-62921116D01*
X126344195Y-62853869D01*
X126290863Y-62780464D01*
X126167935Y-62657536D01*
X126027287Y-62555349D01*
X126027286Y-62555348D01*
X126027284Y-62555347D01*
X125872381Y-62476420D01*
X125872378Y-62476419D01*
X125872225Y-62476341D01*
X125820610Y-62427593D01*
X125803544Y-62358678D01*
X125826445Y-62291476D01*
X125882042Y-62247324D01*
X125890492Y-62244241D01*
X125969686Y-62218509D01*
X125969692Y-62218506D01*
X126160150Y-62121463D01*
X126333079Y-61995822D01*
X126484222Y-61844679D01*
X126609863Y-61671750D01*
X126706906Y-61481292D01*
X126706909Y-61481286D01*
X126732641Y-61402092D01*
X126772714Y-61343486D01*
X126838111Y-61315849D01*
X126908068Y-61327956D01*
X126960374Y-61375962D01*
X126964741Y-61383825D01*
X126964818Y-61383976D01*
X126964820Y-61383981D01*
X127043747Y-61538884D01*
X127043749Y-61538887D01*
X127145936Y-61679535D01*
X127268864Y-61802463D01*
X127274440Y-61806514D01*
X127409516Y-61904653D01*
X127564419Y-61983580D01*
X127729762Y-62037303D01*
X127901474Y-62064500D01*
X127901477Y-62064500D01*
X128075323Y-62064500D01*
X128075326Y-62064500D01*
X128247038Y-62037303D01*
X128412381Y-61983580D01*
X128567284Y-61904653D01*
X128707933Y-61802465D01*
X128830865Y-61679533D01*
X128933053Y-61538884D01*
X129011980Y-61383981D01*
X129065703Y-61218638D01*
X129092900Y-61046926D01*
X129092900Y-60873074D01*
X129065703Y-60701362D01*
X129011980Y-60536019D01*
X128933053Y-60381116D01*
X128933052Y-60381115D01*
X128931314Y-60377703D01*
X128918210Y-60307926D01*
X128944910Y-60242141D01*
X129002938Y-60201235D01*
X129043581Y-60194500D01*
X131962781Y-60194500D01*
X132095619Y-60194500D01*
X134765816Y-60194500D01*
X134833937Y-60214502D01*
G37*
G04 #@! TD.AperFunction*
G04 #@! TA.AperFunction,Conductor*
G36*
X130717681Y-72809502D02*
G01*
X130738655Y-72826405D01*
X131827653Y-73915404D01*
X131861679Y-73977716D01*
X131856614Y-74048532D01*
X131814067Y-74105367D01*
X131747547Y-74130178D01*
X131738558Y-74130499D01*
X129170289Y-74130499D01*
X129102168Y-74110497D01*
X129055675Y-74056841D01*
X129045571Y-73986567D01*
X129050454Y-73965567D01*
X129065703Y-73918638D01*
X129092900Y-73746926D01*
X129092900Y-73573074D01*
X129065703Y-73401362D01*
X129011980Y-73236019D01*
X128933053Y-73081116D01*
X128866533Y-72989560D01*
X128842676Y-72922694D01*
X128858756Y-72853542D01*
X128909669Y-72804062D01*
X128968470Y-72789500D01*
X130649560Y-72789500D01*
X130717681Y-72809502D01*
G37*
G04 #@! TD.AperFunction*
G04 #@! TA.AperFunction,Conductor*
G36*
X135079471Y-63254083D02*
G01*
X135089979Y-63252058D01*
X135113564Y-63261499D01*
X135138389Y-63266900D01*
X135151417Y-63276653D01*
X135155890Y-63278444D01*
X135167099Y-63288393D01*
X135289813Y-63411107D01*
X135289834Y-63411130D01*
X135364874Y-63486170D01*
X135364879Y-63486174D01*
X135364881Y-63486176D01*
X135364882Y-63486177D01*
X135364884Y-63486178D01*
X135451414Y-63536136D01*
X135451418Y-63536138D01*
X135471815Y-63541603D01*
X135547938Y-63562001D01*
X135647862Y-63562001D01*
X135647866Y-63562000D01*
X139078027Y-63562000D01*
X139146148Y-63582002D01*
X139167122Y-63598905D01*
X139194422Y-63626205D01*
X139194427Y-63626209D01*
X139194429Y-63626211D01*
X139194430Y-63626212D01*
X139194432Y-63626213D01*
X139318344Y-63697754D01*
X139367337Y-63749137D01*
X139380858Y-63817929D01*
X139379893Y-63828875D01*
X139374100Y-63850499D01*
X139374100Y-63894652D01*
X139373614Y-63900170D01*
X139362601Y-63928273D01*
X139354098Y-63957235D01*
X139348561Y-63964104D01*
X139347712Y-63966273D01*
X139345559Y-63967829D01*
X139337195Y-63978209D01*
X139294729Y-64020674D01*
X139294721Y-64020684D01*
X139244761Y-64107219D01*
X139240468Y-64123242D01*
X139218899Y-64203734D01*
X139218899Y-64313812D01*
X139218900Y-64313825D01*
X139218900Y-66569627D01*
X139198898Y-66637748D01*
X139181995Y-66658722D01*
X139154694Y-66686022D01*
X139154686Y-66686032D01*
X139081689Y-66812466D01*
X139070669Y-66853594D01*
X139043900Y-66953499D01*
X139043900Y-67099501D01*
X139066293Y-67183074D01*
X139081689Y-67240533D01*
X139154686Y-67366967D01*
X139154694Y-67366977D01*
X139257922Y-67470205D01*
X139257927Y-67470209D01*
X139257929Y-67470211D01*
X139257930Y-67470212D01*
X139257932Y-67470213D01*
X139384366Y-67543210D01*
X139384368Y-67543210D01*
X139384371Y-67543212D01*
X139525399Y-67581000D01*
X139525401Y-67581000D01*
X139671399Y-67581000D01*
X139671401Y-67581000D01*
X139812429Y-67543212D01*
X139812432Y-67543210D01*
X139812433Y-67543210D01*
X139900090Y-67492601D01*
X139938871Y-67470211D01*
X140042111Y-67366971D01*
X140102485Y-67262400D01*
X140115110Y-67240533D01*
X140115110Y-67240532D01*
X140115112Y-67240529D01*
X140152900Y-67099501D01*
X140152900Y-66953499D01*
X140115112Y-66812471D01*
X140115110Y-66812468D01*
X140115110Y-66812466D01*
X140042113Y-66686032D01*
X140042105Y-66686022D01*
X140014805Y-66658722D01*
X139980779Y-66596410D01*
X139977900Y-66569627D01*
X139977900Y-64581033D01*
X139997902Y-64512912D01*
X140051558Y-64466419D01*
X140071278Y-64459330D01*
X140142629Y-64440212D01*
X140269071Y-64367211D01*
X140269077Y-64367205D01*
X140275805Y-64360478D01*
X140338117Y-64326452D01*
X140408932Y-64331517D01*
X140465768Y-64374064D01*
X140490579Y-64440584D01*
X140490900Y-64449573D01*
X140490900Y-67774233D01*
X140470898Y-67842354D01*
X140422110Y-67886496D01*
X140416516Y-67889346D01*
X140275864Y-67991536D01*
X140152936Y-68114464D01*
X140050749Y-68255112D01*
X140050747Y-68255116D01*
X140047900Y-68260702D01*
X139999155Y-68312317D01*
X139935634Y-68329500D01*
X136566494Y-68329500D01*
X136498373Y-68309498D01*
X136477399Y-68292595D01*
X136459625Y-68274821D01*
X136459619Y-68274816D01*
X136392134Y-68229724D01*
X136352422Y-68203189D01*
X136233311Y-68153852D01*
X136106865Y-68128700D01*
X136106863Y-68128700D01*
X135977937Y-68128700D01*
X135977934Y-68128700D01*
X135851488Y-68153852D01*
X135851483Y-68153854D01*
X135732378Y-68203189D01*
X135625180Y-68274816D01*
X135625174Y-68274821D01*
X135534021Y-68365974D01*
X135534016Y-68365980D01*
X135462389Y-68473178D01*
X135413054Y-68592283D01*
X135413052Y-68592288D01*
X135387900Y-68718734D01*
X135387900Y-68847665D01*
X135413052Y-68974111D01*
X135413054Y-68974116D01*
X135462389Y-69093222D01*
X135487141Y-69130266D01*
X135494189Y-69152777D01*
X135505495Y-69173479D01*
X135504598Y-69186019D01*
X135508356Y-69198019D01*
X135506163Y-69206009D01*
X135508738Y-69205764D01*
X135526142Y-69214736D01*
X135545278Y-69218899D01*
X135569740Y-69237211D01*
X135571843Y-69238296D01*
X135573988Y-69240392D01*
X135625174Y-69291578D01*
X135625180Y-69291583D01*
X135732378Y-69363211D01*
X135851489Y-69412548D01*
X135977937Y-69437700D01*
X135977938Y-69437700D01*
X136025196Y-69437700D01*
X136106863Y-69437700D01*
X136233311Y-69412548D01*
X136352422Y-69363211D01*
X136355172Y-69361373D01*
X136357625Y-69359735D01*
X136425378Y-69338520D01*
X136427627Y-69338500D01*
X139935634Y-69338500D01*
X139950472Y-69342857D01*
X139965924Y-69342195D01*
X139983844Y-69352655D01*
X140003755Y-69358502D01*
X140014829Y-69370743D01*
X140027239Y-69377987D01*
X140047899Y-69407295D01*
X140050576Y-69412548D01*
X140050749Y-69412887D01*
X140059392Y-69424783D01*
X140083250Y-69491650D01*
X140067170Y-69560802D01*
X140016256Y-69610282D01*
X139968078Y-69622213D01*
X139968283Y-69623766D01*
X139960096Y-69624843D01*
X139863569Y-69650707D01*
X139777040Y-69700665D01*
X139777035Y-69700669D01*
X139756384Y-69721321D01*
X139706380Y-69771325D01*
X139706378Y-69771327D01*
X139706375Y-69771329D01*
X139359111Y-70118595D01*
X139296798Y-70152620D01*
X139270015Y-70155500D01*
X139231399Y-70155500D01*
X139145086Y-70178627D01*
X139090366Y-70193289D01*
X138963932Y-70266286D01*
X138963922Y-70266294D01*
X138860694Y-70369522D01*
X138860686Y-70369532D01*
X138787689Y-70495966D01*
X138770542Y-70559962D01*
X138749900Y-70636999D01*
X138749900Y-70783001D01*
X138783224Y-70907372D01*
X138787689Y-70924033D01*
X138860686Y-71050467D01*
X138860694Y-71050477D01*
X138963922Y-71153705D01*
X138963927Y-71153709D01*
X138963929Y-71153711D01*
X138963930Y-71153712D01*
X138963932Y-71153713D01*
X139090366Y-71226710D01*
X139090368Y-71226710D01*
X139090371Y-71226712D01*
X139231399Y-71264500D01*
X139231401Y-71264500D01*
X139377399Y-71264500D01*
X139377401Y-71264500D01*
X139518429Y-71226712D01*
X139518432Y-71226710D01*
X139518433Y-71226710D01*
X139633188Y-71160456D01*
X139644871Y-71153711D01*
X139675805Y-71122776D01*
X139738115Y-71088752D01*
X139808931Y-71093816D01*
X139865767Y-71136362D01*
X139890579Y-71202882D01*
X139890900Y-71211872D01*
X139890900Y-72249063D01*
X139890901Y-72249073D01*
X139905665Y-72323300D01*
X139961916Y-72407484D01*
X140046097Y-72463733D01*
X140046099Y-72463734D01*
X140120333Y-72478500D01*
X141870466Y-72478499D01*
X141870469Y-72478498D01*
X141870473Y-72478498D01*
X141919726Y-72468701D01*
X141944701Y-72463734D01*
X142028884Y-72407484D01*
X142085134Y-72323301D01*
X142099900Y-72249067D01*
X142099899Y-72072749D01*
X142119901Y-72004632D01*
X142173556Y-71958139D01*
X142243830Y-71948034D01*
X142308411Y-71977527D01*
X142338165Y-72015548D01*
X142373934Y-72085747D01*
X142499577Y-72258679D01*
X142650720Y-72409822D01*
X142823650Y-72535463D01*
X142901701Y-72575233D01*
X142953316Y-72623981D01*
X142970382Y-72692896D01*
X142947481Y-72760098D01*
X142891884Y-72804250D01*
X142844498Y-72813500D01*
X139659190Y-72813500D01*
X139591069Y-72793498D01*
X139570095Y-72776595D01*
X138199670Y-71406170D01*
X138199658Y-71406156D01*
X138121831Y-71328329D01*
X138121821Y-71328321D01*
X138035292Y-71278364D01*
X138035290Y-71278363D01*
X138035288Y-71278362D01*
X138035281Y-71278360D01*
X138023211Y-71275125D01*
X138023204Y-71275124D01*
X138014146Y-71272697D01*
X137938768Y-71252499D01*
X137838844Y-71252499D01*
X137838840Y-71252500D01*
X137314460Y-71252500D01*
X137246339Y-71232498D01*
X137225365Y-71215595D01*
X136669811Y-70660041D01*
X136635785Y-70597729D01*
X136640850Y-70526914D01*
X136649784Y-70507950D01*
X136686112Y-70445029D01*
X136723900Y-70304001D01*
X136723900Y-70157999D01*
X136686112Y-70016971D01*
X136686110Y-70016968D01*
X136686110Y-70016966D01*
X136613113Y-69890532D01*
X136613105Y-69890522D01*
X136509877Y-69787294D01*
X136509867Y-69787286D01*
X136383433Y-69714289D01*
X136366772Y-69709824D01*
X136242401Y-69676500D01*
X136096399Y-69676500D01*
X136052368Y-69688298D01*
X135955366Y-69714289D01*
X135828932Y-69787286D01*
X135828922Y-69787294D01*
X135725694Y-69890522D01*
X135725686Y-69890532D01*
X135676554Y-69975633D01*
X135658168Y-69993164D01*
X135642944Y-70013501D01*
X135632917Y-70017240D01*
X135625172Y-70024626D01*
X135600227Y-70029433D01*
X135576424Y-70038312D01*
X135565965Y-70036036D01*
X135555458Y-70038062D01*
X135531875Y-70028621D01*
X135507050Y-70023221D01*
X135494020Y-70013466D01*
X135489547Y-70011676D01*
X135478340Y-70001728D01*
X135460323Y-69983711D01*
X135426297Y-69921399D01*
X135423418Y-69894616D01*
X135423418Y-69636821D01*
X135423419Y-69636808D01*
X135423419Y-69526734D01*
X135423418Y-69526730D01*
X135401850Y-69446238D01*
X135397556Y-69430215D01*
X135397556Y-69430214D01*
X135375773Y-69392485D01*
X135371157Y-69373457D01*
X135361772Y-69356270D01*
X135362959Y-69339665D01*
X135359036Y-69323492D01*
X135359496Y-69322162D01*
X135345043Y-69315870D01*
X135321996Y-69310858D01*
X135305973Y-69298864D01*
X135301576Y-69296950D01*
X135293285Y-69289368D01*
X135291992Y-69288075D01*
X135276937Y-69273020D01*
X135276934Y-69273018D01*
X134051409Y-68047493D01*
X134017383Y-67985181D01*
X134022448Y-67914366D01*
X134064995Y-67857530D01*
X134131515Y-67832719D01*
X134173113Y-67836691D01*
X134229499Y-67851800D01*
X134229500Y-67851800D01*
X134375499Y-67851800D01*
X134375501Y-67851800D01*
X134516529Y-67814012D01*
X134516532Y-67814010D01*
X134516533Y-67814010D01*
X134614738Y-67757311D01*
X134642971Y-67741011D01*
X134746211Y-67637771D01*
X134797215Y-67549429D01*
X134819210Y-67511333D01*
X134819210Y-67511332D01*
X134819212Y-67511329D01*
X134857000Y-67370301D01*
X134857000Y-67224299D01*
X134819212Y-67083271D01*
X134819210Y-67083268D01*
X134819210Y-67083266D01*
X134746213Y-66956832D01*
X134746205Y-66956822D01*
X134642977Y-66853594D01*
X134642967Y-66853586D01*
X134516533Y-66780589D01*
X134503101Y-66776990D01*
X134454298Y-66763913D01*
X134393676Y-66726962D01*
X134362655Y-66663101D01*
X134360910Y-66642207D01*
X134360910Y-65744465D01*
X134380912Y-65676344D01*
X134434568Y-65629851D01*
X134504842Y-65619747D01*
X134569422Y-65649241D01*
X134576005Y-65655370D01*
X134664131Y-65743496D01*
X134664136Y-65743500D01*
X134664138Y-65743502D01*
X134664139Y-65743503D01*
X134664141Y-65743504D01*
X134790575Y-65816501D01*
X134790577Y-65816501D01*
X134790580Y-65816503D01*
X134931608Y-65854291D01*
X134931610Y-65854291D01*
X135077607Y-65854291D01*
X135077610Y-65854291D01*
X135158446Y-65832631D01*
X135229419Y-65834321D01*
X135280149Y-65865243D01*
X136328572Y-66913666D01*
X136362598Y-66975978D01*
X136357533Y-67046793D01*
X136348597Y-67065759D01*
X136338490Y-67083265D01*
X136338488Y-67083269D01*
X136338488Y-67083271D01*
X136300700Y-67224299D01*
X136300700Y-67370301D01*
X136328888Y-67475500D01*
X136338489Y-67511333D01*
X136411486Y-67637767D01*
X136411494Y-67637777D01*
X136514722Y-67741005D01*
X136514727Y-67741009D01*
X136514729Y-67741011D01*
X136514730Y-67741012D01*
X136514732Y-67741013D01*
X136641166Y-67814010D01*
X136641168Y-67814010D01*
X136641171Y-67814012D01*
X136782199Y-67851800D01*
X136782201Y-67851800D01*
X136928199Y-67851800D01*
X136928201Y-67851800D01*
X137069229Y-67814012D01*
X137069232Y-67814010D01*
X137069233Y-67814010D01*
X137167438Y-67757311D01*
X137195671Y-67741011D01*
X137207608Y-67729074D01*
X137229655Y-67707028D01*
X137291967Y-67673002D01*
X137362782Y-67678067D01*
X137407845Y-67707028D01*
X137479922Y-67779105D01*
X137479927Y-67779109D01*
X137479929Y-67779111D01*
X137479930Y-67779112D01*
X137479932Y-67779113D01*
X137606366Y-67852110D01*
X137606368Y-67852110D01*
X137606371Y-67852112D01*
X137747399Y-67889900D01*
X137747401Y-67889900D01*
X137893399Y-67889900D01*
X137893401Y-67889900D01*
X138034429Y-67852112D01*
X138034432Y-67852110D01*
X138034433Y-67852110D01*
X138116040Y-67804994D01*
X138160871Y-67779111D01*
X138264111Y-67675871D01*
X138337112Y-67549429D01*
X138374900Y-67408401D01*
X138374900Y-67262399D01*
X138337112Y-67121371D01*
X138337110Y-67121368D01*
X138337110Y-67121366D01*
X138264113Y-66994932D01*
X138264105Y-66994922D01*
X138160877Y-66891694D01*
X138160867Y-66891686D01*
X138034433Y-66818689D01*
X138011208Y-66812466D01*
X137893401Y-66780900D01*
X137893399Y-66780900D01*
X137854543Y-66780900D01*
X137786422Y-66760898D01*
X137765448Y-66743995D01*
X134920805Y-63899352D01*
X134886779Y-63837040D01*
X134883900Y-63810257D01*
X134883900Y-63466872D01*
X134903902Y-63398751D01*
X134920801Y-63377780D01*
X134948111Y-63350471D01*
X134968885Y-63314488D01*
X134987269Y-63296959D01*
X135002495Y-63276620D01*
X135012522Y-63272880D01*
X135020266Y-63265496D01*
X135045210Y-63260687D01*
X135069015Y-63251809D01*
X135079471Y-63254083D01*
G37*
G04 #@! TD.AperFunction*
G04 #@! TA.AperFunction,Conductor*
G36*
X148797402Y-70819031D02*
G01*
X148831981Y-70821019D01*
X148833044Y-70821580D01*
X148833635Y-70821623D01*
X148838086Y-70824242D01*
X148863695Y-70837765D01*
X149056707Y-70978086D01*
X149075468Y-71002432D01*
X149096082Y-71025217D01*
X149096918Y-71030266D01*
X149100044Y-71034322D01*
X149102664Y-71064943D01*
X149107688Y-71095259D01*
X149105661Y-71099959D01*
X149106098Y-71105060D01*
X149091747Y-71132237D01*
X149079583Y-71160456D01*
X149075337Y-71163314D01*
X149072947Y-71167842D01*
X149048452Y-71187431D01*
X149046656Y-71188531D01*
X148873720Y-71314177D01*
X148722577Y-71465320D01*
X148596936Y-71638249D01*
X148499893Y-71828707D01*
X148474158Y-71907909D01*
X148434083Y-71966514D01*
X148368686Y-71994150D01*
X148298730Y-71982042D01*
X148246424Y-71934036D01*
X148242058Y-71926174D01*
X148241981Y-71926023D01*
X148241980Y-71926019D01*
X148163053Y-71771116D01*
X148060865Y-71630467D01*
X148060863Y-71630465D01*
X148060526Y-71630070D01*
X148060444Y-71629889D01*
X148057955Y-71626462D01*
X148058675Y-71625938D01*
X148031497Y-71565279D01*
X148042105Y-71495079D01*
X148088982Y-71441759D01*
X148093313Y-71439140D01*
X148137419Y-71413676D01*
X148208076Y-71343019D01*
X148218443Y-71332652D01*
X148218450Y-71332642D01*
X148700510Y-70850582D01*
X148730909Y-70833982D01*
X148761102Y-70816945D01*
X148762015Y-70816997D01*
X148762820Y-70816558D01*
X148797402Y-70819031D01*
G37*
G04 #@! TD.AperFunction*
G04 #@! TA.AperFunction,Conductor*
G36*
X150012400Y-71919297D02*
G01*
X149951393Y-71884075D01*
X149824226Y-71850000D01*
X149692574Y-71850000D01*
X149565407Y-71884075D01*
X149504400Y-71919297D01*
X149504400Y-70240702D01*
X149565407Y-70275925D01*
X149692574Y-70310000D01*
X149824226Y-70310000D01*
X149951393Y-70275925D01*
X150012400Y-70240702D01*
X150012400Y-71919297D01*
G37*
G04 #@! TD.AperFunction*
G04 #@! TA.AperFunction,Conductor*
G36*
X143731521Y-70403846D02*
G01*
X143778014Y-70457502D01*
X143789400Y-70509844D01*
X143789400Y-70943297D01*
X143728393Y-70908075D01*
X143601226Y-70874000D01*
X143469574Y-70874000D01*
X143342407Y-70908075D01*
X143281400Y-70943297D01*
X143281400Y-70509844D01*
X143301402Y-70441723D01*
X143355058Y-70395230D01*
X143407400Y-70383844D01*
X143663400Y-70383844D01*
X143731521Y-70403846D01*
G37*
G04 #@! TD.AperFunction*
G04 #@! TA.AperFunction,Conductor*
G36*
X143789400Y-69498844D02*
G01*
X143769398Y-69566965D01*
X143715742Y-69613458D01*
X143663400Y-69624844D01*
X143407400Y-69624844D01*
X143339279Y-69604842D01*
X143292786Y-69551186D01*
X143281400Y-69498844D01*
X143281400Y-69264702D01*
X143342407Y-69299925D01*
X143469574Y-69334000D01*
X143601226Y-69334000D01*
X143728393Y-69299925D01*
X143789400Y-69264702D01*
X143789400Y-69498844D01*
G37*
G04 #@! TD.AperFunction*
G04 #@! TA.AperFunction,Conductor*
G36*
X126826021Y-54930502D02*
G01*
X126872514Y-54984158D01*
X126883900Y-55036500D01*
X126883900Y-56755063D01*
X126883901Y-56755073D01*
X126898665Y-56829300D01*
X126954916Y-56913484D01*
X127039097Y-56969733D01*
X127039099Y-56969734D01*
X127113333Y-56984500D01*
X128863466Y-56984499D01*
X128863469Y-56984498D01*
X128863473Y-56984498D01*
X128912726Y-56974701D01*
X128937701Y-56969734D01*
X129021884Y-56913484D01*
X129078134Y-56829301D01*
X129092900Y-56755067D01*
X129092899Y-55036499D01*
X129112901Y-54968379D01*
X129166557Y-54921886D01*
X129218899Y-54910500D01*
X136502805Y-54910500D01*
X136540481Y-54910500D01*
X136560192Y-54912051D01*
X136594810Y-54917534D01*
X136632301Y-54929716D01*
X136654585Y-54941070D01*
X136686478Y-54964242D01*
X136704157Y-54981921D01*
X136727329Y-55013814D01*
X136738683Y-55036098D01*
X136750864Y-55073586D01*
X136756348Y-55108204D01*
X136757900Y-55127918D01*
X136757900Y-57991632D01*
X136766292Y-58033820D01*
X136788970Y-58147831D01*
X136849917Y-58294968D01*
X136938397Y-58427389D01*
X137051011Y-58540003D01*
X137183432Y-58628483D01*
X137330569Y-58689430D01*
X137486770Y-58720500D01*
X137526838Y-58720500D01*
X146281949Y-58720500D01*
X146350070Y-58740502D01*
X146396563Y-58794158D01*
X146406667Y-58864432D01*
X146378664Y-58926331D01*
X146378845Y-58926462D01*
X146378210Y-58927335D01*
X146377760Y-58928331D01*
X146375932Y-58930470D01*
X146273749Y-59071112D01*
X146194821Y-59226017D01*
X146194818Y-59226023D01*
X146141098Y-59391357D01*
X146141097Y-59391360D01*
X146141097Y-59391362D01*
X146113900Y-59563074D01*
X146113900Y-59736926D01*
X146141097Y-59908638D01*
X146141098Y-59908642D01*
X146182012Y-60034564D01*
X146184039Y-60105532D01*
X146147377Y-60166330D01*
X146083664Y-60197655D01*
X146062179Y-60199500D01*
X145262273Y-60199500D01*
X145194152Y-60179498D01*
X145173178Y-60162595D01*
X145145877Y-60135294D01*
X145145867Y-60135286D01*
X145019433Y-60062289D01*
X145002772Y-60057824D01*
X144878401Y-60024500D01*
X144732399Y-60024500D01*
X144646086Y-60047627D01*
X144591366Y-60062289D01*
X144464932Y-60135286D01*
X144464922Y-60135294D01*
X144361694Y-60238522D01*
X144361686Y-60238532D01*
X144288689Y-60364966D01*
X144284362Y-60381116D01*
X144250900Y-60505999D01*
X144250900Y-60652001D01*
X144282594Y-60770286D01*
X144288689Y-60793033D01*
X144361686Y-60919467D01*
X144361694Y-60919477D01*
X144464922Y-61022705D01*
X144464927Y-61022709D01*
X144464929Y-61022711D01*
X144464930Y-61022712D01*
X144464932Y-61022713D01*
X144591366Y-61095710D01*
X144591368Y-61095710D01*
X144591371Y-61095712D01*
X144732399Y-61133500D01*
X144732401Y-61133500D01*
X144878399Y-61133500D01*
X144878401Y-61133500D01*
X145019429Y-61095712D01*
X145019432Y-61095710D01*
X145019433Y-61095710D01*
X145120744Y-61037218D01*
X145145871Y-61022711D01*
X145145877Y-61022705D01*
X145173178Y-60995405D01*
X145235490Y-60961379D01*
X145262273Y-60958500D01*
X146239434Y-60958500D01*
X146239438Y-60958501D01*
X146339362Y-60958501D01*
X146415484Y-60938103D01*
X146435882Y-60932638D01*
X146522419Y-60882676D01*
X146593076Y-60812019D01*
X146603442Y-60801653D01*
X146603450Y-60801643D01*
X146692344Y-60712748D01*
X146754654Y-60678724D01*
X146820369Y-60682011D01*
X146959762Y-60727303D01*
X147131474Y-60754500D01*
X147131477Y-60754500D01*
X147305323Y-60754500D01*
X147305326Y-60754500D01*
X147477038Y-60727303D01*
X147642381Y-60673580D01*
X147797284Y-60594653D01*
X147937933Y-60492465D01*
X148060865Y-60369533D01*
X148163053Y-60228884D01*
X148163054Y-60228881D01*
X148165638Y-60224666D01*
X148167023Y-60225514D01*
X148210870Y-60179079D01*
X148279783Y-60162006D01*
X148346987Y-60184900D01*
X148391145Y-60240493D01*
X148400400Y-60287891D01*
X148400400Y-60548597D01*
X148406905Y-60609093D01*
X148457955Y-60745964D01*
X148457955Y-60745965D01*
X148545495Y-60862904D01*
X148662434Y-60950444D01*
X148781012Y-60994671D01*
X148837848Y-61037218D01*
X148862659Y-61103738D01*
X148847568Y-61173112D01*
X148826076Y-61201822D01*
X148722576Y-61305322D01*
X148596936Y-61478249D01*
X148499893Y-61668707D01*
X148474158Y-61747909D01*
X148434083Y-61806514D01*
X148368686Y-61834150D01*
X148298730Y-61822042D01*
X148246424Y-61774036D01*
X148242058Y-61766174D01*
X148241981Y-61766023D01*
X148241980Y-61766019D01*
X148163053Y-61611116D01*
X148064016Y-61474804D01*
X148060863Y-61470464D01*
X147937935Y-61347536D01*
X147797287Y-61245349D01*
X147797286Y-61245348D01*
X147797284Y-61245347D01*
X147642381Y-61166420D01*
X147642378Y-61166419D01*
X147642376Y-61166418D01*
X147477042Y-61112698D01*
X147477040Y-61112697D01*
X147477038Y-61112697D01*
X147305326Y-61085500D01*
X147131474Y-61085500D01*
X146959762Y-61112697D01*
X146959760Y-61112697D01*
X146959757Y-61112698D01*
X146794423Y-61166418D01*
X146794417Y-61166421D01*
X146639512Y-61245349D01*
X146498864Y-61347536D01*
X146375936Y-61470464D01*
X146273749Y-61611112D01*
X146194821Y-61766017D01*
X146194818Y-61766023D01*
X146141098Y-61931357D01*
X146141097Y-61931360D01*
X146141097Y-61931362D01*
X146113900Y-62103074D01*
X146113900Y-62276926D01*
X146137764Y-62427593D01*
X146141098Y-62448642D01*
X146194769Y-62613826D01*
X146194820Y-62613981D01*
X146273747Y-62768884D01*
X146273749Y-62768887D01*
X146375936Y-62909535D01*
X146498864Y-63032463D01*
X146503003Y-63035470D01*
X146639516Y-63134653D01*
X146794419Y-63213580D01*
X146959762Y-63267303D01*
X147131474Y-63294500D01*
X147131477Y-63294500D01*
X147305323Y-63294500D01*
X147305326Y-63294500D01*
X147477038Y-63267303D01*
X147642381Y-63213580D01*
X147797284Y-63134653D01*
X147937933Y-63032465D01*
X148060865Y-62909533D01*
X148163053Y-62768884D01*
X148241980Y-62613981D01*
X148241981Y-62613975D01*
X148242058Y-62613826D01*
X148290806Y-62562210D01*
X148359721Y-62545144D01*
X148426922Y-62568044D01*
X148471075Y-62623642D01*
X148474158Y-62632091D01*
X148499892Y-62711289D01*
X148499893Y-62711292D01*
X148596936Y-62901750D01*
X148722577Y-63074679D01*
X148873720Y-63225822D01*
X149046656Y-63351468D01*
X149048452Y-63352569D01*
X149048991Y-63353164D01*
X149050658Y-63354376D01*
X149050403Y-63354726D01*
X149096082Y-63405217D01*
X149107688Y-63475259D01*
X149079583Y-63540456D01*
X149050611Y-63565559D01*
X149050658Y-63565624D01*
X149049911Y-63566166D01*
X149048452Y-63567431D01*
X149046656Y-63568531D01*
X148873720Y-63694177D01*
X148722577Y-63845320D01*
X148596936Y-64018249D01*
X148499893Y-64208707D01*
X148474158Y-64287909D01*
X148434083Y-64346514D01*
X148368686Y-64374150D01*
X148298730Y-64362042D01*
X148246424Y-64314036D01*
X148242058Y-64306174D01*
X148241981Y-64306023D01*
X148241980Y-64306019D01*
X148163053Y-64151116D01*
X148060865Y-64010467D01*
X148060863Y-64010464D01*
X147937935Y-63887536D01*
X147797287Y-63785349D01*
X147797286Y-63785348D01*
X147797284Y-63785347D01*
X147642381Y-63706420D01*
X147642378Y-63706419D01*
X147642376Y-63706418D01*
X147477042Y-63652698D01*
X147477040Y-63652697D01*
X147477038Y-63652697D01*
X147305326Y-63625500D01*
X147131474Y-63625500D01*
X146959762Y-63652697D01*
X146959760Y-63652697D01*
X146959757Y-63652698D01*
X146794423Y-63706418D01*
X146794417Y-63706421D01*
X146639512Y-63785349D01*
X146498864Y-63887536D01*
X146375936Y-64010464D01*
X146273749Y-64151112D01*
X146194821Y-64306017D01*
X146194818Y-64306023D01*
X146141098Y-64471357D01*
X146141097Y-64471360D01*
X146141097Y-64471362D01*
X146113900Y-64643074D01*
X146113900Y-64816926D01*
X146137414Y-64965384D01*
X146141098Y-64988642D01*
X146175768Y-65095347D01*
X146194820Y-65153981D01*
X146273747Y-65308884D01*
X146273749Y-65308887D01*
X146375936Y-65449535D01*
X146498864Y-65572463D01*
X146498867Y-65572465D01*
X146639516Y-65674653D01*
X146794419Y-65753580D01*
X146959762Y-65807303D01*
X147131474Y-65834500D01*
X147131477Y-65834500D01*
X147305323Y-65834500D01*
X147305326Y-65834500D01*
X147477038Y-65807303D01*
X147616426Y-65762012D01*
X147687393Y-65759985D01*
X147744457Y-65792751D01*
X148087995Y-66136289D01*
X148102939Y-66163657D01*
X148119796Y-66189886D01*
X148120701Y-66196184D01*
X148122021Y-66198601D01*
X148124900Y-66225384D01*
X148124900Y-66316085D01*
X148104898Y-66384206D01*
X148051242Y-66430699D01*
X147980968Y-66440803D01*
X147924839Y-66418021D01*
X147797287Y-66325349D01*
X147797286Y-66325348D01*
X147797284Y-66325347D01*
X147642381Y-66246420D01*
X147642378Y-66246419D01*
X147642376Y-66246418D01*
X147477042Y-66192698D01*
X147477040Y-66192697D01*
X147477038Y-66192697D01*
X147305326Y-66165500D01*
X147131474Y-66165500D01*
X146959762Y-66192697D01*
X146959760Y-66192697D01*
X146959757Y-66192698D01*
X146794423Y-66246418D01*
X146794417Y-66246421D01*
X146639512Y-66325349D01*
X146498864Y-66427536D01*
X146375936Y-66550464D01*
X146273749Y-66691112D01*
X146194821Y-66846017D01*
X146194818Y-66846023D01*
X146141098Y-67011357D01*
X146141097Y-67011360D01*
X146141097Y-67011362D01*
X146113900Y-67183074D01*
X146113900Y-67356926D01*
X146141097Y-67528638D01*
X146141098Y-67528642D01*
X146186386Y-67668025D01*
X146188413Y-67738993D01*
X146155649Y-67796056D01*
X145721984Y-68229721D01*
X145721982Y-68229723D01*
X145696593Y-68255112D01*
X145651326Y-68300378D01*
X145651322Y-68300383D01*
X145601364Y-68386913D01*
X145601364Y-68386914D01*
X145601363Y-68386916D01*
X145601363Y-68386917D01*
X145595897Y-68407314D01*
X145578249Y-68473178D01*
X145575500Y-68483438D01*
X145575500Y-68593511D01*
X145575501Y-68593524D01*
X145575501Y-69288106D01*
X145555499Y-69356227D01*
X145538596Y-69377201D01*
X145327858Y-69587939D01*
X145265546Y-69621965D01*
X145238763Y-69624844D01*
X144862177Y-69624844D01*
X144794056Y-69604842D01*
X144747563Y-69551186D01*
X144737459Y-69480912D01*
X144749910Y-69441641D01*
X144793906Y-69355292D01*
X144793909Y-69355286D01*
X144859959Y-69152004D01*
X144870098Y-69088000D01*
X143966103Y-69088000D01*
X144001325Y-69026993D01*
X144035400Y-68899826D01*
X144035400Y-68768174D01*
X144001325Y-68641007D01*
X143966103Y-68580000D01*
X144870097Y-68580000D01*
X144859959Y-68515995D01*
X144793909Y-68312713D01*
X144793906Y-68312707D01*
X144696863Y-68122249D01*
X144571222Y-67949320D01*
X144420079Y-67798177D01*
X144247150Y-67672536D01*
X144056692Y-67575493D01*
X144056686Y-67575490D01*
X143853404Y-67509440D01*
X143789400Y-67499302D01*
X143789400Y-68403297D01*
X143728393Y-68368075D01*
X143601226Y-68334000D01*
X143469574Y-68334000D01*
X143342407Y-68368075D01*
X143281400Y-68403297D01*
X143281400Y-67499302D01*
X143217395Y-67509440D01*
X143031661Y-67569789D01*
X142960693Y-67571816D01*
X142899895Y-67535154D01*
X142868570Y-67471442D01*
X142869145Y-67425379D01*
X142881800Y-67361763D01*
X142881800Y-67232837D01*
X142856648Y-67106389D01*
X142807311Y-66987278D01*
X142735683Y-66880080D01*
X142735678Y-66880074D01*
X142644525Y-66788921D01*
X142644519Y-66788916D01*
X142600544Y-66759533D01*
X142537322Y-66717289D01*
X142418211Y-66667952D01*
X142352114Y-66654804D01*
X142322391Y-66648892D01*
X142305364Y-66639985D01*
X142286589Y-66635901D01*
X142261149Y-66616856D01*
X142259482Y-66615984D01*
X142257879Y-66614408D01*
X142163805Y-66520334D01*
X142129779Y-66458022D01*
X142126900Y-66431239D01*
X142126900Y-63035470D01*
X142126095Y-63032463D01*
X142092519Y-62907158D01*
X142061752Y-62853869D01*
X142026101Y-62792118D01*
X142026099Y-62792116D01*
X142026097Y-62792113D01*
X140708788Y-61474804D01*
X140708778Y-61474796D01*
X140627772Y-61428028D01*
X140627771Y-61428028D01*
X140593742Y-61408381D01*
X140570271Y-61402092D01*
X140465431Y-61374000D01*
X140465429Y-61374000D01*
X139584261Y-61374000D01*
X139516140Y-61353998D01*
X139495166Y-61337095D01*
X136191891Y-58033820D01*
X136157865Y-57971508D01*
X136157407Y-57969307D01*
X136146008Y-57912000D01*
X136138348Y-57873489D01*
X136089011Y-57754378D01*
X136017383Y-57647180D01*
X136017378Y-57647174D01*
X135926225Y-57556021D01*
X135926219Y-57556016D01*
X135890649Y-57532249D01*
X135819022Y-57484389D01*
X135699911Y-57435052D01*
X135666238Y-57428354D01*
X135573465Y-57409900D01*
X135573463Y-57409900D01*
X135444537Y-57409900D01*
X135444534Y-57409900D01*
X135318088Y-57435052D01*
X135318083Y-57435054D01*
X135198978Y-57484389D01*
X135091780Y-57556016D01*
X135091774Y-57556021D01*
X135000621Y-57647174D01*
X135000616Y-57647180D01*
X134928989Y-57754378D01*
X134879654Y-57873483D01*
X134879652Y-57873488D01*
X134854500Y-57999934D01*
X134854500Y-58128865D01*
X134858273Y-58147831D01*
X134879652Y-58255311D01*
X134928989Y-58374422D01*
X134964381Y-58427389D01*
X135000616Y-58481619D01*
X135000621Y-58481625D01*
X135091774Y-58572778D01*
X135091780Y-58572783D01*
X135198978Y-58644411D01*
X135318089Y-58693748D01*
X135413908Y-58712807D01*
X135476816Y-58745715D01*
X135478420Y-58747291D01*
X138517034Y-61785905D01*
X138551060Y-61848217D01*
X138545995Y-61919032D01*
X138503448Y-61975868D01*
X138436928Y-62000679D01*
X138427939Y-62001000D01*
X138103637Y-62001000D01*
X138035516Y-61980998D01*
X138014542Y-61964095D01*
X135336753Y-59286304D01*
X135336743Y-59286296D01*
X135263814Y-59244191D01*
X135221709Y-59219882D01*
X135221708Y-59219881D01*
X135221707Y-59219881D01*
X135093396Y-59185500D01*
X135093394Y-59185500D01*
X132659700Y-59185500D01*
X132591579Y-59165498D01*
X132545086Y-59111842D01*
X132533700Y-59059500D01*
X132533700Y-57103253D01*
X132553702Y-57035132D01*
X132554935Y-57033251D01*
X132609211Y-56952022D01*
X132658548Y-56832911D01*
X132683700Y-56706463D01*
X132683700Y-56577537D01*
X132658548Y-56451089D01*
X132609211Y-56331978D01*
X132537583Y-56224780D01*
X132537578Y-56224774D01*
X132446425Y-56133621D01*
X132446419Y-56133616D01*
X132410849Y-56109849D01*
X132339222Y-56061989D01*
X132220111Y-56012652D01*
X132093665Y-55987500D01*
X132093663Y-55987500D01*
X131964737Y-55987500D01*
X131964734Y-55987500D01*
X131838288Y-56012652D01*
X131838283Y-56012654D01*
X131719178Y-56061989D01*
X131611980Y-56133616D01*
X131611974Y-56133621D01*
X131520821Y-56224774D01*
X131520816Y-56224780D01*
X131449189Y-56331978D01*
X131399854Y-56451083D01*
X131399852Y-56451088D01*
X131374700Y-56577534D01*
X131374700Y-56706465D01*
X131384368Y-56755067D01*
X131399852Y-56832911D01*
X131449189Y-56952022D01*
X131503465Y-57033251D01*
X131524680Y-57101004D01*
X131524700Y-57103253D01*
X131524700Y-59059500D01*
X131504698Y-59127621D01*
X131451042Y-59174114D01*
X131398700Y-59185500D01*
X129043581Y-59185500D01*
X128975460Y-59165498D01*
X128928967Y-59111842D01*
X128918863Y-59041568D01*
X128931314Y-59002297D01*
X128943902Y-58977591D01*
X129011980Y-58843981D01*
X129065703Y-58678638D01*
X129092900Y-58506926D01*
X129092900Y-58333074D01*
X129065703Y-58161362D01*
X129011980Y-57996019D01*
X128933053Y-57841116D01*
X128870034Y-57754378D01*
X128830863Y-57700464D01*
X128707935Y-57577536D01*
X128567287Y-57475349D01*
X128567286Y-57475348D01*
X128567284Y-57475347D01*
X128412381Y-57396420D01*
X128412378Y-57396419D01*
X128412376Y-57396418D01*
X128247042Y-57342698D01*
X128247040Y-57342697D01*
X128247038Y-57342697D01*
X128075326Y-57315500D01*
X127901474Y-57315500D01*
X127729762Y-57342697D01*
X127729760Y-57342697D01*
X127729757Y-57342698D01*
X127564423Y-57396418D01*
X127564417Y-57396421D01*
X127409512Y-57475349D01*
X127268864Y-57577536D01*
X127145936Y-57700464D01*
X127043749Y-57841112D01*
X126964821Y-57996017D01*
X126964818Y-57996023D01*
X126911098Y-58161357D01*
X126911097Y-58161360D01*
X126911097Y-58161362D01*
X126883900Y-58333074D01*
X126883900Y-58506926D01*
X126905676Y-58644410D01*
X126911098Y-58678642D01*
X126948631Y-58794158D01*
X126964820Y-58843981D01*
X126997345Y-58907814D01*
X127010449Y-58977591D01*
X126983749Y-59043376D01*
X126925721Y-59084282D01*
X126854790Y-59087322D01*
X126795983Y-59054112D01*
X126554503Y-58812632D01*
X126520477Y-58750320D01*
X126523769Y-58684590D01*
X126525701Y-58678644D01*
X126525700Y-58678644D01*
X126525703Y-58678638D01*
X126552900Y-58506926D01*
X126552900Y-58333074D01*
X126525703Y-58161362D01*
X126471980Y-57996019D01*
X126393053Y-57841116D01*
X126330034Y-57754378D01*
X126290863Y-57700464D01*
X126167935Y-57577536D01*
X126027283Y-57475346D01*
X126021690Y-57472496D01*
X125970078Y-57423745D01*
X125952900Y-57360233D01*
X125952900Y-56939766D01*
X125972902Y-56871645D01*
X126021704Y-56827496D01*
X126027282Y-56824654D01*
X126027281Y-56824654D01*
X126027284Y-56824653D01*
X126167933Y-56722465D01*
X126290865Y-56599533D01*
X126393053Y-56458884D01*
X126471980Y-56303981D01*
X126525703Y-56138638D01*
X126552900Y-55966926D01*
X126552900Y-55793074D01*
X126525703Y-55621362D01*
X126471980Y-55456019D01*
X126393053Y-55301116D01*
X126290865Y-55160467D01*
X126290863Y-55160464D01*
X126255994Y-55125595D01*
X126221968Y-55063283D01*
X126227033Y-54992468D01*
X126269580Y-54935632D01*
X126336100Y-54910821D01*
X126345089Y-54910500D01*
X126757900Y-54910500D01*
X126826021Y-54930502D01*
G37*
G04 #@! TD.AperFunction*
G04 #@! TA.AperFunction,Conductor*
G36*
X150012400Y-69379297D02*
G01*
X149951393Y-69344075D01*
X149824226Y-69310000D01*
X149692574Y-69310000D01*
X149565407Y-69344075D01*
X149504400Y-69379297D01*
X149504400Y-67700702D01*
X149565407Y-67735925D01*
X149692574Y-67770000D01*
X149824226Y-67770000D01*
X149951393Y-67735925D01*
X150012400Y-67700702D01*
X150012400Y-69379297D01*
G37*
G04 #@! TD.AperFunction*
G04 #@! TA.AperFunction,Conductor*
G36*
X150012400Y-66839297D02*
G01*
X149951393Y-66804075D01*
X149824226Y-66770000D01*
X149692574Y-66770000D01*
X149565407Y-66804075D01*
X149504400Y-66839297D01*
X149504400Y-65160702D01*
X149565407Y-65195925D01*
X149692574Y-65230000D01*
X149824226Y-65230000D01*
X149951393Y-65195925D01*
X150012400Y-65160702D01*
X150012400Y-66839297D01*
G37*
G04 #@! TD.AperFunction*
G04 #@! TA.AperFunction,Conductor*
G36*
X150012400Y-64299297D02*
G01*
X149951393Y-64264075D01*
X149824226Y-64230000D01*
X149692574Y-64230000D01*
X149565407Y-64264075D01*
X149504400Y-64299297D01*
X149504400Y-62620702D01*
X149565407Y-62655925D01*
X149692574Y-62690000D01*
X149824226Y-62690000D01*
X149951393Y-62655925D01*
X150012400Y-62620702D01*
X150012400Y-64299297D01*
G37*
G04 #@! TD.AperFunction*
G04 #@! TA.AperFunction,Conductor*
G36*
X150012400Y-61759297D02*
G01*
X149951393Y-61724075D01*
X149824226Y-61690000D01*
X149692574Y-61690000D01*
X149565407Y-61724075D01*
X149504400Y-61759297D01*
X149504400Y-60080702D01*
X149565407Y-60115925D01*
X149692574Y-60150000D01*
X149824226Y-60150000D01*
X149951393Y-60115925D01*
X150012400Y-60080702D01*
X150012400Y-61759297D01*
G37*
G04 #@! TD.AperFunction*
M02*
