M48
; DRILL file {KiCad 9.0.0} date 2025-03-30T00:29:35+0000
; FORMAT={-:-/ absolute / metric / decimal}
; #@! TF.CreationDate,2025-03-30T00:29:35+00:00
; #@! TF.GenerationSoftware,Kicad,Pcbnew,9.0.0
; #@! TF.FileFunction,MixedPlating,1,2
FMAT,2
METRIC
; #@! TA.AperFunction,Plated,PTH,ViaDrill
T1C0.300
; #@! TA.AperFunction,Plated,PTH,ViaDrill
T2C0.400
; #@! TA.AperFunction,Plated,PTH,ComponentDrill
T3C1.000
%
G90
G05
T1
X126.718Y-82.55
X129.504Y-86.81
X129.515Y-78.029
X129.54Y-73.863
X129.54Y-79.4
X130.179Y-86.11
X130.546Y-81.668
X130.81Y-86.97
X131.179Y-71.61
X131.704Y-67.21
X131.775Y-78.74
X131.798Y-96.266
X132.179Y-75.469
X132.309Y-96.984
X132.309Y-100.813
X132.74Y-76.454
X132.74Y-77.368
X133.004Y-84.81
X133.033Y-100.051
X133.096Y-78.334
X133.096Y-79.248
X133.121Y-80.518
X133.429Y-63.81
X133.502Y-62.484
X133.756Y-60.452
X133.767Y-98.436
X134.302Y-67.297
X134.504Y-63.01
X134.518Y-61.214
X134.829Y-100.675
X135.005Y-65.3
X135.229Y-74.51
X135.342Y-72.52
X135.608Y-89.662
X135.813Y-71.798
X135.865Y-88.875
X136.169Y-70.231
X136.804Y-60.51
X136.855Y-67.297
X136.957Y-76.225
X137.056Y-85.573
X137.131Y-75.329
X137.204Y-81.153
X137.245Y-89.124
X137.304Y-82.71
X137.82Y-67.335
X138.904Y-79.51
X138.913Y-92.431
X139.304Y-70.71
X139.535Y-63.182
X139.598Y-67.026
X139.929Y-63.923
X139.929Y-98.527
X139.979Y-74.152
X140.427Y-79.375
X140.596Y-93.374
X141.495Y-93.374
X142.265Y-74.588
X143.027Y-94.64
X144.551Y-75.692
X144.805Y-60.579
X145.059Y-61.468
X145.694Y-59.182
T2
X129.392Y-80.916
X129.479Y-75.85
X129.512Y-84.328
X129.54Y-57.607
X130.2Y-88.011
X130.421Y-60.868
X131.572Y-83.972
X132.029Y-56.642
X134.061Y-56.591
X134.399Y-73.015
X135.509Y-58.064
X136.042Y-68.783
X136.106Y-99.187
X137.311Y-80.11
X138.004Y-73.812
X138.074Y-76.86
X139.217Y-71.882
X139.304Y-82.344
X139.979Y-60.96
X142.227Y-67.297
X142.469Y-82.017
X142.469Y-93.447
X143.281Y-74.676
X144.437Y-81.953
X144.678Y-63.46
T3
X125.448Y-55.88
X125.448Y-58.42
X125.448Y-60.96
X125.448Y-63.5
X125.448Y-66.04
X125.448Y-68.58
X125.448Y-71.12
X125.448Y-73.66
X125.448Y-76.2
X125.448Y-78.74
X125.448Y-81.28
X125.448Y-83.82
X125.448Y-86.36
X125.448Y-88.9
X125.448Y-91.44
X125.448Y-93.98
X125.448Y-96.52
X125.448Y-99.06
X125.448Y-101.6
X125.448Y-104.14
X127.988Y-55.88
X127.988Y-58.42
X127.988Y-60.96
X127.988Y-63.5
X127.988Y-66.04
X127.988Y-68.58
X127.988Y-71.12
X127.988Y-73.66
X127.988Y-76.2
X127.988Y-78.74
X127.988Y-81.28
X127.988Y-83.82
X127.988Y-86.36
X127.988Y-88.9
X127.988Y-91.44
X127.988Y-93.98
X127.988Y-96.52
X127.988Y-99.06
X127.988Y-101.6
X127.988Y-104.14
X131.039Y-91.161
X131.039Y-93.701
X133.579Y-91.161
X133.579Y-93.701
X136.119Y-91.161
X136.119Y-93.701
X140.995Y-68.834
X140.995Y-71.374
X143.535Y-68.834
X143.535Y-71.374
X147.218Y-59.65
X147.218Y-62.19
X147.218Y-64.73
X147.218Y-67.27
X147.218Y-69.81
X147.218Y-72.35
X147.218Y-74.89
X147.218Y-77.43
X147.218Y-79.97
X147.218Y-82.51
X147.218Y-85.05
X147.218Y-87.59
X147.218Y-90.13
X147.218Y-92.67
X147.218Y-95.21
X147.218Y-97.75
X147.218Y-100.29
X149.758Y-59.65
X149.758Y-62.19
X149.758Y-64.73
X149.758Y-67.27
X149.758Y-69.81
X149.758Y-72.35
X149.758Y-74.89
X149.758Y-77.43
X149.758Y-79.97
X149.758Y-82.51
X149.758Y-85.05
X149.758Y-87.59
X149.758Y-90.13
X149.758Y-92.67
X149.758Y-95.21
X149.758Y-97.75
X149.758Y-100.29
M30
