G04 #@! TF.GenerationSoftware,KiCad,Pcbnew,9.0.0*
G04 #@! TF.CreationDate,2025-03-30T00:29:37+00:00*
G04 #@! TF.ProjectId,1MHzAdaptor,314d487a-4164-4617-9074-6f722e6b6963,03b*
G04 #@! TF.SameCoordinates,Original*
G04 #@! TF.FileFunction,Other,User*
%FSLAX46Y46*%
G04 Gerber Fmt 4.6, Leading zero omitted, Abs format (unit mm)*
G04 Created by KiCad (PCBNEW 9.0.0) date 2025-03-30 00:29:37*
%MOMM*%
%LPD*%
G01*
G04 APERTURE LIST*
%ADD10C,0.050000*%
G04 APERTURE END LIST*
D10*
X139195400Y-73174000D02*
X145345400Y-73174000D01*
X145345400Y-73174000D02*
X145345400Y-58274000D01*
X139195400Y-58274000D02*
X139195400Y-73174000D01*
X145345400Y-58274000D02*
X139195400Y-58274000D01*
X136372800Y-76806600D02*
X136372800Y-79606600D01*
X136372800Y-76806600D02*
X139572800Y-76806600D01*
X136372800Y-79606600D02*
X139572800Y-79606600D01*
X139572800Y-79606600D02*
X139572800Y-76806600D01*
X138282000Y-80058000D02*
X140102000Y-80058000D01*
X138282000Y-80978000D02*
X138282000Y-80058000D01*
X140102000Y-80058000D02*
X140102000Y-80978000D01*
X140102000Y-80978000D02*
X138282000Y-80978000D01*
X142904800Y-91488000D02*
X144724800Y-91488000D01*
X142904800Y-92408000D02*
X142904800Y-91488000D01*
X144724800Y-91488000D02*
X144724800Y-92408000D01*
X144724800Y-92408000D02*
X142904800Y-92408000D01*
X136300800Y-58976000D02*
X138120800Y-58976000D01*
X136300800Y-59896000D02*
X136300800Y-58976000D01*
X138120800Y-58976000D02*
X138120800Y-59896000D01*
X138120800Y-59896000D02*
X136300800Y-59896000D01*
X133970400Y-81209000D02*
X133970400Y-88209000D01*
X133970400Y-88209000D02*
X141670400Y-88209000D01*
X141670400Y-81209000D02*
X133970400Y-81209000D01*
X141670400Y-88209000D02*
X141670400Y-81209000D01*
X136870400Y-67729300D02*
X136870400Y-70929300D01*
X138770400Y-67729300D02*
X136870400Y-67729300D01*
X138770400Y-67729300D02*
X138770400Y-70929300D01*
X138770400Y-70929300D02*
X136870400Y-70929300D01*
X142725900Y-82570000D02*
X142725900Y-85070000D01*
X142725900Y-82570000D02*
X144725900Y-82570000D01*
X144725900Y-85070000D02*
X142725900Y-85070000D01*
X144725900Y-85070000D02*
X144725900Y-82570000D01*
X137526400Y-92766000D02*
X137526400Y-99766000D01*
X137526400Y-99766000D02*
X145226400Y-99766000D01*
X145226400Y-92766000D02*
X137526400Y-92766000D01*
X145226400Y-99766000D02*
X145226400Y-92766000D01*
X134248800Y-79133600D02*
X136108800Y-79133600D01*
X134248800Y-80073600D02*
X134248800Y-79133600D01*
X136108800Y-79133600D02*
X136108800Y-80073600D01*
X136108800Y-80073600D02*
X134248800Y-80073600D01*
X140906400Y-79080000D02*
X141846400Y-79080000D01*
X140906400Y-80940000D02*
X140906400Y-79080000D01*
X141846400Y-79080000D02*
X141846400Y-80940000D01*
X141846400Y-80940000D02*
X140906400Y-80940000D01*
X143065400Y-79080000D02*
X144005400Y-79080000D01*
X143065400Y-80940000D02*
X143065400Y-79080000D01*
X144005400Y-79080000D02*
X144005400Y-80940000D01*
X144005400Y-80940000D02*
X143065400Y-80940000D01*
X145418400Y-57900000D02*
X160268400Y-57900000D01*
X145418400Y-102100000D02*
X145418400Y-57900000D01*
X160268400Y-57900000D02*
X160268400Y-102100000D01*
X160268400Y-102100000D02*
X145418400Y-102100000D01*
X142008600Y-79100000D02*
X142928600Y-79100000D01*
X142008600Y-80920000D02*
X142008600Y-79100000D01*
X142928600Y-79100000D02*
X142928600Y-80920000D01*
X142928600Y-80920000D02*
X142008600Y-80920000D01*
X140765500Y-76612100D02*
X145365500Y-76612100D01*
X140765500Y-78912100D02*
X140765500Y-76612100D01*
X145365500Y-76612100D02*
X145365500Y-78912100D01*
X145365500Y-78912100D02*
X140765500Y-78912100D01*
X131540500Y-67849300D02*
X133000500Y-67849300D01*
X131540500Y-70809300D02*
X131540500Y-67849300D01*
X133000500Y-67849300D02*
X133000500Y-70809300D01*
X133000500Y-70809300D02*
X131540500Y-70809300D01*
X131762400Y-70975000D02*
X132702400Y-70975000D01*
X131762400Y-72835000D02*
X131762400Y-70975000D01*
X132702400Y-70975000D02*
X132702400Y-72835000D01*
X132702400Y-72835000D02*
X131762400Y-72835000D01*
X141007600Y-88404600D02*
X142867600Y-88404600D01*
X141007600Y-89344600D02*
X141007600Y-88404600D01*
X142867600Y-88404600D02*
X142867600Y-89344600D01*
X142867600Y-89344600D02*
X141007600Y-89344600D01*
X143770600Y-88410600D02*
X145230600Y-88410600D01*
X143770600Y-91370600D02*
X143770600Y-88410600D01*
X145230600Y-88410600D02*
X145230600Y-91370600D01*
X145230600Y-91370600D02*
X143770600Y-91370600D01*
X142725900Y-85352000D02*
X142725900Y-87852000D01*
X142725900Y-85352000D02*
X144725900Y-85352000D01*
X144725900Y-87852000D02*
X142725900Y-87852000D01*
X144725900Y-87852000D02*
X144725900Y-85352000D01*
X129830000Y-56415200D02*
X131790000Y-56415200D01*
X129830000Y-59815200D02*
X129830000Y-56415200D01*
X131790000Y-56415200D02*
X131790000Y-59815200D01*
X131790000Y-59815200D02*
X129830000Y-59815200D01*
X134167200Y-55369200D02*
X135987200Y-55369200D01*
X134167200Y-56289200D02*
X134167200Y-55369200D01*
X135987200Y-55369200D02*
X135987200Y-56289200D01*
X135987200Y-56289200D02*
X134167200Y-56289200D01*
X132135200Y-55369200D02*
X133955200Y-55369200D01*
X132135200Y-56289200D02*
X132135200Y-55369200D01*
X133955200Y-55369200D02*
X133955200Y-56289200D01*
X133955200Y-56289200D02*
X132135200Y-56289200D01*
X144421600Y-73283400D02*
X145341600Y-73283400D01*
X144421600Y-75103400D02*
X144421600Y-73283400D01*
X145341600Y-73283400D02*
X145341600Y-75103400D01*
X145341600Y-75103400D02*
X144421600Y-75103400D01*
X129880000Y-55359200D02*
X131740000Y-55359200D01*
X129880000Y-56299200D02*
X129880000Y-55359200D01*
X131740000Y-55359200D02*
X131740000Y-56299200D01*
X131740000Y-56299200D02*
X129880000Y-56299200D01*
X131303400Y-60000000D02*
X131303400Y-67000000D01*
X131303400Y-67000000D02*
X139003400Y-67000000D01*
X139003400Y-60000000D02*
X131303400Y-60000000D01*
X139003400Y-67000000D02*
X139003400Y-60000000D01*
X132011200Y-56415200D02*
X132011200Y-59815200D01*
X132011200Y-59815200D02*
X136111200Y-59815200D01*
X136111200Y-56415200D02*
X132011200Y-56415200D01*
X136111200Y-59815200D02*
X136111200Y-56415200D01*
X138231200Y-75740000D02*
X140051200Y-75740000D01*
X138231200Y-76660000D02*
X138231200Y-75740000D01*
X140051200Y-75740000D02*
X140051200Y-76660000D01*
X140051200Y-76660000D02*
X138231200Y-76660000D01*
X138236600Y-88404600D02*
X140096600Y-88404600D01*
X138236600Y-89344600D02*
X138236600Y-88404600D01*
X140096600Y-88404600D02*
X140096600Y-89344600D01*
X140096600Y-89344600D02*
X138236600Y-89344600D01*
X140215400Y-72976000D02*
X140215400Y-76376000D01*
X140215400Y-76376000D02*
X144315400Y-76376000D01*
X144315400Y-72976000D02*
X140215400Y-72976000D01*
X144315400Y-76376000D02*
X144315400Y-72976000D01*
X123648400Y-54080000D02*
X129748400Y-54080000D01*
X123648400Y-105880000D02*
X123648400Y-54080000D01*
X129748400Y-54080000D02*
X129748400Y-105880000D01*
X129748400Y-105880000D02*
X123648400Y-105880000D01*
X129268600Y-89360600D02*
X129268600Y-104260600D01*
X129268600Y-104260600D02*
X137918600Y-104260600D01*
X137918600Y-89360600D02*
X129268600Y-89360600D01*
X137918600Y-104260600D02*
X137918600Y-89360600D01*
X133338400Y-67729300D02*
X133338400Y-70929300D01*
X135238400Y-67729300D02*
X133338400Y-67729300D01*
X135238400Y-67729300D02*
X135238400Y-70929300D01*
X135238400Y-70929300D02*
X133338400Y-70929300D01*
M02*
