G04 #@! TF.GenerationSoftware,KiCad,Pcbnew,9.0.0*
G04 #@! TF.CreationDate,2025-03-30T00:29:37+00:00*
G04 #@! TF.ProjectId,1MHzAdaptor,314d487a-4164-4617-9074-6f722e6b6963,03b*
G04 #@! TF.SameCoordinates,Original*
G04 #@! TF.FileFunction,Copper,L1,Top*
G04 #@! TF.FilePolarity,Positive*
%FSLAX46Y46*%
G04 Gerber Fmt 4.6, Leading zero omitted, Abs format (unit mm)*
G04 Created by KiCad (PCBNEW 9.0.0) date 2025-03-30 00:29:37*
%MOMM*%
%LPD*%
G01*
G04 APERTURE LIST*
G04 Aperture macros list*
%AMRoundRect*
0 Rectangle with rounded corners*
0 $1 Rounding radius*
0 $2 $3 $4 $5 $6 $7 $8 $9 X,Y pos of 4 corners*
0 Add a 4 corners polygon primitive as box body*
4,1,4,$2,$3,$4,$5,$6,$7,$8,$9,$2,$3,0*
0 Add four circle primitives for the rounded corners*
1,1,$1+$1,$2,$3*
1,1,$1+$1,$4,$5*
1,1,$1+$1,$6,$7*
1,1,$1+$1,$8,$9*
0 Add four rect primitives between the rounded corners*
20,1,$1+$1,$2,$3,$4,$5,0*
20,1,$1+$1,$4,$5,$6,$7,0*
20,1,$1+$1,$6,$7,$8,$9,0*
20,1,$1+$1,$8,$9,$2,$3,0*%
G04 Aperture macros list end*
G04 #@! TA.AperFunction,ComponentPad*
%ADD10R,1.700000X1.700000*%
G04 #@! TD*
G04 #@! TA.AperFunction,ComponentPad*
%ADD11O,1.700000X1.700000*%
G04 #@! TD*
G04 #@! TA.AperFunction,SMDPad,CuDef*
%ADD12RoundRect,0.100000X-0.225000X-0.100000X0.225000X-0.100000X0.225000X0.100000X-0.225000X0.100000X0*%
G04 #@! TD*
G04 #@! TA.AperFunction,SMDPad,CuDef*
%ADD13RoundRect,0.140000X0.140000X0.170000X-0.140000X0.170000X-0.140000X-0.170000X0.140000X-0.170000X0*%
G04 #@! TD*
G04 #@! TA.AperFunction,SMDPad,CuDef*
%ADD14RoundRect,0.100000X-0.637500X-0.100000X0.637500X-0.100000X0.637500X0.100000X-0.637500X0.100000X0*%
G04 #@! TD*
G04 #@! TA.AperFunction,SMDPad,CuDef*
%ADD15RoundRect,0.112500X-0.112500X0.187500X-0.112500X-0.187500X0.112500X-0.187500X0.112500X0.187500X0*%
G04 #@! TD*
G04 #@! TA.AperFunction,SMDPad,CuDef*
%ADD16R,0.500000X0.320000*%
G04 #@! TD*
G04 #@! TA.AperFunction,SMDPad,CuDef*
%ADD17RoundRect,0.135000X-0.135000X-0.185000X0.135000X-0.185000X0.135000X0.185000X-0.135000X0.185000X0*%
G04 #@! TD*
G04 #@! TA.AperFunction,SMDPad,CuDef*
%ADD18RoundRect,0.135000X0.185000X-0.135000X0.185000X0.135000X-0.185000X0.135000X-0.185000X-0.135000X0*%
G04 #@! TD*
G04 #@! TA.AperFunction,SMDPad,CuDef*
%ADD19RoundRect,0.135000X-0.185000X0.135000X-0.185000X-0.135000X0.185000X-0.135000X0.185000X0.135000X0*%
G04 #@! TD*
G04 #@! TA.AperFunction,SMDPad,CuDef*
%ADD20RoundRect,0.140000X-0.170000X0.140000X-0.170000X-0.140000X0.170000X-0.140000X0.170000X0.140000X0*%
G04 #@! TD*
G04 #@! TA.AperFunction,SMDPad,CuDef*
%ADD21RoundRect,0.250000X-0.325000X-0.650000X0.325000X-0.650000X0.325000X0.650000X-0.325000X0.650000X0*%
G04 #@! TD*
G04 #@! TA.AperFunction,SMDPad,CuDef*
%ADD22RoundRect,0.218750X-0.256250X0.218750X-0.256250X-0.218750X0.256250X-0.218750X0.256250X0.218750X0*%
G04 #@! TD*
G04 #@! TA.AperFunction,SMDPad,CuDef*
%ADD23RoundRect,0.135000X0.135000X0.185000X-0.135000X0.185000X-0.135000X-0.185000X0.135000X-0.185000X0*%
G04 #@! TD*
G04 #@! TA.AperFunction,SMDPad,CuDef*
%ADD24RoundRect,0.218750X0.256250X-0.218750X0.256250X0.218750X-0.256250X0.218750X-0.256250X-0.218750X0*%
G04 #@! TD*
G04 #@! TA.AperFunction,SMDPad,CuDef*
%ADD25RoundRect,0.250000X-0.475000X0.250000X-0.475000X-0.250000X0.475000X-0.250000X0.475000X0.250000X0*%
G04 #@! TD*
G04 #@! TA.AperFunction,SMDPad,CuDef*
%ADD26RoundRect,0.140000X-0.140000X-0.170000X0.140000X-0.170000X0.140000X0.170000X-0.140000X0.170000X0*%
G04 #@! TD*
G04 #@! TA.AperFunction,SMDPad,CuDef*
%ADD27RoundRect,0.140000X0.170000X-0.140000X0.170000X0.140000X-0.170000X0.140000X-0.170000X-0.140000X0*%
G04 #@! TD*
G04 #@! TA.AperFunction,SMDPad,CuDef*
%ADD28RoundRect,0.150000X0.512500X0.150000X-0.512500X0.150000X-0.512500X-0.150000X0.512500X-0.150000X0*%
G04 #@! TD*
G04 #@! TA.AperFunction,SMDPad,CuDef*
%ADD29RoundRect,0.150000X-0.512500X-0.150000X0.512500X-0.150000X0.512500X0.150000X-0.512500X0.150000X0*%
G04 #@! TD*
G04 #@! TA.AperFunction,ViaPad*
%ADD30C,0.600000*%
G04 #@! TD*
G04 #@! TA.AperFunction,ViaPad*
%ADD31C,0.800000*%
G04 #@! TD*
G04 #@! TA.AperFunction,Conductor*
%ADD32C,0.250000*%
G04 #@! TD*
G04 #@! TA.AperFunction,Conductor*
%ADD33C,0.350000*%
G04 #@! TD*
G04 #@! TA.AperFunction,Conductor*
%ADD34C,0.500000*%
G04 #@! TD*
G04 APERTURE END LIST*
D10*
X140995400Y-71374000D03*
D11*
X140995400Y-68834000D03*
X143535400Y-71374000D03*
X143535400Y-68834000D03*
D12*
X137022800Y-77556600D03*
X137022800Y-78206600D03*
X137022800Y-78856600D03*
X138922800Y-78856600D03*
X138922800Y-78206600D03*
X138922800Y-77556600D03*
D13*
X139672000Y-80518000D03*
X138712000Y-80518000D03*
X144294800Y-91948000D03*
X143334800Y-91948000D03*
X137690800Y-59436000D03*
X136730800Y-59436000D03*
D14*
X134957900Y-81784000D03*
X134957900Y-82434000D03*
X134957900Y-83084000D03*
X134957900Y-83734000D03*
X134957900Y-84384000D03*
X134957900Y-85034000D03*
X134957900Y-85684000D03*
X134957900Y-86334000D03*
X134957900Y-86984000D03*
X134957900Y-87634000D03*
X140682900Y-87634000D03*
X140682900Y-86984000D03*
X140682900Y-86334000D03*
X140682900Y-85684000D03*
X140682900Y-85034000D03*
X140682900Y-84384000D03*
X140682900Y-83734000D03*
X140682900Y-83084000D03*
X140682900Y-82434000D03*
X140682900Y-81784000D03*
D15*
X137820400Y-68279300D03*
X137820400Y-70379300D03*
D16*
X143225900Y-83070000D03*
X143225900Y-83570000D03*
X143225900Y-84070000D03*
X143225900Y-84570000D03*
X144225900Y-84570000D03*
X144225900Y-84070000D03*
X144225900Y-83570000D03*
X144225900Y-83070000D03*
D14*
X138513900Y-93341000D03*
X138513900Y-93991000D03*
X138513900Y-94641000D03*
X138513900Y-95291000D03*
X138513900Y-95941000D03*
X138513900Y-96591000D03*
X138513900Y-97241000D03*
X138513900Y-97891000D03*
X138513900Y-98541000D03*
X138513900Y-99191000D03*
X144238900Y-99191000D03*
X144238900Y-98541000D03*
X144238900Y-97891000D03*
X144238900Y-97241000D03*
X144238900Y-96591000D03*
X144238900Y-95941000D03*
X144238900Y-95291000D03*
X144238900Y-94641000D03*
X144238900Y-93991000D03*
X144238900Y-93341000D03*
D17*
X134668800Y-79603600D03*
X135688800Y-79603600D03*
D18*
X141376400Y-80520000D03*
X141376400Y-79500000D03*
D19*
X143535400Y-79500000D03*
X143535400Y-80520000D03*
D10*
X149758400Y-59650000D03*
D11*
X147218400Y-59650000D03*
X149758400Y-62190000D03*
X147218400Y-62190000D03*
X149758400Y-64730000D03*
X147218400Y-64730000D03*
X149758400Y-67270000D03*
X147218400Y-67270000D03*
X149758400Y-69810000D03*
X147218400Y-69810000D03*
X149758400Y-72350000D03*
X147218400Y-72350000D03*
X149758400Y-74890000D03*
X147218400Y-74890000D03*
X149758400Y-77430000D03*
X147218400Y-77430000D03*
X149758400Y-79970000D03*
X147218400Y-79970000D03*
X149758400Y-82510000D03*
X147218400Y-82510000D03*
X149758400Y-85050000D03*
X147218400Y-85050000D03*
X149758400Y-87590000D03*
X147218400Y-87590000D03*
X149758400Y-90130000D03*
X147218400Y-90130000D03*
X149758400Y-92670000D03*
X147218400Y-92670000D03*
X149758400Y-95210000D03*
X147218400Y-95210000D03*
X149758400Y-97750000D03*
X147218400Y-97750000D03*
X149758400Y-100290000D03*
X147218400Y-100290000D03*
D20*
X142468600Y-79530000D03*
X142468600Y-80490000D03*
D21*
X141590500Y-77762100D03*
X144540500Y-77762100D03*
D22*
X132270500Y-68541800D03*
X132270500Y-70116800D03*
D19*
X132232400Y-71395000D03*
X132232400Y-72415000D03*
D23*
X142447600Y-88874600D03*
X141427600Y-88874600D03*
D24*
X144500600Y-90678100D03*
X144500600Y-89103100D03*
D16*
X143225900Y-85852000D03*
X143225900Y-86352000D03*
X143225900Y-86852000D03*
X143225900Y-87352000D03*
X144225900Y-87352000D03*
X144225900Y-86852000D03*
X144225900Y-86352000D03*
X144225900Y-85852000D03*
D25*
X130810000Y-57165200D03*
X130810000Y-59065200D03*
D13*
X135557200Y-55829200D03*
X134597200Y-55829200D03*
D26*
X132565200Y-55829200D03*
X133525200Y-55829200D03*
D27*
X144881600Y-74673400D03*
X144881600Y-73713400D03*
D17*
X130300000Y-55829200D03*
X131320000Y-55829200D03*
D14*
X132290900Y-60575000D03*
X132290900Y-61225000D03*
X132290900Y-61875000D03*
X132290900Y-62525000D03*
X132290900Y-63175000D03*
X132290900Y-63825000D03*
X132290900Y-64475000D03*
X132290900Y-65125000D03*
X132290900Y-65775000D03*
X132290900Y-66425000D03*
X138015900Y-66425000D03*
X138015900Y-65775000D03*
X138015900Y-65125000D03*
X138015900Y-64475000D03*
X138015900Y-63825000D03*
X138015900Y-63175000D03*
X138015900Y-62525000D03*
X138015900Y-61875000D03*
X138015900Y-61225000D03*
X138015900Y-60575000D03*
D28*
X135198700Y-59065200D03*
X135198700Y-57165200D03*
X132923700Y-58115200D03*
D13*
X139621200Y-76200000D03*
X138661200Y-76200000D03*
D17*
X138656600Y-88874600D03*
X139676600Y-88874600D03*
D29*
X141127900Y-73726000D03*
X141127900Y-74676000D03*
X141127900Y-75626000D03*
X143402900Y-75626000D03*
X143402900Y-73726000D03*
D10*
X127988400Y-55880000D03*
D11*
X125448400Y-55880000D03*
X127988400Y-58420000D03*
X125448400Y-58420000D03*
X127988400Y-60960000D03*
X125448400Y-60960000D03*
X127988400Y-63500000D03*
X125448400Y-63500000D03*
X127988400Y-66040000D03*
X125448400Y-66040000D03*
X127988400Y-68580000D03*
X125448400Y-68580000D03*
X127988400Y-71120000D03*
X125448400Y-71120000D03*
X127988400Y-73660000D03*
X125448400Y-73660000D03*
X127988400Y-76200000D03*
X125448400Y-76200000D03*
X127988400Y-78740000D03*
X125448400Y-78740000D03*
X127988400Y-81280000D03*
X125448400Y-81280000D03*
X127988400Y-83820000D03*
X125448400Y-83820000D03*
X127988400Y-86360000D03*
X125448400Y-86360000D03*
X127988400Y-88900000D03*
X125448400Y-88900000D03*
X127988400Y-91440000D03*
X125448400Y-91440000D03*
X127988400Y-93980000D03*
X125448400Y-93980000D03*
X127988400Y-96520000D03*
X125448400Y-96520000D03*
X127988400Y-99060000D03*
X125448400Y-99060000D03*
X127988400Y-101600000D03*
X125448400Y-101600000D03*
X127988400Y-104140000D03*
X125448400Y-104140000D03*
D10*
X136118600Y-91160600D03*
D11*
X136118600Y-93700600D03*
X133578600Y-91160600D03*
X133578600Y-93700600D03*
X131038600Y-91160600D03*
X131038600Y-93700600D03*
D15*
X134288400Y-68279300D03*
X134288400Y-70379300D03*
D30*
X143027400Y-94640400D03*
D31*
X136105900Y-99187000D03*
D30*
X131704400Y-67210000D03*
D31*
X130420973Y-60868122D03*
D30*
X133756400Y-60452000D03*
X126718400Y-82550000D03*
X145059400Y-61468000D03*
X145694400Y-59182000D03*
X132740400Y-76454000D03*
X129514600Y-78028800D03*
X129540000Y-79400400D03*
D31*
X139979400Y-60960000D03*
X143281400Y-74676000D03*
X130200400Y-88011000D03*
X144437100Y-81953100D03*
D30*
X136804400Y-60510000D03*
D31*
X134061200Y-56591200D03*
D30*
X129540000Y-73863200D03*
D31*
X129512400Y-84328000D03*
X129391903Y-80915739D03*
D30*
X132308600Y-100812600D03*
D31*
X144678400Y-63460000D03*
X129540000Y-57607200D03*
X142468600Y-93446600D03*
X138004179Y-73811901D03*
D30*
X133121400Y-80518000D03*
D31*
X139217400Y-71882000D03*
X134398941Y-73015459D03*
X138074400Y-76860400D03*
X131572000Y-83972400D03*
X129479256Y-75850443D03*
D30*
X134829399Y-100675100D03*
X141495400Y-93374000D03*
X139304400Y-70710000D03*
X136169400Y-70231000D03*
X144805400Y-60579000D03*
X136855200Y-67297300D03*
X135004609Y-65299791D03*
X137130692Y-75328818D03*
X137304400Y-82710000D03*
X138912600Y-92430600D03*
X137245400Y-89124000D03*
X139598400Y-67026500D03*
X135864600Y-88874600D03*
X139928600Y-63923500D03*
X136956800Y-76225400D03*
X137055922Y-85572600D03*
X135608400Y-89662000D03*
X133004400Y-84810000D03*
X129504400Y-86810000D03*
X130179390Y-86110002D03*
X139534900Y-63182500D03*
X135812667Y-71797751D03*
X130546224Y-81668174D03*
X133096000Y-79248000D03*
X139979400Y-74152317D03*
X135342145Y-72520066D03*
X133096000Y-78333600D03*
X134518400Y-61214000D03*
X130810000Y-86969600D03*
X131775200Y-78740000D03*
X135229357Y-74510000D03*
X133429410Y-63809996D03*
X132740400Y-77368400D03*
X142265400Y-74588500D03*
X137204400Y-81153000D03*
X132179301Y-75468805D03*
X139928600Y-98526600D03*
X133767485Y-98436085D03*
X131179368Y-71610000D03*
X132308600Y-96984500D03*
X131798400Y-96266000D03*
D31*
X136042400Y-68783200D03*
X132029200Y-56642000D03*
X139304401Y-82344314D03*
X137310593Y-80110000D03*
D30*
X133033100Y-100050600D03*
X140595600Y-93374000D03*
X133502400Y-62484000D03*
X134302500Y-67297300D03*
X137820400Y-67335400D03*
X134504400Y-63010000D03*
D31*
X135509000Y-58064400D03*
X142227300Y-67297300D03*
D30*
X144551400Y-75692000D03*
D31*
X142468600Y-82016600D03*
D30*
X140426600Y-79375000D03*
X138904400Y-79510000D03*
D32*
X145984400Y-100290000D02*
X144885400Y-99191000D01*
X147218400Y-100290000D02*
X145984400Y-100290000D01*
X145303810Y-98541000D02*
X145772810Y-99010000D01*
X144326400Y-98541000D02*
X145303810Y-98541000D01*
X145772810Y-99010000D02*
X148478400Y-99010000D01*
X148478400Y-99010000D02*
X149758400Y-100290000D01*
X144326400Y-97891000D02*
X147077400Y-97891000D01*
X145880899Y-97241000D02*
X144326400Y-97241000D01*
X146641899Y-96480000D02*
X145880899Y-97241000D01*
X148488400Y-96480000D02*
X146641899Y-96480000D01*
X149758400Y-97750000D02*
X148488400Y-96480000D01*
X144326400Y-96591000D02*
X145837400Y-96591000D01*
X145837400Y-96591000D02*
X147218400Y-95210000D01*
X148488400Y-93940000D02*
X146667400Y-93940000D01*
X145373400Y-95941000D02*
X144326400Y-95941000D01*
X146043399Y-95271001D02*
X145373400Y-95941000D01*
X146043399Y-94564001D02*
X146043399Y-95271001D01*
X146667400Y-93940000D02*
X146043399Y-94564001D01*
X149758400Y-95210000D02*
X148488400Y-93940000D01*
X145301400Y-95291000D02*
X145593389Y-94999011D01*
X144326400Y-95291000D02*
X145301400Y-95291000D01*
X145593389Y-93065011D02*
X145988400Y-92670000D01*
X145593389Y-94999011D02*
X145593389Y-93065011D01*
X145988400Y-92670000D02*
X147218400Y-92670000D01*
X144326400Y-94641000D02*
X143027400Y-94640400D01*
D33*
X138004179Y-73811901D02*
X138182694Y-73990416D01*
X148488400Y-78700000D02*
X149758400Y-79970000D01*
X130577400Y-87634000D02*
X130200400Y-88011000D01*
X143967100Y-90678100D02*
X144500600Y-90678100D01*
X141165400Y-75626000D02*
X142083306Y-75626000D01*
X136105900Y-99187000D02*
X132740400Y-99187000D01*
X132308600Y-99618800D02*
X132308600Y-100812600D01*
X138602401Y-83286600D02*
X138577001Y-83312000D01*
X128558813Y-74930000D02*
X128558813Y-74844387D01*
X138577001Y-83312000D02*
X136398000Y-83312000D01*
X132190600Y-94852600D02*
X134966600Y-94852600D01*
X139714400Y-61225000D02*
X139979400Y-60960000D01*
X129639400Y-88011000D02*
X130200400Y-88011000D01*
X126718400Y-77470000D02*
X125448400Y-78740000D01*
X136372600Y-87604600D02*
X136343200Y-87634000D01*
X126718400Y-90170000D02*
X125448400Y-91440000D01*
D34*
X136725800Y-59436000D02*
X136725800Y-60431400D01*
D33*
X127226400Y-57150000D02*
X129082800Y-57150000D01*
X144407400Y-80495000D02*
X146202400Y-78700000D01*
X138103400Y-61225000D02*
X139714400Y-61225000D01*
X132306400Y-103378000D02*
X132306400Y-100814800D01*
X132203400Y-60575000D02*
X133633400Y-60575000D01*
X134592200Y-56060200D02*
X134061200Y-56591200D01*
X127988400Y-85852000D02*
X129512400Y-84328000D01*
X126718400Y-80010000D02*
X126718400Y-82550000D01*
X130810000Y-60286900D02*
X131098100Y-60575000D01*
X136804400Y-61214000D02*
X136804400Y-60510000D01*
X126718400Y-80010000D02*
X128930400Y-80010000D01*
X134300000Y-59065200D02*
X135198700Y-59065200D01*
X138426400Y-99191000D02*
X136109900Y-99191000D01*
X138602401Y-83286600D02*
X138602401Y-87406799D01*
X136481800Y-87713800D02*
X136372600Y-87604600D01*
X136118600Y-90398600D02*
X136481800Y-90035400D01*
X143044100Y-66425000D02*
X143535400Y-66916300D01*
X143535400Y-71374000D02*
X144881600Y-72720200D01*
X138602401Y-80622599D02*
X138602401Y-83286600D01*
X130810000Y-58318400D02*
X130810000Y-59052700D01*
X134061200Y-56591200D02*
X134061200Y-58826400D01*
X131216400Y-84328000D02*
X131572000Y-83972400D01*
X143329800Y-91948000D02*
X143329800Y-91315400D01*
X132306400Y-100814800D02*
X132308600Y-100812600D01*
X125448400Y-60960000D02*
X126718400Y-62230000D01*
X136804400Y-66351000D02*
X136878400Y-66425000D01*
X126718400Y-85090000D02*
X127988400Y-86360000D01*
X126718400Y-74930000D02*
X126718400Y-77470000D01*
X138103400Y-61225000D02*
X136815400Y-61225000D01*
X142468600Y-80495000D02*
X143535400Y-80495000D01*
X129540000Y-57607200D02*
X129655450Y-57607200D01*
X134061200Y-58826400D02*
X134300000Y-59065200D01*
X131704400Y-67210000D02*
X132128800Y-67210000D01*
X138103400Y-66425000D02*
X143044100Y-66425000D01*
X129082800Y-57150000D02*
X129540000Y-57607200D01*
X143535400Y-68834000D02*
X143535400Y-71374000D01*
X136118600Y-91160600D02*
X136118600Y-90398600D01*
X137022800Y-77556600D02*
X137022800Y-77325600D01*
X136118600Y-83032600D02*
X136118600Y-81000600D01*
X137022800Y-77325600D02*
X137488000Y-76860400D01*
X136398000Y-83312000D02*
X136118600Y-83032600D01*
X136481800Y-90035400D02*
X136481800Y-87713800D01*
X134592200Y-55829200D02*
X134592200Y-56060200D01*
X139217400Y-71882000D02*
X139217400Y-72598680D01*
D34*
X136725800Y-60431400D02*
X136804400Y-60510000D01*
D33*
X136478200Y-93341000D02*
X138426400Y-93341000D01*
X129391903Y-80471503D02*
X128930400Y-80010000D01*
X146202400Y-78700000D02*
X148488400Y-78700000D01*
X138074400Y-76860400D02*
X138254412Y-76860400D01*
X137022800Y-77556600D02*
X137022800Y-78206600D01*
X136109900Y-99191000D02*
X136105900Y-99187000D01*
X136804400Y-61214000D02*
X136804400Y-66351000D01*
X134398941Y-74795459D02*
X134398941Y-73015459D01*
X134823200Y-60452000D02*
X133756400Y-60452000D01*
X126718400Y-69850000D02*
X125448400Y-71120000D01*
X126718400Y-62230000D02*
X126718400Y-64770000D01*
X144326400Y-93991000D02*
X143013000Y-93991000D01*
X129514600Y-78028800D02*
X128955800Y-77470000D01*
X132203400Y-66425000D02*
X132203400Y-67284600D01*
X132203400Y-67284600D02*
X132203400Y-68474700D01*
X128955800Y-77470000D02*
X126718400Y-77470000D01*
X130200400Y-58152150D02*
X130643750Y-58152150D01*
X135198700Y-59065200D02*
X135198700Y-60076500D01*
X126718400Y-87630000D02*
X126718400Y-90170000D01*
X136118600Y-81000600D02*
X135793610Y-80675610D01*
X129655450Y-57607200D02*
X130200400Y-58152150D01*
X128558813Y-74844387D02*
X129540000Y-73863200D01*
X138602401Y-87406799D02*
X138404600Y-87604600D01*
X135198700Y-60076500D02*
X134823200Y-60452000D01*
X147218400Y-90130000D02*
X148488400Y-91400000D01*
X133530200Y-56060200D02*
X134061200Y-56591200D01*
X142083306Y-75626000D02*
X143033306Y-74676000D01*
X143033306Y-74676000D02*
X143281400Y-74676000D01*
X132740400Y-99187000D02*
X132308600Y-99618800D01*
X138404600Y-87604600D02*
X136372600Y-87604600D01*
X143329800Y-91948000D02*
X143329800Y-92585400D01*
X134592200Y-55829200D02*
X133530200Y-55829200D01*
X126718400Y-59690000D02*
X126718400Y-57658000D01*
X126718400Y-64770000D02*
X127988400Y-66040000D01*
X143535400Y-80495000D02*
X144407400Y-80495000D01*
X133633400Y-60575000D02*
X133756400Y-60452000D01*
X131544400Y-104140000D02*
X132306400Y-103378000D01*
X138656200Y-75679192D02*
X138656200Y-76200000D01*
X143329800Y-91315400D02*
X143967100Y-90678100D01*
X130810000Y-59052700D02*
X130810000Y-60286900D01*
X129391903Y-80915739D02*
X129391903Y-80471503D01*
X136343200Y-87634000D02*
X134870400Y-87634000D01*
X132203400Y-66425000D02*
X136878400Y-66425000D01*
X138182694Y-75205686D02*
X138656200Y-75679192D01*
X132203400Y-60575000D02*
X131098100Y-60575000D01*
X143013000Y-93991000D02*
X142468600Y-93446600D01*
X128558813Y-74930000D02*
X129479256Y-75850443D01*
X127988400Y-86360000D02*
X126718400Y-87630000D01*
X137488000Y-76860400D02*
X138074400Y-76860400D01*
X128930400Y-80010000D02*
X129540000Y-79400400D01*
X126718400Y-82550000D02*
X126718400Y-85090000D01*
X138656200Y-76278600D02*
X138074400Y-76860400D01*
X143329800Y-92585400D02*
X142468600Y-93446600D01*
X144881600Y-72720200D02*
X144881600Y-73708400D01*
X126718400Y-72390000D02*
X126718400Y-74930000D01*
X134870400Y-87634000D02*
X130577400Y-87634000D01*
X143535400Y-66916300D02*
X143535400Y-68834000D01*
X139217400Y-72598680D02*
X138004179Y-73811901D01*
X136878400Y-66425000D02*
X138103400Y-66425000D01*
X127988400Y-66040000D02*
X126718400Y-67310000D01*
X127988400Y-104140000D02*
X131544400Y-104140000D01*
X133530200Y-55829200D02*
X133530200Y-56060200D01*
X129512400Y-84328000D02*
X131216400Y-84328000D01*
X132740400Y-76454000D02*
X134398941Y-74795459D01*
X131038600Y-93700600D02*
X132190600Y-94852600D01*
X138182694Y-73990416D02*
X138182694Y-75205686D01*
X126718400Y-67310000D02*
X126718400Y-69850000D01*
X126718400Y-57658000D02*
X127226400Y-57150000D01*
X130643750Y-58152150D02*
X130810000Y-58318400D01*
X136815400Y-61225000D02*
X136804400Y-61214000D01*
X136355000Y-59065200D02*
X136725800Y-59436000D01*
X132128800Y-67210000D02*
X132203400Y-67284600D01*
X126718400Y-74930000D02*
X128558813Y-74930000D01*
X127988400Y-86360000D02*
X129639400Y-88011000D01*
X135198700Y-59065200D02*
X136355000Y-59065200D01*
X125448400Y-78740000D02*
X126718400Y-80010000D01*
X125448400Y-71120000D02*
X126718400Y-72390000D01*
X135793610Y-80675610D02*
X133279010Y-80675610D01*
X125448400Y-60960000D02*
X126718400Y-59690000D01*
X134966600Y-94852600D02*
X136118600Y-93700600D01*
X133279010Y-80675610D02*
X133121400Y-80518000D01*
D32*
X144225900Y-87352000D02*
X144846400Y-87352000D01*
X144846400Y-87352000D02*
X146404400Y-88910000D01*
X146404400Y-88910000D02*
X148538400Y-88910000D01*
X148538400Y-88910000D02*
X149758400Y-90130000D01*
X146480400Y-86852000D02*
X144225900Y-86852000D01*
X147218400Y-87590000D02*
X146480400Y-86852000D01*
X148520400Y-86352000D02*
X149758400Y-87590000D01*
X148520400Y-86352000D02*
X144225900Y-86352000D01*
X145704400Y-85410000D02*
X146858400Y-85410000D01*
X144225900Y-85852000D02*
X145262400Y-85852000D01*
X145262400Y-85852000D02*
X145704400Y-85410000D01*
X146434400Y-83780000D02*
X145644400Y-84570000D01*
X148488400Y-83780000D02*
X146434400Y-83780000D01*
X149758400Y-85050000D02*
X148488400Y-83780000D01*
X145644400Y-84570000D02*
X144225900Y-84570000D01*
X144225900Y-84070000D02*
X145344400Y-84070000D01*
X145344400Y-84070000D02*
X146904400Y-82510000D01*
X145044400Y-83570000D02*
X144225900Y-83570000D01*
X145804400Y-82810000D02*
X145044400Y-83570000D01*
X146524400Y-81240000D02*
X145804400Y-81960000D01*
X148488400Y-81240000D02*
X146524400Y-81240000D01*
X149758400Y-82510000D02*
X148488400Y-81240000D01*
X145804400Y-81960000D02*
X145804400Y-82810000D01*
X145529300Y-77762100D02*
X144540500Y-77762100D01*
X135003899Y-100500600D02*
X134829399Y-100675100D01*
X140273996Y-100500600D02*
X135003899Y-100500600D01*
X141495400Y-93374000D02*
X141045600Y-93823800D01*
X145861400Y-77430000D02*
X145529300Y-77762100D01*
X141045600Y-93823800D02*
X141045600Y-99728996D01*
X147218400Y-77430000D02*
X145861400Y-77430000D01*
X141045600Y-99728996D02*
X140273996Y-100500600D01*
X138103400Y-65775000D02*
X143632990Y-65775000D01*
X145866800Y-71648000D02*
X144881600Y-70662800D01*
X145866800Y-73538400D02*
X145866800Y-71648000D01*
X143632990Y-65775000D02*
X144881600Y-67023610D01*
X144881600Y-67023610D02*
X144881600Y-70662800D01*
X147218400Y-74890000D02*
X145866800Y-73538400D01*
X145354389Y-66859989D02*
X143619400Y-65125000D01*
X147218400Y-72350000D02*
X145354389Y-70485989D01*
X145354389Y-70485989D02*
X145354389Y-66859989D01*
X143619400Y-65125000D02*
X138103400Y-65125000D01*
X147218400Y-69810000D02*
X145804400Y-68396000D01*
X145804400Y-66510000D02*
X143769400Y-64475000D01*
X143769400Y-64475000D02*
X138103400Y-64475000D01*
X145804400Y-68396000D02*
X145804400Y-66510000D01*
X138973700Y-70379300D02*
X139304400Y-70710000D01*
X137820400Y-70379300D02*
X138973700Y-70379300D01*
X134288400Y-70379300D02*
X136021100Y-70379300D01*
X136021100Y-70379300D02*
X136169400Y-70231000D01*
X143495810Y-62525000D02*
X143830810Y-62190000D01*
X138103400Y-62525000D02*
X143495810Y-62525000D01*
X143830810Y-62190000D02*
X147218400Y-62190000D01*
X138103400Y-61875000D02*
X143509400Y-61875000D01*
X143509400Y-61875000D02*
X144805400Y-60579000D01*
X129477606Y-102073206D02*
X129477606Y-100439246D01*
X137661600Y-97241000D02*
X138426400Y-97241000D01*
X133909630Y-97514000D02*
X137388600Y-97514000D01*
X128640812Y-102910000D02*
X129477606Y-102073206D01*
X125448400Y-104140000D02*
X126678400Y-102910000D01*
X137388600Y-97514000D02*
X137661600Y-97241000D01*
X129477606Y-100439246D02*
X131431853Y-98484999D01*
X131431853Y-98484999D02*
X132938631Y-98484999D01*
X132938631Y-98484999D02*
X133909630Y-97514000D01*
X126678400Y-102910000D02*
X128640812Y-102910000D01*
X129073694Y-100310000D02*
X131348706Y-98034988D01*
X126738400Y-100310000D02*
X129073694Y-100310000D01*
X137426600Y-96591000D02*
X138426400Y-96591000D01*
X131348706Y-98034988D02*
X132752231Y-98034989D01*
X136880600Y-97137000D02*
X137426600Y-96591000D01*
X133650220Y-97137000D02*
X136880600Y-97137000D01*
X125448400Y-101600000D02*
X126738400Y-100310000D01*
X132752231Y-98034989D02*
X133650220Y-97137000D01*
X136445389Y-70971011D02*
X136445389Y-73214579D01*
X134829818Y-65125000D02*
X135004609Y-65299791D01*
X132203400Y-65125000D02*
X134829818Y-65125000D01*
X136754389Y-73523579D02*
X136754389Y-74952515D01*
X136855200Y-67297300D02*
X136855200Y-70561200D01*
X136440123Y-73209313D02*
X136754389Y-73523579D01*
X136855200Y-70561200D02*
X136445389Y-70971011D01*
X137130692Y-75328818D02*
X136754389Y-74952515D01*
X129473754Y-97810000D02*
X131654754Y-95629000D01*
X137249021Y-94193379D02*
X137451400Y-93991000D01*
X126698400Y-97810000D02*
X129473754Y-97810000D01*
X137451400Y-93991000D02*
X138426400Y-93991000D01*
X126698400Y-97810000D02*
X125448400Y-99060000D01*
X137249021Y-94577021D02*
X137249021Y-94193379D01*
X131654754Y-95629000D02*
X136197042Y-95629000D01*
X136197042Y-95629000D02*
X137249021Y-94577021D01*
X132614810Y-97536000D02*
X133390810Y-96760000D01*
X131211284Y-97536000D02*
X132614810Y-97536000D01*
X137543442Y-95941000D02*
X138426400Y-95941000D01*
X129687284Y-99060000D02*
X131211284Y-97536000D01*
X127988400Y-99060000D02*
X129687284Y-99060000D01*
X133390810Y-96760000D02*
X136724442Y-96760000D01*
X136724442Y-96760000D02*
X137543442Y-95941000D01*
X130274400Y-92430600D02*
X138912600Y-92430600D01*
X129514600Y-93190400D02*
X130274400Y-92430600D01*
X137784600Y-78856600D02*
X137022800Y-78856600D01*
X138035595Y-80838591D02*
X138035595Y-79107595D01*
X137304400Y-82710000D02*
X137829401Y-82184999D01*
X137829401Y-82184999D02*
X137829401Y-81044785D01*
X137829401Y-81044785D02*
X138035595Y-80838591D01*
X138035595Y-79107595D02*
X137784600Y-78856600D01*
X129514600Y-94993800D02*
X129514600Y-93190400D01*
X127988400Y-96520000D02*
X129514600Y-94993800D01*
X138681600Y-88874600D02*
X137494800Y-88874600D01*
X137755694Y-75028816D02*
X137204400Y-74477522D01*
X137231720Y-70086598D02*
X138328400Y-68989918D01*
X127480400Y-90170000D02*
X126718400Y-90932000D01*
X136895399Y-73028179D02*
X136895399Y-71170999D01*
X128727200Y-90170000D02*
X127480400Y-90170000D01*
X138328400Y-67778000D02*
X139079900Y-67026500D01*
X136895399Y-71170999D02*
X137231720Y-70834678D01*
X137231720Y-70834678D02*
X137231720Y-70086598D01*
X126718400Y-90932000D02*
X126718400Y-92710000D01*
X136956800Y-76225400D02*
X137381064Y-76225400D01*
X139079900Y-67026500D02*
X139598400Y-67026500D01*
X137381064Y-76225400D02*
X137755694Y-75850770D01*
X139830100Y-63825000D02*
X139928600Y-63923500D01*
X137494800Y-88874600D02*
X137245400Y-89124000D01*
X135864600Y-88874600D02*
X130022600Y-88874600D01*
X126718400Y-92710000D02*
X125448400Y-93980000D01*
X138103400Y-63825000D02*
X139830100Y-63825000D01*
X137204400Y-73337180D02*
X136895399Y-73028179D01*
X138328400Y-68989918D02*
X138328400Y-67778000D01*
X137755694Y-75850770D02*
X137755694Y-75028816D01*
X130022600Y-88874600D02*
X128727200Y-90170000D01*
X137204400Y-74477522D02*
X137204400Y-73337180D01*
X129258400Y-90586899D02*
X129258400Y-92710000D01*
X129258400Y-92710000D02*
X127988400Y-93980000D01*
X130183299Y-89662000D02*
X135608400Y-89662000D01*
X137055922Y-85572600D02*
X136517322Y-85034000D01*
X129258400Y-90586899D02*
X130183299Y-89662000D01*
X136517322Y-85034000D02*
X134870400Y-85034000D01*
X133430400Y-84384000D02*
X133004400Y-84810000D01*
X134870400Y-84384000D02*
X133430400Y-84384000D01*
X129904398Y-85484996D02*
X129504400Y-85884994D01*
X129504400Y-86810000D02*
X129504400Y-85884994D01*
X130504402Y-85484996D02*
X129904398Y-85484996D01*
X130703406Y-85684000D02*
X130504402Y-85484996D01*
X134870400Y-85684000D02*
X130703406Y-85684000D01*
X130716996Y-86334000D02*
X134870400Y-86334000D01*
X130179390Y-86110002D02*
X130492998Y-86110002D01*
X130492998Y-86110002D02*
X130716996Y-86334000D01*
X139534900Y-63182500D02*
X138110900Y-63182500D01*
X127988400Y-83820000D02*
X130140226Y-81668174D01*
X136304368Y-75811032D02*
X136304368Y-78427232D01*
X135135800Y-78841600D02*
X135890000Y-78841600D01*
X134693800Y-79603600D02*
X134693800Y-79283600D01*
X130140226Y-81668174D02*
X130546224Y-81668174D01*
X136304368Y-78427232D02*
X135890000Y-78841600D01*
X136304378Y-73709978D02*
X136304378Y-75811022D01*
X134693800Y-79283600D02*
X135135800Y-78841600D01*
X135812667Y-71797751D02*
X135990112Y-71975196D01*
X134338200Y-79248000D02*
X134693800Y-79603600D01*
X135990112Y-73395712D02*
X136304378Y-73709978D01*
X133096000Y-79248000D02*
X134338200Y-79248000D01*
X135990112Y-71975196D02*
X135990112Y-73395712D01*
X136304378Y-75811022D02*
X136304368Y-75811032D01*
X135129401Y-61825001D02*
X135129401Y-63410001D01*
X135342145Y-72520066D02*
X135342145Y-73384155D01*
X135129401Y-63410001D02*
X134064402Y-64475000D01*
X135342145Y-73384155D02*
X135854358Y-73896368D01*
X132203400Y-64475000D02*
X134064402Y-64475000D01*
X134518400Y-61214000D02*
X135129401Y-61825001D01*
X135854358Y-73896368D02*
X135854358Y-77662958D01*
X140405717Y-73726000D02*
X141165400Y-73726000D01*
X139979400Y-74152317D02*
X140405717Y-73726000D01*
X135183716Y-78333600D02*
X135854358Y-77662958D01*
X133096000Y-78333600D02*
X135183716Y-78333600D01*
X130810000Y-86969600D02*
X134856000Y-86969600D01*
X134870400Y-81784000D02*
X133414810Y-81784000D01*
X131775200Y-78366536D02*
X131554300Y-78145636D01*
X133414810Y-81784000D02*
X131775200Y-80144390D01*
X130513434Y-71909802D02*
X130513434Y-61939966D01*
X131228400Y-61225000D02*
X132203400Y-61225000D01*
X131554299Y-72950667D02*
X130513434Y-71909802D01*
X131775200Y-80144390D02*
X131775200Y-78740000D01*
X130513434Y-61939966D02*
X131228400Y-61225000D01*
X131554300Y-78145636D02*
X131554299Y-72950667D01*
X131775200Y-78740000D02*
X131775200Y-78366536D01*
X135229357Y-76759043D02*
X135229357Y-74510000D01*
X132740400Y-77368400D02*
X134620000Y-77368400D01*
X133414406Y-63825000D02*
X133429410Y-63809996D01*
X134620000Y-77368400D02*
X135229357Y-76759043D01*
X142265400Y-74588500D02*
X141252900Y-74588500D01*
X132203400Y-63825000D02*
X133414406Y-63825000D01*
X133741010Y-80248610D02*
X136292790Y-80248610D01*
X132179301Y-75893069D02*
X132179301Y-75468805D01*
X132470999Y-78425925D02*
X132043894Y-77998820D01*
X132043894Y-77998820D02*
X132043894Y-76028476D01*
X133375400Y-79883000D02*
X132805998Y-79883000D01*
X138426400Y-98541000D02*
X139914200Y-98541000D01*
X139914200Y-98541000D02*
X139928600Y-98526600D01*
X132043894Y-76028476D02*
X132179301Y-75893069D01*
X137204400Y-81153000D02*
X136296400Y-80245000D01*
X136292790Y-80248610D02*
X136296400Y-80245000D01*
X132805998Y-79883000D02*
X132470999Y-79548001D01*
X133741010Y-80248610D02*
X133375400Y-79883000D01*
X132470999Y-79548001D02*
X132470999Y-78425925D01*
X134312570Y-97891000D02*
X138426400Y-97891000D01*
X133767485Y-98436085D02*
X134312570Y-97891000D01*
X131179368Y-71185736D02*
X131179368Y-71610000D01*
X130963444Y-62139956D02*
X130963444Y-70969812D01*
X132203400Y-61875000D02*
X131228400Y-61875000D01*
X131228400Y-61875000D02*
X130963444Y-62139956D01*
X130963444Y-70969812D02*
X131179368Y-71185736D01*
X133182200Y-96383000D02*
X136568284Y-96383000D01*
X137660284Y-95291000D02*
X138426400Y-95291000D01*
X136568284Y-96383000D02*
X137660284Y-95291000D01*
X132580700Y-96984500D02*
X133182200Y-96383000D01*
X132308600Y-96984500D02*
X132580700Y-96984500D01*
X136353200Y-96006000D02*
X132058400Y-96006000D01*
X138426400Y-94641000D02*
X137718200Y-94641000D01*
X132058400Y-96006000D02*
X131798400Y-96266000D01*
X137718200Y-94641000D02*
X136353200Y-96006000D01*
X133382989Y-83725000D02*
X130204268Y-80546279D01*
X130200400Y-73660000D02*
X129163401Y-72469002D01*
X130204268Y-73663868D02*
X130200400Y-73660000D01*
X134870400Y-83725000D02*
X133382989Y-83725000D01*
X129163401Y-64675001D02*
X127988400Y-63500000D01*
X130204268Y-80546279D02*
X130204268Y-73663868D01*
X129163401Y-72469002D02*
X129163401Y-64675001D01*
X130654278Y-73323468D02*
X130654278Y-80359877D01*
X129613412Y-62585012D02*
X127988400Y-60960000D01*
X134870400Y-83084000D02*
X133378400Y-83084000D01*
X129613412Y-72282602D02*
X129613412Y-62585012D01*
X129613412Y-72282602D02*
X130654278Y-73323468D01*
X133378400Y-83084000D02*
X130654277Y-80359877D01*
X131104288Y-73137066D02*
X130063423Y-72096202D01*
X130063423Y-72096202D02*
X130063423Y-62398612D01*
X130063423Y-62398612D02*
X129541400Y-61876589D01*
X129541400Y-59973000D02*
X127988400Y-58420000D01*
X133428400Y-82434000D02*
X131104288Y-80109888D01*
X129541400Y-61876589D02*
X129541400Y-59973000D01*
X131104288Y-80109888D02*
X131104288Y-73137066D01*
X134870400Y-82434000D02*
X133428400Y-82434000D01*
X145354389Y-82441511D02*
X144725900Y-83070000D01*
X147144400Y-79970000D02*
X145354389Y-81760011D01*
X145354389Y-81760011D02*
X145354389Y-82441511D01*
X144725900Y-83070000D02*
X144225900Y-83070000D01*
D34*
X132552400Y-72390000D02*
X132232400Y-72390000D01*
X131295000Y-55907800D02*
X132029200Y-56642000D01*
X140995400Y-68834000D02*
X140995400Y-71374000D01*
X136042400Y-68783200D02*
X135539000Y-69286600D01*
X131295000Y-55829200D02*
X131295000Y-55907800D01*
X135539000Y-69286600D02*
X134086600Y-69286600D01*
X134086600Y-69286600D02*
X133324600Y-70048600D01*
X133324600Y-70048600D02*
X133324600Y-71617800D01*
X133324600Y-71617800D02*
X132552400Y-72390000D01*
D33*
X136435410Y-58175610D02*
X136435410Y-55440268D01*
D34*
X138015900Y-60575000D02*
X138015900Y-59756100D01*
X147961600Y-76178800D02*
X145228400Y-76178800D01*
X145038500Y-59756100D02*
X146202400Y-60920000D01*
X139651600Y-88874600D02*
X141452600Y-88874600D01*
X139304401Y-82344314D02*
X139304401Y-88207402D01*
X138015900Y-59756100D02*
X145038500Y-59756100D01*
X145228400Y-76178800D02*
X145228400Y-75025200D01*
X148488400Y-61428000D02*
X148488400Y-75652000D01*
X147980400Y-60920000D02*
X148488400Y-61428000D01*
X144299800Y-91948000D02*
X144299800Y-93314400D01*
X144953200Y-91948000D02*
X144299800Y-91948000D01*
X139677000Y-78908046D02*
X140589000Y-77996046D01*
X146202400Y-60920000D02*
X147980400Y-60920000D01*
X145228400Y-76178800D02*
X144978600Y-76428600D01*
X139304401Y-81210599D02*
X139304401Y-82344314D01*
X139677000Y-80838000D02*
X139304401Y-81210599D01*
D33*
X129082800Y-55880000D02*
X127988400Y-55880000D01*
X136129332Y-55134190D02*
X129828610Y-55134190D01*
D34*
X138015900Y-59756100D02*
X137695800Y-59436000D01*
X141053946Y-76428600D02*
X140589000Y-76893546D01*
X144978600Y-76428600D02*
X141053946Y-76428600D01*
X140589000Y-77996046D02*
X140589000Y-76893546D01*
D33*
X137695800Y-59436000D02*
X136435410Y-58175610D01*
D34*
X141452600Y-88874600D02*
X141452600Y-88554600D01*
X139677000Y-78908046D02*
X139677000Y-80518000D01*
X136804193Y-79603600D02*
X137310593Y-80110000D01*
X139304401Y-88207402D02*
X139651600Y-88554601D01*
X145352600Y-88637582D02*
X145352600Y-91548600D01*
X140682900Y-81523900D02*
X139677000Y-80518000D01*
X144561601Y-74678400D02*
X144881600Y-74678400D01*
X144892618Y-88177600D02*
X145352600Y-88637582D01*
X139677000Y-80518000D02*
X139677000Y-80838000D01*
X140682900Y-81784000D02*
X140682900Y-81523900D01*
X148488400Y-75652000D02*
X147961600Y-76178800D01*
X145228400Y-75025200D02*
X144881600Y-74678400D01*
X135663800Y-79603600D02*
X136804193Y-79603600D01*
X141829600Y-88177600D02*
X144892618Y-88177600D01*
D33*
X136435410Y-55440268D02*
X136129332Y-55134190D01*
D34*
X139651600Y-88554601D02*
X139651600Y-88874600D01*
D33*
X129828610Y-55134190D02*
X129082800Y-55880000D01*
D34*
X143609201Y-73726000D02*
X144561601Y-74678400D01*
X145352600Y-91548600D02*
X144953200Y-91948000D01*
X141452600Y-88554600D02*
X141829600Y-88177600D01*
D32*
X133033100Y-100050600D02*
X140087600Y-100050600D01*
X140087600Y-100050600D02*
X140595600Y-99542600D01*
X140595600Y-93374000D02*
X140595600Y-99542600D01*
X132203400Y-62525000D02*
X133461400Y-62525000D01*
X134302500Y-67297300D02*
X134302500Y-68265200D01*
X134339400Y-63175000D02*
X134504400Y-63010000D01*
X137820400Y-67335400D02*
X137820400Y-68279300D01*
X132203400Y-63175000D02*
X134339400Y-63175000D01*
X143225900Y-83070000D02*
X140775400Y-83070000D01*
X142100580Y-83725000D02*
X142255580Y-83570000D01*
X140770400Y-83725000D02*
X142100580Y-83725000D01*
X142255580Y-83570000D02*
X143225900Y-83570000D01*
X142086990Y-84375000D02*
X142391990Y-84070000D01*
X140770400Y-84375000D02*
X142086990Y-84375000D01*
X142391990Y-84070000D02*
X143225900Y-84070000D01*
X142528400Y-84570000D02*
X143225900Y-84570000D01*
X142073400Y-85025000D02*
X142528400Y-84570000D01*
X140770400Y-85025000D02*
X142073400Y-85025000D01*
X141961400Y-85675000D02*
X142138400Y-85852000D01*
X142138400Y-85852000D02*
X143225900Y-85852000D01*
X140770400Y-85675000D02*
X141961400Y-85675000D01*
X143225900Y-86352000D02*
X140797400Y-86352000D01*
X140770400Y-86975000D02*
X142031400Y-86975000D01*
X142031400Y-86975000D02*
X142154400Y-86852000D01*
X142154400Y-86852000D02*
X143225900Y-86852000D01*
X140770400Y-87625000D02*
X142133400Y-87625000D01*
X142133400Y-87625000D02*
X142406400Y-87352000D01*
X142406400Y-87352000D02*
X143225900Y-87352000D01*
D34*
X135562200Y-55829200D02*
X135562200Y-56801700D01*
X142222400Y-70310400D02*
X142222400Y-72380160D01*
X142227300Y-67297300D02*
X142227300Y-70289900D01*
X138922800Y-78206600D02*
X139330960Y-78206600D01*
X135562200Y-56801700D02*
X135198700Y-57165200D01*
X135198700Y-57754100D02*
X135509000Y-58064400D01*
X139626200Y-76200000D02*
X139626200Y-75334200D01*
X139166600Y-73604600D02*
X139166600Y-74874600D01*
X141759960Y-72842600D02*
X139928600Y-72842600D01*
X142227300Y-70289900D02*
X142214600Y-70302600D01*
X139928600Y-72842600D02*
X139166600Y-73604600D01*
X142222400Y-72380160D02*
X141759960Y-72842600D01*
X135198700Y-57165200D02*
X135198700Y-57754100D01*
X142214600Y-70302600D02*
X142222400Y-70310400D01*
X139626200Y-75334200D02*
X139166600Y-74874600D01*
X139626200Y-76200000D02*
X139626200Y-77911360D01*
X139626200Y-77911360D02*
X139330960Y-78206600D01*
D32*
X144551400Y-75692000D02*
X143431400Y-75692000D01*
X140770400Y-82434000D02*
X142051200Y-82434000D01*
X142051200Y-82434000D02*
X142468600Y-82016600D01*
D34*
X131747500Y-58115200D02*
X132923700Y-58115200D01*
X130810000Y-57177700D02*
X130325000Y-56692700D01*
X132857200Y-56126200D02*
X132560200Y-55829200D01*
X132923700Y-58115200D02*
X132857200Y-58048700D01*
X132857200Y-58048700D02*
X132857200Y-56126200D01*
X130810000Y-57177700D02*
X131747500Y-58115200D01*
X130325000Y-56692700D02*
X130325000Y-55829200D01*
D32*
X141376400Y-80495000D02*
X140868400Y-80495000D01*
X140426600Y-79375000D02*
X140426600Y-80053200D01*
X140426600Y-80053200D02*
X140868400Y-80495000D01*
X138904400Y-79510000D02*
X138904400Y-78875000D01*
X142468600Y-79525000D02*
X143535400Y-79525000D01*
X141376400Y-79222600D02*
X141652800Y-78946200D01*
X141652800Y-78946200D02*
X141652800Y-77774800D01*
X141376400Y-79525000D02*
X142468600Y-79525000D01*
X143738600Y-89128600D02*
X144475100Y-89128600D01*
X143484600Y-88874600D02*
X143738600Y-89128600D01*
X143484600Y-88874600D02*
X142422600Y-88874600D01*
X132232400Y-71420000D02*
X132232400Y-70129500D01*
G04 #@! TA.AperFunction,Conductor*
G36*
X138142988Y-89262883D02*
G01*
X138173458Y-89269512D01*
X138178554Y-89273326D01*
X138181194Y-89274102D01*
X138202168Y-89291004D01*
X138202559Y-89291395D01*
X138202560Y-89291396D01*
X138289804Y-89378640D01*
X138399738Y-89434654D01*
X138490947Y-89449100D01*
X138822252Y-89449099D01*
X138913462Y-89434654D01*
X139023396Y-89378640D01*
X139077505Y-89324531D01*
X139139817Y-89290505D01*
X139210632Y-89295570D01*
X139255695Y-89324531D01*
X139309804Y-89378640D01*
X139419738Y-89434654D01*
X139510947Y-89449100D01*
X139842252Y-89449099D01*
X139933462Y-89434654D01*
X140015540Y-89392832D01*
X140072743Y-89379100D01*
X141031457Y-89379100D01*
X141088659Y-89392832D01*
X141170738Y-89434654D01*
X141261947Y-89449100D01*
X141593252Y-89449099D01*
X141684462Y-89434654D01*
X141794396Y-89378640D01*
X141848505Y-89324531D01*
X141910817Y-89290505D01*
X141981632Y-89295570D01*
X142026695Y-89324531D01*
X142080804Y-89378640D01*
X142190738Y-89434654D01*
X142281947Y-89449100D01*
X142613252Y-89449099D01*
X142704462Y-89434654D01*
X142814396Y-89378640D01*
X142901640Y-89291396D01*
X142901640Y-89291395D01*
X142902032Y-89291004D01*
X142964344Y-89256979D01*
X142991127Y-89254100D01*
X143275216Y-89254100D01*
X143305131Y-89262883D01*
X143335601Y-89269512D01*
X143340696Y-89273326D01*
X143343337Y-89274102D01*
X143364310Y-89291004D01*
X143430513Y-89357207D01*
X143430534Y-89357230D01*
X143505574Y-89432270D01*
X143505581Y-89432276D01*
X143561345Y-89464471D01*
X143561346Y-89464472D01*
X143592112Y-89482235D01*
X143592114Y-89482236D01*
X143592118Y-89482238D01*
X143592121Y-89482238D01*
X143592124Y-89482240D01*
X143688634Y-89508100D01*
X143688638Y-89508101D01*
X143729542Y-89508101D01*
X143733995Y-89509408D01*
X143738532Y-89508422D01*
X143767743Y-89519317D01*
X143797663Y-89528103D01*
X143801918Y-89532065D01*
X143805052Y-89533234D01*
X143830409Y-89558591D01*
X143841842Y-89573863D01*
X143902552Y-89654964D01*
X143927362Y-89721484D01*
X143912270Y-89790858D01*
X143867831Y-89837712D01*
X143790527Y-89885393D01*
X143790519Y-89885400D01*
X143670400Y-90005519D01*
X143670395Y-90005525D01*
X143581207Y-90150120D01*
X143527769Y-90311389D01*
X143527768Y-90311393D01*
X143517600Y-90410918D01*
X143517600Y-90424100D01*
X144374600Y-90424100D01*
X144442721Y-90444102D01*
X144489214Y-90497758D01*
X144500600Y-90550100D01*
X144500600Y-90806100D01*
X144480598Y-90874221D01*
X144426942Y-90920714D01*
X144374600Y-90932100D01*
X143517601Y-90932100D01*
X143517601Y-90945272D01*
X143522987Y-90998000D01*
X143547247Y-91019908D01*
X143584398Y-91080408D01*
X143588800Y-91113421D01*
X143588800Y-92775800D01*
X143568798Y-92843921D01*
X143515142Y-92890414D01*
X143500000Y-92896183D01*
X143498851Y-92896537D01*
X143392560Y-92948500D01*
X143392558Y-92948501D01*
X143308901Y-93032158D01*
X143308900Y-93032160D01*
X143256940Y-93138447D01*
X143256939Y-93138449D01*
X143246900Y-93207352D01*
X143246900Y-93334514D01*
X143226898Y-93402635D01*
X143197607Y-93434474D01*
X143167770Y-93457370D01*
X143167765Y-93457374D01*
X143070317Y-93584370D01*
X143070312Y-93584378D01*
X143009049Y-93732281D01*
X143001319Y-93790999D01*
X143001319Y-93791000D01*
X143527735Y-93791000D01*
X143536560Y-93793591D01*
X143545667Y-93792282D01*
X143567754Y-93795500D01*
X144112900Y-93795500D01*
X144121725Y-93798091D01*
X144130832Y-93796782D01*
X144155257Y-93807937D01*
X144181021Y-93815502D01*
X144187045Y-93822455D01*
X144195412Y-93826276D01*
X144209926Y-93848861D01*
X144227514Y-93869158D01*
X144229838Y-93879844D01*
X144233796Y-93886002D01*
X144238900Y-93921500D01*
X144238900Y-94060500D01*
X144218898Y-94128621D01*
X144165242Y-94175114D01*
X144112900Y-94186500D01*
X143567750Y-94186500D01*
X143545900Y-94189684D01*
X143527735Y-94191000D01*
X143391779Y-94191000D01*
X143328779Y-94174119D01*
X143241433Y-94123689D01*
X143214834Y-94116562D01*
X143100401Y-94085900D01*
X142954399Y-94085900D01*
X142881250Y-94105500D01*
X142813366Y-94123689D01*
X142686932Y-94196686D01*
X142686922Y-94196694D01*
X142583694Y-94299922D01*
X142583686Y-94299932D01*
X142510689Y-94426366D01*
X142507451Y-94438450D01*
X142472900Y-94567399D01*
X142472900Y-94713401D01*
X142499312Y-94811972D01*
X142510689Y-94854433D01*
X142583686Y-94980867D01*
X142583694Y-94980877D01*
X142686922Y-95084105D01*
X142686927Y-95084109D01*
X142686929Y-95084111D01*
X142686930Y-95084112D01*
X142686932Y-95084113D01*
X142813366Y-95157110D01*
X142813368Y-95157110D01*
X142813371Y-95157112D01*
X142954399Y-95194900D01*
X142954401Y-95194900D01*
X143100402Y-95194900D01*
X143104449Y-95194367D01*
X143107868Y-95194900D01*
X143108659Y-95194900D01*
X143108659Y-95195023D01*
X143174598Y-95205303D01*
X143227699Y-95252430D01*
X143246900Y-95319288D01*
X143246900Y-95424647D01*
X143256939Y-95493550D01*
X143256940Y-95493555D01*
X143289747Y-95560662D01*
X143301696Y-95630645D01*
X143289747Y-95671338D01*
X143256940Y-95738444D01*
X143256939Y-95738449D01*
X143246900Y-95807352D01*
X143246900Y-96074647D01*
X143256939Y-96143550D01*
X143256940Y-96143555D01*
X143289747Y-96210662D01*
X143301696Y-96280645D01*
X143289747Y-96321338D01*
X143256940Y-96388444D01*
X143256939Y-96388449D01*
X143246900Y-96457352D01*
X143246900Y-96724647D01*
X143256939Y-96793550D01*
X143256940Y-96793555D01*
X143289747Y-96860662D01*
X143301696Y-96930645D01*
X143289747Y-96971338D01*
X143256940Y-97038444D01*
X143256939Y-97038449D01*
X143246900Y-97107352D01*
X143246900Y-97374647D01*
X143256939Y-97443550D01*
X143256940Y-97443555D01*
X143289747Y-97510662D01*
X143301696Y-97580645D01*
X143289747Y-97621338D01*
X143256940Y-97688444D01*
X143256939Y-97688449D01*
X143246900Y-97757352D01*
X143246900Y-98024647D01*
X143256939Y-98093550D01*
X143256940Y-98093555D01*
X143289747Y-98160662D01*
X143301696Y-98230645D01*
X143289747Y-98271338D01*
X143256940Y-98338444D01*
X143256939Y-98338449D01*
X143246900Y-98407352D01*
X143246900Y-98674647D01*
X143256939Y-98743550D01*
X143256940Y-98743555D01*
X143289747Y-98810662D01*
X143301696Y-98880645D01*
X143289747Y-98921338D01*
X143256940Y-98988444D01*
X143256939Y-98988449D01*
X143246900Y-99057352D01*
X143246900Y-99324647D01*
X143256939Y-99393550D01*
X143256940Y-99393552D01*
X143308900Y-99499839D01*
X143308901Y-99499841D01*
X143392558Y-99583498D01*
X143392560Y-99583499D01*
X143498850Y-99635461D01*
X143567754Y-99645500D01*
X144751016Y-99645500D01*
X144819137Y-99665502D01*
X144840111Y-99682405D01*
X145676313Y-100518607D01*
X145676334Y-100518630D01*
X145751374Y-100593670D01*
X145751379Y-100593674D01*
X145751381Y-100593676D01*
X145751382Y-100593677D01*
X145751384Y-100593678D01*
X145765968Y-100602098D01*
X145837918Y-100643638D01*
X145851921Y-100647390D01*
X145934438Y-100669501D01*
X146034362Y-100669501D01*
X146034366Y-100669500D01*
X146094943Y-100669500D01*
X146163064Y-100689502D01*
X146207209Y-100738296D01*
X146272484Y-100866406D01*
X146273749Y-100868887D01*
X146375936Y-101009535D01*
X146450806Y-101084405D01*
X146484832Y-101146717D01*
X146479767Y-101217532D01*
X146437220Y-101274368D01*
X146370700Y-101299179D01*
X146361711Y-101299500D01*
X137486767Y-101299500D01*
X137369619Y-101322802D01*
X137330569Y-101330570D01*
X137183432Y-101391517D01*
X137051009Y-101479998D01*
X137051003Y-101480003D01*
X136938403Y-101592603D01*
X136938398Y-101592609D01*
X136875381Y-101686922D01*
X136849917Y-101725032D01*
X136802105Y-101840460D01*
X136788971Y-101872167D01*
X136788970Y-101872170D01*
X136757900Y-102028367D01*
X136757900Y-104892081D01*
X136756348Y-104911795D01*
X136750864Y-104946413D01*
X136738683Y-104983901D01*
X136727329Y-105006185D01*
X136704157Y-105038078D01*
X136686478Y-105055757D01*
X136654585Y-105078929D01*
X136632301Y-105090283D01*
X136594813Y-105102464D01*
X136560195Y-105107948D01*
X136540481Y-105109500D01*
X129209886Y-105109500D01*
X129141765Y-105089498D01*
X129095272Y-105035842D01*
X129085168Y-104965568D01*
X129107950Y-104909439D01*
X129149863Y-104851750D01*
X129246906Y-104661292D01*
X129246909Y-104661286D01*
X129312959Y-104458004D01*
X129323098Y-104394000D01*
X128419103Y-104394000D01*
X128454325Y-104332993D01*
X128488400Y-104205826D01*
X128488400Y-104074174D01*
X128454325Y-103947007D01*
X128419103Y-103886000D01*
X129323097Y-103886000D01*
X129312959Y-103821995D01*
X129246909Y-103618713D01*
X129246906Y-103618707D01*
X129149863Y-103428249D01*
X129024222Y-103255320D01*
X129017298Y-103248396D01*
X128983272Y-103186084D01*
X128988337Y-103115269D01*
X129017296Y-103070208D01*
X129700248Y-102387256D01*
X129700258Y-102387249D01*
X129781276Y-102306231D01*
X129781282Y-102306225D01*
X129831244Y-102219688D01*
X129857106Y-102123168D01*
X129857106Y-100648630D01*
X129877108Y-100580509D01*
X129894011Y-100559535D01*
X131552142Y-98901404D01*
X131614454Y-98867378D01*
X131641237Y-98864499D01*
X132888665Y-98864499D01*
X132888669Y-98864500D01*
X132988593Y-98864500D01*
X133064715Y-98844102D01*
X133085113Y-98838637D01*
X133171650Y-98788675D01*
X133171654Y-98788670D01*
X133176917Y-98784633D01*
X133243137Y-98759032D01*
X133312686Y-98773296D01*
X133342717Y-98795500D01*
X133427007Y-98879790D01*
X133427012Y-98879794D01*
X133427014Y-98879796D01*
X133427015Y-98879797D01*
X133427017Y-98879798D01*
X133553451Y-98952795D01*
X133553453Y-98952795D01*
X133553456Y-98952797D01*
X133694484Y-98990585D01*
X133694486Y-98990585D01*
X133840484Y-98990585D01*
X133840486Y-98990585D01*
X133981514Y-98952797D01*
X133981517Y-98952795D01*
X133981518Y-98952795D01*
X134044735Y-98916296D01*
X134107956Y-98879796D01*
X134211196Y-98776556D01*
X134266654Y-98680500D01*
X134284195Y-98650118D01*
X134284195Y-98650117D01*
X134284197Y-98650114D01*
X134321985Y-98509086D01*
X134321985Y-98470469D01*
X134330768Y-98440553D01*
X134337397Y-98410084D01*
X134341211Y-98404988D01*
X134341987Y-98402348D01*
X134358890Y-98381374D01*
X134432859Y-98307405D01*
X134495171Y-98273379D01*
X134521954Y-98270500D01*
X137396356Y-98270500D01*
X137464477Y-98290502D01*
X137510970Y-98344158D01*
X137521522Y-98402795D01*
X137521900Y-98402795D01*
X137521900Y-98404897D01*
X137522027Y-98405603D01*
X137521900Y-98407356D01*
X137521900Y-98534514D01*
X137501898Y-98602635D01*
X137472607Y-98634474D01*
X137442770Y-98657370D01*
X137442765Y-98657374D01*
X137345317Y-98784370D01*
X137345312Y-98784378D01*
X137284049Y-98932281D01*
X137276319Y-98990999D01*
X137276319Y-98991000D01*
X137802735Y-98991000D01*
X137820900Y-98992316D01*
X137842754Y-98995500D01*
X137842760Y-98995500D01*
X139185040Y-98995500D01*
X139185046Y-98995500D01*
X139206900Y-98992316D01*
X139225065Y-98991000D01*
X139590203Y-98991000D01*
X139653201Y-99007880D01*
X139714571Y-99043312D01*
X139855599Y-99081100D01*
X139855601Y-99081100D01*
X140001600Y-99081100D01*
X140001601Y-99081100D01*
X140057488Y-99066125D01*
X140082880Y-99066729D01*
X140108032Y-99063113D01*
X140117767Y-99067559D01*
X140128465Y-99067814D01*
X140149505Y-99082054D01*
X140172612Y-99092607D01*
X140178396Y-99101607D01*
X140187261Y-99107607D01*
X140197263Y-99130964D01*
X140210996Y-99152333D01*
X140213312Y-99168442D01*
X140215209Y-99172872D01*
X140216100Y-99187831D01*
X140216100Y-99333216D01*
X140196098Y-99401337D01*
X140179195Y-99422311D01*
X139967311Y-99634195D01*
X139904999Y-99668221D01*
X139878216Y-99671100D01*
X139840624Y-99671100D01*
X139772503Y-99651098D01*
X139726010Y-99597442D01*
X139715906Y-99527168D01*
X139724215Y-99496883D01*
X139743749Y-99449721D01*
X139743750Y-99449718D01*
X139751481Y-99391000D01*
X137276320Y-99391000D01*
X137284049Y-99449718D01*
X137284051Y-99449722D01*
X137303585Y-99496883D01*
X137311174Y-99567473D01*
X137279394Y-99630960D01*
X137218335Y-99667186D01*
X137187176Y-99671100D01*
X133489973Y-99671100D01*
X133421852Y-99651098D01*
X133400878Y-99634195D01*
X133373577Y-99606894D01*
X133373567Y-99606886D01*
X133247133Y-99533889D01*
X133205348Y-99522693D01*
X133106101Y-99496100D01*
X132960099Y-99496100D01*
X132907350Y-99510234D01*
X132819066Y-99533889D01*
X132692632Y-99606886D01*
X132692622Y-99606894D01*
X132589394Y-99710122D01*
X132589386Y-99710132D01*
X132516389Y-99836566D01*
X132508496Y-99866023D01*
X132478600Y-99977599D01*
X132478600Y-100123601D01*
X132511924Y-100247972D01*
X132516389Y-100264633D01*
X132589386Y-100391067D01*
X132589394Y-100391077D01*
X132692622Y-100494305D01*
X132692627Y-100494309D01*
X132692629Y-100494311D01*
X132692630Y-100494312D01*
X132692632Y-100494313D01*
X132819066Y-100567310D01*
X132819068Y-100567310D01*
X132819071Y-100567312D01*
X132960099Y-100605100D01*
X132960101Y-100605100D01*
X133106099Y-100605100D01*
X133106101Y-100605100D01*
X133247129Y-100567312D01*
X133247132Y-100567310D01*
X133247133Y-100567310D01*
X133357208Y-100503758D01*
X133373571Y-100494311D01*
X133373577Y-100494305D01*
X133400878Y-100467005D01*
X133463190Y-100432979D01*
X133489973Y-100430100D01*
X134156780Y-100430100D01*
X134224901Y-100450102D01*
X134271394Y-100503758D01*
X134281498Y-100574032D01*
X134278486Y-100588713D01*
X134276091Y-100597652D01*
X134274899Y-100602099D01*
X134274899Y-100748101D01*
X134294196Y-100820119D01*
X134312688Y-100889133D01*
X134385685Y-101015567D01*
X134385693Y-101015577D01*
X134488921Y-101118805D01*
X134488926Y-101118809D01*
X134488928Y-101118811D01*
X134488929Y-101118812D01*
X134488931Y-101118813D01*
X134615365Y-101191810D01*
X134615367Y-101191810D01*
X134615370Y-101191812D01*
X134756398Y-101229600D01*
X134756400Y-101229600D01*
X134902398Y-101229600D01*
X134902400Y-101229600D01*
X135043428Y-101191812D01*
X135043431Y-101191810D01*
X135043432Y-101191810D01*
X135146220Y-101132465D01*
X135169870Y-101118811D01*
X135273110Y-101015571D01*
X135314951Y-100943100D01*
X135366333Y-100894107D01*
X135424070Y-100880100D01*
X140224030Y-100880100D01*
X140224034Y-100880101D01*
X140323958Y-100880101D01*
X140400080Y-100859703D01*
X140420478Y-100854238D01*
X140507015Y-100804276D01*
X140577672Y-100733619D01*
X140588039Y-100723252D01*
X140588046Y-100723242D01*
X141268242Y-100043046D01*
X141268252Y-100043039D01*
X141349270Y-99962021D01*
X141349276Y-99962015D01*
X141399238Y-99875478D01*
X141409663Y-99836571D01*
X141425101Y-99778958D01*
X141425101Y-99679034D01*
X141425100Y-99679030D01*
X141425100Y-94054500D01*
X141445102Y-93986379D01*
X141498758Y-93939886D01*
X141551100Y-93928500D01*
X141568399Y-93928500D01*
X141568401Y-93928500D01*
X141709429Y-93890712D01*
X141709432Y-93890710D01*
X141709433Y-93890710D01*
X141813075Y-93830872D01*
X141835871Y-93817711D01*
X141939111Y-93714471D01*
X141989646Y-93626942D01*
X142012110Y-93588033D01*
X142012110Y-93588032D01*
X142012112Y-93588029D01*
X142049900Y-93447001D01*
X142049900Y-93300999D01*
X142012112Y-93159971D01*
X142012110Y-93159968D01*
X142012110Y-93159966D01*
X141939113Y-93033532D01*
X141939105Y-93033522D01*
X141835877Y-92930294D01*
X141835867Y-92930286D01*
X141709433Y-92857289D01*
X141659542Y-92843921D01*
X141568401Y-92819500D01*
X141422399Y-92819500D01*
X141341368Y-92841212D01*
X141281366Y-92857289D01*
X141154932Y-92930286D01*
X141154922Y-92930294D01*
X141134595Y-92950622D01*
X141072283Y-92984648D01*
X141001468Y-92979583D01*
X140956405Y-92950622D01*
X140936077Y-92930294D01*
X140936067Y-92930286D01*
X140809633Y-92857289D01*
X140759742Y-92843921D01*
X140668601Y-92819500D01*
X140522599Y-92819500D01*
X140441568Y-92841212D01*
X140381566Y-92857289D01*
X140255132Y-92930286D01*
X140255122Y-92930294D01*
X140151894Y-93033522D01*
X140151886Y-93033532D01*
X140078889Y-93159966D01*
X140066481Y-93206274D01*
X140041100Y-93300999D01*
X140041100Y-93447001D01*
X140070791Y-93557811D01*
X140078889Y-93588033D01*
X140151886Y-93714467D01*
X140151888Y-93714470D01*
X140151889Y-93714471D01*
X140179195Y-93741777D01*
X140213220Y-93804087D01*
X140216100Y-93830872D01*
X140216100Y-97865368D01*
X140196098Y-97933489D01*
X140142442Y-97979982D01*
X140072168Y-97990086D01*
X140057490Y-97987075D01*
X140001601Y-97972100D01*
X139855599Y-97972100D01*
X139731227Y-98005424D01*
X139714567Y-98009889D01*
X139694899Y-98021245D01*
X139625904Y-98037982D01*
X139558812Y-98014761D01*
X139514925Y-97958954D01*
X139505900Y-97912125D01*
X139505900Y-97757360D01*
X139505900Y-97757354D01*
X139495861Y-97688450D01*
X139463051Y-97621337D01*
X139451103Y-97551356D01*
X139463050Y-97510664D01*
X139495861Y-97443550D01*
X139505900Y-97374646D01*
X139505900Y-97107354D01*
X139495861Y-97038450D01*
X139463051Y-96971337D01*
X139451103Y-96901356D01*
X139463050Y-96860664D01*
X139495861Y-96793550D01*
X139505900Y-96724646D01*
X139505900Y-96457354D01*
X139495861Y-96388450D01*
X139463051Y-96321337D01*
X139451103Y-96251356D01*
X139463050Y-96210664D01*
X139495861Y-96143550D01*
X139505900Y-96074646D01*
X139505900Y-95807354D01*
X139495861Y-95738450D01*
X139463051Y-95671337D01*
X139451103Y-95601356D01*
X139463050Y-95560664D01*
X139495861Y-95493550D01*
X139505900Y-95424646D01*
X139505900Y-95157354D01*
X139495861Y-95088450D01*
X139463051Y-95021337D01*
X139451103Y-94951356D01*
X139463050Y-94910664D01*
X139495861Y-94843550D01*
X139505900Y-94774646D01*
X139505900Y-94507354D01*
X139495861Y-94438450D01*
X139463051Y-94371337D01*
X139451103Y-94301356D01*
X139463050Y-94260664D01*
X139495861Y-94193550D01*
X139505900Y-94124646D01*
X139505900Y-93997484D01*
X139525902Y-93929363D01*
X139555198Y-93897520D01*
X139585031Y-93874628D01*
X139682482Y-93747629D01*
X139682487Y-93747621D01*
X139743750Y-93599718D01*
X139751481Y-93541000D01*
X139225065Y-93541000D01*
X139206900Y-93539684D01*
X139185049Y-93536500D01*
X139185046Y-93536500D01*
X138639900Y-93536500D01*
X138631074Y-93533908D01*
X138621968Y-93535218D01*
X138597542Y-93524062D01*
X138571779Y-93516498D01*
X138565754Y-93509544D01*
X138557388Y-93505724D01*
X138542873Y-93483138D01*
X138525286Y-93462842D01*
X138522961Y-93452155D01*
X138519004Y-93445998D01*
X138513900Y-93410500D01*
X138513900Y-93267000D01*
X138533902Y-93198879D01*
X138587558Y-93152386D01*
X138639900Y-93141000D01*
X139751479Y-93141000D01*
X139743750Y-93082281D01*
X139743749Y-93082280D01*
X139682487Y-92934378D01*
X139682482Y-92934370D01*
X139585031Y-92807371D01*
X139486490Y-92731756D01*
X139444623Y-92674417D01*
X139440402Y-92603546D01*
X139441470Y-92599254D01*
X139467100Y-92503601D01*
X139467100Y-92357599D01*
X139429312Y-92216571D01*
X139429310Y-92216568D01*
X139429310Y-92216566D01*
X139420900Y-92202000D01*
X142548261Y-92202000D01*
X142549690Y-92220173D01*
X142595370Y-92377400D01*
X142678708Y-92518318D01*
X142678714Y-92518325D01*
X142794474Y-92634085D01*
X142794481Y-92634091D01*
X142935398Y-92717429D01*
X143080800Y-92759672D01*
X143080800Y-92202000D01*
X142548261Y-92202000D01*
X139420900Y-92202000D01*
X139356313Y-92090132D01*
X139356305Y-92090122D01*
X139253077Y-91986894D01*
X139253067Y-91986886D01*
X139126633Y-91913889D01*
X139096910Y-91905925D01*
X138985601Y-91876100D01*
X138839599Y-91876100D01*
X138757758Y-91898029D01*
X138698566Y-91913889D01*
X138572132Y-91986886D01*
X138572122Y-91986894D01*
X138544822Y-92014195D01*
X138482510Y-92048221D01*
X138455727Y-92051100D01*
X137602600Y-92051100D01*
X137593774Y-92048508D01*
X137584668Y-92049818D01*
X137560242Y-92038662D01*
X137534479Y-92031098D01*
X137528454Y-92024144D01*
X137520088Y-92020324D01*
X137505573Y-91997738D01*
X137487986Y-91977442D01*
X137485661Y-91966755D01*
X137481704Y-91960598D01*
X137476600Y-91925100D01*
X137476600Y-91693999D01*
X142548260Y-91693999D01*
X142548261Y-91694000D01*
X143080800Y-91694000D01*
X143080800Y-91136326D01*
X142935398Y-91178570D01*
X142794481Y-91261908D01*
X142794474Y-91261914D01*
X142678714Y-91377674D01*
X142678708Y-91377681D01*
X142595370Y-91518599D01*
X142549690Y-91675826D01*
X142548260Y-91693999D01*
X137476600Y-91693999D01*
X137476600Y-91414600D01*
X136549303Y-91414600D01*
X136584525Y-91353593D01*
X136618600Y-91226426D01*
X136618600Y-91094774D01*
X136584525Y-90967607D01*
X136549303Y-90906600D01*
X137476600Y-90906600D01*
X137476600Y-90262014D01*
X137476599Y-90262002D01*
X137470094Y-90201506D01*
X137419044Y-90064635D01*
X137419044Y-90064634D01*
X137331504Y-89947695D01*
X137270880Y-89902313D01*
X137228333Y-89845477D01*
X137223269Y-89774662D01*
X137257294Y-89712349D01*
X137313778Y-89679738D01*
X137318398Y-89678500D01*
X137318401Y-89678500D01*
X137459429Y-89640712D01*
X137459432Y-89640710D01*
X137459433Y-89640710D01*
X137575215Y-89573863D01*
X137585871Y-89567711D01*
X137689111Y-89464471D01*
X137762112Y-89338029D01*
X137762114Y-89338020D01*
X137764659Y-89331879D01*
X137809209Y-89276599D01*
X137876573Y-89254180D01*
X137881067Y-89254100D01*
X138113073Y-89254100D01*
X138142988Y-89262883D01*
G37*
G04 #@! TD.AperFunction*
G04 #@! TA.AperFunction,Conductor*
G36*
X134787122Y-94078644D02*
G01*
X134831275Y-94134242D01*
X134834358Y-94142691D01*
X134860092Y-94221889D01*
X134860093Y-94221892D01*
X134957136Y-94412350D01*
X135082777Y-94585279D01*
X135233920Y-94736422D01*
X135406849Y-94862063D01*
X135597307Y-94959106D01*
X135597313Y-94959109D01*
X135734448Y-95003667D01*
X135793054Y-95043741D01*
X135820691Y-95109137D01*
X135808584Y-95179094D01*
X135760578Y-95231400D01*
X135695512Y-95249500D01*
X131712450Y-95249500D01*
X131712434Y-95249499D01*
X131704716Y-95249499D01*
X131604792Y-95249499D01*
X131572620Y-95258119D01*
X131528670Y-95269895D01*
X131528669Y-95269896D01*
X131508272Y-95275362D01*
X131508271Y-95275362D01*
X131508269Y-95275363D01*
X131508268Y-95275363D01*
X131421738Y-95325321D01*
X131421733Y-95325325D01*
X131394781Y-95352278D01*
X131351078Y-95395981D01*
X131351076Y-95395983D01*
X129353465Y-97393595D01*
X129291153Y-97427620D01*
X129264370Y-97430500D01*
X128939408Y-97430500D01*
X128871287Y-97410498D01*
X128824794Y-97356842D01*
X128814690Y-97286568D01*
X128837472Y-97230439D01*
X128933053Y-97098884D01*
X129011980Y-96943981D01*
X129065703Y-96778638D01*
X129092900Y-96606926D01*
X129092900Y-96433074D01*
X129065703Y-96261362D01*
X129020411Y-96121969D01*
X129018384Y-96051006D01*
X129051148Y-95993944D01*
X129737242Y-95307850D01*
X129737252Y-95307843D01*
X129818270Y-95226825D01*
X129818276Y-95226819D01*
X129858521Y-95157112D01*
X129868236Y-95140286D01*
X129868236Y-95140285D01*
X129868238Y-95140282D01*
X129880237Y-95095500D01*
X129894101Y-95043762D01*
X129894101Y-94943838D01*
X129894100Y-94943834D01*
X129894100Y-94780792D01*
X129914102Y-94712671D01*
X129967758Y-94666178D01*
X130038032Y-94656074D01*
X130102612Y-94685568D01*
X130109195Y-94691697D01*
X130153920Y-94736422D01*
X130326849Y-94862063D01*
X130517307Y-94959106D01*
X130517313Y-94959109D01*
X130720598Y-95025160D01*
X130784600Y-95035296D01*
X130784600Y-94131302D01*
X130845607Y-94166525D01*
X130972774Y-94200600D01*
X131104426Y-94200600D01*
X131231593Y-94166525D01*
X131292600Y-94131302D01*
X131292600Y-95035296D01*
X131356601Y-95025160D01*
X131559886Y-94959109D01*
X131559892Y-94959106D01*
X131750350Y-94862063D01*
X131923279Y-94736422D01*
X132074422Y-94585279D01*
X132200063Y-94412350D01*
X132297106Y-94221892D01*
X132297109Y-94221886D01*
X132322841Y-94142692D01*
X132362914Y-94084086D01*
X132428311Y-94056449D01*
X132498268Y-94068556D01*
X132550574Y-94116562D01*
X132554941Y-94124425D01*
X132555019Y-94124578D01*
X132555020Y-94124581D01*
X132624356Y-94260660D01*
X132633949Y-94279487D01*
X132736136Y-94420135D01*
X132859064Y-94543063D01*
X132859067Y-94543065D01*
X132999716Y-94645253D01*
X133154619Y-94724180D01*
X133319962Y-94777903D01*
X133491674Y-94805100D01*
X133491677Y-94805100D01*
X133665523Y-94805100D01*
X133665526Y-94805100D01*
X133837238Y-94777903D01*
X134002581Y-94724180D01*
X134157484Y-94645253D01*
X134298133Y-94543065D01*
X134421065Y-94420133D01*
X134523253Y-94279484D01*
X134602180Y-94124581D01*
X134602181Y-94124575D01*
X134602258Y-94124426D01*
X134651006Y-94072810D01*
X134719921Y-94055744D01*
X134787122Y-94078644D01*
G37*
G04 #@! TD.AperFunction*
G04 #@! TA.AperFunction,Conductor*
G36*
X148630284Y-90489686D02*
G01*
X148652762Y-90488723D01*
X148664581Y-90495621D01*
X148678068Y-90497956D01*
X148694645Y-90513170D01*
X148714077Y-90524513D01*
X148727041Y-90542903D01*
X148730374Y-90545962D01*
X148734741Y-90553825D01*
X148734819Y-90553978D01*
X148734820Y-90553981D01*
X148812883Y-90707188D01*
X148813749Y-90708887D01*
X148915936Y-90849535D01*
X149038864Y-90972463D01*
X149074013Y-90998000D01*
X149179516Y-91074653D01*
X149334419Y-91153580D01*
X149499762Y-91207303D01*
X149671474Y-91234500D01*
X149671477Y-91234500D01*
X149845323Y-91234500D01*
X149845326Y-91234500D01*
X150017038Y-91207303D01*
X150182381Y-91153580D01*
X150337284Y-91074653D01*
X150477933Y-90972465D01*
X150485919Y-90964479D01*
X150512805Y-90937594D01*
X150575117Y-90903568D01*
X150645932Y-90908633D01*
X150702768Y-90951180D01*
X150727579Y-91017700D01*
X150727900Y-91026689D01*
X150727900Y-91773311D01*
X150707898Y-91841432D01*
X150654242Y-91887925D01*
X150583968Y-91898029D01*
X150519388Y-91868535D01*
X150512805Y-91862406D01*
X150477935Y-91827536D01*
X150337287Y-91725349D01*
X150337286Y-91725348D01*
X150337284Y-91725347D01*
X150182381Y-91646420D01*
X150182378Y-91646419D01*
X150182376Y-91646418D01*
X150017042Y-91592698D01*
X150017040Y-91592697D01*
X150017038Y-91592697D01*
X149845326Y-91565500D01*
X149671474Y-91565500D01*
X149499762Y-91592697D01*
X149499760Y-91592697D01*
X149499757Y-91592698D01*
X149334423Y-91646418D01*
X149334417Y-91646421D01*
X149179512Y-91725349D01*
X149038864Y-91827536D01*
X148915936Y-91950464D01*
X148813749Y-92091112D01*
X148734821Y-92246017D01*
X148734818Y-92246023D01*
X148681098Y-92411357D01*
X148681097Y-92411360D01*
X148681097Y-92411362D01*
X148653900Y-92583074D01*
X148653900Y-92756926D01*
X148681097Y-92928638D01*
X148681098Y-92928642D01*
X148718660Y-93044248D01*
X148734820Y-93093981D01*
X148813747Y-93248884D01*
X148813749Y-93248887D01*
X148915936Y-93389535D01*
X149038864Y-93512463D01*
X149098811Y-93556017D01*
X149179516Y-93614653D01*
X149334419Y-93693580D01*
X149499762Y-93747303D01*
X149671474Y-93774500D01*
X149671477Y-93774500D01*
X149845323Y-93774500D01*
X149845326Y-93774500D01*
X150017038Y-93747303D01*
X150182381Y-93693580D01*
X150337284Y-93614653D01*
X150477933Y-93512465D01*
X150484674Y-93505724D01*
X150512805Y-93477594D01*
X150575117Y-93443568D01*
X150645932Y-93448633D01*
X150702768Y-93491180D01*
X150727579Y-93557700D01*
X150727900Y-93566689D01*
X150727900Y-94313311D01*
X150707898Y-94381432D01*
X150654242Y-94427925D01*
X150583968Y-94438029D01*
X150519388Y-94408535D01*
X150512805Y-94402406D01*
X150477935Y-94367536D01*
X150337287Y-94265349D01*
X150337286Y-94265348D01*
X150337284Y-94265347D01*
X150182381Y-94186420D01*
X150182378Y-94186419D01*
X150182376Y-94186418D01*
X150017042Y-94132698D01*
X150017040Y-94132697D01*
X150017038Y-94132697D01*
X149845326Y-94105500D01*
X149671474Y-94105500D01*
X149550587Y-94124647D01*
X149499755Y-94132698D01*
X149360372Y-94177986D01*
X149289405Y-94180013D01*
X149232342Y-94147248D01*
X148799264Y-93714170D01*
X148799252Y-93714156D01*
X148721425Y-93636329D01*
X148721415Y-93636321D01*
X148634880Y-93586361D01*
X148623521Y-93583317D01*
X148623516Y-93583316D01*
X148614484Y-93580896D01*
X148538362Y-93560499D01*
X148438438Y-93560499D01*
X148438434Y-93560500D01*
X148183939Y-93560500D01*
X148115818Y-93540498D01*
X148069325Y-93486842D01*
X148059221Y-93416568D01*
X148082003Y-93360439D01*
X148163053Y-93248884D01*
X148241980Y-93093981D01*
X148295703Y-92928638D01*
X148322900Y-92756926D01*
X148322900Y-92583074D01*
X148295703Y-92411362D01*
X148241980Y-92246019D01*
X148163053Y-92091116D01*
X148060865Y-91950467D01*
X148060863Y-91950464D01*
X147937935Y-91827536D01*
X147797287Y-91725349D01*
X147797286Y-91725348D01*
X147797284Y-91725347D01*
X147642381Y-91646420D01*
X147642378Y-91646419D01*
X147642225Y-91646341D01*
X147590610Y-91597593D01*
X147573544Y-91528678D01*
X147596445Y-91461476D01*
X147652042Y-91417324D01*
X147660492Y-91414241D01*
X147739686Y-91388509D01*
X147739692Y-91388506D01*
X147930150Y-91291463D01*
X148103079Y-91165822D01*
X148254222Y-91014679D01*
X148379863Y-90841750D01*
X148476906Y-90651292D01*
X148476909Y-90651286D01*
X148502641Y-90572092D01*
X148515340Y-90553518D01*
X148523803Y-90532669D01*
X148534989Y-90524783D01*
X148542714Y-90513486D01*
X148563441Y-90504726D01*
X148581831Y-90491763D01*
X148595503Y-90491177D01*
X148608111Y-90485849D01*
X148630284Y-90489686D01*
G37*
G04 #@! TD.AperFunction*
G04 #@! TA.AperFunction,Conductor*
G36*
X136314721Y-92830102D02*
G01*
X136361214Y-92883758D01*
X136372600Y-92936100D01*
X136372600Y-93269897D01*
X136311593Y-93234675D01*
X136184426Y-93200600D01*
X136052774Y-93200600D01*
X135925607Y-93234675D01*
X135864600Y-93269897D01*
X135864600Y-92936100D01*
X135884602Y-92867979D01*
X135938258Y-92821486D01*
X135990600Y-92810100D01*
X136246600Y-92810100D01*
X136314721Y-92830102D01*
G37*
G04 #@! TD.AperFunction*
G04 #@! TA.AperFunction,Conductor*
G36*
X136372600Y-91925100D02*
G01*
X136352598Y-91993221D01*
X136298942Y-92039714D01*
X136246600Y-92051100D01*
X135990600Y-92051100D01*
X135922479Y-92031098D01*
X135875986Y-91977442D01*
X135864600Y-91925100D01*
X135864600Y-91591302D01*
X135925607Y-91626525D01*
X136052774Y-91660600D01*
X136184426Y-91660600D01*
X136311593Y-91626525D01*
X136372600Y-91591302D01*
X136372600Y-91925100D01*
G37*
G04 #@! TD.AperFunction*
G04 #@! TA.AperFunction,Conductor*
G36*
X126656922Y-86738044D02*
G01*
X126701075Y-86793642D01*
X126704158Y-86802091D01*
X126729892Y-86881289D01*
X126729893Y-86881292D01*
X126826936Y-87071750D01*
X126952577Y-87244679D01*
X127103720Y-87395822D01*
X127276649Y-87521463D01*
X127467107Y-87618506D01*
X127467109Y-87618507D01*
X127546308Y-87644241D01*
X127604913Y-87684315D01*
X127632550Y-87749711D01*
X127620443Y-87819668D01*
X127572437Y-87871974D01*
X127564574Y-87876341D01*
X127409513Y-87955348D01*
X127268864Y-88057536D01*
X127145936Y-88180464D01*
X127043749Y-88321112D01*
X126964821Y-88476017D01*
X126964818Y-88476023D01*
X126911098Y-88641357D01*
X126911097Y-88641360D01*
X126911097Y-88641362D01*
X126883900Y-88813074D01*
X126883900Y-88986926D01*
X126911097Y-89158638D01*
X126911098Y-89158642D01*
X126962977Y-89318311D01*
X126964820Y-89323981D01*
X127043747Y-89478884D01*
X127043749Y-89478887D01*
X127145936Y-89619535D01*
X127230957Y-89704556D01*
X127235364Y-89712627D01*
X127242729Y-89718140D01*
X127252114Y-89743301D01*
X127264983Y-89766868D01*
X127264326Y-89776042D01*
X127267541Y-89784660D01*
X127261833Y-89810898D01*
X127259918Y-89837683D01*
X127254006Y-89846881D01*
X127252451Y-89854034D01*
X127230959Y-89882745D01*
X127211392Y-89902313D01*
X127176724Y-89936980D01*
X127176721Y-89936982D01*
X127176722Y-89936983D01*
X126610397Y-90503306D01*
X126548085Y-90537331D01*
X126477269Y-90532266D01*
X126432207Y-90503305D01*
X126333079Y-90404177D01*
X126160150Y-90278536D01*
X125969692Y-90181493D01*
X125969689Y-90181492D01*
X125890491Y-90155758D01*
X125831885Y-90115684D01*
X125804249Y-90050287D01*
X125816356Y-89980330D01*
X125864363Y-89928024D01*
X125872226Y-89923658D01*
X125872375Y-89923581D01*
X125872381Y-89923580D01*
X126027284Y-89844653D01*
X126167933Y-89742465D01*
X126290865Y-89619533D01*
X126393053Y-89478884D01*
X126471980Y-89323981D01*
X126525703Y-89158638D01*
X126552900Y-88986926D01*
X126552900Y-88813074D01*
X126525703Y-88641362D01*
X126471980Y-88476019D01*
X126393053Y-88321116D01*
X126328620Y-88232432D01*
X126290863Y-88180464D01*
X126167935Y-88057536D01*
X126027287Y-87955349D01*
X126027286Y-87955348D01*
X126027284Y-87955347D01*
X125872381Y-87876420D01*
X125872378Y-87876419D01*
X125872376Y-87876418D01*
X125707042Y-87822698D01*
X125707040Y-87822697D01*
X125707038Y-87822697D01*
X125535326Y-87795500D01*
X125361474Y-87795500D01*
X125189762Y-87822697D01*
X125189760Y-87822697D01*
X125189757Y-87822698D01*
X125024423Y-87876418D01*
X125024417Y-87876421D01*
X124869512Y-87955349D01*
X124728864Y-88057536D01*
X124728861Y-88057539D01*
X124619995Y-88166406D01*
X124557683Y-88200432D01*
X124486868Y-88195367D01*
X124430032Y-88152820D01*
X124405221Y-88086300D01*
X124404900Y-88077311D01*
X124404900Y-87182689D01*
X124424902Y-87114568D01*
X124478558Y-87068075D01*
X124548832Y-87057971D01*
X124613412Y-87087465D01*
X124619995Y-87093594D01*
X124728864Y-87202463D01*
X124768830Y-87231500D01*
X124869516Y-87304653D01*
X125024419Y-87383580D01*
X125189762Y-87437303D01*
X125361474Y-87464500D01*
X125361477Y-87464500D01*
X125535323Y-87464500D01*
X125535326Y-87464500D01*
X125707038Y-87437303D01*
X125872381Y-87383580D01*
X126027284Y-87304653D01*
X126167933Y-87202465D01*
X126290865Y-87079533D01*
X126393053Y-86938884D01*
X126471980Y-86783981D01*
X126471981Y-86783975D01*
X126472058Y-86783826D01*
X126520806Y-86732210D01*
X126589721Y-86715144D01*
X126656922Y-86738044D01*
G37*
G04 #@! TD.AperFunction*
G04 #@! TA.AperFunction,Conductor*
G36*
X132748587Y-80261520D02*
G01*
X132756036Y-80262501D01*
X132863678Y-80262501D01*
X132863694Y-80262500D01*
X133166016Y-80262500D01*
X133195931Y-80271283D01*
X133226401Y-80277912D01*
X133231496Y-80281726D01*
X133234137Y-80282502D01*
X133255111Y-80299405D01*
X133432923Y-80477217D01*
X133432944Y-80477240D01*
X133507984Y-80552280D01*
X133507989Y-80552284D01*
X133507991Y-80552286D01*
X133507992Y-80552287D01*
X133507994Y-80552288D01*
X133522161Y-80560467D01*
X133556199Y-80580119D01*
X133594529Y-80602249D01*
X133691048Y-80628111D01*
X133691050Y-80628111D01*
X133798690Y-80628111D01*
X133798706Y-80628110D01*
X136090626Y-80628110D01*
X136158747Y-80648112D01*
X136179721Y-80665015D01*
X136612995Y-81098289D01*
X136647021Y-81160601D01*
X136649900Y-81187384D01*
X136649900Y-81226001D01*
X136674081Y-81316246D01*
X136687689Y-81367033D01*
X136760686Y-81493467D01*
X136760694Y-81493477D01*
X136863922Y-81596705D01*
X136863927Y-81596709D01*
X136863929Y-81596711D01*
X136863930Y-81596712D01*
X136863932Y-81596713D01*
X136990366Y-81669710D01*
X136990368Y-81669710D01*
X136990371Y-81669712D01*
X137131399Y-81707500D01*
X137131401Y-81707500D01*
X137277399Y-81707500D01*
X137277401Y-81707500D01*
X137291291Y-81703778D01*
X137316685Y-81704382D01*
X137341833Y-81700767D01*
X137351568Y-81705213D01*
X137362266Y-81705468D01*
X137383304Y-81719707D01*
X137406413Y-81730261D01*
X137412198Y-81739262D01*
X137421062Y-81745262D01*
X137431063Y-81768617D01*
X137444797Y-81789987D01*
X137447113Y-81806096D01*
X137449010Y-81810526D01*
X137449901Y-81825485D01*
X137449901Y-81975615D01*
X137429899Y-82043736D01*
X137412996Y-82064710D01*
X137359111Y-82118595D01*
X137296799Y-82152621D01*
X137270016Y-82155500D01*
X137231399Y-82155500D01*
X137145086Y-82178627D01*
X137090366Y-82193289D01*
X136963932Y-82266286D01*
X136963922Y-82266294D01*
X136860694Y-82369522D01*
X136860686Y-82369532D01*
X136787689Y-82495966D01*
X136787688Y-82495971D01*
X136749900Y-82636999D01*
X136749900Y-82783001D01*
X136759185Y-82817652D01*
X136787689Y-82924033D01*
X136860686Y-83050467D01*
X136860694Y-83050477D01*
X136963922Y-83153705D01*
X136963927Y-83153709D01*
X136963929Y-83153711D01*
X136963930Y-83153712D01*
X136963932Y-83153713D01*
X137090366Y-83226710D01*
X137090368Y-83226710D01*
X137090371Y-83226712D01*
X137231399Y-83264500D01*
X137231401Y-83264500D01*
X137377399Y-83264500D01*
X137377401Y-83264500D01*
X137518429Y-83226712D01*
X137518432Y-83226710D01*
X137518433Y-83226710D01*
X137581650Y-83190211D01*
X137644871Y-83153711D01*
X137748111Y-83050471D01*
X137805910Y-82950360D01*
X137821110Y-82924033D01*
X137821110Y-82924032D01*
X137821112Y-82924029D01*
X137858900Y-82783001D01*
X137858900Y-82744384D01*
X137867683Y-82714468D01*
X137874312Y-82683999D01*
X137878126Y-82678902D01*
X137878902Y-82676263D01*
X137895800Y-82655293D01*
X138052044Y-82499048D01*
X138052054Y-82499041D01*
X138133071Y-82418024D01*
X138133077Y-82418018D01*
X138164542Y-82363519D01*
X138183040Y-82331480D01*
X138208902Y-82234961D01*
X138208902Y-82135037D01*
X138208902Y-82127320D01*
X138208901Y-82127302D01*
X138208901Y-81425118D01*
X138228903Y-81356997D01*
X138282559Y-81310504D01*
X138352833Y-81300400D01*
X138370055Y-81304121D01*
X138458000Y-81329672D01*
X138458000Y-80644000D01*
X138478002Y-80575879D01*
X138531658Y-80529386D01*
X138584000Y-80518000D01*
X138840000Y-80518000D01*
X138848825Y-80520591D01*
X138857932Y-80519282D01*
X138882357Y-80530437D01*
X138908121Y-80538002D01*
X138914145Y-80544955D01*
X138922512Y-80548776D01*
X138937026Y-80571361D01*
X138954614Y-80591658D01*
X138956938Y-80602344D01*
X138960896Y-80608502D01*
X138966000Y-80644000D01*
X138966000Y-80783337D01*
X138945998Y-80851458D01*
X138929097Y-80872431D01*
X138900700Y-80900828D01*
X138894020Y-80912399D01*
X138880208Y-80936324D01*
X138880207Y-80936325D01*
X138834284Y-81015864D01*
X138834281Y-81015871D01*
X138817379Y-81078951D01*
X138800414Y-81142268D01*
X138799901Y-81144181D01*
X138799901Y-81883060D01*
X138779899Y-81951181D01*
X138778666Y-81953062D01*
X138724390Y-82034291D01*
X138675055Y-82153397D01*
X138675053Y-82153402D01*
X138649901Y-82279848D01*
X138649901Y-82408779D01*
X138667858Y-82499052D01*
X138675053Y-82535225D01*
X138724390Y-82654336D01*
X138757348Y-82703660D01*
X138778666Y-82735565D01*
X138799881Y-82803318D01*
X138799901Y-82805567D01*
X138799901Y-88174100D01*
X138779899Y-88242221D01*
X138726243Y-88288714D01*
X138673902Y-88300100D01*
X138490948Y-88300100D01*
X138399739Y-88314545D01*
X138289805Y-88370559D01*
X138202168Y-88458196D01*
X138139856Y-88492221D01*
X138113073Y-88495100D01*
X137552496Y-88495100D01*
X137552480Y-88495099D01*
X137544762Y-88495099D01*
X137444838Y-88495099D01*
X137412666Y-88503719D01*
X137368716Y-88515495D01*
X137368715Y-88515496D01*
X137348318Y-88520962D01*
X137293483Y-88552620D01*
X137230486Y-88569500D01*
X137172399Y-88569500D01*
X137086086Y-88592627D01*
X137031366Y-88607289D01*
X136904932Y-88680286D01*
X136904922Y-88680294D01*
X136801694Y-88783522D01*
X136801686Y-88783532D01*
X136728689Y-88909966D01*
X136728688Y-88909971D01*
X136690900Y-89050999D01*
X136690900Y-89197001D01*
X136710329Y-89269512D01*
X136728689Y-89338033D01*
X136801686Y-89464467D01*
X136801694Y-89464477D01*
X136904922Y-89567705D01*
X136904926Y-89567708D01*
X136904929Y-89567711D01*
X136904932Y-89567712D01*
X136911481Y-89572738D01*
X136910617Y-89573863D01*
X136953524Y-89618865D01*
X136966959Y-89688579D01*
X136940571Y-89754490D01*
X136882739Y-89795671D01*
X136841530Y-89802600D01*
X136288900Y-89802600D01*
X136220779Y-89782598D01*
X136174286Y-89728942D01*
X136164325Y-89695499D01*
X136162900Y-89686105D01*
X136162900Y-89588999D01*
X136128942Y-89462264D01*
X136127891Y-89455337D01*
X136131764Y-89426831D01*
X136132449Y-89398073D01*
X136136481Y-89392115D01*
X136137450Y-89384986D01*
X136156119Y-89363099D01*
X136172243Y-89339277D01*
X136182538Y-89332128D01*
X136183525Y-89330972D01*
X136184727Y-89330608D01*
X136189452Y-89327328D01*
X136205071Y-89318311D01*
X136308311Y-89215071D01*
X136371040Y-89106421D01*
X136381310Y-89088633D01*
X136381310Y-89088632D01*
X136381312Y-89088629D01*
X136419100Y-88947601D01*
X136419100Y-88801599D01*
X136381312Y-88660571D01*
X136381310Y-88660568D01*
X136381310Y-88660566D01*
X136308313Y-88534132D01*
X136308305Y-88534122D01*
X136205077Y-88430894D01*
X136205067Y-88430886D01*
X136071477Y-88353758D01*
X136072627Y-88351764D01*
X136026634Y-88314695D01*
X136004217Y-88247330D01*
X136021779Y-88178540D01*
X136030175Y-88166136D01*
X136126484Y-88040625D01*
X136126487Y-88040621D01*
X136187750Y-87892718D01*
X136195481Y-87834000D01*
X133720320Y-87834000D01*
X133728049Y-87892718D01*
X133728050Y-87892719D01*
X133789312Y-88040621D01*
X133789317Y-88040629D01*
X133886769Y-88167630D01*
X134019056Y-88269138D01*
X134060923Y-88326476D01*
X134065145Y-88397347D01*
X134030381Y-88459250D01*
X133967668Y-88492531D01*
X133942352Y-88495100D01*
X129972638Y-88495100D01*
X129915171Y-88510498D01*
X129876113Y-88520963D01*
X129789584Y-88570921D01*
X129789579Y-88570925D01*
X129754252Y-88606253D01*
X129718924Y-88641581D01*
X129307995Y-89052510D01*
X129245683Y-89086536D01*
X129174868Y-89081471D01*
X129118032Y-89038924D01*
X129093221Y-88972404D01*
X129092900Y-88963415D01*
X129092900Y-88813077D01*
X129092900Y-88813074D01*
X129065703Y-88641362D01*
X129011980Y-88476019D01*
X128933053Y-88321116D01*
X128868620Y-88232432D01*
X128830863Y-88180464D01*
X128707935Y-88057536D01*
X128567287Y-87955349D01*
X128567286Y-87955348D01*
X128567284Y-87955347D01*
X128412381Y-87876420D01*
X128412378Y-87876419D01*
X128412225Y-87876341D01*
X128360610Y-87827593D01*
X128343544Y-87758678D01*
X128366445Y-87691476D01*
X128422042Y-87647324D01*
X128430492Y-87644241D01*
X128509686Y-87618509D01*
X128509692Y-87618506D01*
X128700150Y-87521463D01*
X128873077Y-87395823D01*
X129001633Y-87267267D01*
X129063945Y-87233242D01*
X129134761Y-87238306D01*
X129156376Y-87250276D01*
X129156777Y-87249582D01*
X129290366Y-87326710D01*
X129290368Y-87326710D01*
X129290371Y-87326712D01*
X129431399Y-87364500D01*
X129431401Y-87364500D01*
X129577399Y-87364500D01*
X129577401Y-87364500D01*
X129718429Y-87326712D01*
X129718432Y-87326710D01*
X129718433Y-87326710D01*
X129821391Y-87267267D01*
X129844871Y-87253711D01*
X129948111Y-87150471D01*
X129980949Y-87093594D01*
X130025242Y-87016877D01*
X130028137Y-87018548D01*
X130062859Y-86975415D01*
X130130210Y-86952959D01*
X130199011Y-86970480D01*
X130247417Y-87022416D01*
X130256481Y-87046262D01*
X130270979Y-87100370D01*
X130293289Y-87183633D01*
X130366286Y-87310067D01*
X130366294Y-87310077D01*
X130469522Y-87413305D01*
X130469527Y-87413309D01*
X130469529Y-87413311D01*
X130469530Y-87413312D01*
X130469532Y-87413313D01*
X130595966Y-87486310D01*
X130595968Y-87486310D01*
X130595971Y-87486312D01*
X130736999Y-87524100D01*
X130737001Y-87524100D01*
X130882999Y-87524100D01*
X130883001Y-87524100D01*
X131024029Y-87486312D01*
X131024032Y-87486310D01*
X131024033Y-87486310D01*
X131124230Y-87428461D01*
X131150471Y-87413311D01*
X131150477Y-87413305D01*
X131177778Y-87386005D01*
X131240090Y-87351979D01*
X131266873Y-87349100D01*
X133588774Y-87349100D01*
X133656895Y-87369102D01*
X133683506Y-87392023D01*
X133720319Y-87434000D01*
X134246735Y-87434000D01*
X134264900Y-87435316D01*
X134286754Y-87438500D01*
X134286760Y-87438500D01*
X135629040Y-87438500D01*
X135629046Y-87438500D01*
X135650900Y-87435316D01*
X135669065Y-87434000D01*
X136195479Y-87434000D01*
X136187750Y-87375281D01*
X136187749Y-87375280D01*
X136126487Y-87227378D01*
X136126482Y-87227370D01*
X136029034Y-87100374D01*
X136029029Y-87100370D01*
X135999193Y-87077474D01*
X135957327Y-87020134D01*
X135949900Y-86977514D01*
X135949900Y-86850360D01*
X135949900Y-86850354D01*
X135939861Y-86781450D01*
X135907051Y-86714337D01*
X135895103Y-86644356D01*
X135907050Y-86603664D01*
X135939861Y-86536550D01*
X135949900Y-86467646D01*
X135949900Y-86200354D01*
X135939861Y-86131450D01*
X135907051Y-86064337D01*
X135895103Y-85994356D01*
X135907050Y-85953664D01*
X135939861Y-85886550D01*
X135949900Y-85817646D01*
X135949900Y-85550354D01*
X135949899Y-85550352D01*
X135949773Y-85548603D01*
X135949900Y-85548016D01*
X135949900Y-85545795D01*
X135950381Y-85545795D01*
X135952681Y-85535171D01*
X135950726Y-85521568D01*
X135960050Y-85501152D01*
X135964801Y-85479216D01*
X135974511Y-85469488D01*
X135980220Y-85456988D01*
X135999100Y-85444853D01*
X136014958Y-85428968D01*
X136029676Y-85425204D01*
X136039946Y-85418604D01*
X136075444Y-85413500D01*
X136307938Y-85413500D01*
X136376059Y-85433502D01*
X136397033Y-85450405D01*
X136464517Y-85517889D01*
X136498543Y-85580201D01*
X136501422Y-85606984D01*
X136501422Y-85645601D01*
X136534629Y-85769533D01*
X136539211Y-85786633D01*
X136612208Y-85913067D01*
X136612216Y-85913077D01*
X136715444Y-86016305D01*
X136715449Y-86016309D01*
X136715451Y-86016311D01*
X136715452Y-86016312D01*
X136715454Y-86016313D01*
X136841888Y-86089310D01*
X136841890Y-86089310D01*
X136841893Y-86089312D01*
X136982921Y-86127100D01*
X136982923Y-86127100D01*
X137128921Y-86127100D01*
X137128923Y-86127100D01*
X137269951Y-86089312D01*
X137269954Y-86089310D01*
X137269955Y-86089310D01*
X137381066Y-86025160D01*
X137396393Y-86016311D01*
X137499633Y-85913071D01*
X137554726Y-85817647D01*
X137572632Y-85786633D01*
X137572632Y-85786632D01*
X137572634Y-85786629D01*
X137610422Y-85645601D01*
X137610422Y-85499599D01*
X137572634Y-85358571D01*
X137572632Y-85358568D01*
X137572632Y-85358566D01*
X137499635Y-85232132D01*
X137499627Y-85232122D01*
X137396399Y-85128894D01*
X137396389Y-85128886D01*
X137269955Y-85055889D01*
X137230921Y-85045430D01*
X137128923Y-85018100D01*
X137128921Y-85018100D01*
X137090306Y-85018100D01*
X137060390Y-85009316D01*
X137029921Y-85002688D01*
X137024825Y-84998873D01*
X137022185Y-84998098D01*
X137001211Y-84981195D01*
X136828186Y-84808170D01*
X136828174Y-84808156D01*
X136750347Y-84730329D01*
X136750337Y-84730321D01*
X136663802Y-84680361D01*
X136652443Y-84677317D01*
X136652438Y-84677316D01*
X136643406Y-84674896D01*
X136567284Y-84654499D01*
X136467360Y-84654499D01*
X136467356Y-84654500D01*
X136075444Y-84654500D01*
X136007323Y-84634498D01*
X135960830Y-84580842D01*
X135950278Y-84522205D01*
X135949900Y-84522205D01*
X135949900Y-84520102D01*
X135949773Y-84519397D01*
X135949900Y-84517643D01*
X135949900Y-84250360D01*
X135949900Y-84250354D01*
X135939861Y-84181450D01*
X135907051Y-84114337D01*
X135895103Y-84044356D01*
X135907050Y-84003664D01*
X135939861Y-83936550D01*
X135949900Y-83867646D01*
X135949900Y-83600354D01*
X135939861Y-83531450D01*
X135907051Y-83464337D01*
X135895103Y-83394356D01*
X135907050Y-83353664D01*
X135939861Y-83286550D01*
X135949900Y-83217646D01*
X135949900Y-82950354D01*
X135939861Y-82881450D01*
X135907051Y-82814337D01*
X135895103Y-82744356D01*
X135907050Y-82703664D01*
X135939861Y-82636550D01*
X135949900Y-82567646D01*
X135949900Y-82300354D01*
X135939861Y-82231450D01*
X135907051Y-82164337D01*
X135895103Y-82094356D01*
X135907050Y-82053664D01*
X135939861Y-81986550D01*
X135949900Y-81917646D01*
X135949900Y-81650354D01*
X135939861Y-81581450D01*
X135887899Y-81475160D01*
X135887898Y-81475158D01*
X135804241Y-81391501D01*
X135804239Y-81391500D01*
X135697952Y-81339540D01*
X135697950Y-81339539D01*
X135629047Y-81329500D01*
X135629046Y-81329500D01*
X134286754Y-81329500D01*
X134286752Y-81329500D01*
X134217849Y-81339539D01*
X134217847Y-81339540D01*
X134111158Y-81391697D01*
X134055819Y-81404500D01*
X133624194Y-81404500D01*
X133556073Y-81384498D01*
X133535099Y-81367595D01*
X132643040Y-80475536D01*
X132628442Y-80448804D01*
X132611668Y-80423370D01*
X132611603Y-80417967D01*
X132609014Y-80413224D01*
X132611187Y-80382832D01*
X132610827Y-80352379D01*
X132613693Y-80347800D01*
X132614079Y-80342409D01*
X132632336Y-80318020D01*
X132648499Y-80292202D01*
X132653387Y-80289899D01*
X132656626Y-80285573D01*
X132685169Y-80274926D01*
X132712726Y-80261945D01*
X132720212Y-80261856D01*
X132723146Y-80260762D01*
X132748587Y-80261520D01*
G37*
G04 #@! TD.AperFunction*
G04 #@! TA.AperFunction,Conductor*
G36*
X126908068Y-71487956D02*
G01*
X126960374Y-71535962D01*
X126964741Y-71543825D01*
X126964819Y-71543978D01*
X126964820Y-71543981D01*
X127043747Y-71698884D01*
X127043749Y-71698887D01*
X127145936Y-71839535D01*
X127268864Y-71962463D01*
X127325147Y-72003355D01*
X127409516Y-72064653D01*
X127564419Y-72143580D01*
X127729762Y-72197303D01*
X127901474Y-72224500D01*
X127901477Y-72224500D01*
X128075323Y-72224500D01*
X128075326Y-72224500D01*
X128247038Y-72197303D01*
X128412381Y-72143580D01*
X128567284Y-72064653D01*
X128583840Y-72052624D01*
X128650706Y-72028766D01*
X128719857Y-72044845D01*
X128769339Y-72095758D01*
X128783901Y-72154560D01*
X128783901Y-72455888D01*
X128781358Y-72492676D01*
X128783901Y-72505702D01*
X128783901Y-72518969D01*
X128792313Y-72550363D01*
X128794271Y-72558827D01*
X128800502Y-72590746D01*
X128800502Y-72590747D01*
X128800985Y-72591734D01*
X128809470Y-72614395D01*
X128809503Y-72614518D01*
X128807836Y-72685495D01*
X128768061Y-72744303D01*
X128702806Y-72772272D01*
X128632788Y-72760521D01*
X128613752Y-72749108D01*
X128567284Y-72715347D01*
X128412381Y-72636420D01*
X128412378Y-72636419D01*
X128412376Y-72636418D01*
X128247042Y-72582698D01*
X128247040Y-72582697D01*
X128247038Y-72582697D01*
X128075326Y-72555500D01*
X127901474Y-72555500D01*
X127729762Y-72582697D01*
X127729760Y-72582697D01*
X127729757Y-72582698D01*
X127564423Y-72636418D01*
X127564417Y-72636421D01*
X127409512Y-72715349D01*
X127268864Y-72817536D01*
X127145936Y-72940464D01*
X127043749Y-73081112D01*
X126964821Y-73236017D01*
X126964818Y-73236023D01*
X126911098Y-73401357D01*
X126911097Y-73401360D01*
X126911097Y-73401362D01*
X126883900Y-73573074D01*
X126883900Y-73746926D01*
X126911086Y-73918568D01*
X126911098Y-73918642D01*
X126959296Y-74066982D01*
X126964820Y-74083981D01*
X127029165Y-74210265D01*
X127043749Y-74238887D01*
X127145936Y-74379535D01*
X127268864Y-74502463D01*
X127286808Y-74515500D01*
X127409516Y-74604653D01*
X127564419Y-74683580D01*
X127729762Y-74737303D01*
X127901474Y-74764500D01*
X127901477Y-74764500D01*
X128075323Y-74764500D01*
X128075326Y-74764500D01*
X128247038Y-74737303D01*
X128412381Y-74683580D01*
X128567284Y-74604653D01*
X128707933Y-74502465D01*
X128830865Y-74379533D01*
X128933053Y-74238884D01*
X129011980Y-74083981D01*
X129065703Y-73918638D01*
X129092900Y-73746926D01*
X129092900Y-73573074D01*
X129065703Y-73401362D01*
X129014798Y-73244694D01*
X129012771Y-73173729D01*
X129049434Y-73112931D01*
X129113146Y-73081605D01*
X129183680Y-73089698D01*
X129229658Y-73123019D01*
X129772889Y-73746922D01*
X129793795Y-73770932D01*
X129823442Y-73835442D01*
X129824768Y-73853672D01*
X129824768Y-80496313D01*
X129824767Y-80496317D01*
X129824767Y-80596241D01*
X129836890Y-80641482D01*
X129839726Y-80652068D01*
X129839727Y-80652073D01*
X129850630Y-80692762D01*
X129900589Y-80779294D01*
X129900597Y-80779304D01*
X129978424Y-80857131D01*
X129978438Y-80857143D01*
X130186660Y-81065365D01*
X130191068Y-81073437D01*
X130198433Y-81078951D01*
X130207816Y-81104109D01*
X130220686Y-81127677D01*
X130220029Y-81136853D01*
X130223244Y-81145471D01*
X130217536Y-81171707D01*
X130215621Y-81198492D01*
X130209709Y-81207690D01*
X130208153Y-81214845D01*
X130186660Y-81243555D01*
X130178447Y-81251768D01*
X130116135Y-81285794D01*
X130094326Y-81288138D01*
X130090266Y-81288672D01*
X129993743Y-81314535D01*
X129973777Y-81326063D01*
X129957170Y-81335651D01*
X129946607Y-81341750D01*
X129907210Y-81364496D01*
X129907203Y-81364501D01*
X129887207Y-81384498D01*
X129836550Y-81435155D01*
X129836548Y-81435157D01*
X128514456Y-82757248D01*
X128452144Y-82791274D01*
X128386425Y-82787986D01*
X128247042Y-82742698D01*
X128247040Y-82742697D01*
X128247038Y-82742697D01*
X128075326Y-82715500D01*
X127901474Y-82715500D01*
X127729762Y-82742697D01*
X127729760Y-82742697D01*
X127729757Y-82742698D01*
X127564423Y-82796418D01*
X127564417Y-82796421D01*
X127409512Y-82875349D01*
X127268864Y-82977536D01*
X127145936Y-83100464D01*
X127043749Y-83241112D01*
X126964821Y-83396017D01*
X126964818Y-83396023D01*
X126911098Y-83561357D01*
X126911098Y-83561359D01*
X126911097Y-83561362D01*
X126883900Y-83733074D01*
X126883900Y-83906926D01*
X126911097Y-84078638D01*
X126911098Y-84078642D01*
X126951500Y-84202988D01*
X126964820Y-84243981D01*
X127027139Y-84366289D01*
X127043749Y-84398887D01*
X127145936Y-84539535D01*
X127268864Y-84662463D01*
X127293500Y-84680362D01*
X127409516Y-84764653D01*
X127564419Y-84843580D01*
X127564424Y-84843581D01*
X127564574Y-84843658D01*
X127616189Y-84892406D01*
X127633255Y-84961321D01*
X127610354Y-85028523D01*
X127554757Y-85072675D01*
X127546309Y-85075758D01*
X127467107Y-85101493D01*
X127276649Y-85198536D01*
X127103720Y-85324177D01*
X126952577Y-85475320D01*
X126826936Y-85648249D01*
X126729893Y-85838707D01*
X126704158Y-85917909D01*
X126664083Y-85976514D01*
X126598686Y-86004150D01*
X126528730Y-85992042D01*
X126476424Y-85944036D01*
X126472058Y-85936174D01*
X126471981Y-85936024D01*
X126471980Y-85936019D01*
X126393053Y-85781116D01*
X126357992Y-85732859D01*
X126290863Y-85640464D01*
X126167935Y-85517536D01*
X126027287Y-85415349D01*
X126027286Y-85415348D01*
X126027284Y-85415347D01*
X125872381Y-85336420D01*
X125872378Y-85336419D01*
X125872376Y-85336418D01*
X125707042Y-85282698D01*
X125707040Y-85282697D01*
X125707038Y-85282697D01*
X125535326Y-85255500D01*
X125361474Y-85255500D01*
X125189762Y-85282697D01*
X125189760Y-85282697D01*
X125189757Y-85282698D01*
X125024423Y-85336418D01*
X125024417Y-85336421D01*
X124869512Y-85415349D01*
X124728864Y-85517536D01*
X124728861Y-85517539D01*
X124619995Y-85626406D01*
X124557683Y-85660432D01*
X124486868Y-85655367D01*
X124430032Y-85612820D01*
X124405221Y-85546300D01*
X124404900Y-85537311D01*
X124404900Y-84642689D01*
X124424902Y-84574568D01*
X124478558Y-84528075D01*
X124548832Y-84517971D01*
X124613412Y-84547465D01*
X124619995Y-84553594D01*
X124728864Y-84662463D01*
X124753500Y-84680362D01*
X124869516Y-84764653D01*
X125024419Y-84843580D01*
X125189762Y-84897303D01*
X125361474Y-84924500D01*
X125361477Y-84924500D01*
X125535323Y-84924500D01*
X125535326Y-84924500D01*
X125707038Y-84897303D01*
X125872381Y-84843580D01*
X126027284Y-84764653D01*
X126167933Y-84662465D01*
X126290865Y-84539533D01*
X126393053Y-84398884D01*
X126471980Y-84243981D01*
X126525703Y-84078638D01*
X126552900Y-83906926D01*
X126552900Y-83733074D01*
X126525703Y-83561362D01*
X126471980Y-83396019D01*
X126393053Y-83241116D01*
X126329545Y-83153705D01*
X126290863Y-83100464D01*
X126167935Y-82977536D01*
X126027287Y-82875349D01*
X126027286Y-82875348D01*
X126027284Y-82875347D01*
X125872381Y-82796420D01*
X125872378Y-82796419D01*
X125872376Y-82796418D01*
X125707042Y-82742698D01*
X125707040Y-82742697D01*
X125707038Y-82742697D01*
X125535326Y-82715500D01*
X125361474Y-82715500D01*
X125189762Y-82742697D01*
X125189760Y-82742697D01*
X125189757Y-82742698D01*
X125024423Y-82796418D01*
X125024417Y-82796421D01*
X124869512Y-82875349D01*
X124728864Y-82977536D01*
X124728861Y-82977539D01*
X124619995Y-83086406D01*
X124557683Y-83120432D01*
X124486868Y-83115367D01*
X124430032Y-83072820D01*
X124405221Y-83006300D01*
X124404900Y-82997311D01*
X124404900Y-82102689D01*
X124424902Y-82034568D01*
X124478558Y-81988075D01*
X124548832Y-81977971D01*
X124613412Y-82007465D01*
X124619995Y-82013594D01*
X124728864Y-82122463D01*
X124775399Y-82156273D01*
X124869516Y-82224653D01*
X125024419Y-82303580D01*
X125189762Y-82357303D01*
X125361474Y-82384500D01*
X125361477Y-82384500D01*
X125535323Y-82384500D01*
X125535326Y-82384500D01*
X125707038Y-82357303D01*
X125872381Y-82303580D01*
X126027284Y-82224653D01*
X126167933Y-82122465D01*
X126290865Y-81999533D01*
X126393053Y-81858884D01*
X126471980Y-81703981D01*
X126525703Y-81538638D01*
X126552900Y-81366926D01*
X126552900Y-81193074D01*
X126883900Y-81193074D01*
X126883900Y-81366926D01*
X126909253Y-81526995D01*
X126911098Y-81538642D01*
X126963775Y-81700767D01*
X126964820Y-81703981D01*
X127043747Y-81858884D01*
X127043749Y-81858887D01*
X127145936Y-81999535D01*
X127268864Y-82122463D01*
X127315399Y-82156273D01*
X127409516Y-82224653D01*
X127564419Y-82303580D01*
X127729762Y-82357303D01*
X127901474Y-82384500D01*
X127901477Y-82384500D01*
X128075323Y-82384500D01*
X128075326Y-82384500D01*
X128247038Y-82357303D01*
X128412381Y-82303580D01*
X128567284Y-82224653D01*
X128707933Y-82122465D01*
X128830865Y-81999533D01*
X128933053Y-81858884D01*
X129011980Y-81703981D01*
X129065703Y-81538638D01*
X129092900Y-81366926D01*
X129092900Y-81193074D01*
X129065703Y-81021362D01*
X129011980Y-80856019D01*
X128933053Y-80701116D01*
X128889726Y-80641482D01*
X128830863Y-80560464D01*
X128707935Y-80437536D01*
X128567287Y-80335349D01*
X128567286Y-80335348D01*
X128567284Y-80335347D01*
X128412381Y-80256420D01*
X128412378Y-80256419D01*
X128412376Y-80256418D01*
X128247042Y-80202698D01*
X128247040Y-80202697D01*
X128247038Y-80202697D01*
X128075326Y-80175500D01*
X127901474Y-80175500D01*
X127729762Y-80202697D01*
X127729760Y-80202697D01*
X127729757Y-80202698D01*
X127564423Y-80256418D01*
X127564417Y-80256421D01*
X127409512Y-80335349D01*
X127268864Y-80437536D01*
X127145936Y-80560464D01*
X127043749Y-80701112D01*
X126964821Y-80856017D01*
X126964818Y-80856023D01*
X126911098Y-81021357D01*
X126911097Y-81021360D01*
X126911097Y-81021362D01*
X126883900Y-81193074D01*
X126552900Y-81193074D01*
X126525703Y-81021362D01*
X126471980Y-80856019D01*
X126393053Y-80701116D01*
X126349726Y-80641482D01*
X126290863Y-80560464D01*
X126167935Y-80437536D01*
X126027287Y-80335349D01*
X126027286Y-80335348D01*
X126027284Y-80335347D01*
X125872381Y-80256420D01*
X125872378Y-80256419D01*
X125872225Y-80256341D01*
X125820610Y-80207593D01*
X125803544Y-80138678D01*
X125826445Y-80071476D01*
X125882042Y-80027324D01*
X125890492Y-80024241D01*
X125969686Y-79998509D01*
X125969692Y-79998506D01*
X126160150Y-79901463D01*
X126333079Y-79775822D01*
X126484222Y-79624679D01*
X126609863Y-79451750D01*
X126706906Y-79261292D01*
X126706909Y-79261286D01*
X126732641Y-79182092D01*
X126772714Y-79123486D01*
X126838111Y-79095849D01*
X126908068Y-79107956D01*
X126960374Y-79155962D01*
X126964741Y-79163825D01*
X126964818Y-79163976D01*
X126964820Y-79163981D01*
X127034666Y-79301061D01*
X127043749Y-79318887D01*
X127145936Y-79459535D01*
X127268864Y-79582463D01*
X127268867Y-79582465D01*
X127409516Y-79684653D01*
X127564419Y-79763580D01*
X127729762Y-79817303D01*
X127901474Y-79844500D01*
X127901477Y-79844500D01*
X128075323Y-79844500D01*
X128075326Y-79844500D01*
X128247038Y-79817303D01*
X128412381Y-79763580D01*
X128567284Y-79684653D01*
X128707933Y-79582465D01*
X128830865Y-79459533D01*
X128933053Y-79318884D01*
X129011980Y-79163981D01*
X129065703Y-78998638D01*
X129092900Y-78826926D01*
X129092900Y-78653074D01*
X129065703Y-78481362D01*
X129011980Y-78316019D01*
X128933053Y-78161116D01*
X128830865Y-78020467D01*
X128830863Y-78020464D01*
X128707935Y-77897536D01*
X128567287Y-77795349D01*
X128567286Y-77795348D01*
X128567284Y-77795347D01*
X128412381Y-77716420D01*
X128412378Y-77716419D01*
X128412376Y-77716418D01*
X128247042Y-77662698D01*
X128247040Y-77662697D01*
X128247038Y-77662697D01*
X128075326Y-77635500D01*
X127901474Y-77635500D01*
X127729762Y-77662697D01*
X127729760Y-77662697D01*
X127729757Y-77662698D01*
X127564423Y-77716418D01*
X127564417Y-77716421D01*
X127409512Y-77795349D01*
X127268864Y-77897536D01*
X127145936Y-78020464D01*
X127043748Y-78161113D01*
X126964741Y-78316174D01*
X126915992Y-78367789D01*
X126847078Y-78384855D01*
X126779876Y-78361954D01*
X126735724Y-78306356D01*
X126732641Y-78297908D01*
X126706907Y-78218709D01*
X126706906Y-78218707D01*
X126609863Y-78028249D01*
X126484222Y-77855320D01*
X126333079Y-77704177D01*
X126160150Y-77578536D01*
X125969692Y-77481493D01*
X125969689Y-77481492D01*
X125890491Y-77455758D01*
X125831885Y-77415684D01*
X125804249Y-77350287D01*
X125816356Y-77280330D01*
X125864363Y-77228024D01*
X125872226Y-77223658D01*
X125872375Y-77223581D01*
X125872381Y-77223580D01*
X126027284Y-77144653D01*
X126167933Y-77042465D01*
X126290865Y-76919533D01*
X126393053Y-76778884D01*
X126471980Y-76623981D01*
X126525703Y-76458638D01*
X126552900Y-76286926D01*
X126552900Y-76113074D01*
X126883900Y-76113074D01*
X126883900Y-76286926D01*
X126911097Y-76458638D01*
X126911098Y-76458642D01*
X126962804Y-76617778D01*
X126964820Y-76623981D01*
X127039386Y-76770325D01*
X127043749Y-76778887D01*
X127145936Y-76919535D01*
X127268864Y-77042463D01*
X127268867Y-77042465D01*
X127409516Y-77144653D01*
X127564419Y-77223580D01*
X127729762Y-77277303D01*
X127901474Y-77304500D01*
X127901477Y-77304500D01*
X128075323Y-77304500D01*
X128075326Y-77304500D01*
X128247038Y-77277303D01*
X128412381Y-77223580D01*
X128567284Y-77144653D01*
X128707933Y-77042465D01*
X128830865Y-76919533D01*
X128933053Y-76778884D01*
X129011980Y-76623981D01*
X129065703Y-76458638D01*
X129092900Y-76286926D01*
X129092900Y-76113074D01*
X129065703Y-75941362D01*
X129011980Y-75776019D01*
X128933053Y-75621116D01*
X128874926Y-75541111D01*
X128830863Y-75480464D01*
X128707935Y-75357536D01*
X128567287Y-75255349D01*
X128567286Y-75255348D01*
X128567284Y-75255347D01*
X128412381Y-75176420D01*
X128412378Y-75176419D01*
X128412376Y-75176418D01*
X128247042Y-75122698D01*
X128247040Y-75122697D01*
X128247038Y-75122697D01*
X128075326Y-75095500D01*
X127901474Y-75095500D01*
X127729762Y-75122697D01*
X127729760Y-75122697D01*
X127729757Y-75122698D01*
X127564423Y-75176418D01*
X127564417Y-75176421D01*
X127409512Y-75255349D01*
X127268864Y-75357536D01*
X127145936Y-75480464D01*
X127043749Y-75621112D01*
X126964821Y-75776017D01*
X126964818Y-75776023D01*
X126911098Y-75941357D01*
X126911097Y-75941360D01*
X126911097Y-75941362D01*
X126883900Y-76113074D01*
X126552900Y-76113074D01*
X126525703Y-75941362D01*
X126471980Y-75776019D01*
X126393053Y-75621116D01*
X126334926Y-75541111D01*
X126290863Y-75480464D01*
X126167935Y-75357536D01*
X126027287Y-75255349D01*
X126027286Y-75255348D01*
X126027284Y-75255347D01*
X125872381Y-75176420D01*
X125872378Y-75176419D01*
X125872376Y-75176418D01*
X125707042Y-75122698D01*
X125707040Y-75122697D01*
X125707038Y-75122697D01*
X125535326Y-75095500D01*
X125361474Y-75095500D01*
X125189762Y-75122697D01*
X125189760Y-75122697D01*
X125189757Y-75122698D01*
X125024423Y-75176418D01*
X125024417Y-75176421D01*
X124869512Y-75255349D01*
X124728864Y-75357536D01*
X124728861Y-75357539D01*
X124619995Y-75466406D01*
X124557683Y-75500432D01*
X124486868Y-75495367D01*
X124430032Y-75452820D01*
X124405221Y-75386300D01*
X124404900Y-75377311D01*
X124404900Y-74482689D01*
X124424902Y-74414568D01*
X124478558Y-74368075D01*
X124548832Y-74357971D01*
X124613412Y-74387465D01*
X124619995Y-74393594D01*
X124728864Y-74502463D01*
X124746808Y-74515500D01*
X124869516Y-74604653D01*
X125024419Y-74683580D01*
X125189762Y-74737303D01*
X125361474Y-74764500D01*
X125361477Y-74764500D01*
X125535323Y-74764500D01*
X125535326Y-74764500D01*
X125707038Y-74737303D01*
X125872381Y-74683580D01*
X126027284Y-74604653D01*
X126167933Y-74502465D01*
X126290865Y-74379533D01*
X126393053Y-74238884D01*
X126471980Y-74083981D01*
X126525703Y-73918638D01*
X126552900Y-73746926D01*
X126552900Y-73573074D01*
X126525703Y-73401362D01*
X126471980Y-73236019D01*
X126393053Y-73081116D01*
X126355256Y-73029093D01*
X126290863Y-72940464D01*
X126167935Y-72817536D01*
X126027287Y-72715349D01*
X126027286Y-72715348D01*
X126027284Y-72715347D01*
X125872381Y-72636420D01*
X125872378Y-72636419D01*
X125872225Y-72636341D01*
X125820610Y-72587593D01*
X125803544Y-72518678D01*
X125826445Y-72451476D01*
X125882042Y-72407324D01*
X125890492Y-72404241D01*
X125969686Y-72378509D01*
X125969692Y-72378506D01*
X126160150Y-72281463D01*
X126333079Y-72155822D01*
X126484222Y-72004679D01*
X126609863Y-71831750D01*
X126706906Y-71641292D01*
X126706909Y-71641286D01*
X126732641Y-71562092D01*
X126772714Y-71503486D01*
X126838111Y-71475849D01*
X126908068Y-71487956D01*
G37*
G04 #@! TD.AperFunction*
G04 #@! TA.AperFunction,Conductor*
G36*
X131103970Y-81998777D02*
G01*
X131149033Y-82027738D01*
X133079311Y-83958016D01*
X133079313Y-83958019D01*
X133108542Y-83987248D01*
X133110406Y-83989112D01*
X133126171Y-84017986D01*
X133144429Y-84051422D01*
X133139364Y-84122237D01*
X133139362Y-84122239D01*
X133139362Y-84122241D01*
X133110405Y-84167299D01*
X133096256Y-84181449D01*
X133059109Y-84218595D01*
X132996801Y-84252620D01*
X132970015Y-84255500D01*
X132931399Y-84255500D01*
X132848592Y-84277688D01*
X132790366Y-84293289D01*
X132663932Y-84366286D01*
X132663922Y-84366294D01*
X132560694Y-84469522D01*
X132560686Y-84469532D01*
X132487689Y-84595966D01*
X132477365Y-84634498D01*
X132449900Y-84736999D01*
X132449900Y-84883001D01*
X132473078Y-84969502D01*
X132487689Y-85024033D01*
X132540498Y-85115500D01*
X132557236Y-85184495D01*
X132534016Y-85251587D01*
X132478208Y-85295474D01*
X132431379Y-85304500D01*
X130912790Y-85304500D01*
X130882874Y-85295716D01*
X130852405Y-85289088D01*
X130847309Y-85285273D01*
X130844669Y-85284498D01*
X130823695Y-85267595D01*
X130815266Y-85259166D01*
X130815254Y-85259152D01*
X130737427Y-85181325D01*
X130737417Y-85181317D01*
X130650888Y-85131360D01*
X130650886Y-85131359D01*
X130650884Y-85131358D01*
X130650877Y-85131356D01*
X130633880Y-85126801D01*
X130633875Y-85126800D01*
X130624588Y-85124312D01*
X130554364Y-85105495D01*
X130454440Y-85105495D01*
X130454436Y-85105496D01*
X129962094Y-85105496D01*
X129962078Y-85105495D01*
X129954360Y-85105495D01*
X129854436Y-85105495D01*
X129817097Y-85115500D01*
X129757919Y-85131356D01*
X129757914Y-85131358D01*
X129724810Y-85150470D01*
X129724811Y-85150471D01*
X129671379Y-85181319D01*
X129671377Y-85181321D01*
X129636050Y-85216649D01*
X129600722Y-85251977D01*
X129600720Y-85251979D01*
X129437352Y-85415347D01*
X129277150Y-85575549D01*
X129214838Y-85609574D01*
X129144022Y-85604509D01*
X129087187Y-85561962D01*
X129086119Y-85560514D01*
X129024222Y-85475320D01*
X128873079Y-85324177D01*
X128700150Y-85198536D01*
X128509692Y-85101493D01*
X128509689Y-85101492D01*
X128430491Y-85075758D01*
X128371885Y-85035684D01*
X128344249Y-84970287D01*
X128356356Y-84900330D01*
X128404363Y-84848024D01*
X128412226Y-84843658D01*
X128412375Y-84843581D01*
X128412381Y-84843580D01*
X128567284Y-84764653D01*
X128707933Y-84662465D01*
X128830865Y-84539533D01*
X128933053Y-84398884D01*
X129011980Y-84243981D01*
X129065703Y-84078638D01*
X129092900Y-83906926D01*
X129092900Y-83733074D01*
X129065703Y-83561362D01*
X129020411Y-83421969D01*
X129018384Y-83351006D01*
X129051148Y-83293944D01*
X130154795Y-82190297D01*
X130217105Y-82156273D01*
X130287920Y-82161338D01*
X130306883Y-82170272D01*
X130332195Y-82184886D01*
X130473223Y-82222674D01*
X130473225Y-82222674D01*
X130619223Y-82222674D01*
X130619225Y-82222674D01*
X130760253Y-82184886D01*
X130760256Y-82184884D01*
X130760257Y-82184884D01*
X130846601Y-82135033D01*
X130886695Y-82111885D01*
X130917519Y-82081061D01*
X130970843Y-82027738D01*
X131033155Y-81993712D01*
X131103970Y-81998777D01*
G37*
G04 #@! TD.AperFunction*
G04 #@! TA.AperFunction,Conductor*
G36*
X148426922Y-77808044D02*
G01*
X148471075Y-77863642D01*
X148474158Y-77872091D01*
X148499892Y-77951289D01*
X148499893Y-77951292D01*
X148596936Y-78141750D01*
X148722577Y-78314679D01*
X148873720Y-78465822D01*
X149046656Y-78591468D01*
X149048452Y-78592569D01*
X149048991Y-78593164D01*
X149050658Y-78594376D01*
X149050403Y-78594726D01*
X149096082Y-78645217D01*
X149107688Y-78715259D01*
X149079583Y-78780456D01*
X149050611Y-78805559D01*
X149050658Y-78805624D01*
X149049911Y-78806166D01*
X149048452Y-78807431D01*
X149046656Y-78808531D01*
X148873720Y-78934177D01*
X148722577Y-79085320D01*
X148596936Y-79258249D01*
X148499893Y-79448707D01*
X148474158Y-79527909D01*
X148434083Y-79586514D01*
X148368686Y-79614150D01*
X148298730Y-79602042D01*
X148246424Y-79554036D01*
X148242058Y-79546174D01*
X148241981Y-79546023D01*
X148241980Y-79546019D01*
X148163053Y-79391116D01*
X148060865Y-79250467D01*
X148060863Y-79250464D01*
X147937935Y-79127536D01*
X147797287Y-79025349D01*
X147797286Y-79025348D01*
X147797284Y-79025347D01*
X147642381Y-78946420D01*
X147642378Y-78946419D01*
X147642376Y-78946418D01*
X147477042Y-78892698D01*
X147477040Y-78892697D01*
X147477038Y-78892697D01*
X147305326Y-78865500D01*
X147131474Y-78865500D01*
X146959762Y-78892697D01*
X146959760Y-78892697D01*
X146959757Y-78892698D01*
X146794423Y-78946418D01*
X146794417Y-78946421D01*
X146639512Y-79025349D01*
X146498864Y-79127536D01*
X146375936Y-79250464D01*
X146273749Y-79391112D01*
X146194821Y-79546017D01*
X146194818Y-79546023D01*
X146141098Y-79711357D01*
X146141097Y-79711360D01*
X146141097Y-79711362D01*
X146113900Y-79883074D01*
X146113900Y-80056926D01*
X146129149Y-80153204D01*
X146141097Y-80228640D01*
X146148679Y-80251974D01*
X146158598Y-80282502D01*
X146168239Y-80312171D01*
X146170267Y-80383139D01*
X146137501Y-80440203D01*
X145603665Y-80974040D01*
X145121372Y-81456333D01*
X145121370Y-81456335D01*
X145102547Y-81475158D01*
X145050714Y-81526990D01*
X145050710Y-81526995D01*
X145002021Y-81611328D01*
X145002020Y-81611329D01*
X145000751Y-81613529D01*
X145000378Y-81614921D01*
X144974888Y-81710049D01*
X144974888Y-81809973D01*
X144974889Y-81809976D01*
X144974889Y-81827991D01*
X144974889Y-82232125D01*
X144954887Y-82300246D01*
X144937984Y-82321220D01*
X144634282Y-82624922D01*
X144571970Y-82658948D01*
X144520606Y-82659406D01*
X144500969Y-82655500D01*
X143950836Y-82655500D01*
X143950826Y-82655501D01*
X143876598Y-82670265D01*
X143795902Y-82724186D01*
X143728149Y-82745401D01*
X143659682Y-82726618D01*
X143655898Y-82724186D01*
X143575202Y-82670266D01*
X143500969Y-82655500D01*
X143059493Y-82655500D01*
X142991372Y-82635498D01*
X142944879Y-82581842D01*
X142934775Y-82511568D01*
X142964269Y-82446988D01*
X142970388Y-82440414D01*
X142976983Y-82433820D01*
X143048611Y-82326622D01*
X143097948Y-82207511D01*
X143123100Y-82081063D01*
X143123100Y-81952137D01*
X143097948Y-81825689D01*
X143048611Y-81706578D01*
X142976983Y-81599380D01*
X142976978Y-81599374D01*
X142885825Y-81508221D01*
X142885819Y-81508216D01*
X142823641Y-81466670D01*
X142816408Y-81458015D01*
X142806400Y-81452815D01*
X142794047Y-81431259D01*
X142778113Y-81412193D01*
X142776707Y-81401000D01*
X142771100Y-81391216D01*
X142772361Y-81366405D01*
X142769265Y-81341750D01*
X142774133Y-81331575D01*
X142774706Y-81320311D01*
X142789184Y-81300116D01*
X142799907Y-81277706D01*
X142810581Y-81270272D01*
X142816074Y-81262612D01*
X142836843Y-81251984D01*
X142847190Y-81244780D01*
X142931820Y-81211215D01*
X142957732Y-81208824D01*
X142982946Y-81202427D01*
X142993499Y-81205525D01*
X143002517Y-81204694D01*
X143017910Y-81212692D01*
X143042413Y-81219887D01*
X143093002Y-81249806D01*
X143249014Y-81295132D01*
X143281399Y-81297679D01*
X143281400Y-81297679D01*
X143789400Y-81297679D01*
X143821785Y-81295132D01*
X143977799Y-81249805D01*
X144117628Y-81167110D01*
X144117635Y-81167105D01*
X144232505Y-81052235D01*
X144232510Y-81052228D01*
X144315205Y-80912399D01*
X144355415Y-80774000D01*
X143789400Y-80774000D01*
X143789400Y-81297679D01*
X143281400Y-81297679D01*
X143281400Y-80774000D01*
X142657591Y-80774000D01*
X142603413Y-80761757D01*
X142540422Y-80731757D01*
X142534328Y-80726302D01*
X142526479Y-80723998D01*
X142508253Y-80702964D01*
X142487521Y-80684408D01*
X142485343Y-80676524D01*
X142479986Y-80670342D01*
X142468600Y-80618000D01*
X142468600Y-80362000D01*
X142488602Y-80293879D01*
X142542258Y-80247386D01*
X142594600Y-80236000D01*
X143336409Y-80236000D01*
X143404530Y-80256002D01*
X143416936Y-80266000D01*
X144355415Y-80266000D01*
X144315205Y-80127600D01*
X144232510Y-79987771D01*
X144232505Y-79987764D01*
X144127036Y-79882295D01*
X144093010Y-79819983D01*
X144095663Y-79766934D01*
X144093902Y-79766656D01*
X144095452Y-79756864D01*
X144095454Y-79756862D01*
X144109900Y-79665653D01*
X144109899Y-79334348D01*
X144095454Y-79243138D01*
X144039440Y-79133204D01*
X144033899Y-79127663D01*
X143999873Y-79065351D01*
X144004938Y-78994536D01*
X144047485Y-78937700D01*
X144114005Y-78912889D01*
X144136455Y-78913289D01*
X144167245Y-78916600D01*
X144913754Y-78916599D01*
X144973842Y-78910140D01*
X145109767Y-78859442D01*
X145225904Y-78772504D01*
X145312842Y-78656367D01*
X145363540Y-78520442D01*
X145370000Y-78460355D01*
X145370000Y-78267601D01*
X145370274Y-78266664D01*
X145370014Y-78265724D01*
X145380249Y-78232695D01*
X145390002Y-78199480D01*
X145390740Y-78198840D01*
X145391029Y-78197909D01*
X145417496Y-78175656D01*
X145443658Y-78152987D01*
X145444870Y-78152640D01*
X145445371Y-78152220D01*
X145449035Y-78151451D01*
X145479928Y-78142630D01*
X145487929Y-78141601D01*
X145579262Y-78141601D01*
X145655384Y-78121203D01*
X145675782Y-78115738D01*
X145762319Y-78065776D01*
X145832976Y-77995119D01*
X145843341Y-77984754D01*
X145843348Y-77984744D01*
X145981690Y-77846404D01*
X146044003Y-77812379D01*
X146070785Y-77809500D01*
X146094943Y-77809500D01*
X146163064Y-77829502D01*
X146207209Y-77878296D01*
X146272583Y-78006600D01*
X146273749Y-78008887D01*
X146375936Y-78149535D01*
X146498864Y-78272463D01*
X146498867Y-78272465D01*
X146639516Y-78374653D01*
X146794419Y-78453580D01*
X146959762Y-78507303D01*
X147131474Y-78534500D01*
X147131477Y-78534500D01*
X147305323Y-78534500D01*
X147305326Y-78534500D01*
X147477038Y-78507303D01*
X147642381Y-78453580D01*
X147797284Y-78374653D01*
X147937933Y-78272465D01*
X148060865Y-78149533D01*
X148163053Y-78008884D01*
X148241980Y-77853981D01*
X148241981Y-77853975D01*
X148242058Y-77853826D01*
X148290806Y-77802210D01*
X148359721Y-77785144D01*
X148426922Y-77808044D01*
G37*
G04 #@! TD.AperFunction*
G04 #@! TA.AperFunction,Conductor*
G36*
X150012400Y-79539297D02*
G01*
X149951393Y-79504075D01*
X149824226Y-79470000D01*
X149692574Y-79470000D01*
X149565407Y-79504075D01*
X149504400Y-79539297D01*
X149504400Y-77860702D01*
X149565407Y-77895925D01*
X149692574Y-77930000D01*
X149824226Y-77930000D01*
X149951393Y-77895925D01*
X150012400Y-77860702D01*
X150012400Y-79539297D01*
G37*
G04 #@! TD.AperFunction*
G04 #@! TA.AperFunction,Conductor*
G36*
X137812392Y-76434933D02*
G01*
X137869228Y-76477479D01*
X137889357Y-76517835D01*
X137921770Y-76629401D01*
X138005108Y-76770318D01*
X138005114Y-76770325D01*
X138120874Y-76886085D01*
X138120881Y-76886091D01*
X138261799Y-76969429D01*
X138384072Y-77004953D01*
X138443907Y-77043166D01*
X138473585Y-77107662D01*
X138463682Y-77177965D01*
X138438016Y-77215044D01*
X138405300Y-77247760D01*
X138353340Y-77354047D01*
X138353339Y-77354049D01*
X138343300Y-77422952D01*
X138343300Y-77690247D01*
X138353339Y-77759150D01*
X138353340Y-77759155D01*
X138386147Y-77826262D01*
X138398096Y-77896245D01*
X138386147Y-77936938D01*
X138353340Y-78004044D01*
X138353339Y-78004049D01*
X138343300Y-78072952D01*
X138343300Y-78340247D01*
X138353339Y-78409150D01*
X138353340Y-78409155D01*
X138386147Y-78476262D01*
X138386724Y-78479641D01*
X138388901Y-78482292D01*
X138392656Y-78514385D01*
X138398096Y-78546245D01*
X138396871Y-78550413D01*
X138397152Y-78552807D01*
X138386147Y-78586940D01*
X138353815Y-78653074D01*
X138305926Y-78705488D01*
X138237302Y-78723690D01*
X138169732Y-78701903D01*
X138151523Y-78686829D01*
X138095464Y-78630770D01*
X138095452Y-78630756D01*
X138017625Y-78552929D01*
X138017615Y-78552921D01*
X137931083Y-78502962D01*
X137929480Y-78502298D01*
X137928334Y-78501375D01*
X137923930Y-78498832D01*
X137924326Y-78498145D01*
X137874198Y-78457751D01*
X137862855Y-78423675D01*
X137847881Y-78406600D01*
X137321465Y-78406600D01*
X137318182Y-78406557D01*
X137310698Y-78406361D01*
X137281446Y-78402100D01*
X137147167Y-78402100D01*
X137145517Y-78402057D01*
X137113237Y-78391658D01*
X137080679Y-78382098D01*
X137079562Y-78380809D01*
X137077941Y-78380287D01*
X137056416Y-78354097D01*
X137034186Y-78328442D01*
X137033773Y-78326547D01*
X137032862Y-78325438D01*
X137032077Y-78318749D01*
X137022800Y-78276100D01*
X137022800Y-78132600D01*
X137042802Y-78064479D01*
X137096458Y-78017986D01*
X137148800Y-78006600D01*
X137847879Y-78006600D01*
X137840150Y-77947881D01*
X137840149Y-77947880D01*
X137832668Y-77929818D01*
X137825079Y-77859228D01*
X137832668Y-77833382D01*
X137840150Y-77815318D01*
X137847881Y-77756600D01*
X137148800Y-77756600D01*
X137139974Y-77754008D01*
X137130868Y-77755318D01*
X137106442Y-77744162D01*
X137080679Y-77736598D01*
X137074654Y-77729644D01*
X137066288Y-77725824D01*
X137051773Y-77703238D01*
X137034186Y-77682942D01*
X137031861Y-77672255D01*
X137027904Y-77666098D01*
X137022800Y-77630600D01*
X137022800Y-77482600D01*
X137042802Y-77414479D01*
X137096458Y-77367986D01*
X137148800Y-77356600D01*
X137847879Y-77356600D01*
X137840150Y-77297881D01*
X137840149Y-77297880D01*
X137778887Y-77149978D01*
X137778882Y-77149970D01*
X137681430Y-77022969D01*
X137554429Y-76925517D01*
X137554421Y-76925512D01*
X137406519Y-76864250D01*
X137390858Y-76862188D01*
X137377659Y-76856348D01*
X137363264Y-76855318D01*
X137345838Y-76842271D01*
X137325931Y-76833464D01*
X137317984Y-76821416D01*
X137306432Y-76812767D01*
X137298826Y-76792371D01*
X137286840Y-76774199D01*
X137286668Y-76759767D01*
X137281626Y-76746245D01*
X137286255Y-76724971D01*
X137285997Y-76703207D01*
X137293947Y-76689624D01*
X137296723Y-76676872D01*
X137318218Y-76648164D01*
X137324584Y-76641799D01*
X137386898Y-76607778D01*
X137413672Y-76604901D01*
X137431025Y-76604901D01*
X137431026Y-76604901D01*
X137509863Y-76583776D01*
X137509864Y-76583776D01*
X137514636Y-76582497D01*
X137527546Y-76579038D01*
X137614083Y-76529076D01*
X137679266Y-76463892D01*
X137741576Y-76429869D01*
X137812392Y-76434933D01*
G37*
G04 #@! TD.AperFunction*
G04 #@! TA.AperFunction,Conductor*
G36*
X150012400Y-76999297D02*
G01*
X149951393Y-76964075D01*
X149824226Y-76930000D01*
X149692574Y-76930000D01*
X149565407Y-76964075D01*
X149504400Y-76999297D01*
X149504400Y-75320702D01*
X149565407Y-75355925D01*
X149692574Y-75390000D01*
X149824226Y-75390000D01*
X149951393Y-75355925D01*
X150012400Y-75320702D01*
X150012400Y-76999297D01*
G37*
G04 #@! TD.AperFunction*
G04 #@! TA.AperFunction,Conductor*
G36*
X136013277Y-70778802D02*
G01*
X136059770Y-70832458D01*
X136069874Y-70902732D01*
X136066863Y-70917412D01*
X136065888Y-70921050D01*
X136065888Y-71031123D01*
X136065889Y-71031136D01*
X136065889Y-71127334D01*
X136045887Y-71195455D01*
X135992231Y-71241948D01*
X135921957Y-71252052D01*
X135907281Y-71249041D01*
X135885673Y-71243251D01*
X135885668Y-71243251D01*
X135739666Y-71243251D01*
X135660363Y-71264500D01*
X135598633Y-71281040D01*
X135472199Y-71354037D01*
X135472189Y-71354045D01*
X135368961Y-71457273D01*
X135368953Y-71457283D01*
X135295956Y-71583717D01*
X135258167Y-71724751D01*
X135258167Y-71871824D01*
X135238165Y-71939945D01*
X135184509Y-71986438D01*
X135164783Y-71993529D01*
X135143586Y-71999208D01*
X135128111Y-72003355D01*
X135001677Y-72076352D01*
X135001667Y-72076360D01*
X134898439Y-72179588D01*
X134898431Y-72179598D01*
X134825434Y-72306032D01*
X134806015Y-72378506D01*
X134787645Y-72447065D01*
X134787645Y-72593067D01*
X134812411Y-72685495D01*
X134825434Y-72734099D01*
X134898431Y-72860533D01*
X134898433Y-72860536D01*
X134898434Y-72860537D01*
X134925740Y-72887843D01*
X134959765Y-72950153D01*
X134962645Y-72976938D01*
X134962645Y-73334189D01*
X134962644Y-73334193D01*
X134962644Y-73434117D01*
X134983041Y-73510239D01*
X134985461Y-73519271D01*
X134985462Y-73519276D01*
X134988506Y-73530635D01*
X135038466Y-73617170D01*
X135038474Y-73617180D01*
X135116301Y-73695007D01*
X135116315Y-73695019D01*
X135175894Y-73754598D01*
X135209920Y-73816910D01*
X135204855Y-73887725D01*
X135162308Y-73944561D01*
X135119412Y-73965399D01*
X135077624Y-73976596D01*
X135015323Y-73993289D01*
X134888889Y-74066286D01*
X134888879Y-74066294D01*
X134785651Y-74169522D01*
X134785643Y-74169532D01*
X134712646Y-74295966D01*
X134698896Y-74347284D01*
X134674857Y-74436999D01*
X134674857Y-74583001D01*
X134695205Y-74658942D01*
X134712646Y-74724033D01*
X134785643Y-74850467D01*
X134785645Y-74850470D01*
X134785646Y-74850471D01*
X134812952Y-74877777D01*
X134846977Y-74940087D01*
X134849857Y-74966872D01*
X134849857Y-76549657D01*
X134829855Y-76617778D01*
X134812953Y-76638752D01*
X134499711Y-76951995D01*
X134437398Y-76986020D01*
X134410615Y-76988900D01*
X133197273Y-76988900D01*
X133129152Y-76968898D01*
X133108178Y-76951995D01*
X133080877Y-76924694D01*
X133080867Y-76924686D01*
X132954433Y-76851689D01*
X132919284Y-76842271D01*
X132813401Y-76813900D01*
X132667399Y-76813900D01*
X132667398Y-76813900D01*
X132582004Y-76836781D01*
X132511028Y-76835091D01*
X132452232Y-76795296D01*
X132424285Y-76730032D01*
X132423394Y-76715074D01*
X132423394Y-76237861D01*
X132443396Y-76169740D01*
X132460295Y-76148769D01*
X132482977Y-76126088D01*
X132525423Y-76052569D01*
X132532937Y-76039555D01*
X132532937Y-76039554D01*
X132532939Y-76039551D01*
X132558801Y-75943031D01*
X132558801Y-75925677D01*
X132578803Y-75857556D01*
X132595702Y-75836585D01*
X132623012Y-75809276D01*
X132696013Y-75682834D01*
X132733801Y-75541806D01*
X132733801Y-75395804D01*
X132696013Y-75254776D01*
X132696011Y-75254773D01*
X132696011Y-75254771D01*
X132623014Y-75128337D01*
X132623006Y-75128327D01*
X132519778Y-75025099D01*
X132519768Y-75025091D01*
X132393334Y-74952094D01*
X132351993Y-74941017D01*
X132252302Y-74914305D01*
X132106300Y-74914305D01*
X132106299Y-74914305D01*
X132092409Y-74918027D01*
X132021432Y-74916337D01*
X131962637Y-74876542D01*
X131934690Y-74811277D01*
X131933799Y-74796320D01*
X131933799Y-73065499D01*
X131953801Y-72997378D01*
X132007457Y-72950885D01*
X132059794Y-72939499D01*
X132448052Y-72939499D01*
X132539262Y-72925054D01*
X132573115Y-72907805D01*
X132613875Y-72895150D01*
X132618812Y-72894500D01*
X132618819Y-72894500D01*
X132747130Y-72860119D01*
X132812045Y-72822640D01*
X132862170Y-72793701D01*
X133728301Y-71927570D01*
X133777116Y-71843019D01*
X133794719Y-71812530D01*
X133829100Y-71684219D01*
X133829100Y-71007616D01*
X133849102Y-70939495D01*
X133902758Y-70893002D01*
X133973032Y-70882898D01*
X134010435Y-70894417D01*
X134069734Y-70923407D01*
X134141067Y-70933800D01*
X134435732Y-70933799D01*
X134507066Y-70923407D01*
X134525286Y-70914500D01*
X134617103Y-70869614D01*
X134617106Y-70869611D01*
X134691013Y-70795705D01*
X134753325Y-70761679D01*
X134780108Y-70758800D01*
X135945156Y-70758800D01*
X136013277Y-70778802D01*
G37*
G04 #@! TD.AperFunction*
G04 #@! TA.AperFunction,Conductor*
G36*
X138673880Y-70766771D02*
G01*
X138701787Y-70771464D01*
X138707476Y-70776636D01*
X138714853Y-70778802D01*
X138733383Y-70800187D01*
X138754321Y-70819221D01*
X138758664Y-70829362D01*
X138761346Y-70832458D01*
X138768437Y-70852185D01*
X138779754Y-70894419D01*
X138787689Y-70924033D01*
X138860686Y-71050467D01*
X138860694Y-71050477D01*
X138963922Y-71153705D01*
X138963927Y-71153709D01*
X138963929Y-71153711D01*
X138963930Y-71153712D01*
X138963932Y-71153713D01*
X139090366Y-71226710D01*
X139090368Y-71226710D01*
X139090371Y-71226712D01*
X139231399Y-71264500D01*
X139231401Y-71264500D01*
X139377399Y-71264500D01*
X139377401Y-71264500D01*
X139518429Y-71226712D01*
X139518432Y-71226710D01*
X139518433Y-71226710D01*
X139597593Y-71181007D01*
X139644871Y-71153711D01*
X139675805Y-71122776D01*
X139738115Y-71088752D01*
X139808931Y-71093816D01*
X139865767Y-71136362D01*
X139890579Y-71202882D01*
X139890900Y-71211872D01*
X139890900Y-72233721D01*
X139884773Y-72254585D01*
X139883490Y-72276294D01*
X139874970Y-72287972D01*
X139870898Y-72301842D01*
X139854464Y-72316081D01*
X139841648Y-72333650D01*
X139824325Y-72342196D01*
X139817242Y-72348335D01*
X139810385Y-72351225D01*
X139804058Y-72353674D01*
X139733870Y-72372481D01*
X139698348Y-72392990D01*
X139689919Y-72397856D01*
X139689912Y-72397859D01*
X139618833Y-72438896D01*
X139618823Y-72438904D01*
X138762902Y-73294825D01*
X138762898Y-73294831D01*
X138727388Y-73356338D01*
X138727387Y-73356339D01*
X138696483Y-73409864D01*
X138696480Y-73409871D01*
X138684522Y-73454500D01*
X138664122Y-73530637D01*
X138662100Y-73538182D01*
X138662100Y-74941017D01*
X138662099Y-74941017D01*
X138696480Y-75069328D01*
X138696482Y-75069331D01*
X138717198Y-75105212D01*
X138717198Y-75105213D01*
X138762897Y-75184367D01*
X138762899Y-75184370D01*
X138878296Y-75299767D01*
X138912320Y-75362077D01*
X138915200Y-75388861D01*
X138915200Y-76074000D01*
X138895198Y-76142121D01*
X138841542Y-76188614D01*
X138789200Y-76200000D01*
X138533200Y-76200000D01*
X138465079Y-76179998D01*
X138418586Y-76126342D01*
X138407200Y-76074000D01*
X138407200Y-75388326D01*
X138407199Y-75388325D01*
X138296347Y-75420532D01*
X138225351Y-75420329D01*
X138165735Y-75381775D01*
X138136426Y-75317111D01*
X138135194Y-75299535D01*
X138135194Y-74978855D01*
X138131983Y-74966872D01*
X138109332Y-74882334D01*
X138109330Y-74882331D01*
X138109330Y-74882329D01*
X138059372Y-74795800D01*
X138059364Y-74795790D01*
X137984324Y-74720750D01*
X137984301Y-74720729D01*
X137620805Y-74357233D01*
X137586779Y-74294921D01*
X137583900Y-74268138D01*
X137583900Y-73287219D01*
X137583900Y-73287218D01*
X137558038Y-73190698D01*
X137558036Y-73190695D01*
X137558036Y-73190693D01*
X137508078Y-73104164D01*
X137508070Y-73104154D01*
X137433030Y-73029114D01*
X137433007Y-73029093D01*
X137311804Y-72907890D01*
X137277778Y-72845578D01*
X137274899Y-72818795D01*
X137274899Y-71380383D01*
X137294901Y-71312262D01*
X137311799Y-71291292D01*
X137454363Y-71148727D01*
X137454373Y-71148720D01*
X137535390Y-71067703D01*
X137535396Y-71067697D01*
X137576329Y-70996797D01*
X137627709Y-70947806D01*
X137685443Y-70933799D01*
X137967732Y-70933799D01*
X138039066Y-70923407D01*
X138057286Y-70914500D01*
X138149103Y-70869614D01*
X138149106Y-70869611D01*
X138223013Y-70795705D01*
X138285325Y-70761679D01*
X138312108Y-70758800D01*
X138646732Y-70758800D01*
X138673880Y-70766771D01*
G37*
G04 #@! TD.AperFunction*
G04 #@! TA.AperFunction,Conductor*
G36*
X143466161Y-74300502D02*
G01*
X143487130Y-74317400D01*
X143774380Y-74604650D01*
X144026135Y-74856405D01*
X144060160Y-74918717D01*
X144055095Y-74989533D01*
X144012548Y-75046368D01*
X143946028Y-75071179D01*
X143937039Y-75071500D01*
X142858563Y-75071500D01*
X142854533Y-75071817D01*
X142785054Y-75057218D01*
X142734497Y-75007373D01*
X142718913Y-74938108D01*
X142735534Y-74883205D01*
X142782110Y-74802533D01*
X142782110Y-74802532D01*
X142782112Y-74802529D01*
X142819900Y-74661501D01*
X142819900Y-74515499D01*
X142799432Y-74439110D01*
X142801122Y-74368134D01*
X142840917Y-74309338D01*
X142906181Y-74281391D01*
X142921139Y-74280500D01*
X143398040Y-74280500D01*
X143466161Y-74300502D01*
G37*
G04 #@! TD.AperFunction*
G04 #@! TA.AperFunction,Conductor*
G36*
X150012400Y-74459297D02*
G01*
X149951393Y-74424075D01*
X149824226Y-74390000D01*
X149692574Y-74390000D01*
X149565407Y-74424075D01*
X149504400Y-74459297D01*
X149504400Y-72780702D01*
X149565407Y-72815925D01*
X149692574Y-72850000D01*
X149824226Y-72850000D01*
X149951393Y-72815925D01*
X150012400Y-72780702D01*
X150012400Y-74459297D01*
G37*
G04 #@! TD.AperFunction*
G04 #@! TA.AperFunction,Conductor*
G36*
X145053244Y-71391730D02*
G01*
X145105118Y-71423012D01*
X145450395Y-71768289D01*
X145484421Y-71830601D01*
X145487300Y-71857384D01*
X145487300Y-72858445D01*
X145467298Y-72926566D01*
X145413642Y-72973059D01*
X145343368Y-72983163D01*
X145318614Y-72976162D01*
X145318609Y-72976181D01*
X145316092Y-72975449D01*
X145311266Y-72974085D01*
X145311002Y-72973971D01*
X145153773Y-72928290D01*
X145135600Y-72926859D01*
X145135600Y-73587400D01*
X145115598Y-73655521D01*
X145061942Y-73702014D01*
X145009600Y-73713400D01*
X144753600Y-73713400D01*
X144685479Y-73693398D01*
X144638986Y-73639742D01*
X144627600Y-73587400D01*
X144627600Y-72926859D01*
X144609428Y-72928290D01*
X144609425Y-72928290D01*
X144452198Y-72973970D01*
X144311281Y-73057308D01*
X144199518Y-73169071D01*
X144137206Y-73203096D01*
X144066390Y-73198030D01*
X144053220Y-73192242D01*
X144041953Y-73186501D01*
X143975444Y-73175968D01*
X143947234Y-73171500D01*
X142858566Y-73171500D01*
X142832666Y-73175602D01*
X142763846Y-73186501D01*
X142649676Y-73244673D01*
X142559073Y-73335276D01*
X142500901Y-73449446D01*
X142485900Y-73544167D01*
X142485900Y-73909743D01*
X142483308Y-73918568D01*
X142484618Y-73927675D01*
X142473462Y-73952100D01*
X142465898Y-73977864D01*
X142458944Y-73983888D01*
X142455124Y-73992255D01*
X142432538Y-74006769D01*
X142412242Y-74024357D01*
X142401555Y-74026681D01*
X142395398Y-74030639D01*
X142376701Y-74032088D01*
X142359900Y-74035743D01*
X142344906Y-74035743D01*
X142338401Y-74034000D01*
X142192399Y-74034000D01*
X142185894Y-74035743D01*
X142170900Y-74035743D01*
X142144441Y-74027974D01*
X142117196Y-74023725D01*
X142110881Y-74018119D01*
X142102779Y-74015741D01*
X142084720Y-73994899D01*
X142064098Y-73976596D01*
X142061737Y-73968376D01*
X142056286Y-73962085D01*
X142052631Y-73936664D01*
X142044900Y-73909743D01*
X142044900Y-73544167D01*
X142029898Y-73449445D01*
X142013256Y-73416784D01*
X142000151Y-73347008D01*
X142026850Y-73281223D01*
X142062524Y-73250461D01*
X142069730Y-73246301D01*
X142626101Y-72689930D01*
X142680130Y-72596346D01*
X142731510Y-72547356D01*
X142801223Y-72533918D01*
X142846451Y-72547081D01*
X143014107Y-72632506D01*
X143014113Y-72632509D01*
X143217398Y-72698560D01*
X143281400Y-72708696D01*
X143281400Y-71804702D01*
X143342407Y-71839925D01*
X143469574Y-71874000D01*
X143601226Y-71874000D01*
X143728393Y-71839925D01*
X143789400Y-71804702D01*
X143789400Y-72708696D01*
X143853401Y-72698560D01*
X144056686Y-72632509D01*
X144056692Y-72632506D01*
X144247150Y-72535463D01*
X144420079Y-72409822D01*
X144571222Y-72258679D01*
X144696863Y-72085750D01*
X144793906Y-71895292D01*
X144793909Y-71895286D01*
X144859960Y-71692002D01*
X144891574Y-71492397D01*
X144921986Y-71428243D01*
X144982254Y-71390716D01*
X145053244Y-71391730D01*
G37*
G04 #@! TD.AperFunction*
G04 #@! TA.AperFunction,Conductor*
G36*
X150012400Y-71919297D02*
G01*
X149951393Y-71884075D01*
X149824226Y-71850000D01*
X149692574Y-71850000D01*
X149565407Y-71884075D01*
X149504400Y-71919297D01*
X149504400Y-70240702D01*
X149565407Y-70275925D01*
X149692574Y-70310000D01*
X149824226Y-70310000D01*
X149951393Y-70275925D01*
X150012400Y-70240702D01*
X150012400Y-71919297D01*
G37*
G04 #@! TD.AperFunction*
G04 #@! TA.AperFunction,Conductor*
G36*
X143789400Y-70943297D02*
G01*
X143728393Y-70908075D01*
X143601226Y-70874000D01*
X143469574Y-70874000D01*
X143342407Y-70908075D01*
X143281400Y-70943297D01*
X143281400Y-69264702D01*
X143342407Y-69299925D01*
X143469574Y-69334000D01*
X143601226Y-69334000D01*
X143728393Y-69299925D01*
X143789400Y-69264702D01*
X143789400Y-70943297D01*
G37*
G04 #@! TD.AperFunction*
G04 #@! TA.AperFunction,Conductor*
G36*
X126656922Y-66418044D02*
G01*
X126701075Y-66473642D01*
X126704158Y-66482091D01*
X126729892Y-66561289D01*
X126729893Y-66561292D01*
X126826936Y-66751750D01*
X126952577Y-66924679D01*
X127103720Y-67075822D01*
X127276649Y-67201463D01*
X127467107Y-67298506D01*
X127467109Y-67298507D01*
X127546308Y-67324241D01*
X127604913Y-67364315D01*
X127632550Y-67429711D01*
X127620443Y-67499668D01*
X127572437Y-67551974D01*
X127564574Y-67556341D01*
X127409513Y-67635348D01*
X127268864Y-67737536D01*
X127145936Y-67860464D01*
X127043749Y-68001112D01*
X126964821Y-68156017D01*
X126964818Y-68156023D01*
X126911098Y-68321357D01*
X126911097Y-68321360D01*
X126911097Y-68321362D01*
X126883900Y-68493074D01*
X126883900Y-68666926D01*
X126910331Y-68833799D01*
X126911098Y-68838642D01*
X126961233Y-68992943D01*
X126964820Y-69003981D01*
X127043747Y-69158884D01*
X127043749Y-69158887D01*
X127145936Y-69299535D01*
X127268864Y-69422463D01*
X127268867Y-69422465D01*
X127409516Y-69524653D01*
X127564419Y-69603580D01*
X127729762Y-69657303D01*
X127901474Y-69684500D01*
X127901477Y-69684500D01*
X128075323Y-69684500D01*
X128075326Y-69684500D01*
X128247038Y-69657303D01*
X128412381Y-69603580D01*
X128567284Y-69524653D01*
X128583840Y-69512624D01*
X128650706Y-69488766D01*
X128719857Y-69504845D01*
X128769339Y-69555758D01*
X128783901Y-69614560D01*
X128783901Y-70085439D01*
X128763899Y-70153560D01*
X128710243Y-70200053D01*
X128639969Y-70210157D01*
X128583841Y-70187376D01*
X128567286Y-70175348D01*
X128528332Y-70155500D01*
X128412381Y-70096420D01*
X128412378Y-70096419D01*
X128412376Y-70096418D01*
X128247042Y-70042698D01*
X128247040Y-70042697D01*
X128247038Y-70042697D01*
X128075326Y-70015500D01*
X127901474Y-70015500D01*
X127729762Y-70042697D01*
X127729760Y-70042697D01*
X127729757Y-70042698D01*
X127564423Y-70096418D01*
X127564417Y-70096421D01*
X127409512Y-70175349D01*
X127268864Y-70277536D01*
X127145936Y-70400464D01*
X127043748Y-70541113D01*
X126964741Y-70696174D01*
X126915992Y-70747789D01*
X126847078Y-70764855D01*
X126779876Y-70741954D01*
X126735724Y-70686356D01*
X126732641Y-70677908D01*
X126706907Y-70598709D01*
X126706906Y-70598707D01*
X126609863Y-70408249D01*
X126484222Y-70235320D01*
X126333079Y-70084177D01*
X126160150Y-69958536D01*
X125969692Y-69861493D01*
X125969689Y-69861492D01*
X125890491Y-69835758D01*
X125831885Y-69795684D01*
X125804249Y-69730287D01*
X125816356Y-69660330D01*
X125864363Y-69608024D01*
X125872226Y-69603658D01*
X125872375Y-69603581D01*
X125872381Y-69603580D01*
X126027284Y-69524653D01*
X126167933Y-69422465D01*
X126290865Y-69299533D01*
X126393053Y-69158884D01*
X126471980Y-69003981D01*
X126525703Y-68838638D01*
X126552900Y-68666926D01*
X126552900Y-68493074D01*
X126525703Y-68321362D01*
X126471980Y-68156019D01*
X126393053Y-68001116D01*
X126333583Y-67919263D01*
X126290863Y-67860464D01*
X126167935Y-67737536D01*
X126027287Y-67635349D01*
X126027286Y-67635348D01*
X126027284Y-67635347D01*
X125872381Y-67556420D01*
X125872378Y-67556419D01*
X125872376Y-67556418D01*
X125707042Y-67502698D01*
X125707040Y-67502697D01*
X125707038Y-67502697D01*
X125535326Y-67475500D01*
X125361474Y-67475500D01*
X125189762Y-67502697D01*
X125189760Y-67502697D01*
X125189757Y-67502698D01*
X125024423Y-67556418D01*
X125024417Y-67556421D01*
X124869512Y-67635349D01*
X124728864Y-67737536D01*
X124728861Y-67737539D01*
X124619995Y-67846406D01*
X124557683Y-67880432D01*
X124486868Y-67875367D01*
X124430032Y-67832820D01*
X124405221Y-67766300D01*
X124404900Y-67757311D01*
X124404900Y-66862689D01*
X124424902Y-66794568D01*
X124478558Y-66748075D01*
X124548832Y-66737971D01*
X124613412Y-66767465D01*
X124619995Y-66773594D01*
X124728864Y-66882463D01*
X124786969Y-66924679D01*
X124869516Y-66984653D01*
X125024419Y-67063580D01*
X125189762Y-67117303D01*
X125361474Y-67144500D01*
X125361477Y-67144500D01*
X125535323Y-67144500D01*
X125535326Y-67144500D01*
X125707038Y-67117303D01*
X125872381Y-67063580D01*
X126027284Y-66984653D01*
X126167933Y-66882465D01*
X126290865Y-66759533D01*
X126393053Y-66618884D01*
X126471980Y-66463981D01*
X126471981Y-66463975D01*
X126472058Y-66463826D01*
X126520806Y-66412210D01*
X126589721Y-66395144D01*
X126656922Y-66418044D01*
G37*
G04 #@! TD.AperFunction*
G04 #@! TA.AperFunction,Conductor*
G36*
X126826021Y-54930502D02*
G01*
X126872514Y-54984158D01*
X126883900Y-55036500D01*
X126883900Y-56755063D01*
X126883901Y-56755073D01*
X126898665Y-56829300D01*
X126954916Y-56913484D01*
X127039097Y-56969733D01*
X127039099Y-56969734D01*
X127113333Y-56984500D01*
X128863466Y-56984499D01*
X128863469Y-56984498D01*
X128863473Y-56984498D01*
X128912726Y-56974701D01*
X128937701Y-56969734D01*
X129021884Y-56913484D01*
X129078134Y-56829301D01*
X129092900Y-56755067D01*
X129092900Y-56418627D01*
X129098568Y-56399322D01*
X129099223Y-56379214D01*
X129108364Y-56365958D01*
X129112902Y-56350506D01*
X129128108Y-56337329D01*
X129139530Y-56320768D01*
X129158225Y-56311233D01*
X129166558Y-56304013D01*
X129170315Y-56302371D01*
X129178113Y-56299111D01*
X129248581Y-56280230D01*
X129307876Y-56245996D01*
X129346519Y-56223686D01*
X129566439Y-56003765D01*
X129570593Y-56001496D01*
X129573159Y-55997518D01*
X129601462Y-55984641D01*
X129628751Y-55969741D01*
X129633472Y-55970078D01*
X129637782Y-55968118D01*
X129668550Y-55972587D01*
X129699566Y-55974805D01*
X129703356Y-55977642D01*
X129708041Y-55978323D01*
X129731509Y-55998717D01*
X129756402Y-56017352D01*
X129759049Y-56022650D01*
X129761630Y-56024893D01*
X129766281Y-56037124D01*
X129776481Y-56057537D01*
X129778728Y-56065233D01*
X129789946Y-56136062D01*
X129812132Y-56179605D01*
X129815447Y-56190953D01*
X129815426Y-56205145D01*
X129820500Y-56226277D01*
X129820500Y-56759121D01*
X129829825Y-56793923D01*
X129833396Y-56839998D01*
X129830501Y-56866928D01*
X129830500Y-56866952D01*
X129830500Y-57463446D01*
X129830502Y-57463470D01*
X129836959Y-57523539D01*
X129836959Y-57523541D01*
X129887657Y-57659466D01*
X129887658Y-57659467D01*
X129974596Y-57775604D01*
X130090733Y-57862542D01*
X130090736Y-57862543D01*
X130098641Y-57866860D01*
X130097785Y-57868427D01*
X130145953Y-57904480D01*
X130170768Y-57970998D01*
X130155682Y-58040373D01*
X130105484Y-58090579D01*
X130084724Y-58099600D01*
X130012477Y-58123541D01*
X129861660Y-58216565D01*
X129861654Y-58216570D01*
X129736370Y-58341854D01*
X129736365Y-58341860D01*
X129643342Y-58492674D01*
X129587606Y-58660878D01*
X129587605Y-58660881D01*
X129577000Y-58764683D01*
X129577000Y-58811200D01*
X132043000Y-58811200D01*
X132043000Y-58764692D01*
X132042368Y-58758506D01*
X132045215Y-58743188D01*
X132042998Y-58727768D01*
X132051571Y-58708996D01*
X132055343Y-58688705D01*
X132066020Y-58677357D01*
X132072492Y-58663188D01*
X132089851Y-58652031D01*
X132103996Y-58637000D01*
X132120003Y-58632654D01*
X132132218Y-58624804D01*
X132167716Y-58619700D01*
X132185707Y-58619700D01*
X132242909Y-58633433D01*
X132284644Y-58654698D01*
X132316218Y-58659698D01*
X132379366Y-58669700D01*
X132379368Y-58669700D01*
X133468032Y-58669700D01*
X133468034Y-58669700D01*
X133562755Y-58654698D01*
X133676923Y-58596526D01*
X133767526Y-58505923D01*
X133825698Y-58391755D01*
X133840700Y-58297034D01*
X133840700Y-57933366D01*
X133825698Y-57838645D01*
X133775276Y-57739687D01*
X133767526Y-57724476D01*
X133676923Y-57633873D01*
X133562753Y-57575701D01*
X133467990Y-57560693D01*
X133403837Y-57530281D01*
X133366310Y-57470013D01*
X133361700Y-57436244D01*
X133361700Y-56059783D01*
X133361700Y-56059781D01*
X133342415Y-55987809D01*
X133344105Y-55916835D01*
X133383899Y-55858039D01*
X133449163Y-55830091D01*
X133464122Y-55829200D01*
X133525200Y-55829200D01*
X133525200Y-55701200D01*
X133545202Y-55633079D01*
X133598858Y-55586586D01*
X133651200Y-55575200D01*
X134471200Y-55575200D01*
X134539321Y-55595202D01*
X134585814Y-55648858D01*
X134597200Y-55701200D01*
X134597200Y-55957200D01*
X134577198Y-56025321D01*
X134523542Y-56071814D01*
X134471200Y-56083200D01*
X133779200Y-56083200D01*
X133779200Y-56640872D01*
X133924598Y-56598630D01*
X133997060Y-56555776D01*
X134002982Y-56554273D01*
X134007554Y-56550220D01*
X134036995Y-56545643D01*
X134065876Y-56538316D01*
X134073220Y-56540012D01*
X134077709Y-56539315D01*
X134092853Y-56544548D01*
X134112232Y-56549026D01*
X134282284Y-56624355D01*
X134303171Y-56642040D01*
X134326240Y-56656773D01*
X134329859Y-56664639D01*
X134336466Y-56670233D01*
X134344475Y-56696401D01*
X134355918Y-56721269D01*
X134354710Y-56729842D01*
X134357244Y-56738121D01*
X134349832Y-56764469D01*
X134346015Y-56791572D01*
X134343519Y-56796760D01*
X134296701Y-56888644D01*
X134281700Y-56983367D01*
X134281700Y-57347032D01*
X134296701Y-57441753D01*
X134354873Y-57555923D01*
X134445476Y-57646526D01*
X134470873Y-57659466D01*
X134559645Y-57704698D01*
X134588558Y-57709277D01*
X134652712Y-57739687D01*
X134688747Y-57794985D01*
X134694200Y-57811861D01*
X134694200Y-57820519D01*
X134728581Y-57948830D01*
X134744338Y-57976121D01*
X134751008Y-57987675D01*
X134751010Y-57987679D01*
X134797499Y-58068200D01*
X134814237Y-58137196D01*
X134791016Y-58204288D01*
X134735209Y-58248175D01*
X134688382Y-58257200D01*
X134619744Y-58257200D01*
X134582449Y-58260134D01*
X134422799Y-58306518D01*
X134279698Y-58391148D01*
X134279696Y-58391149D01*
X134162149Y-58508696D01*
X134162148Y-58508698D01*
X134077518Y-58651798D01*
X134031207Y-58811200D01*
X135072700Y-58811200D01*
X135140821Y-58831202D01*
X135187314Y-58884858D01*
X135198700Y-58937200D01*
X135198700Y-59065200D01*
X135326700Y-59065200D01*
X135394821Y-59085202D01*
X135441314Y-59138858D01*
X135452700Y-59191200D01*
X135452700Y-59873199D01*
X135777656Y-59873199D01*
X135814948Y-59870265D01*
X135874102Y-59853079D01*
X135945098Y-59853281D01*
X136004715Y-59891835D01*
X136017709Y-59909937D01*
X136074708Y-60006318D01*
X136074714Y-60006325D01*
X136190474Y-60122085D01*
X136190481Y-60122091D01*
X136331398Y-60205429D01*
X136476800Y-60247672D01*
X136476800Y-59562000D01*
X136496802Y-59493879D01*
X136550458Y-59447386D01*
X136602800Y-59436000D01*
X136858800Y-59436000D01*
X136926921Y-59456002D01*
X136973414Y-59509658D01*
X136984800Y-59562000D01*
X136984800Y-60247673D01*
X136985665Y-60248323D01*
X136990496Y-60254795D01*
X136997647Y-60258551D01*
X137011427Y-60282840D01*
X137028130Y-60305219D01*
X137029587Y-60314849D01*
X137032681Y-60320302D01*
X137033578Y-60341219D01*
X137035820Y-60356027D01*
X137035037Y-60370202D01*
X137033939Y-60372450D01*
X137023900Y-60441354D01*
X137023900Y-60571979D01*
X137023708Y-60575458D01*
X137012962Y-60605763D01*
X137003898Y-60636635D01*
X137000836Y-60639962D01*
X136999982Y-60642373D01*
X136995244Y-60646040D01*
X136974607Y-60668474D01*
X136944770Y-60691370D01*
X136944765Y-60691374D01*
X136847317Y-60818370D01*
X136847312Y-60818378D01*
X136786049Y-60966281D01*
X136778319Y-61024999D01*
X136778319Y-61025000D01*
X137304735Y-61025000D01*
X137313560Y-61027591D01*
X137322667Y-61026282D01*
X137344754Y-61029500D01*
X137760356Y-61029500D01*
X137812872Y-61043571D01*
X137813541Y-61041958D01*
X137821164Y-61045116D01*
X137821170Y-61045119D01*
X137949481Y-61079500D01*
X137949483Y-61079500D01*
X138082317Y-61079500D01*
X138082319Y-61079500D01*
X138210630Y-61045119D01*
X138210637Y-61045114D01*
X138218259Y-61041958D01*
X138218927Y-61043571D01*
X138271444Y-61029500D01*
X138687040Y-61029500D01*
X138687046Y-61029500D01*
X138708900Y-61026316D01*
X138716232Y-61027356D01*
X138727065Y-61025000D01*
X139253479Y-61025000D01*
X139245750Y-60966281D01*
X139245749Y-60966280D01*
X139184487Y-60818378D01*
X139184482Y-60818370D01*
X139087034Y-60691374D01*
X139087029Y-60691370D01*
X139057193Y-60668474D01*
X139056307Y-60667261D01*
X139054920Y-60666688D01*
X139035444Y-60638687D01*
X139015327Y-60611134D01*
X139014960Y-60609236D01*
X139014381Y-60608403D01*
X139012163Y-60594754D01*
X139007984Y-60573115D01*
X139007900Y-60570816D01*
X139007900Y-60441354D01*
X139001586Y-60398017D01*
X139001337Y-60391201D01*
X139008473Y-60363141D01*
X139012541Y-60334473D01*
X139017113Y-60329176D01*
X139018838Y-60322395D01*
X139040015Y-60302646D01*
X139058934Y-60280730D01*
X139065643Y-60278746D01*
X139070761Y-60273974D01*
X139099249Y-60268809D01*
X139127017Y-60260600D01*
X144152448Y-60260600D01*
X144220569Y-60280602D01*
X144267062Y-60334258D01*
X144277166Y-60404532D01*
X144274156Y-60419204D01*
X144259423Y-60474191D01*
X144250900Y-60506000D01*
X144250900Y-60544616D01*
X144230898Y-60612737D01*
X144213995Y-60633711D01*
X143389111Y-61458595D01*
X143326799Y-61492621D01*
X143300016Y-61495500D01*
X139372398Y-61495500D01*
X139304277Y-61475498D01*
X139277666Y-61452578D01*
X139253481Y-61425000D01*
X138727065Y-61425000D01*
X138709212Y-61423706D01*
X138709133Y-61423718D01*
X138709088Y-61423697D01*
X138708900Y-61423684D01*
X138687049Y-61420500D01*
X138687046Y-61420500D01*
X137344754Y-61420500D01*
X137344750Y-61420500D01*
X137322900Y-61423684D01*
X137304735Y-61425000D01*
X136778320Y-61425000D01*
X136786049Y-61483718D01*
X136786050Y-61483719D01*
X136847312Y-61631621D01*
X136847317Y-61631629D01*
X136944768Y-61758628D01*
X136974602Y-61781520D01*
X137016471Y-61838857D01*
X137023900Y-61881484D01*
X137023900Y-62008647D01*
X137033939Y-62077550D01*
X137033940Y-62077555D01*
X137066747Y-62144662D01*
X137078696Y-62214645D01*
X137066747Y-62255338D01*
X137033940Y-62322444D01*
X137033939Y-62322449D01*
X137023900Y-62391352D01*
X137023900Y-62658647D01*
X137033939Y-62727550D01*
X137033940Y-62727555D01*
X137066747Y-62794662D01*
X137078696Y-62864645D01*
X137066747Y-62905338D01*
X137033940Y-62972444D01*
X137033939Y-62972449D01*
X137023900Y-63041352D01*
X137023900Y-63308647D01*
X137033939Y-63377550D01*
X137033940Y-63377555D01*
X137066747Y-63444662D01*
X137078696Y-63514645D01*
X137066747Y-63555338D01*
X137033940Y-63622444D01*
X137033939Y-63622449D01*
X137023900Y-63691352D01*
X137023900Y-63958647D01*
X137033939Y-64027550D01*
X137033940Y-64027555D01*
X137066747Y-64094662D01*
X137078696Y-64164645D01*
X137066747Y-64205338D01*
X137033940Y-64272444D01*
X137033939Y-64272449D01*
X137023900Y-64341352D01*
X137023900Y-64608647D01*
X137033939Y-64677550D01*
X137033940Y-64677555D01*
X137066747Y-64744662D01*
X137078696Y-64814645D01*
X137066747Y-64855338D01*
X137033940Y-64922444D01*
X137033939Y-64922449D01*
X137023900Y-64991352D01*
X137023900Y-65258647D01*
X137033939Y-65327550D01*
X137033940Y-65327555D01*
X137066747Y-65394662D01*
X137078696Y-65464645D01*
X137066747Y-65505338D01*
X137033940Y-65572444D01*
X137033939Y-65572449D01*
X137023900Y-65641352D01*
X137023900Y-65768514D01*
X137003898Y-65836635D01*
X136974607Y-65868474D01*
X136944770Y-65891370D01*
X136944765Y-65891374D01*
X136847317Y-66018370D01*
X136847312Y-66018378D01*
X136786049Y-66166281D01*
X136778319Y-66224999D01*
X136778319Y-66225000D01*
X137304735Y-66225000D01*
X137322900Y-66226316D01*
X137344754Y-66229500D01*
X137344760Y-66229500D01*
X138687040Y-66229500D01*
X138687046Y-66229500D01*
X138708900Y-66226316D01*
X138727065Y-66225000D01*
X139253480Y-66225000D01*
X139277666Y-66197422D01*
X139337620Y-66159394D01*
X139372397Y-66154500D01*
X143423606Y-66154500D01*
X143491727Y-66174502D01*
X143512701Y-66191405D01*
X144465195Y-67143899D01*
X144499221Y-67206211D01*
X144502100Y-67232994D01*
X144502100Y-67610479D01*
X144482098Y-67678600D01*
X144428442Y-67725093D01*
X144358168Y-67735197D01*
X144302039Y-67712415D01*
X144247150Y-67672536D01*
X144056692Y-67575493D01*
X144056686Y-67575490D01*
X143853404Y-67509440D01*
X143789400Y-67499302D01*
X143789400Y-68403297D01*
X143728393Y-68368075D01*
X143601226Y-68334000D01*
X143469574Y-68334000D01*
X143342407Y-68368075D01*
X143281400Y-68403297D01*
X143281400Y-67499302D01*
X143217395Y-67509440D01*
X143031661Y-67569789D01*
X142960693Y-67571816D01*
X142899895Y-67535154D01*
X142868570Y-67471442D01*
X142869145Y-67425379D01*
X142881800Y-67361763D01*
X142881800Y-67232837D01*
X142856648Y-67106389D01*
X142807311Y-66987278D01*
X142735683Y-66880080D01*
X142735678Y-66880074D01*
X142644525Y-66788921D01*
X142644519Y-66788916D01*
X142583396Y-66748075D01*
X142537322Y-66717289D01*
X142418211Y-66667952D01*
X142291765Y-66642800D01*
X142291763Y-66642800D01*
X142162837Y-66642800D01*
X142162834Y-66642800D01*
X142036388Y-66667952D01*
X142036383Y-66667954D01*
X141917278Y-66717289D01*
X141810080Y-66788916D01*
X141810074Y-66788921D01*
X141718921Y-66880074D01*
X141718916Y-66880080D01*
X141647289Y-66987278D01*
X141597954Y-67106383D01*
X141597952Y-67106388D01*
X141572800Y-67232834D01*
X141572800Y-67361765D01*
X141592936Y-67462993D01*
X141597952Y-67488211D01*
X141647289Y-67607322D01*
X141701565Y-67688551D01*
X141707307Y-67706890D01*
X141717696Y-67723055D01*
X141722219Y-67754512D01*
X141722780Y-67756304D01*
X141722800Y-67758553D01*
X141722800Y-67759406D01*
X141702798Y-67827527D01*
X141649142Y-67874020D01*
X141578868Y-67884124D01*
X141539598Y-67871673D01*
X141419388Y-67810423D01*
X141419376Y-67810418D01*
X141254042Y-67756698D01*
X141254040Y-67756697D01*
X141254038Y-67756697D01*
X141082326Y-67729500D01*
X140908474Y-67729500D01*
X140736762Y-67756697D01*
X140736760Y-67756697D01*
X140736757Y-67756698D01*
X140571423Y-67810418D01*
X140571417Y-67810421D01*
X140416512Y-67889349D01*
X140275864Y-67991536D01*
X140152936Y-68114464D01*
X140050749Y-68255112D01*
X139971821Y-68410017D01*
X139971818Y-68410023D01*
X139918098Y-68575357D01*
X139918097Y-68575360D01*
X139918097Y-68575362D01*
X139890900Y-68747074D01*
X139890900Y-68920926D01*
X139918097Y-69092638D01*
X139918098Y-69092642D01*
X139960435Y-69222943D01*
X139971820Y-69257981D01*
X140050283Y-69411973D01*
X140050749Y-69412887D01*
X140152936Y-69553535D01*
X140275864Y-69676463D01*
X140416515Y-69778652D01*
X140416517Y-69778654D01*
X140422096Y-69781496D01*
X140433342Y-69792116D01*
X140447412Y-69798542D01*
X140458628Y-69815995D01*
X140473714Y-69830241D01*
X140478025Y-69846176D01*
X140485796Y-69858268D01*
X140490900Y-69893766D01*
X140490900Y-70143500D01*
X140470898Y-70211621D01*
X140417242Y-70258114D01*
X140364901Y-70269500D01*
X140120336Y-70269500D01*
X140120326Y-70269501D01*
X140046099Y-70284265D01*
X139961916Y-70340515D01*
X139949719Y-70358769D01*
X139895240Y-70404294D01*
X139824797Y-70413140D01*
X139760754Y-70382497D01*
X139754058Y-70375260D01*
X139753951Y-70375368D01*
X139644877Y-70266294D01*
X139644867Y-70266286D01*
X139518433Y-70193289D01*
X139496365Y-70187376D01*
X139377401Y-70155500D01*
X139377399Y-70155500D01*
X139338786Y-70155500D01*
X139271260Y-70135878D01*
X139259522Y-70128427D01*
X139206719Y-70075624D01*
X139120182Y-70025662D01*
X139099784Y-70020196D01*
X139081153Y-70015203D01*
X139081152Y-70015203D01*
X139023665Y-69999799D01*
X139023662Y-69999799D01*
X138923738Y-69999799D01*
X138916020Y-69999799D01*
X138916004Y-69999800D01*
X138312108Y-69999800D01*
X138282192Y-69991016D01*
X138251723Y-69984388D01*
X138246627Y-69980573D01*
X138243987Y-69979798D01*
X138223013Y-69962895D01*
X138146659Y-69886541D01*
X138112633Y-69824229D01*
X138117698Y-69753414D01*
X138146657Y-69708353D01*
X138551042Y-69303968D01*
X138551052Y-69303961D01*
X138632070Y-69222943D01*
X138632076Y-69222937D01*
X138682038Y-69136400D01*
X138687503Y-69116002D01*
X138707901Y-69039880D01*
X138707901Y-68939956D01*
X138707900Y-68939952D01*
X138707900Y-67987384D01*
X138727902Y-67919263D01*
X138744799Y-67898294D01*
X139135649Y-67507444D01*
X139197958Y-67473422D01*
X139268773Y-67478486D01*
X139287741Y-67487423D01*
X139384366Y-67543210D01*
X139384368Y-67543210D01*
X139384371Y-67543212D01*
X139525399Y-67581000D01*
X139525401Y-67581000D01*
X139671399Y-67581000D01*
X139671401Y-67581000D01*
X139812429Y-67543212D01*
X139812432Y-67543210D01*
X139812433Y-67543210D01*
X139933309Y-67473422D01*
X139938871Y-67470211D01*
X140042111Y-67366971D01*
X140115112Y-67240529D01*
X140152900Y-67099501D01*
X140152900Y-66953499D01*
X140115112Y-66812471D01*
X140115110Y-66812468D01*
X140115110Y-66812466D01*
X140042113Y-66686032D01*
X140042105Y-66686022D01*
X139938877Y-66582794D01*
X139938867Y-66582786D01*
X139812433Y-66509789D01*
X139795772Y-66505324D01*
X139671401Y-66472000D01*
X139525399Y-66472000D01*
X139439086Y-66495127D01*
X139384366Y-66509789D01*
X139257932Y-66582786D01*
X139257922Y-66582794D01*
X139252622Y-66588095D01*
X139190310Y-66622121D01*
X139163527Y-66625000D01*
X136778319Y-66625000D01*
X136779009Y-66630238D01*
X136768069Y-66700386D01*
X136720940Y-66753484D01*
X136686700Y-66768388D01*
X136641168Y-66780588D01*
X136514732Y-66853586D01*
X136514722Y-66853594D01*
X136411494Y-66956822D01*
X136411486Y-66956832D01*
X136338489Y-67083266D01*
X136322243Y-67143899D01*
X136300700Y-67224299D01*
X136300700Y-67370301D01*
X136328331Y-67473422D01*
X136338489Y-67511333D01*
X136411486Y-67637767D01*
X136411488Y-67637770D01*
X136411489Y-67637771D01*
X136438795Y-67665077D01*
X136472820Y-67727387D01*
X136475700Y-67754172D01*
X136475700Y-68065680D01*
X136455698Y-68133801D01*
X136402042Y-68180294D01*
X136331768Y-68190398D01*
X136301482Y-68182089D01*
X136233316Y-68153854D01*
X136233311Y-68153852D01*
X136106865Y-68128700D01*
X136106863Y-68128700D01*
X135977937Y-68128700D01*
X135977934Y-68128700D01*
X135851488Y-68153852D01*
X135851483Y-68153854D01*
X135732378Y-68203189D01*
X135625180Y-68274816D01*
X135625174Y-68274821D01*
X135534021Y-68365974D01*
X135534016Y-68365980D01*
X135462389Y-68473178D01*
X135413054Y-68592283D01*
X135413052Y-68592288D01*
X135407320Y-68621104D01*
X135403362Y-68641007D01*
X135395470Y-68680682D01*
X135362562Y-68743591D01*
X135300867Y-68778723D01*
X135271891Y-68782100D01*
X134857116Y-68782100D01*
X134788995Y-68762098D01*
X134742502Y-68708442D01*
X134732398Y-68638168D01*
X134743918Y-68600762D01*
X134757507Y-68572966D01*
X134767900Y-68501633D01*
X134767899Y-68056968D01*
X134757507Y-67985634D01*
X134732849Y-67935194D01*
X134699128Y-67866216D01*
X134701024Y-67865288D01*
X134698519Y-67858081D01*
X134687104Y-67840318D01*
X134683402Y-67814571D01*
X134682150Y-67810968D01*
X134682000Y-67804820D01*
X134682000Y-67754172D01*
X134702002Y-67686051D01*
X134718901Y-67665080D01*
X134746211Y-67637771D01*
X134793180Y-67556418D01*
X134819210Y-67511333D01*
X134819210Y-67511332D01*
X134819212Y-67511329D01*
X134857000Y-67370301D01*
X134857000Y-67224299D01*
X134819212Y-67083271D01*
X134819210Y-67083268D01*
X134819210Y-67083266D01*
X134746213Y-66956832D01*
X134746205Y-66956822D01*
X134642977Y-66853594D01*
X134642967Y-66853586D01*
X134516533Y-66780589D01*
X134490427Y-66773594D01*
X134375501Y-66742800D01*
X134229499Y-66742800D01*
X134167043Y-66759535D01*
X134088466Y-66780589D01*
X133962032Y-66853586D01*
X133962022Y-66853594D01*
X133858794Y-66956822D01*
X133858786Y-66956832D01*
X133785789Y-67083266D01*
X133769543Y-67143899D01*
X133748000Y-67224299D01*
X133748000Y-67370301D01*
X133775631Y-67473422D01*
X133785789Y-67511333D01*
X133858786Y-67637767D01*
X133858788Y-67637770D01*
X133858789Y-67637771D01*
X133886095Y-67665077D01*
X133901040Y-67692446D01*
X133917896Y-67718674D01*
X133918801Y-67724972D01*
X133920120Y-67727387D01*
X133923000Y-67754172D01*
X133923000Y-67773492D01*
X133902998Y-67841613D01*
X133886095Y-67862587D01*
X133873088Y-67875593D01*
X133873085Y-67875596D01*
X133819293Y-67985632D01*
X133808900Y-68056965D01*
X133808900Y-68501630D01*
X133814753Y-68541800D01*
X133819293Y-68572966D01*
X133832882Y-68600762D01*
X133876459Y-68689902D01*
X133888407Y-68759886D01*
X133860622Y-68825220D01*
X133826262Y-68854359D01*
X133776831Y-68882898D01*
X133776827Y-68882901D01*
X133308194Y-69351534D01*
X133245882Y-69385559D01*
X133175066Y-69380494D01*
X133118231Y-69337947D01*
X133093420Y-69271427D01*
X133108512Y-69202053D01*
X133111859Y-69196291D01*
X133189890Y-69069782D01*
X133243330Y-68908510D01*
X133243331Y-68908506D01*
X133253499Y-68808981D01*
X133253500Y-68808981D01*
X133253500Y-68795800D01*
X132396500Y-68795800D01*
X132328379Y-68775798D01*
X132281886Y-68722142D01*
X132270500Y-68669800D01*
X132270500Y-68541800D01*
X132142500Y-68541800D01*
X132074379Y-68521798D01*
X132027886Y-68468142D01*
X132016500Y-68415800D01*
X132016500Y-68287800D01*
X132524500Y-68287800D01*
X133253499Y-68287800D01*
X133253499Y-68274626D01*
X133243331Y-68175091D01*
X133189892Y-68013821D01*
X133100704Y-67869225D01*
X133100699Y-67869219D01*
X132980580Y-67749100D01*
X132980574Y-67749095D01*
X132835979Y-67659907D01*
X132674710Y-67606469D01*
X132674706Y-67606468D01*
X132575181Y-67596300D01*
X132524500Y-67596300D01*
X132524500Y-68287800D01*
X132016500Y-68287800D01*
X132016500Y-67596300D01*
X132016499Y-67596299D01*
X131965827Y-67596300D01*
X131866291Y-67606468D01*
X131705021Y-67659907D01*
X131560425Y-67749095D01*
X131560419Y-67749100D01*
X131558039Y-67751481D01*
X131556001Y-67752593D01*
X131554668Y-67753648D01*
X131554487Y-67753420D01*
X131495727Y-67785507D01*
X131424912Y-67780442D01*
X131368076Y-67737895D01*
X131343265Y-67671375D01*
X131342944Y-67662386D01*
X131342944Y-67240898D01*
X131362946Y-67172777D01*
X131416602Y-67126284D01*
X131486876Y-67116180D01*
X131488807Y-67116576D01*
X131613555Y-67132999D01*
X132090900Y-67132999D01*
X132490900Y-67132999D01*
X132968246Y-67132999D01*
X132968254Y-67132998D01*
X133087118Y-67117349D01*
X133087119Y-67117349D01*
X133235021Y-67056087D01*
X133235029Y-67056082D01*
X133362030Y-66958630D01*
X133459482Y-66831629D01*
X133459487Y-66831621D01*
X133520750Y-66683718D01*
X133528481Y-66625000D01*
X132490900Y-66625000D01*
X132490900Y-67132999D01*
X132090900Y-67132999D01*
X132090900Y-66551000D01*
X132110902Y-66482879D01*
X132164558Y-66436386D01*
X132216900Y-66425000D01*
X132290900Y-66425000D01*
X132290900Y-66355500D01*
X132310902Y-66287379D01*
X132364558Y-66240886D01*
X132416900Y-66229500D01*
X132962040Y-66229500D01*
X132962046Y-66229500D01*
X132983900Y-66226316D01*
X133002065Y-66225000D01*
X133528479Y-66225000D01*
X133520750Y-66166281D01*
X133520749Y-66166280D01*
X133459487Y-66018378D01*
X133459482Y-66018370D01*
X133362034Y-65891374D01*
X133362029Y-65891370D01*
X133332193Y-65868474D01*
X133330036Y-65865519D01*
X133326703Y-65864011D01*
X133309256Y-65837059D01*
X133290327Y-65811134D01*
X133289525Y-65806580D01*
X133288122Y-65804412D01*
X133283244Y-65770882D01*
X133282901Y-65768930D01*
X133282900Y-65768514D01*
X133282900Y-65641354D01*
X133282469Y-65638400D01*
X133282445Y-65630916D01*
X133291168Y-65600840D01*
X133297801Y-65570216D01*
X133300972Y-65567039D01*
X133302222Y-65562730D01*
X133325829Y-65542137D01*
X133347958Y-65519968D01*
X133352605Y-65518779D01*
X133355723Y-65516060D01*
X133373427Y-65513454D01*
X133408444Y-65504500D01*
X134409770Y-65504500D01*
X134477891Y-65524502D01*
X134518889Y-65567500D01*
X134560895Y-65640258D01*
X134560903Y-65640268D01*
X134664131Y-65743496D01*
X134664136Y-65743500D01*
X134664138Y-65743502D01*
X134664139Y-65743503D01*
X134664141Y-65743504D01*
X134790575Y-65816501D01*
X134790577Y-65816501D01*
X134790580Y-65816503D01*
X134931608Y-65854291D01*
X134931610Y-65854291D01*
X135077608Y-65854291D01*
X135077610Y-65854291D01*
X135218638Y-65816503D01*
X135218641Y-65816501D01*
X135218642Y-65816501D01*
X135301758Y-65768514D01*
X135345080Y-65743502D01*
X135448320Y-65640262D01*
X135506206Y-65540000D01*
X135521319Y-65513824D01*
X135521319Y-65513823D01*
X135521321Y-65513820D01*
X135559109Y-65372792D01*
X135559109Y-65226790D01*
X135521321Y-65085762D01*
X135521319Y-65085759D01*
X135521319Y-65085757D01*
X135448322Y-64959323D01*
X135448314Y-64959313D01*
X135345086Y-64856085D01*
X135345076Y-64856077D01*
X135218642Y-64783080D01*
X135201981Y-64778615D01*
X135077610Y-64745291D01*
X134931608Y-64745291D01*
X134931607Y-64745291D01*
X134923419Y-64746369D01*
X134923291Y-64745398D01*
X134903040Y-64747873D01*
X134887605Y-64747595D01*
X134879780Y-64745499D01*
X134779856Y-64745499D01*
X134779852Y-64745500D01*
X134634785Y-64745500D01*
X134566664Y-64725498D01*
X134520171Y-64671842D01*
X134510067Y-64601568D01*
X134539561Y-64536988D01*
X134545675Y-64530419D01*
X135352046Y-63724048D01*
X135352055Y-63724042D01*
X135433071Y-63643026D01*
X135433077Y-63643020D01*
X135467717Y-63583022D01*
X135483038Y-63556485D01*
X135483039Y-63556483D01*
X135491016Y-63526712D01*
X135508902Y-63459963D01*
X135508902Y-63360039D01*
X135508901Y-63360035D01*
X135508901Y-61885126D01*
X135508902Y-61885113D01*
X135508902Y-61775039D01*
X135508901Y-61775035D01*
X135484911Y-61685505D01*
X135483039Y-61678519D01*
X135444124Y-61611116D01*
X135433079Y-61591985D01*
X135433071Y-61591975D01*
X135358031Y-61516935D01*
X135358008Y-61516914D01*
X135109805Y-61268711D01*
X135075779Y-61206399D01*
X135072900Y-61179616D01*
X135072900Y-61141000D01*
X135071662Y-61136379D01*
X135035112Y-60999971D01*
X135035110Y-60999968D01*
X135035110Y-60999966D01*
X134962113Y-60873532D01*
X134962105Y-60873522D01*
X134858877Y-60770294D01*
X134858867Y-60770286D01*
X134732433Y-60697289D01*
X134710357Y-60691374D01*
X134591401Y-60659500D01*
X134445399Y-60659500D01*
X134359086Y-60682627D01*
X134304366Y-60697289D01*
X134177932Y-60770286D01*
X134177922Y-60770294D01*
X134074694Y-60873522D01*
X134074686Y-60873532D01*
X134001689Y-60999966D01*
X133980562Y-61078813D01*
X133963900Y-61140999D01*
X133963900Y-61287001D01*
X133991529Y-61390116D01*
X134001689Y-61428033D01*
X134074686Y-61554467D01*
X134074694Y-61554477D01*
X134177922Y-61657705D01*
X134177927Y-61657709D01*
X134177929Y-61657711D01*
X134177930Y-61657712D01*
X134177932Y-61657713D01*
X134304366Y-61730710D01*
X134304368Y-61730710D01*
X134304371Y-61730712D01*
X134445399Y-61768500D01*
X134484016Y-61768500D01*
X134513931Y-61777283D01*
X134544401Y-61783912D01*
X134549496Y-61787726D01*
X134552137Y-61788502D01*
X134573111Y-61805405D01*
X134712996Y-61945290D01*
X134747022Y-62007602D01*
X134749901Y-62034385D01*
X134749901Y-62337514D01*
X134729899Y-62405635D01*
X134676243Y-62452128D01*
X134605969Y-62462232D01*
X134591295Y-62459222D01*
X134577403Y-62455500D01*
X134577401Y-62455500D01*
X134431399Y-62455500D01*
X134307027Y-62488824D01*
X134290367Y-62493289D01*
X134245899Y-62518963D01*
X134176904Y-62535700D01*
X134109812Y-62512479D01*
X134065925Y-62456672D01*
X134058683Y-62419095D01*
X134057978Y-62419188D01*
X134056900Y-62411001D01*
X134056900Y-62410999D01*
X134019112Y-62269971D01*
X134019110Y-62269968D01*
X134019110Y-62269966D01*
X133946113Y-62143532D01*
X133946105Y-62143522D01*
X133842877Y-62040294D01*
X133842867Y-62040286D01*
X133716433Y-61967289D01*
X133697989Y-61962347D01*
X133575401Y-61929500D01*
X133429399Y-61929500D01*
X133425341Y-61930034D01*
X133421918Y-61929500D01*
X133421141Y-61929500D01*
X133421141Y-61929378D01*
X133355192Y-61919091D01*
X133302096Y-61871961D01*
X133282900Y-61805111D01*
X133282900Y-61741360D01*
X133282900Y-61741354D01*
X133272861Y-61672450D01*
X133240051Y-61605337D01*
X133228103Y-61535356D01*
X133240050Y-61494664D01*
X133272861Y-61427550D01*
X133282900Y-61358646D01*
X133282900Y-61231484D01*
X133302902Y-61163363D01*
X133332198Y-61131520D01*
X133362031Y-61108628D01*
X133459482Y-60981629D01*
X133459487Y-60981621D01*
X133520750Y-60833718D01*
X133528481Y-60775000D01*
X133002065Y-60775000D01*
X132983900Y-60773684D01*
X132962049Y-60770500D01*
X132962046Y-60770500D01*
X131619754Y-60770500D01*
X131619750Y-60770500D01*
X131597900Y-60773684D01*
X131579735Y-60775000D01*
X131053320Y-60775000D01*
X131056141Y-60796430D01*
X131045201Y-60866579D01*
X131017597Y-60904607D01*
X131006916Y-60914664D01*
X130995381Y-60921324D01*
X130924724Y-60991981D01*
X130924722Y-60991983D01*
X130923394Y-60993310D01*
X130923377Y-60993327D01*
X130600856Y-61315849D01*
X130280417Y-61636288D01*
X130280415Y-61636290D01*
X130259000Y-61657705D01*
X130209759Y-61706945D01*
X130209755Y-61706950D01*
X130181575Y-61755761D01*
X130163189Y-61773292D01*
X130147965Y-61793629D01*
X130137938Y-61797368D01*
X130130193Y-61804754D01*
X130105248Y-61809561D01*
X130081445Y-61818440D01*
X130070986Y-61816164D01*
X130060479Y-61818190D01*
X130036896Y-61808749D01*
X130012071Y-61803349D01*
X129999041Y-61793594D01*
X129994568Y-61791804D01*
X129983361Y-61781856D01*
X129957805Y-61756300D01*
X129923779Y-61693988D01*
X129920900Y-61667205D01*
X129920900Y-60374999D01*
X131053319Y-60374999D01*
X131053319Y-60375000D01*
X132090900Y-60375000D01*
X132490900Y-60375000D01*
X133528479Y-60375000D01*
X133520750Y-60316281D01*
X133520749Y-60316280D01*
X133459487Y-60168378D01*
X133459482Y-60168370D01*
X133362030Y-60041369D01*
X133235029Y-59943917D01*
X133235021Y-59943912D01*
X133087118Y-59882649D01*
X132968249Y-59867000D01*
X132490900Y-59867000D01*
X132490900Y-60375000D01*
X132090900Y-60375000D01*
X132090900Y-59867000D01*
X132060998Y-59867000D01*
X131992877Y-59846998D01*
X131946384Y-59793342D01*
X131936280Y-59723068D01*
X131953757Y-59674854D01*
X131976656Y-59637727D01*
X132032393Y-59469521D01*
X132032394Y-59469518D01*
X132042999Y-59365716D01*
X132043000Y-59365716D01*
X132043000Y-59319200D01*
X134031207Y-59319200D01*
X134077518Y-59478601D01*
X134162148Y-59621701D01*
X134162149Y-59621703D01*
X134279696Y-59739250D01*
X134279698Y-59739251D01*
X134422798Y-59823881D01*
X134582451Y-59870265D01*
X134582449Y-59870265D01*
X134619743Y-59873199D01*
X134944700Y-59873199D01*
X134944700Y-59319200D01*
X134031207Y-59319200D01*
X132043000Y-59319200D01*
X131064000Y-59319200D01*
X131064000Y-60073201D01*
X131073578Y-60082779D01*
X131107604Y-60145091D01*
X131102539Y-60215906D01*
X131100892Y-60220091D01*
X131061050Y-60316278D01*
X131061049Y-60316281D01*
X131053319Y-60374999D01*
X129920900Y-60374999D01*
X129920900Y-60151002D01*
X129940902Y-60082881D01*
X129994558Y-60036388D01*
X130064832Y-60026284D01*
X130086533Y-60031398D01*
X130180669Y-60062592D01*
X130180681Y-60062594D01*
X130284483Y-60073199D01*
X130284483Y-60073200D01*
X130556000Y-60073200D01*
X130556000Y-59319200D01*
X129566406Y-59319200D01*
X129527427Y-59340483D01*
X129456611Y-59335417D01*
X129411551Y-59306457D01*
X129051151Y-58946057D01*
X129017125Y-58883745D01*
X129020413Y-58818026D01*
X129039752Y-58758506D01*
X129065703Y-58678638D01*
X129092900Y-58506926D01*
X129092900Y-58333074D01*
X129065703Y-58161362D01*
X129011980Y-57996019D01*
X128933053Y-57841116D01*
X128859360Y-57739687D01*
X128830863Y-57700464D01*
X128707935Y-57577536D01*
X128567287Y-57475349D01*
X128567286Y-57475348D01*
X128567284Y-57475347D01*
X128412381Y-57396420D01*
X128412378Y-57396419D01*
X128412376Y-57396418D01*
X128247042Y-57342698D01*
X128247040Y-57342697D01*
X128247038Y-57342697D01*
X128075326Y-57315500D01*
X127901474Y-57315500D01*
X127729762Y-57342697D01*
X127729760Y-57342697D01*
X127729757Y-57342698D01*
X127564423Y-57396418D01*
X127564417Y-57396421D01*
X127409512Y-57475349D01*
X127268864Y-57577536D01*
X127145936Y-57700464D01*
X127043749Y-57841112D01*
X126964821Y-57996017D01*
X126964818Y-57996023D01*
X126911098Y-58161357D01*
X126911097Y-58161360D01*
X126911097Y-58161362D01*
X126883900Y-58333074D01*
X126883900Y-58506926D01*
X126910894Y-58677357D01*
X126911098Y-58678642D01*
X126960667Y-58831202D01*
X126964820Y-58843981D01*
X127043747Y-58998884D01*
X127043749Y-58998887D01*
X127145936Y-59139535D01*
X127268864Y-59262463D01*
X127346956Y-59319200D01*
X127409516Y-59364653D01*
X127564419Y-59443580D01*
X127729762Y-59497303D01*
X127901474Y-59524500D01*
X127901477Y-59524500D01*
X128075323Y-59524500D01*
X128075326Y-59524500D01*
X128247038Y-59497303D01*
X128386426Y-59452012D01*
X128457393Y-59449985D01*
X128514457Y-59482751D01*
X129124995Y-60093289D01*
X129159021Y-60155601D01*
X129161900Y-60182384D01*
X129161900Y-60308308D01*
X129141898Y-60376429D01*
X129088242Y-60422922D01*
X129017968Y-60433026D01*
X128953388Y-60403532D01*
X128933964Y-60382370D01*
X128919993Y-60363141D01*
X128830865Y-60240467D01*
X128830861Y-60240463D01*
X128830859Y-60240460D01*
X128707935Y-60117536D01*
X128567287Y-60015349D01*
X128567286Y-60015348D01*
X128567284Y-60015347D01*
X128412381Y-59936420D01*
X128412378Y-59936419D01*
X128412376Y-59936418D01*
X128247042Y-59882698D01*
X128247040Y-59882697D01*
X128247038Y-59882697D01*
X128075326Y-59855500D01*
X127901474Y-59855500D01*
X127729762Y-59882697D01*
X127729760Y-59882697D01*
X127729757Y-59882698D01*
X127564423Y-59936418D01*
X127564417Y-59936421D01*
X127409512Y-60015349D01*
X127268864Y-60117536D01*
X127145936Y-60240464D01*
X127043748Y-60381113D01*
X126964741Y-60536174D01*
X126915992Y-60587789D01*
X126847078Y-60604855D01*
X126779876Y-60581954D01*
X126735724Y-60526356D01*
X126732641Y-60517908D01*
X126706907Y-60438709D01*
X126706906Y-60438707D01*
X126609863Y-60248249D01*
X126484222Y-60075320D01*
X126333079Y-59924177D01*
X126160150Y-59798536D01*
X125969692Y-59701493D01*
X125969689Y-59701492D01*
X125890491Y-59675758D01*
X125831885Y-59635684D01*
X125804249Y-59570287D01*
X125816356Y-59500330D01*
X125864363Y-59448024D01*
X125872226Y-59443658D01*
X125872375Y-59443581D01*
X125872381Y-59443580D01*
X126027284Y-59364653D01*
X126167933Y-59262465D01*
X126290865Y-59139533D01*
X126393053Y-58998884D01*
X126471980Y-58843981D01*
X126525703Y-58678638D01*
X126552900Y-58506926D01*
X126552900Y-58333074D01*
X126525703Y-58161362D01*
X126471980Y-57996019D01*
X126393053Y-57841116D01*
X126319360Y-57739687D01*
X126290863Y-57700464D01*
X126167935Y-57577536D01*
X126027287Y-57475349D01*
X126027286Y-57475348D01*
X126027284Y-57475347D01*
X125872381Y-57396420D01*
X125872378Y-57396419D01*
X125872376Y-57396418D01*
X125707042Y-57342698D01*
X125707040Y-57342697D01*
X125707038Y-57342697D01*
X125535326Y-57315500D01*
X125361474Y-57315500D01*
X125189762Y-57342697D01*
X125189760Y-57342697D01*
X125189757Y-57342698D01*
X125024423Y-57396418D01*
X125024417Y-57396421D01*
X124869512Y-57475349D01*
X124728864Y-57577536D01*
X124728861Y-57577539D01*
X124619995Y-57686406D01*
X124557683Y-57720432D01*
X124486868Y-57715367D01*
X124430032Y-57672820D01*
X124405221Y-57606300D01*
X124404900Y-57597311D01*
X124404900Y-56702689D01*
X124424902Y-56634568D01*
X124478558Y-56588075D01*
X124548832Y-56577971D01*
X124613412Y-56607465D01*
X124619995Y-56613594D01*
X124728864Y-56722463D01*
X124773742Y-56755069D01*
X124869516Y-56824653D01*
X125024419Y-56903580D01*
X125189762Y-56957303D01*
X125361474Y-56984500D01*
X125361477Y-56984500D01*
X125535323Y-56984500D01*
X125535326Y-56984500D01*
X125707038Y-56957303D01*
X125872381Y-56903580D01*
X126027284Y-56824653D01*
X126167933Y-56722465D01*
X126290865Y-56599533D01*
X126393053Y-56458884D01*
X126471980Y-56303981D01*
X126525703Y-56138638D01*
X126552900Y-55966926D01*
X126552900Y-55793074D01*
X126525703Y-55621362D01*
X126471980Y-55456019D01*
X126393053Y-55301116D01*
X126290865Y-55160467D01*
X126290863Y-55160464D01*
X126255994Y-55125595D01*
X126221968Y-55063283D01*
X126227033Y-54992468D01*
X126269580Y-54935632D01*
X126336100Y-54910821D01*
X126345089Y-54910500D01*
X126757900Y-54910500D01*
X126826021Y-54930502D01*
G37*
G04 #@! TD.AperFunction*
G04 #@! TA.AperFunction,Conductor*
G36*
X150012400Y-69379297D02*
G01*
X149951393Y-69344075D01*
X149824226Y-69310000D01*
X149692574Y-69310000D01*
X149565407Y-69344075D01*
X149504400Y-69379297D01*
X149504400Y-67700702D01*
X149565407Y-67735925D01*
X149692574Y-67770000D01*
X149824226Y-67770000D01*
X149951393Y-67735925D01*
X150012400Y-67700702D01*
X150012400Y-69379297D01*
G37*
G04 #@! TD.AperFunction*
G04 #@! TA.AperFunction,Conductor*
G36*
X150012400Y-66839297D02*
G01*
X149951393Y-66804075D01*
X149824226Y-66770000D01*
X149692574Y-66770000D01*
X149565407Y-66804075D01*
X149504400Y-66839297D01*
X149504400Y-65160702D01*
X149565407Y-65195925D01*
X149692574Y-65230000D01*
X149824226Y-65230000D01*
X149951393Y-65195925D01*
X150012400Y-65160702D01*
X150012400Y-66839297D01*
G37*
G04 #@! TD.AperFunction*
G04 #@! TA.AperFunction,Conductor*
G36*
X146163064Y-62589502D02*
G01*
X146207209Y-62638296D01*
X146273099Y-62767613D01*
X146273749Y-62768887D01*
X146375936Y-62909535D01*
X146498864Y-63032463D01*
X146514688Y-63043960D01*
X146639516Y-63134653D01*
X146794419Y-63213580D01*
X146959762Y-63267303D01*
X147131474Y-63294500D01*
X147131477Y-63294500D01*
X147305323Y-63294500D01*
X147305326Y-63294500D01*
X147477038Y-63267303D01*
X147642381Y-63213580D01*
X147797284Y-63134653D01*
X147797288Y-63134649D01*
X147800697Y-63132913D01*
X147870474Y-63119809D01*
X147936258Y-63146509D01*
X147977165Y-63204536D01*
X147983900Y-63245180D01*
X147983900Y-63674819D01*
X147963898Y-63742940D01*
X147910242Y-63789433D01*
X147839968Y-63799537D01*
X147800697Y-63787086D01*
X147744872Y-63758642D01*
X147642381Y-63706420D01*
X147642378Y-63706419D01*
X147642376Y-63706418D01*
X147477042Y-63652698D01*
X147477040Y-63652697D01*
X147477038Y-63652697D01*
X147305326Y-63625500D01*
X147131474Y-63625500D01*
X146959762Y-63652697D01*
X146959760Y-63652697D01*
X146959757Y-63652698D01*
X146794423Y-63706418D01*
X146794417Y-63706421D01*
X146639512Y-63785349D01*
X146498864Y-63887536D01*
X146375936Y-64010464D01*
X146273749Y-64151112D01*
X146194821Y-64306017D01*
X146194818Y-64306023D01*
X146141098Y-64471357D01*
X146141097Y-64471360D01*
X146141097Y-64471362D01*
X146113900Y-64643074D01*
X146113900Y-64816926D01*
X146141097Y-64988638D01*
X146141098Y-64988642D01*
X146175768Y-65095347D01*
X146194820Y-65153981D01*
X146273747Y-65308884D01*
X146273749Y-65308887D01*
X146375936Y-65449535D01*
X146498864Y-65572463D01*
X146558814Y-65616019D01*
X146639516Y-65674653D01*
X146794419Y-65753580D01*
X146959762Y-65807303D01*
X147131474Y-65834500D01*
X147131477Y-65834500D01*
X147305323Y-65834500D01*
X147305326Y-65834500D01*
X147477038Y-65807303D01*
X147642381Y-65753580D01*
X147797284Y-65674653D01*
X147797288Y-65674649D01*
X147800697Y-65672913D01*
X147870474Y-65659809D01*
X147936258Y-65686509D01*
X147977165Y-65744536D01*
X147983900Y-65785180D01*
X147983900Y-66214819D01*
X147963898Y-66282940D01*
X147910242Y-66329433D01*
X147839968Y-66339537D01*
X147800697Y-66327086D01*
X147777797Y-66315418D01*
X147642381Y-66246420D01*
X147642378Y-66246419D01*
X147642376Y-66246418D01*
X147477042Y-66192698D01*
X147477040Y-66192697D01*
X147477038Y-66192697D01*
X147305326Y-66165500D01*
X147131474Y-66165500D01*
X146959762Y-66192697D01*
X146959760Y-66192697D01*
X146959757Y-66192698D01*
X146794423Y-66246418D01*
X146794417Y-66246421D01*
X146639512Y-66325349D01*
X146498866Y-66427535D01*
X146397428Y-66528973D01*
X146335116Y-66562998D01*
X146264300Y-66557932D01*
X146207464Y-66515386D01*
X146189634Y-66482143D01*
X146183901Y-66466042D01*
X146183901Y-66460038D01*
X146158039Y-66363519D01*
X146136000Y-66325347D01*
X146108076Y-66276981D01*
X146108070Y-66276974D01*
X146033030Y-66201934D01*
X146033007Y-66201913D01*
X144080264Y-64249170D01*
X144080252Y-64249156D01*
X144002425Y-64171329D01*
X144002415Y-64171321D01*
X143915880Y-64121361D01*
X143904521Y-64118317D01*
X143904516Y-64118316D01*
X143895484Y-64115896D01*
X143819362Y-64095499D01*
X143719438Y-64095499D01*
X143719434Y-64095500D01*
X140609100Y-64095500D01*
X140540979Y-64075498D01*
X140494486Y-64021842D01*
X140483100Y-63969500D01*
X140483100Y-63850500D01*
X140483100Y-63850499D01*
X140445312Y-63709471D01*
X140445310Y-63709468D01*
X140445310Y-63709466D01*
X140372313Y-63583032D01*
X140372305Y-63583022D01*
X140269077Y-63479794D01*
X140269067Y-63479786D01*
X140145155Y-63408246D01*
X140096162Y-63356864D01*
X140082726Y-63287150D01*
X140086449Y-63266515D01*
X140089399Y-63255503D01*
X140089400Y-63255500D01*
X140089400Y-63109500D01*
X140087222Y-63101371D01*
X140076970Y-63063109D01*
X140078660Y-62992135D01*
X140118454Y-62933339D01*
X140183719Y-62905391D01*
X140198677Y-62904500D01*
X143445844Y-62904500D01*
X143445848Y-62904501D01*
X143545772Y-62904501D01*
X143621894Y-62884103D01*
X143642292Y-62878638D01*
X143728829Y-62828676D01*
X143799486Y-62758019D01*
X143809851Y-62747654D01*
X143809858Y-62747644D01*
X143951100Y-62606404D01*
X144013413Y-62572379D01*
X144040195Y-62569500D01*
X146094943Y-62569500D01*
X146163064Y-62589502D01*
G37*
G04 #@! TD.AperFunction*
G04 #@! TA.AperFunction,Conductor*
G36*
X126908068Y-61327956D02*
G01*
X126960374Y-61375962D01*
X126964741Y-61383825D01*
X126964819Y-61383978D01*
X126964820Y-61383981D01*
X127042200Y-61535847D01*
X127043749Y-61538887D01*
X127145936Y-61679535D01*
X127268864Y-61802463D01*
X127318956Y-61838857D01*
X127409516Y-61904653D01*
X127564419Y-61983580D01*
X127729762Y-62037303D01*
X127901474Y-62064500D01*
X127901477Y-62064500D01*
X128075323Y-62064500D01*
X128075326Y-62064500D01*
X128247038Y-62037303D01*
X128386426Y-61992012D01*
X128457393Y-61989985D01*
X128514457Y-62022751D01*
X129197007Y-62705301D01*
X129231033Y-62767613D01*
X129233912Y-62794396D01*
X129233912Y-62986757D01*
X129213910Y-63054878D01*
X129160254Y-63101371D01*
X129089980Y-63111475D01*
X129025400Y-63081981D01*
X128995645Y-63043960D01*
X128969239Y-62992135D01*
X128933053Y-62921116D01*
X128924638Y-62909533D01*
X128830863Y-62780464D01*
X128707935Y-62657536D01*
X128567287Y-62555349D01*
X128567286Y-62555348D01*
X128567284Y-62555347D01*
X128412381Y-62476420D01*
X128412378Y-62476419D01*
X128412376Y-62476418D01*
X128247042Y-62422698D01*
X128247040Y-62422697D01*
X128247038Y-62422697D01*
X128075326Y-62395500D01*
X127901474Y-62395500D01*
X127729762Y-62422697D01*
X127729760Y-62422697D01*
X127729757Y-62422698D01*
X127564423Y-62476418D01*
X127564417Y-62476421D01*
X127409512Y-62555349D01*
X127268864Y-62657536D01*
X127145936Y-62780464D01*
X127043749Y-62921112D01*
X126964821Y-63076017D01*
X126964818Y-63076023D01*
X126911098Y-63241357D01*
X126911097Y-63241360D01*
X126911097Y-63241362D01*
X126883900Y-63413074D01*
X126883900Y-63586926D01*
X126907669Y-63736995D01*
X126911098Y-63758642D01*
X126951503Y-63882997D01*
X126964820Y-63923981D01*
X127017594Y-64027555D01*
X127043749Y-64078887D01*
X127145936Y-64219535D01*
X127268864Y-64342463D01*
X127268867Y-64342465D01*
X127409516Y-64444653D01*
X127564419Y-64523580D01*
X127564424Y-64523581D01*
X127564574Y-64523658D01*
X127616189Y-64572406D01*
X127633255Y-64641321D01*
X127610354Y-64708523D01*
X127554757Y-64752675D01*
X127546309Y-64755758D01*
X127467107Y-64781493D01*
X127276649Y-64878536D01*
X127103720Y-65004177D01*
X126952577Y-65155320D01*
X126826936Y-65328249D01*
X126729893Y-65518707D01*
X126704158Y-65597909D01*
X126664083Y-65656514D01*
X126598686Y-65684150D01*
X126528730Y-65672042D01*
X126476424Y-65624036D01*
X126472058Y-65616174D01*
X126471981Y-65616024D01*
X126471980Y-65616019D01*
X126393053Y-65461116D01*
X126328880Y-65372790D01*
X126290863Y-65320464D01*
X126167935Y-65197536D01*
X126027287Y-65095349D01*
X126027286Y-65095348D01*
X126027284Y-65095347D01*
X125872381Y-65016420D01*
X125872378Y-65016419D01*
X125872376Y-65016418D01*
X125707042Y-64962698D01*
X125707040Y-64962697D01*
X125707038Y-64962697D01*
X125535326Y-64935500D01*
X125361474Y-64935500D01*
X125189762Y-64962697D01*
X125189760Y-64962697D01*
X125189757Y-64962698D01*
X125024423Y-65016418D01*
X125024417Y-65016421D01*
X124869512Y-65095349D01*
X124728864Y-65197536D01*
X124728861Y-65197539D01*
X124619995Y-65306406D01*
X124557683Y-65340432D01*
X124486868Y-65335367D01*
X124430032Y-65292820D01*
X124405221Y-65226300D01*
X124404900Y-65217311D01*
X124404900Y-64322689D01*
X124424902Y-64254568D01*
X124478558Y-64208075D01*
X124548832Y-64197971D01*
X124613412Y-64227465D01*
X124619995Y-64233594D01*
X124728864Y-64342463D01*
X124728867Y-64342465D01*
X124869516Y-64444653D01*
X125024419Y-64523580D01*
X125189762Y-64577303D01*
X125361474Y-64604500D01*
X125361477Y-64604500D01*
X125535323Y-64604500D01*
X125535326Y-64604500D01*
X125707038Y-64577303D01*
X125872381Y-64523580D01*
X126027284Y-64444653D01*
X126167933Y-64342465D01*
X126290865Y-64219533D01*
X126393053Y-64078884D01*
X126471980Y-63923981D01*
X126525703Y-63758638D01*
X126552900Y-63586926D01*
X126552900Y-63413074D01*
X126525703Y-63241362D01*
X126471980Y-63076019D01*
X126393053Y-62921116D01*
X126325887Y-62828670D01*
X126290863Y-62780464D01*
X126167935Y-62657536D01*
X126027287Y-62555349D01*
X126027286Y-62555348D01*
X126027284Y-62555347D01*
X125872381Y-62476420D01*
X125872378Y-62476419D01*
X125872225Y-62476341D01*
X125820610Y-62427593D01*
X125803544Y-62358678D01*
X125826445Y-62291476D01*
X125882042Y-62247324D01*
X125890492Y-62244241D01*
X125969686Y-62218509D01*
X125969692Y-62218506D01*
X126160150Y-62121463D01*
X126333079Y-61995822D01*
X126484222Y-61844679D01*
X126609863Y-61671750D01*
X126706906Y-61481292D01*
X126706909Y-61481286D01*
X126732641Y-61402092D01*
X126772714Y-61343486D01*
X126838111Y-61315849D01*
X126908068Y-61327956D01*
G37*
G04 #@! TD.AperFunction*
G04 #@! TA.AperFunction,Conductor*
G36*
X150012400Y-64299297D02*
G01*
X149951393Y-64264075D01*
X149824226Y-64230000D01*
X149692574Y-64230000D01*
X149565407Y-64264075D01*
X149504400Y-64299297D01*
X149504400Y-62620702D01*
X149565407Y-62655925D01*
X149692574Y-62690000D01*
X149824226Y-62690000D01*
X149951393Y-62655925D01*
X150012400Y-62620702D01*
X150012400Y-64299297D01*
G37*
G04 #@! TD.AperFunction*
G04 #@! TA.AperFunction,Conductor*
G36*
X145441600Y-60873930D02*
G01*
X145452800Y-60883871D01*
X145892630Y-61323701D01*
X145973050Y-61370131D01*
X146007670Y-61390119D01*
X146135981Y-61424500D01*
X146163219Y-61424500D01*
X146165902Y-61425287D01*
X146168615Y-61424616D01*
X146199755Y-61435228D01*
X146231340Y-61444502D01*
X146233171Y-61446615D01*
X146235817Y-61447517D01*
X146256280Y-61473284D01*
X146277833Y-61498158D01*
X146278230Y-61500925D01*
X146279969Y-61503114D01*
X146283251Y-61535847D01*
X146287937Y-61568432D01*
X146286860Y-61571827D01*
X146287054Y-61573756D01*
X146275486Y-61607703D01*
X146273747Y-61611115D01*
X146273747Y-61611116D01*
X146207385Y-61741360D01*
X146207210Y-61741703D01*
X146158462Y-61793318D01*
X146094943Y-61810500D01*
X144414784Y-61810500D01*
X144346663Y-61790498D01*
X144300170Y-61736842D01*
X144290066Y-61666568D01*
X144319560Y-61601988D01*
X144325689Y-61595405D01*
X144750689Y-61170405D01*
X144813001Y-61136379D01*
X144839784Y-61133500D01*
X144878399Y-61133500D01*
X144878401Y-61133500D01*
X145019429Y-61095712D01*
X145019432Y-61095710D01*
X145019433Y-61095710D01*
X145134112Y-61029500D01*
X145145871Y-61022711D01*
X145249111Y-60919471D01*
X145254594Y-60909973D01*
X145305975Y-60860982D01*
X145375688Y-60847544D01*
X145441600Y-60873930D01*
G37*
G04 #@! TD.AperFunction*
G04 #@! TA.AperFunction,Conductor*
G36*
X150012400Y-61759297D02*
G01*
X149951393Y-61724075D01*
X149824226Y-61690000D01*
X149692574Y-61690000D01*
X149565407Y-61724075D01*
X149504400Y-61759297D01*
X149504400Y-60080702D01*
X149565407Y-60115925D01*
X149692574Y-60150000D01*
X149824226Y-60150000D01*
X149951393Y-60115925D01*
X150012400Y-60080702D01*
X150012400Y-61759297D01*
G37*
G04 #@! TD.AperFunction*
G04 #@! TA.AperFunction,Conductor*
G36*
X146350070Y-58740502D02*
G01*
X146396563Y-58794158D01*
X146406667Y-58864432D01*
X146378664Y-58926331D01*
X146378845Y-58926462D01*
X146378210Y-58927335D01*
X146377760Y-58928331D01*
X146375932Y-58930470D01*
X146273749Y-59071112D01*
X146194821Y-59226017D01*
X146194818Y-59226023D01*
X146141098Y-59391357D01*
X146141097Y-59391360D01*
X146141097Y-59391362D01*
X146113900Y-59563074D01*
X146113900Y-59736926D01*
X146114384Y-59739981D01*
X146124957Y-59806737D01*
X146115857Y-59877148D01*
X146070135Y-59931462D01*
X146002307Y-59952434D01*
X145933907Y-59933407D01*
X145911416Y-59915545D01*
X145348270Y-59352399D01*
X145348268Y-59352398D01*
X145348266Y-59352396D01*
X145275337Y-59310291D01*
X145233232Y-59285982D01*
X145233231Y-59285981D01*
X145233230Y-59285981D01*
X145104919Y-59251600D01*
X145104917Y-59251600D01*
X138335551Y-59251600D01*
X138267430Y-59231598D01*
X138220937Y-59177942D01*
X138211103Y-59145313D01*
X138210669Y-59142576D01*
X138210669Y-59142575D01*
X138153935Y-59031228D01*
X138058560Y-58935853D01*
X138061368Y-58933044D01*
X138029879Y-58892197D01*
X138023813Y-58821460D01*
X138056954Y-58758673D01*
X138118779Y-58723770D01*
X138147300Y-58720500D01*
X146281949Y-58720500D01*
X146350070Y-58740502D01*
G37*
G04 #@! TD.AperFunction*
M02*
